<?xml version="1.0" encoding="UTF-8" standalone="no"?>
<!DOCTYPE svg PUBLIC "-//W3C//DTD SVG 1.1//EN"
 "http://www.w3.org/Graphics/SVG/1.1/DTD/svg11.dtd">
<!-- Generated by graphviz version 2.43.0 (0)
 -->
<!-- Title: dependency&#45;cruiser output Pages: 1 -->
<svg width="808pt" height="381pt"
 viewBox="0.00 0.00 808.00 381.01" xmlns="http://www.w3.org/2000/svg" xmlns:xlink="http://www.w3.org/1999/xlink">
<g id="graph0" class="graph" transform="scale(1 1) rotate(0) translate(4 377.01)">
<title>dependency&#45;cruiser output</title>
<polygon fill="white" stroke="transparent" points="-4,4 -4,-377.01 804,-377.01 804,4 -4,4"/>
<g id="clust1" class="cluster">
<title>cluster_lib</title>
<path fill="#ffffff" stroke="black" stroke-width="2" d="M74,-33.01C74,-33.01 780,-33.01 780,-33.01 786,-33.01 792,-39.01 792,-45.01 792,-45.01 792,-353.01 792,-353.01 792,-359.01 786,-365.01 780,-365.01 780,-365.01 74,-365.01 74,-365.01 68,-365.01 62,-359.01 62,-353.01 62,-353.01 62,-45.01 62,-45.01 62,-39.01 68,-33.01 74,-33.01"/>
<text text-anchor="middle" x="427" y="-353.81" font-family="Helvetica,sans-Serif" font-weight="bold" font-size="9.00">lib</text>
</g>
<g id="clust2" class="cluster">
<title>cluster_lib/acme&#45;requests</title>
<path fill="#ffffff" stroke="black" stroke-width="2" d="M422,-51.01C422,-51.01 608,-51.01 608,-51.01 614,-51.01 620,-57.01 620,-63.01 620,-63.01 620,-271.01 620,-271.01 620,-277.01 614,-283.01 608,-283.01 608,-283.01 422,-283.01 422,-283.01 416,-283.01 410,-277.01 410,-271.01 410,-271.01 410,-63.01 410,-63.01 410,-57.01 416,-51.01 422,-51.01"/>
<text text-anchor="middle" x="515" y="-271.81" font-family="Helvetica,sans-Serif" font-weight="bold" font-size="9.00">acme&#45;requests</text>
</g>
<g id="clust3" class="cluster">
<title>cluster_lib/identities</title>
<path fill="#ffffff" stroke="black" stroke-width="2" d="M292,-249.01C292,-249.01 390,-249.01 390,-249.01 396,-249.01 402,-255.01 402,-261.01 402,-261.01 402,-319.01 402,-319.01 402,-325.01 396,-331.01 390,-331.01 390,-331.01 292,-331.01 292,-331.01 286,-331.01 280,-325.01 280,-319.01 280,-319.01 280,-261.01 280,-261.01 280,-255.01 286,-249.01 292,-249.01"/>
<text text-anchor="middle" x="341" y="-319.81" font-family="Helvetica,sans-Serif" font-weight="bold" font-size="9.00">identities</text>
</g>
<g id="clust4" class="cluster">
<title>cluster_lib/staging</title>
<path fill="#ffffff" stroke="black" stroke-width="2" d="M82,-175.01C82,-175.01 174,-175.01 174,-175.01 180,-175.01 186,-181.01 186,-187.01 186,-187.01 186,-215.01 186,-215.01 186,-221.01 180,-227.01 174,-227.01 174,-227.01 82,-227.01 82,-227.01 76,-227.01 70,-221.01 70,-215.01 70,-215.01 70,-187.01 70,-187.01 70,-181.01 76,-175.01 82,-175.01"/>
<text text-anchor="middle" x="128" y="-215.81" font-family="Helvetica,sans-Serif" font-weight="bold" font-size="9.00">staging</text>
</g>
<g id="clust5" class="cluster">
<title>cluster_lib/x.509</title>
<path fill="#ffffff" stroke="black" stroke-width="2" d="M206,-218.01C206,-218.01 260,-218.01 260,-218.01 266,-218.01 272,-224.01 272,-230.01 272,-230.01 272,-258.01 272,-258.01 272,-264.01 266,-270.01 260,-270.01 260,-270.01 206,-270.01 206,-270.01 200,-270.01 194,-264.01 194,-258.01 194,-258.01 194,-230.01 194,-230.01 194,-224.01 200,-218.01 206,-218.01"/>
<text text-anchor="middle" x="233" y="-258.81" font-family="Helvetica,sans-Serif" font-weight="bold" font-size="9.00">x.509</text>
</g>
<!-- index.js -->
<g id="node1" class="node">
<title>index.js</title>
<g id="a_node1"><a xlink:href="index.js" xlink:title="index.js">
<path fill="#ffffcc" stroke="black" d="M48,-137.01C48,-137.01 6,-137.01 6,-137.01 3,-137.01 0,-134.01 0,-131.01 0,-131.01 0,-125.01 0,-125.01 0,-122.01 3,-119.01 6,-119.01 6,-119.01 48,-119.01 48,-119.01 51,-119.01 54,-122.01 54,-125.01 54,-125.01 54,-131.01 54,-131.01 54,-134.01 51,-137.01 48,-137.01"/>
<text text-anchor="middle" x="27" y="-125.81" font-family="Helvetica,sans-Serif" font-size="9.00">index.js</text>
</a>
</g>
</g>
<!-- lib/Certificate.js -->
<g id="node2" class="node">
<title>lib/Certificate.js</title>
<g id="a_node2"><a xlink:href="lib/Certificate.js" xlink:title="Certificate.js">
<path fill="#ffffcc" stroke="black" d="M158,-167.01C158,-167.01 98,-167.01 98,-167.01 95,-167.01 92,-164.01 92,-161.01 92,-161.01 92,-155.01 92,-155.01 92,-152.01 95,-149.01 98,-149.01 98,-149.01 158,-149.01 158,-149.01 161,-149.01 164,-152.01 164,-155.01 164,-155.01 164,-161.01 164,-161.01 164,-164.01 161,-167.01 158,-167.01"/>
<text text-anchor="middle" x="128" y="-155.81" font-family="Helvetica,sans-Serif" font-size="9.00">Certificate.js</text>
</a>
</g>
</g>
<!-- index.js&#45;&gt;lib/Certificate.js -->
<g id="edge1" class="edge">
<title>index.js&#45;&gt;lib/Certificate.js</title>
<path fill="none" stroke="#000000" stroke-width="2" stroke-opacity="0.200000" d="M46.81,-137.07C51.69,-139.2 56.98,-141.34 62,-143.01 69.62,-145.55 77.88,-147.81 85.87,-149.76"/>
<polygon fill="#000000" fill-opacity="0.200000" stroke="#000000" stroke-width="2" stroke-opacity="0.200000" points="85.6,-151.85 91.92,-151.19 86.56,-147.76 85.6,-151.85"/>
</g>
<!-- lib/Configuration.js -->
<g id="node3" class="node">
<title>lib/Configuration.js</title>
<g id="a_node3"><a xlink:href="lib/Configuration.js" xlink:title="Configuration.js">
<path fill="#ffffcc" stroke="black" d="M165.5,-137.01C165.5,-137.01 90.5,-137.01 90.5,-137.01 87.5,-137.01 84.5,-134.01 84.5,-131.01 84.5,-131.01 84.5,-125.01 84.5,-125.01 84.5,-122.01 87.5,-119.01 90.5,-119.01 90.5,-119.01 165.5,-119.01 165.5,-119.01 168.5,-119.01 171.5,-122.01 171.5,-125.01 171.5,-125.01 171.5,-131.01 171.5,-131.01 171.5,-134.01 168.5,-137.01 165.5,-137.01"/>
<text text-anchor="middle" x="128" y="-125.81" font-family="Helvetica,sans-Serif" font-size="9.00">Configuration.js</text>
</a>
</g>
</g>
<!-- index.js&#45;&gt;lib/Configuration.js -->
<g id="edge2" class="edge">
<title>index.js&#45;&gt;lib/Configuration.js</title>
<path fill="none" stroke="#000000" stroke-width="2" stroke-opacity="0.200000" d="M54.01,-128.01C61.41,-128.01 69.71,-128.01 78,-128.01"/>
<polygon fill="#000000" fill-opacity="0.200000" stroke="#000000" stroke-width="2" stroke-opacity="0.200000" points="78.32,-130.11 84.32,-128.01 78.32,-125.91 78.32,-130.11"/>
</g>
<!-- lib/HttpServer.js -->
<g id="node4" class="node">
<title>lib/HttpServer.js</title>
<g id="a_node4"><a xlink:href="lib/HttpServer.js" xlink:title="HttpServer.js">
<path fill="#ffffcc" stroke="black" d="M546,-309.01C546,-309.01 484,-309.01 484,-309.01 481,-309.01 478,-306.01 478,-303.01 478,-303.01 478,-297.01 478,-297.01 478,-294.01 481,-291.01 484,-291.01 484,-291.01 546,-291.01 546,-291.01 549,-291.01 552,-294.01 552,-297.01 552,-297.01 552,-303.01 552,-303.01 552,-306.01 549,-309.01 546,-309.01"/>
<text text-anchor="middle" x="515" y="-297.81" font-family="Helvetica,sans-Serif" font-size="9.00">HttpServer.js</text>
</a>
</g>
</g>
<!-- index.js&#45;&gt;lib/HttpServer.js -->
<g id="edge3" class="edge">
<title>index.js&#45;&gt;lib/HttpServer.js</title>
<path fill="none" stroke="#000000" stroke-width="2" stroke-opacity="0.200000" d="M32.03,-118.97C37.28,-108.38 47.53,-91.23 62,-83.01 193.71,-8.17 293.01,46.2 402,-59.01 420.16,-76.54 393.06,-267.31 410,-286.01 425.21,-302.8 450.17,-306.58 471.82,-306.03"/>
<polygon fill="#000000" fill-opacity="0.200000" stroke="#000000" stroke-width="2" stroke-opacity="0.200000" points="471.93,-308.13 477.83,-305.77 471.75,-303.93 471.93,-308.13"/>
</g>
<!-- lib/LetsEncryptServer.js -->
<g id="node5" class="node">
<title>lib/LetsEncryptServer.js</title>
<g id="a_node5"><a xlink:href="lib/LetsEncryptServer.js" xlink:title="LetsEncryptServer.js">
<path fill="#ffffcc" stroke="black" d="M176.5,-107.01C176.5,-107.01 79.5,-107.01 79.5,-107.01 76.5,-107.01 73.5,-104.01 73.5,-101.01 73.5,-101.01 73.5,-95.01 73.5,-95.01 73.5,-92.01 76.5,-89.01 79.5,-89.01 79.5,-89.01 176.5,-89.01 176.5,-89.01 179.5,-89.01 182.5,-92.01 182.5,-95.01 182.5,-95.01 182.5,-101.01 182.5,-101.01 182.5,-104.01 179.5,-107.01 176.5,-107.01"/>
<text text-anchor="middle" x="128" y="-95.81" font-family="Helvetica,sans-Serif" font-size="9.00">LetsEncryptServer.js</text>
</a>
</g>
</g>
<!-- index.js&#45;&gt;lib/LetsEncryptServer.js -->
<g id="edge4" class="edge">
<title>index.js&#45;&gt;lib/LetsEncryptServer.js</title>
<path fill="none" stroke="#000000" stroke-width="2" stroke-opacity="0.200000" d="M46.81,-118.96C51.69,-116.82 56.98,-114.68 62,-113.01 66.74,-111.43 71.73,-109.96 76.74,-108.61"/>
<polygon fill="#000000" fill-opacity="0.200000" stroke="#000000" stroke-width="2" stroke-opacity="0.200000" points="77.36,-110.62 82.63,-107.07 76.3,-106.55 77.36,-110.62"/>
</g>
<!-- lib/staging/monkeyPatchTls.js -->
<g id="node6" class="node">
<title>lib/staging/monkeyPatchTls.js</title>
<g id="a_node6"><a xlink:href="lib/staging/monkeyPatchTls.js" xlink:title="monkeyPatchTls.js">
<path fill="#ffffcc" stroke="black" d="M172,-201.01C172,-201.01 84,-201.01 84,-201.01 81,-201.01 78,-198.01 78,-195.01 78,-195.01 78,-189.01 78,-189.01 78,-186.01 81,-183.01 84,-183.01 84,-183.01 172,-183.01 172,-183.01 175,-183.01 178,-186.01 178,-189.01 178,-189.01 178,-195.01 178,-195.01 178,-198.01 175,-201.01 172,-201.01"/>
<text text-anchor="middle" x="128" y="-189.81" font-family="Helvetica,sans-Serif" font-size="9.00">monkeyPatchTls.js</text>
</a>
</g>
</g>
<!-- index.js&#45;&gt;lib/staging/monkeyPatchTls.js -->
<g id="edge5" class="edge">
<title>index.js&#45;&gt;lib/staging/monkeyPatchTls.js</title>
<path fill="none" stroke="#000000" stroke-width="2" stroke-opacity="0.200000" d="M31.5,-137.19C36.44,-148.85 46.62,-168.71 62,-179.01 65.14,-181.11 68.54,-182.89 72.08,-184.39"/>
<polygon fill="#000000" fill-opacity="0.200000" stroke="#000000" stroke-width="2" stroke-opacity="0.200000" points="71.4,-186.38 77.76,-186.52 72.88,-182.44 71.4,-186.38"/>
</g>
<!-- lib/Account.js -->
<g id="node7" class="node">
<title>lib/Account.js</title>
<g id="a_node7"><a xlink:href="lib/Account.js" xlink:title="Account.js">
<path fill="#ffffcc" stroke="black" d="M366.5,-83.01C366.5,-83.01 315.5,-83.01 315.5,-83.01 312.5,-83.01 309.5,-80.01 309.5,-77.01 309.5,-77.01 309.5,-71.01 309.5,-71.01 309.5,-68.01 312.5,-65.01 315.5,-65.01 315.5,-65.01 366.5,-65.01 366.5,-65.01 369.5,-65.01 372.5,-68.01 372.5,-71.01 372.5,-71.01 372.5,-77.01 372.5,-77.01 372.5,-80.01 369.5,-83.01 366.5,-83.01"/>
<text text-anchor="middle" x="341" y="-71.81" font-family="Helvetica,sans-Serif" font-size="9.00">Account.js</text>
</a>
</g>
</g>
<!-- lib/Certificate.js&#45;&gt;lib/Account.js -->
<g id="edge11" class="edge">
<title>lib/Certificate.js&#45;&gt;lib/Account.js</title>
<path fill="none" stroke="#000000" stroke-width="2" stroke-opacity="0.200000" d="M164.27,-153.52C172,-151.29 179.74,-147.96 186,-143.01 191.93,-138.32 188.44,-133.13 194,-128.01 224.63,-99.84 240.79,-104.93 280,-91.01 287.48,-88.36 295.6,-85.83 303.37,-83.57"/>
<polygon fill="#000000" fill-opacity="0.200000" stroke="#000000" stroke-width="2" stroke-opacity="0.200000" points="304.04,-85.56 309.23,-81.9 302.89,-81.52 304.04,-85.56"/>
</g>
<!-- lib/AcmeRequest.js -->
<g id="node9" class="node">
<title>lib/AcmeRequest.js</title>
<g id="a_node9"><a xlink:href="lib/AcmeRequest.js" xlink:title="AcmeRequest.js">
<path fill="#ffffcc" stroke="black" d="M710,-152.01C710,-152.01 634,-152.01 634,-152.01 631,-152.01 628,-149.01 628,-146.01 628,-146.01 628,-140.01 628,-140.01 628,-137.01 631,-134.01 634,-134.01 634,-134.01 710,-134.01 710,-134.01 713,-134.01 716,-137.01 716,-140.01 716,-140.01 716,-146.01 716,-146.01 716,-149.01 713,-152.01 710,-152.01"/>
<text text-anchor="middle" x="672" y="-140.81" font-family="Helvetica,sans-Serif" font-size="9.00">AcmeRequest.js</text>
</a>
</g>
</g>
<!-- lib/Certificate.js&#45;&gt;lib/AcmeRequest.js -->
<g id="edge12" class="edge">
<title>lib/Certificate.js&#45;&gt;lib/AcmeRequest.js</title>
<path fill="none" stroke="#000000" stroke-width="2" stroke-opacity="0.200000" d="M164.12,-155.37C172.33,-153.12 180.32,-149.32 186,-143.01 201.65,-125.63 179.23,-109.14 194,-91.01 255.82,-15.12 312.2,-52.14 410,-48.01 503.25,-44.07 539.9,-0.1 620,-48.01 649.1,-65.42 662.55,-105.75 667.93,-127.85"/>
<polygon fill="#000000" fill-opacity="0.200000" stroke="#000000" stroke-width="2" stroke-opacity="0.200000" points="665.91,-128.44 669.3,-133.82 670.01,-127.51 665.91,-128.44"/>
</g>
<!-- lib/Directory.js -->
<g id="node14" class="node">
<title>lib/Directory.js</title>
<g id="a_node14"><a xlink:href="lib/Directory.js" xlink:title="Directory.js">
<path fill="#ffffcc" stroke="black" d="M260,-152.01C260,-152.01 206,-152.01 206,-152.01 203,-152.01 200,-149.01 200,-146.01 200,-146.01 200,-140.01 200,-140.01 200,-137.01 203,-134.01 206,-134.01 206,-134.01 260,-134.01 260,-134.01 263,-134.01 266,-137.01 266,-140.01 266,-140.01 266,-146.01 266,-146.01 266,-149.01 263,-152.01 260,-152.01"/>
<text text-anchor="middle" x="233" y="-140.81" font-family="Helvetica,sans-Serif" font-size="9.00">Directory.js</text>
</a>
</g>
</g>
<!-- lib/Certificate.js&#45;&gt;lib/Directory.js -->
<g id="edge13" class="edge">
<title>lib/Certificate.js&#45;&gt;lib/Directory.js</title>
<path fill="none" stroke="#000000" stroke-width="2" stroke-opacity="0.200000" d="M164.16,-152.89C173.71,-151.5 184.11,-149.99 193.82,-148.57"/>
<polygon fill="#000000" fill-opacity="0.200000" stroke="#000000" stroke-width="2" stroke-opacity="0.200000" points="194.13,-150.65 199.77,-147.7 193.53,-146.49 194.13,-150.65"/>
</g>
<!-- lib/identities/AccountIdentity.js -->
<g id="node15" class="node">
<title>lib/identities/AccountIdentity.js</title>
<g id="a_node15"><a xlink:href="lib/identities/AccountIdentity.js" xlink:title="AccountIdentity.js">
<path fill="#ffffcc" stroke="black" d="M383.5,-305.01C383.5,-305.01 298.5,-305.01 298.5,-305.01 295.5,-305.01 292.5,-302.01 292.5,-299.01 292.5,-299.01 292.5,-293.01 292.5,-293.01 292.5,-290.01 295.5,-287.01 298.5,-287.01 298.5,-287.01 383.5,-287.01 383.5,-287.01 386.5,-287.01 389.5,-290.01 389.5,-293.01 389.5,-293.01 389.5,-299.01 389.5,-299.01 389.5,-302.01 386.5,-305.01 383.5,-305.01"/>
<text text-anchor="middle" x="341" y="-293.81" font-family="Helvetica,sans-Serif" font-size="9.00">AccountIdentity.js</text>
</a>
</g>
</g>
<!-- lib/Certificate.js&#45;&gt;lib/identities/AccountIdentity.js -->
<g id="edge14" class="edge">
<title>lib/Certificate.js&#45;&gt;lib/identities/AccountIdentity.js</title>
<path fill="none" stroke="#000000" stroke-width="2" stroke-opacity="0.200000" d="M164.16,-160.67C172.17,-162.78 180.06,-166.29 186,-172.01 195.32,-180.99 184.45,-191.27 194,-200.01 220.04,-223.85 247.92,-189.2 272,-215.01 292.16,-236.62 260.45,-258.86 280,-281.01 282.03,-283.31 284.34,-285.27 286.86,-286.96"/>
<polygon fill="#000000" fill-opacity="0.200000" stroke="#000000" stroke-width="2" stroke-opacity="0.200000" points="286.04,-288.91 292.29,-290.05 288.11,-285.26 286.04,-288.91"/>
</g>
<!-- lib/identities/CertificateIdentity.js -->
<g id="node16" class="node">
<title>lib/identities/CertificateIdentity.js</title>
<g id="a_node16"><a xlink:href="lib/identities/CertificateIdentity.js" xlink:title="CertificateIdentity.js">
<path fill="#ffffcc" stroke="black" d="M388,-275.01C388,-275.01 294,-275.01 294,-275.01 291,-275.01 288,-272.01 288,-269.01 288,-269.01 288,-263.01 288,-263.01 288,-260.01 291,-257.01 294,-257.01 294,-257.01 388,-257.01 388,-257.01 391,-257.01 394,-260.01 394,-263.01 394,-263.01 394,-269.01 394,-269.01 394,-272.01 391,-275.01 388,-275.01"/>
<text text-anchor="middle" x="341" y="-263.81" font-family="Helvetica,sans-Serif" font-size="9.00">CertificateIdentity.js</text>
</a>
</g>
</g>
<!-- lib/Certificate.js&#45;&gt;lib/identities/CertificateIdentity.js -->
<g id="edge15" class="edge">
<title>lib/Certificate.js&#45;&gt;lib/identities/CertificateIdentity.js</title>
<path fill="none" stroke="#000000" stroke-width="2" stroke-opacity="0.200000" d="M164.05,-161.63C171.87,-163.73 179.71,-166.99 186,-172.01 192.21,-176.97 187.72,-183.13 194,-188.01 222.01,-209.79 247.54,-179.31 272,-205.01 286.91,-220.68 265.08,-237.35 280,-253.01 280.88,-253.94 281.81,-254.8 282.79,-255.62"/>
<polygon fill="#000000" fill-opacity="0.200000" stroke="#000000" stroke-width="2" stroke-opacity="0.200000" points="281.86,-257.53 287.98,-259.24 284.26,-254.09 281.86,-257.53"/>
</g>
<!-- lib/Order.js -->
<g id="node17" class="node">
<title>lib/Order.js</title>
<g id="a_node17"><a xlink:href="lib/Order.js" xlink:title="Order.js">
<path fill="#ffffcc" stroke="black" d="M254,-182.01C254,-182.01 212,-182.01 212,-182.01 209,-182.01 206,-179.01 206,-176.01 206,-176.01 206,-170.01 206,-170.01 206,-167.01 209,-164.01 212,-164.01 212,-164.01 254,-164.01 254,-164.01 257,-164.01 260,-167.01 260,-170.01 260,-170.01 260,-176.01 260,-176.01 260,-179.01 257,-182.01 254,-182.01"/>
<text text-anchor="middle" x="233" y="-170.81" font-family="Helvetica,sans-Serif" font-size="9.00">Order.js</text>
</a>
</g>
</g>
<!-- lib/Certificate.js&#45;&gt;lib/Order.js -->
<g id="edge16" class="edge">
<title>lib/Certificate.js&#45;&gt;lib/Order.js</title>
<path fill="none" stroke="#000000" stroke-width="2" stroke-opacity="0.200000" d="M164.16,-163.13C175.66,-164.81 188.39,-166.66 199.67,-168.3"/>
<polygon fill="#000000" fill-opacity="0.200000" stroke="#000000" stroke-width="2" stroke-opacity="0.200000" points="199.54,-170.41 205.78,-169.19 200.14,-166.25 199.54,-170.41"/>
</g>
<!-- lib/x.509/rfc5280.js -->
<g id="node18" class="node">
<title>lib/x.509/rfc5280.js</title>
<g id="a_node18"><a xlink:href="lib/x.509/rfc5280.js" xlink:title="rfc5280.js">
<path fill="#ffffcc" stroke="black" d="M258,-244.01C258,-244.01 208,-244.01 208,-244.01 205,-244.01 202,-241.01 202,-238.01 202,-238.01 202,-232.01 202,-232.01 202,-229.01 205,-226.01 208,-226.01 208,-226.01 258,-226.01 258,-226.01 261,-226.01 264,-229.01 264,-232.01 264,-232.01 264,-238.01 264,-238.01 264,-241.01 261,-244.01 258,-244.01"/>
<text text-anchor="middle" x="233" y="-232.81" font-family="Helvetica,sans-Serif" font-size="9.00">rfc5280.js</text>
</a>
</g>
</g>
<!-- lib/Certificate.js&#45;&gt;lib/x.509/rfc5280.js -->
<g id="edge17" class="edge">
<title>lib/Certificate.js&#45;&gt;lib/x.509/rfc5280.js</title>
<path fill="none" stroke="#000000" stroke-width="2" stroke-opacity="0.200000" d="M164.06,-160.03C172.26,-162.13 180.27,-165.79 186,-172.01 201.25,-188.56 179.5,-204.8 194,-222.01 194.81,-222.97 195.69,-223.86 196.63,-224.68"/>
<polygon fill="#000000" fill-opacity="0.200000" stroke="#000000" stroke-width="2" stroke-opacity="0.200000" points="195.66,-226.56 201.78,-228.28 198.06,-223.12 195.66,-226.56"/>
</g>
<!-- lib/acme&#45;requests/NewAccountRequest.js -->
<g id="node8" class="node">
<title>lib/acme&#45;requests/NewAccountRequest.js</title>
<g id="a_node8"><a xlink:href="lib/acme-requests/NewAccountRequest.js" xlink:title="NewAccountRequest.js">
<path fill="#ffffcc" stroke="black" d="M568.5,-77.01C568.5,-77.01 461.5,-77.01 461.5,-77.01 458.5,-77.01 455.5,-74.01 455.5,-71.01 455.5,-71.01 455.5,-65.01 455.5,-65.01 455.5,-62.01 458.5,-59.01 461.5,-59.01 461.5,-59.01 568.5,-59.01 568.5,-59.01 571.5,-59.01 574.5,-62.01 574.5,-65.01 574.5,-65.01 574.5,-71.01 574.5,-71.01 574.5,-74.01 571.5,-77.01 568.5,-77.01"/>
<text text-anchor="middle" x="515" y="-65.81" font-family="Helvetica,sans-Serif" font-size="9.00">NewAccountRequest.js</text>
</a>
</g>
</g>
<!-- lib/Account.js&#45;&gt;lib/acme&#45;requests/NewAccountRequest.js -->
<g id="edge6" class="edge">
<title>lib/Account.js&#45;&gt;lib/acme&#45;requests/NewAccountRequest.js</title>
<path fill="none" stroke="#000000" stroke-width="2" stroke-opacity="0.200000" d="M372.75,-72.94C393.95,-72.2 422.92,-71.19 449.11,-70.27"/>
<polygon fill="#000000" fill-opacity="0.200000" stroke="#000000" stroke-width="2" stroke-opacity="0.200000" points="449.42,-72.37 455.35,-70.06 449.28,-68.17 449.42,-72.37"/>
</g>
<!-- lib/acme&#45;requests/NewAccountRequest.js&#45;&gt;lib/AcmeRequest.js -->
<g id="edge30" class="edge">
<title>lib/acme&#45;requests/NewAccountRequest.js&#45;&gt;lib/AcmeRequest.js</title>
<path fill="none" stroke="#000000" stroke-width="2" stroke-opacity="0.200000" d="M574.51,-69.03C590.03,-71.24 606.27,-75.42 620,-83.01 639.23,-93.63 654.41,-114.56 663.05,-128.67"/>
<polygon fill="#000000" fill-opacity="0.200000" stroke="#000000" stroke-width="2" stroke-opacity="0.200000" points="661.27,-129.79 666.14,-133.89 664.89,-127.65 661.27,-129.79"/>
</g>
<!-- lib/Nonce.js -->
<g id="node10" class="node">
<title>lib/Nonce.js</title>
<g id="a_node10"><a xlink:href="lib/Nonce.js" xlink:title="Nonce.js">
<path fill="#ffffcc" stroke="black" d="M778,-152.01C778,-152.01 735,-152.01 735,-152.01 732,-152.01 729,-149.01 729,-146.01 729,-146.01 729,-140.01 729,-140.01 729,-137.01 732,-134.01 735,-134.01 735,-134.01 778,-134.01 778,-134.01 781,-134.01 784,-137.01 784,-140.01 784,-140.01 784,-146.01 784,-146.01 784,-149.01 781,-152.01 778,-152.01"/>
<text text-anchor="middle" x="756.5" y="-140.81" font-family="Helvetica,sans-Serif" font-size="9.00">Nonce.js</text>
</a>
</g>
</g>
<!-- lib/AcmeRequest.js&#45;&gt;lib/Nonce.js -->
<g id="edge7" class="edge">
<title>lib/AcmeRequest.js&#45;&gt;lib/Nonce.js</title>
<path fill="none" stroke="#000000" stroke-width="2" stroke-opacity="0.200000" d="M716.18,-143.01C718.37,-143.01 720.54,-143.01 722.69,-143.01"/>
<polygon fill="#000000" fill-opacity="0.200000" stroke="#000000" stroke-width="2" stroke-opacity="0.200000" points="723,-145.11 729,-143.01 723,-140.91 723,-145.11"/>
</g>
<!-- lib/Authorisation.js -->
<g id="node11" class="node">
<title>lib/Authorisation.js</title>
<g id="a_node11"><a xlink:href="lib/Authorisation.js" xlink:title="Authorisation.js">
<path fill="#ffffcc" stroke="black" d="M378,-227.01C378,-227.01 304,-227.01 304,-227.01 301,-227.01 298,-224.01 298,-221.01 298,-221.01 298,-215.01 298,-215.01 298,-212.01 301,-209.01 304,-209.01 304,-209.01 378,-209.01 378,-209.01 381,-209.01 384,-212.01 384,-215.01 384,-215.01 384,-221.01 384,-221.01 384,-224.01 381,-227.01 378,-227.01"/>
<text text-anchor="middle" x="341" y="-215.81" font-family="Helvetica,sans-Serif" font-size="9.00">Authorisation.js</text>
</a>
</g>
</g>
<!-- lib/Authorisation.js&#45;&gt;lib/HttpServer.js -->
<g id="edge10" class="edge">
<title>lib/Authorisation.js&#45;&gt;lib/HttpServer.js</title>
<path fill="none" stroke="#000000" stroke-width="2" stroke-opacity="0.200000" d="M384.28,-224.11C390.99,-226.8 397.27,-230.61 402,-236.01 416.82,-252.95 393.89,-270.3 410,-286.01 425.96,-301.58 450.44,-305.46 471.64,-305.27"/>
<polygon fill="#000000" fill-opacity="0.200000" stroke="#000000" stroke-width="2" stroke-opacity="0.200000" points="471.87,-307.37 477.81,-305.11 471.76,-303.17 471.87,-307.37"/>
</g>
<!-- lib/acme&#45;requests/AuthorisationRequest.js -->
<g id="node12" class="node">
<title>lib/acme&#45;requests/AuthorisationRequest.js</title>
<g id="a_node12"><a xlink:href="lib/acme-requests/AuthorisationRequest.js" xlink:title="AuthorisationRequest.js">
<path fill="#ffffcc" stroke="black" d="M570.5,-227.01C570.5,-227.01 459.5,-227.01 459.5,-227.01 456.5,-227.01 453.5,-224.01 453.5,-221.01 453.5,-221.01 453.5,-215.01 453.5,-215.01 453.5,-212.01 456.5,-209.01 459.5,-209.01 459.5,-209.01 570.5,-209.01 570.5,-209.01 573.5,-209.01 576.5,-212.01 576.5,-215.01 576.5,-215.01 576.5,-221.01 576.5,-221.01 576.5,-224.01 573.5,-227.01 570.5,-227.01"/>
<text text-anchor="middle" x="515" y="-215.81" font-family="Helvetica,sans-Serif" font-size="9.00">AuthorisationRequest.js</text>
</a>
</g>
</g>
<!-- lib/Authorisation.js&#45;&gt;lib/acme&#45;requests/AuthorisationRequest.js -->
<g id="edge8" class="edge">
<title>lib/Authorisation.js&#45;&gt;lib/acme&#45;requests/AuthorisationRequest.js</title>
<path fill="none" stroke="#000000" stroke-width="2" stroke-opacity="0.200000" d="M384.08,-218.01C402.99,-218.01 425.79,-218.01 446.97,-218.01"/>
<polygon fill="#000000" fill-opacity="0.200000" stroke="#000000" stroke-width="2" stroke-opacity="0.200000" points="447.19,-220.11 453.19,-218.01 447.19,-215.91 447.19,-220.11"/>
</g>
<!-- lib/acme&#45;requests/ReadyForChallengeValidationRequest.js -->
<g id="node13" class="node">
<title>lib/acme&#45;requests/ReadyForChallengeValidationRequest.js</title>
<g id="a_node13"><a xlink:href="lib/acme-requests/ReadyForChallengeValidationRequest.js" xlink:title="ReadyForChallengeValidationRequest.js">
<path fill="#ffffcc" stroke="black" d="M606,-257.01C606,-257.01 424,-257.01 424,-257.01 421,-257.01 418,-254.01 418,-251.01 418,-251.01 418,-245.01 418,-245.01 418,-242.01 421,-239.01 424,-239.01 424,-239.01 606,-239.01 606,-239.01 609,-239.01 612,-242.01 612,-245.01 612,-245.01 612,-251.01 612,-251.01 612,-254.01 609,-257.01 606,-257.01"/>
<text text-anchor="middle" x="515" y="-245.81" font-family="Helvetica,sans-Serif" font-size="9.00">ReadyForChallengeValidationRequest.js</text>
</a>
</g>
</g>
<!-- lib/Authorisation.js&#45;&gt;lib/acme&#45;requests/ReadyForChallengeValidationRequest.js -->
<g id="edge9" class="edge">
<title>lib/Authorisation.js&#45;&gt;lib/acme&#45;requests/ReadyForChallengeValidationRequest.js</title>
<path fill="none" stroke="#000000" stroke-width="2" stroke-opacity="0.200000" d="M380.74,-227.07C390.28,-229.16 400.49,-231.28 410,-233.01 419.75,-234.79 430.05,-236.49 440.22,-238.06"/>
<polygon fill="#000000" fill-opacity="0.200000" stroke="#000000" stroke-width="2" stroke-opacity="0.200000" points="439.94,-240.14 446.19,-238.97 440.58,-235.99 439.94,-240.14"/>
</g>
<!-- lib/acme&#45;requests/AuthorisationRequest.js&#45;&gt;lib/AcmeRequest.js -->
<g id="edge26" class="edge">
<title>lib/acme&#45;requests/AuthorisationRequest.js&#45;&gt;lib/AcmeRequest.js</title>
<path fill="none" stroke="#000000" stroke-width="2" stroke-opacity="0.200000" d="M576.68,-216.67C591.53,-214.38 606.91,-210.25 620,-203.01 639.23,-192.39 654.41,-171.46 663.05,-157.36"/>
<polygon fill="#000000" fill-opacity="0.200000" stroke="#000000" stroke-width="2" stroke-opacity="0.200000" points="664.89,-158.37 666.14,-152.14 661.27,-156.23 664.89,-158.37"/>
</g>
<!-- lib/acme&#45;requests/ReadyForChallengeValidationRequest.js&#45;&gt;lib/AcmeRequest.js -->
<g id="edge32" class="edge">
<title>lib/acme&#45;requests/ReadyForChallengeValidationRequest.js&#45;&gt;lib/AcmeRequest.js</title>
<path fill="none" stroke="#000000" stroke-width="2" stroke-opacity="0.200000" d="M609.52,-239C613.17,-237.26 616.69,-235.27 620,-233.01 646.34,-215.02 660.68,-178.67 666.99,-158.09"/>
<polygon fill="#000000" fill-opacity="0.200000" stroke="#000000" stroke-width="2" stroke-opacity="0.200000" points="669.03,-158.6 668.7,-152.25 665,-157.42 669.03,-158.6"/>
</g>
<!-- lib/Identity.js -->
<g id="node19" class="node">
<title>lib/Identity.js</title>
<g id="a_node19"><a xlink:href="lib/Identity.js" xlink:title="Identity.js">
<path fill="#ffffcc" stroke="black" d="M539,-339.01C539,-339.01 491,-339.01 491,-339.01 488,-339.01 485,-336.01 485,-333.01 485,-333.01 485,-327.01 485,-327.01 485,-324.01 488,-321.01 491,-321.01 491,-321.01 539,-321.01 539,-321.01 542,-321.01 545,-324.01 545,-327.01 545,-327.01 545,-333.01 545,-333.01 545,-336.01 542,-339.01 539,-339.01"/>
<text text-anchor="middle" x="515" y="-327.81" font-family="Helvetica,sans-Serif" font-size="9.00">Identity.js</text>
</a>
</g>
</g>
<!-- lib/identities/AccountIdentity.js&#45;&gt;lib/Identity.js -->
<g id="edge33" class="edge">
<title>lib/identities/AccountIdentity.js&#45;&gt;lib/Identity.js</title>
<path fill="none" stroke="#000000" stroke-width="2" stroke-opacity="0.200000" d="M371.25,-305.08C383.18,-308.54 397.17,-312.3 410,-315.01 432.65,-319.79 458.39,-323.51 478.6,-326.06"/>
<polygon fill="#000000" fill-opacity="0.200000" stroke="#000000" stroke-width="2" stroke-opacity="0.200000" points="478.47,-328.16 484.68,-326.81 478.99,-323.99 478.47,-328.16"/>
</g>
<!-- lib/identities/CertificateIdentity.js&#45;&gt;lib/Identity.js -->
<g id="edge34" class="edge">
<title>lib/identities/CertificateIdentity.js&#45;&gt;lib/Identity.js</title>
<path fill="none" stroke="#000000" stroke-width="2" stroke-opacity="0.200000" d="M394.16,-274.91C397.01,-276.63 399.66,-278.64 402,-281.01 412.9,-292.06 398.55,-304.53 410,-315.01 428.2,-331.68 456.21,-334.92 478.57,-334.27"/>
<polygon fill="#000000" fill-opacity="0.200000" stroke="#000000" stroke-width="2" stroke-opacity="0.200000" points="478.82,-336.36 484.72,-333.99 478.63,-332.16 478.82,-336.36"/>
</g>
<!-- lib/Order.js&#45;&gt;lib/HttpServer.js -->
<g id="edge24" class="edge">
<title>lib/Order.js&#45;&gt;lib/HttpServer.js</title>
<path fill="none" stroke="#000000" stroke-width="2" stroke-opacity="0.200000" d="M260.02,-177.74C264.56,-179.64 268.84,-182.29 272,-186.01 285.73,-202.15 264.56,-218.5 280,-233.01 319.74,-270.35 361.72,-209.25 402,-246.01 415.39,-258.23 396.78,-273.61 410,-286.01 426.2,-301.22 450.57,-305.11 471.65,-305.02"/>
<polygon fill="#000000" fill-opacity="0.200000" stroke="#000000" stroke-width="2" stroke-opacity="0.200000" points="471.83,-307.12 477.78,-304.88 471.74,-302.92 471.83,-307.12"/>
</g>
<!-- lib/Order.js&#45;&gt;lib/Authorisation.js -->
<g id="edge23" class="edge">
<title>lib/Order.js&#45;&gt;lib/Authorisation.js</title>
<path fill="none" stroke="#000000" stroke-width="2" stroke-opacity="0.200000" d="M255.45,-182.12C271.97,-189.13 294.93,-198.88 312.75,-206.44"/>
<polygon fill="#000000" fill-opacity="0.200000" stroke="#000000" stroke-width="2" stroke-opacity="0.200000" points="312.24,-208.51 318.58,-208.92 313.88,-204.64 312.24,-208.51"/>
</g>
<!-- lib/Order.js&#45;&gt;lib/identities/CertificateIdentity.js -->
<g id="edge25" class="edge">
<title>lib/Order.js&#45;&gt;lib/identities/CertificateIdentity.js</title>
<path fill="none" stroke="#000000" stroke-width="2" stroke-opacity="0.200000" d="M260.27,-181.16C264.79,-183.66 269,-186.88 272,-191.01 288.33,-213.49 261.21,-232.55 280,-253.01 280.87,-253.95 281.78,-254.84 282.74,-255.66"/>
<polygon fill="#000000" fill-opacity="0.200000" stroke="#000000" stroke-width="2" stroke-opacity="0.200000" points="281.78,-257.55 287.88,-259.34 284.22,-254.14 281.78,-257.55"/>
</g>
<!-- lib/acme&#45;requests/CertificateRequest.js -->
<g id="node20" class="node">
<title>lib/acme&#45;requests/CertificateRequest.js</title>
<g id="a_node20"><a xlink:href="lib/acme-requests/CertificateRequest.js" xlink:title="CertificateRequest.js">
<path fill="#ffffcc" stroke="black" d="M563.5,-167.01C563.5,-167.01 466.5,-167.01 466.5,-167.01 463.5,-167.01 460.5,-164.01 460.5,-161.01 460.5,-161.01 460.5,-155.01 460.5,-155.01 460.5,-152.01 463.5,-149.01 466.5,-149.01 466.5,-149.01 563.5,-149.01 563.5,-149.01 566.5,-149.01 569.5,-152.01 569.5,-155.01 569.5,-155.01 569.5,-161.01 569.5,-161.01 569.5,-164.01 566.5,-167.01 563.5,-167.01"/>
<text text-anchor="middle" x="515" y="-155.81" font-family="Helvetica,sans-Serif" font-size="9.00">CertificateRequest.js</text>
</a>
</g>
</g>
<!-- lib/Order.js&#45;&gt;lib/acme&#45;requests/CertificateRequest.js -->
<g id="edge18" class="edge">
<title>lib/Order.js&#45;&gt;lib/acme&#45;requests/CertificateRequest.js</title>
<path fill="none" stroke="#000000" stroke-width="2" stroke-opacity="0.200000" d="M260.2,-172.16C293.26,-171.03 351.87,-168.85 402,-166.01 418.99,-165.05 437.41,-163.82 454.32,-162.6"/>
<polygon fill="#000000" fill-opacity="0.200000" stroke="#000000" stroke-width="2" stroke-opacity="0.200000" points="454.64,-164.69 460.47,-162.16 454.33,-160.5 454.64,-164.69"/>
</g>
<!-- lib/acme&#45;requests/CheckOrderStatusRequest.js -->
<g id="node21" class="node">
<title>lib/acme&#45;requests/CheckOrderStatusRequest.js</title>
<g id="a_node21"><a xlink:href="lib/acme-requests/CheckOrderStatusRequest.js" xlink:title="CheckOrderStatusRequest.js">
<path fill="#ffffcc" stroke="black" d="M582,-197.01C582,-197.01 448,-197.01 448,-197.01 445,-197.01 442,-194.01 442,-191.01 442,-191.01 442,-185.01 442,-185.01 442,-182.01 445,-179.01 448,-179.01 448,-179.01 582,-179.01 582,-179.01 585,-179.01 588,-182.01 588,-185.01 588,-185.01 588,-191.01 588,-191.01 588,-194.01 585,-197.01 582,-197.01"/>
<text text-anchor="middle" x="515" y="-185.81" font-family="Helvetica,sans-Serif" font-size="9.00">CheckOrderStatusRequest.js</text>
</a>
</g>
</g>
<!-- lib/Order.js&#45;&gt;lib/acme&#45;requests/CheckOrderStatusRequest.js -->
<g id="edge19" class="edge">
<title>lib/Order.js&#45;&gt;lib/acme&#45;requests/CheckOrderStatusRequest.js</title>
<path fill="none" stroke="#000000" stroke-width="2" stroke-opacity="0.200000" d="M260.09,-174.41C299.79,-176.54 376.98,-180.67 435.88,-183.83"/>
<polygon fill="#000000" fill-opacity="0.200000" stroke="#000000" stroke-width="2" stroke-opacity="0.200000" points="435.78,-185.92 441.88,-184.15 436,-181.73 435.78,-185.92"/>
</g>
<!-- lib/acme&#45;requests/FinaliseOrderRequest.js -->
<g id="node22" class="node">
<title>lib/acme&#45;requests/FinaliseOrderRequest.js</title>
<g id="a_node22"><a xlink:href="lib/acme-requests/FinaliseOrderRequest.js" xlink:title="FinaliseOrderRequest.js">
<path fill="#ffffcc" stroke="black" d="M569.5,-107.01C569.5,-107.01 460.5,-107.01 460.5,-107.01 457.5,-107.01 454.5,-104.01 454.5,-101.01 454.5,-101.01 454.5,-95.01 454.5,-95.01 454.5,-92.01 457.5,-89.01 460.5,-89.01 460.5,-89.01 569.5,-89.01 569.5,-89.01 572.5,-89.01 575.5,-92.01 575.5,-95.01 575.5,-95.01 575.5,-101.01 575.5,-101.01 575.5,-104.01 572.5,-107.01 569.5,-107.01"/>
<text text-anchor="middle" x="515" y="-95.81" font-family="Helvetica,sans-Serif" font-size="9.00">FinaliseOrderRequest.js</text>
</a>
</g>
</g>
<!-- lib/Order.js&#45;&gt;lib/acme&#45;requests/FinaliseOrderRequest.js -->
<g id="edge20" class="edge">
<title>lib/Order.js&#45;&gt;lib/acme&#45;requests/FinaliseOrderRequest.js</title>
<path fill="none" stroke="#000000" stroke-width="2" stroke-opacity="0.200000" d="M260.02,-166.82C264.56,-164.69 268.83,-161.84 272,-158.01 284.12,-143.37 265.84,-128.68 280,-116.01 304.04,-94.51 387.84,-92.72 448.29,-94.48"/>
<polygon fill="#000000" fill-opacity="0.200000" stroke="#000000" stroke-width="2" stroke-opacity="0.200000" points="448.37,-96.59 454.43,-94.68 448.5,-92.39 448.37,-96.59"/>
</g>
<!-- lib/acme&#45;requests/NewOrderRequest.js -->
<g id="node23" class="node">
<title>lib/acme&#45;requests/NewOrderRequest.js</title>
<g id="a_node23"><a xlink:href="lib/acme-requests/NewOrderRequest.js" xlink:title="NewOrderRequest.js">
<path fill="#ffffcc" stroke="black" d="M563,-137.01C563,-137.01 467,-137.01 467,-137.01 464,-137.01 461,-134.01 461,-131.01 461,-131.01 461,-125.01 461,-125.01 461,-122.01 464,-119.01 467,-119.01 467,-119.01 563,-119.01 563,-119.01 566,-119.01 569,-122.01 569,-125.01 569,-125.01 569,-131.01 569,-131.01 569,-134.01 566,-137.01 563,-137.01"/>
<text text-anchor="middle" x="515" y="-125.81" font-family="Helvetica,sans-Serif" font-size="9.00">NewOrderRequest.js</text>
</a>
</g>
</g>
<!-- lib/Order.js&#45;&gt;lib/acme&#45;requests/NewOrderRequest.js -->
<g id="edge21" class="edge">
<title>lib/Order.js&#45;&gt;lib/acme&#45;requests/NewOrderRequest.js</title>
<path fill="none" stroke="#000000" stroke-width="2" stroke-opacity="0.200000" d="M260.33,-166.03C264.63,-163.99 268.74,-161.37 272,-158.01 279.26,-150.55 271.58,-142.12 280,-136.01 306.87,-116.5 394.76,-118.63 454.83,-122.73"/>
<polygon fill="#000000" fill-opacity="0.200000" stroke="#000000" stroke-width="2" stroke-opacity="0.200000" points="454.79,-124.84 460.92,-123.16 455.08,-120.65 454.79,-124.84"/>
</g>
<!-- lib/acmeCsr.js -->
<g id="node24" class="node">
<title>lib/acmeCsr.js</title>
<g id="a_node24"><a xlink:href="lib/acmeCsr.js" xlink:title="acmeCsr.js">
<path fill="#ffffcc" stroke="black" d="M367,-160.01C367,-160.01 315,-160.01 315,-160.01 312,-160.01 309,-157.01 309,-154.01 309,-154.01 309,-148.01 309,-148.01 309,-145.01 312,-142.01 315,-142.01 315,-142.01 367,-142.01 367,-142.01 370,-142.01 373,-145.01 373,-148.01 373,-148.01 373,-154.01 373,-154.01 373,-157.01 370,-160.01 367,-160.01"/>
<text text-anchor="middle" x="341" y="-148.81" font-family="Helvetica,sans-Serif" font-size="9.00">acmeCsr.js</text>
</a>
</g>
</g>
<!-- lib/Order.js&#45;&gt;lib/acmeCsr.js -->
<g id="edge22" class="edge">
<title>lib/Order.js&#45;&gt;lib/acmeCsr.js</title>
<path fill="none" stroke="#000000" stroke-width="2" stroke-opacity="0.200000" d="M260.2,-167.57C273.08,-164.9 288.81,-161.63 302.9,-158.71"/>
<polygon fill="#000000" fill-opacity="0.200000" stroke="#000000" stroke-width="2" stroke-opacity="0.200000" points="303.38,-160.76 308.82,-157.48 302.52,-156.64 303.38,-160.76"/>
</g>
<!-- lib/acme&#45;requests/CertificateRequest.js&#45;&gt;lib/AcmeRequest.js -->
<g id="edge27" class="edge">
<title>lib/acme&#45;requests/CertificateRequest.js&#45;&gt;lib/AcmeRequest.js</title>
<path fill="none" stroke="#000000" stroke-width="2" stroke-opacity="0.200000" d="M569.78,-152.81C586.6,-151.18 605.07,-149.39 621.57,-147.79"/>
<polygon fill="#000000" fill-opacity="0.200000" stroke="#000000" stroke-width="2" stroke-opacity="0.200000" points="621.79,-149.88 627.56,-147.21 621.39,-145.7 621.79,-149.88"/>
</g>
<!-- lib/acme&#45;requests/CheckOrderStatusRequest.js&#45;&gt;lib/AcmeRequest.js -->
<g id="edge28" class="edge">
<title>lib/acme&#45;requests/CheckOrderStatusRequest.js&#45;&gt;lib/AcmeRequest.js</title>
<path fill="none" stroke="#000000" stroke-width="2" stroke-opacity="0.200000" d="M588.21,-181.31C599.03,-179.25 609.93,-176.54 620,-173.01 631.94,-168.82 644.2,-161.72 653.7,-155.47"/>
<polygon fill="#000000" fill-opacity="0.200000" stroke="#000000" stroke-width="2" stroke-opacity="0.200000" points="654.88,-157.21 658.68,-152.12 652.53,-153.73 654.88,-157.21"/>
</g>
<!-- lib/acme&#45;requests/FinaliseOrderRequest.js&#45;&gt;lib/AcmeRequest.js -->
<g id="edge29" class="edge">
<title>lib/acme&#45;requests/FinaliseOrderRequest.js&#45;&gt;lib/AcmeRequest.js</title>
<path fill="none" stroke="#000000" stroke-width="2" stroke-opacity="0.200000" d="M575.53,-102.56C590.33,-104.78 605.97,-108.09 620,-113.01 631.94,-117.2 644.2,-124.31 653.7,-130.55"/>
<polygon fill="#000000" fill-opacity="0.200000" stroke="#000000" stroke-width="2" stroke-opacity="0.200000" points="652.53,-132.29 658.68,-133.9 654.88,-128.81 652.53,-132.29"/>
</g>
<!-- lib/acme&#45;requests/NewOrderRequest.js&#45;&gt;lib/AcmeRequest.js -->
<g id="edge31" class="edge">
<title>lib/acme&#45;requests/NewOrderRequest.js&#45;&gt;lib/AcmeRequest.js</title>
<path fill="none" stroke="#000000" stroke-width="2" stroke-opacity="0.200000" d="M569.34,-133.17C586.34,-134.82 605.07,-136.63 621.77,-138.25"/>
<polygon fill="#000000" fill-opacity="0.200000" stroke="#000000" stroke-width="2" stroke-opacity="0.200000" points="621.65,-140.34 627.82,-138.83 622.05,-136.16 621.65,-140.34"/>
</g>
</g>
</svg>
