<?xml version="1.0" encoding="UTF-8" standalone="no"?>
<!DOCTYPE svg PUBLIC "-//W3C//DTD SVG 1.1//EN"
 "http://www.w3.org/Graphics/SVG/1.1/DTD/svg11.dtd">
<!-- Generated by graphviz version 2.40.1 (20161225.0304)
 -->
<!-- Title: dependency&#45;cruiser output Pages: 1 -->
<svg width="762pt" height="356pt"
 viewBox="0.00 0.00 762.00 356.00" xmlns="http://www.w3.org/2000/svg" xmlns:xlink="http://www.w3.org/1999/xlink">
<g id="graph0" class="graph" transform="scale(1 1) rotate(0) translate(4 352)">
<title>dependency&#45;cruiser output</title>
<polygon fill="#ffffff" stroke="transparent" points="-4,4 -4,-352 758,-352 758,4 -4,4"/>
<g id="clust1" class="cluster">
<title>cluster_lib</title>
<path fill="#ffffff" stroke="#000000" stroke-width="2" d="M74,-8C74,-8 734,-8 734,-8 740,-8 746,-14 746,-20 746,-20 746,-328 746,-328 746,-334 740,-340 734,-340 734,-340 74,-340 74,-340 68,-340 62,-334 62,-328 62,-328 62,-20 62,-20 62,-14 68,-8 74,-8"/>
<text text-anchor="middle" x="404" y="-328.8" font-family="Helvetica,sans-Serif" font-weight="bold" font-size="9.00" fill="#000000">lib</text>
</g>
<g id="clust2" class="cluster">
<title>cluster_lib/acme&#45;requests</title>
<path fill="#ffffff" stroke="#000000" stroke-width="2" d="M391,-26C391,-26 568,-26 568,-26 574,-26 580,-32 580,-38 580,-38 580,-246 580,-246 580,-252 574,-258 568,-258 568,-258 391,-258 391,-258 385,-258 379,-252 379,-246 379,-246 379,-38 379,-38 379,-32 385,-26 391,-26"/>
<text text-anchor="middle" x="479.5" y="-246.8" font-family="Helvetica,sans-Serif" font-weight="bold" font-size="9.00" fill="#000000">acme&#45;requests</text>
</g>
<g id="clust3" class="cluster">
<title>cluster_lib/identities</title>
<path fill="#ffffff" stroke="#000000" stroke-width="2" d="M271,-224C271,-224 359,-224 359,-224 365,-224 371,-230 371,-236 371,-236 371,-294 371,-294 371,-300 365,-306 359,-306 359,-306 271,-306 271,-306 265,-306 259,-300 259,-294 259,-294 259,-236 259,-236 259,-230 265,-224 271,-224"/>
<text text-anchor="middle" x="315" y="-294.8" font-family="Helvetica,sans-Serif" font-weight="bold" font-size="9.00" fill="#000000">identities</text>
</g>
<g id="clust4" class="cluster">
<title>cluster_lib/x.509</title>
<path fill="#ffffff" stroke="#000000" stroke-width="2" d="M191,-201C191,-201 239,-201 239,-201 245,-201 251,-207 251,-213 251,-213 251,-241 251,-241 251,-247 245,-253 239,-253 239,-253 191,-253 191,-253 185,-253 179,-247 179,-241 179,-241 179,-213 179,-213 179,-207 185,-201 191,-201"/>
<text text-anchor="middle" x="215" y="-241.8" font-family="Helvetica,sans-Serif" font-weight="bold" font-size="9.00" fill="#000000">x.509</text>
</g>
<!-- index.js -->
<g id="node1" class="node">
<title>index.js</title>
<g id="a_node1"><a xlink:href="index.js" xlink:title="index.js">
<path fill="#ffffcc" stroke="#000000" d="M48,-120C48,-120 6,-120 6,-120 3,-120 0,-117 0,-114 0,-114 0,-108 0,-108 0,-105 3,-102 6,-102 6,-102 48,-102 48,-102 51,-102 54,-105 54,-108 54,-108 54,-114 54,-114 54,-117 51,-120 48,-120"/>
<text text-anchor="middle" x="27" y="-108.8" font-family="Helvetica,sans-Serif" font-size="9.00" fill="#000000">index.js</text>
</a>
</g>
</g>
<!-- lib/Certificate.js -->
<g id="node2" class="node">
<title>lib/Certificate.js</title>
<g id="a_node2"><a xlink:href="lib/Certificate.js" xlink:title="Certificate.js">
<path fill="#ffffcc" stroke="#000000" d="M148,-165C148,-165 93,-165 93,-165 90,-165 87,-162 87,-159 87,-159 87,-153 87,-153 87,-150 90,-147 93,-147 93,-147 148,-147 148,-147 151,-147 154,-150 154,-153 154,-153 154,-159 154,-159 154,-162 151,-165 148,-165"/>
<text text-anchor="middle" x="120.5" y="-153.8" font-family="Helvetica,sans-Serif" font-size="9.00" fill="#000000">Certificate.js</text>
</a>
</g>
</g>
<!-- index.js&#45;&gt;lib/Certificate.js -->
<g id="edge1" class="edge">
<title>index.js&#45;&gt;lib/Certificate.js</title>
<path fill="none" stroke="#000000" stroke-width="2" stroke-opacity="0.200000" d="M35.3655,-120.1474C41.9806,-126.8529 51.7769,-135.6802 62,-141 67.8392,-144.0386 74.3327,-146.4889 80.8085,-148.4568"/>
<polygon fill="#000000" fill-opacity="0.200000" stroke="#000000" stroke-width="2" stroke-opacity="0.200000" points="80.3862,-150.5197 86.7313,-150.1315 81.529,-146.4781 80.3862,-150.5197"/>
</g>
<!-- lib/Configuration.js -->
<g id="node3" class="node">
<title>lib/Configuration.js</title>
<g id="a_node3"><a xlink:href="lib/Configuration.js" xlink:title="Configuration.js">
<path fill="#ffffcc" stroke="#000000" d="M155,-135C155,-135 86,-135 86,-135 83,-135 80,-132 80,-129 80,-129 80,-123 80,-123 80,-120 83,-117 86,-117 86,-117 155,-117 155,-117 158,-117 161,-120 161,-123 161,-123 161,-129 161,-129 161,-132 158,-135 155,-135"/>
<text text-anchor="middle" x="120.5" y="-123.8" font-family="Helvetica,sans-Serif" font-size="9.00" fill="#000000">Configuration.js</text>
</a>
</g>
</g>
<!-- index.js&#45;&gt;lib/Configuration.js -->
<g id="edge2" class="edge">
<title>index.js&#45;&gt;lib/Configuration.js</title>
<path fill="none" stroke="#000000" stroke-width="2" stroke-opacity="0.200000" d="M54.0441,-115.3386C60.238,-116.3323 66.9969,-117.4166 73.7556,-118.5009"/>
<polygon fill="#000000" fill-opacity="0.200000" stroke="#000000" stroke-width="2" stroke-opacity="0.200000" points="73.6894,-120.6171 79.9463,-119.4941 74.3547,-116.4701 73.6894,-120.6171"/>
</g>
<!-- lib/LetsEncryptServer.js -->
<g id="node4" class="node">
<title>lib/LetsEncryptServer.js</title>
<g id="a_node4"><a xlink:href="lib/LetsEncryptServer.js" xlink:title="LetsEncryptServer.js">
<path fill="#ffffcc" stroke="#000000" d="M165,-105C165,-105 76,-105 76,-105 73,-105 70,-102 70,-99 70,-99 70,-93 70,-93 70,-90 73,-87 76,-87 76,-87 165,-87 165,-87 168,-87 171,-90 171,-93 171,-93 171,-99 171,-99 171,-102 168,-105 165,-105"/>
<text text-anchor="middle" x="120.5" y="-93.8" font-family="Helvetica,sans-Serif" font-size="9.00" fill="#000000">LetsEncryptServer.js</text>
</a>
</g>
</g>
<!-- index.js&#45;&gt;lib/LetsEncryptServer.js -->
<g id="edge3" class="edge">
<title>index.js&#45;&gt;lib/LetsEncryptServer.js</title>
<path fill="none" stroke="#000000" stroke-width="2" stroke-opacity="0.200000" d="M54.0441,-106.6614C57.1453,-106.1639 60.3881,-105.6436 63.7016,-105.112"/>
<polygon fill="#000000" fill-opacity="0.200000" stroke="#000000" stroke-width="2" stroke-opacity="0.200000" points="64.1353,-107.1694 69.7269,-104.1454 63.4699,-103.0224 64.1353,-107.1694"/>
</g>
<!-- lib/MonkeyPatchTls.js -->
<g id="node5" class="node">
<title>lib/MonkeyPatchTls.js</title>
<g id="a_node5"><a xlink:href="lib/MonkeyPatchTls.js" xlink:title="MonkeyPatchTls.js">
<path fill="#ffffcc" stroke="#000000" d="M161,-75C161,-75 80,-75 80,-75 77,-75 74,-72 74,-69 74,-69 74,-63 74,-63 74,-60 77,-57 80,-57 80,-57 161,-57 161,-57 164,-57 167,-60 167,-63 167,-63 167,-69 167,-69 167,-72 164,-75 161,-75"/>
<text text-anchor="middle" x="120.5" y="-63.8" font-family="Helvetica,sans-Serif" font-size="9.00" fill="#000000">MonkeyPatchTls.js</text>
</a>
</g>
</g>
<!-- index.js&#45;&gt;lib/MonkeyPatchTls.js -->
<g id="edge4" class="edge">
<title>index.js&#45;&gt;lib/MonkeyPatchTls.js</title>
<path fill="none" stroke="#000000" stroke-width="2" stroke-opacity="0.200000" d="M35.3655,-101.8526C41.9806,-95.1471 51.7769,-86.3198 62,-81 64.6507,-79.6206 67.4363,-78.3625 70.2939,-77.2156"/>
<polygon fill="#000000" fill-opacity="0.200000" stroke="#000000" stroke-width="2" stroke-opacity="0.200000" points="71.3423,-79.0669 76.2403,-75.0148 69.8844,-75.128 71.3423,-79.0669"/>
</g>
<!-- lib/Account.js -->
<g id="node6" class="node">
<title>lib/Account.js</title>
<g id="a_node6"><a xlink:href="lib/Account.js" xlink:title="Account.js">
<path fill="#ffffcc" stroke="#000000" d="M338.5,-64C338.5,-64 291.5,-64 291.5,-64 288.5,-64 285.5,-61 285.5,-58 285.5,-58 285.5,-52 285.5,-52 285.5,-49 288.5,-46 291.5,-46 291.5,-46 338.5,-46 338.5,-46 341.5,-46 344.5,-49 344.5,-52 344.5,-52 344.5,-58 344.5,-58 344.5,-61 341.5,-64 338.5,-64"/>
<text text-anchor="middle" x="315" y="-52.8" font-family="Helvetica,sans-Serif" font-size="9.00" fill="#000000">Account.js</text>
</a>
</g>
</g>
<!-- lib/Certificate.js&#45;&gt;lib/Account.js -->
<g id="edge10" class="edge">
<title>lib/Certificate.js&#45;&gt;lib/Account.js</title>
<path fill="none" stroke="#000000" stroke-width="2" stroke-opacity="0.200000" d="M154.1489,-151.2094C160.4067,-148.9735 166.4096,-145.7214 171,-141 180.6194,-131.1062 170.4406,-121.8239 179,-111 204.0384,-79.3376 221.2306,-82.2445 259,-68 265.4349,-65.5731 272.4629,-63.5108 279.2985,-61.7927"/>
<polygon fill="#000000" fill-opacity="0.200000" stroke="#000000" stroke-width="2" stroke-opacity="0.200000" points="280.1518,-63.748 285.4995,-60.311 279.1757,-59.663 280.1518,-63.748"/>
</g>
<!-- lib/AcmeRequest.js -->
<g id="node8" class="node">
<title>lib/AcmeRequest.js</title>
<g id="a_node8"><a xlink:href="lib/AcmeRequest.js" xlink:title="AcmeRequest.js">
<path fill="#ffffcc" stroke="#000000" d="M665,-127C665,-127 594,-127 594,-127 591,-127 588,-124 588,-121 588,-121 588,-115 588,-115 588,-112 591,-109 594,-109 594,-109 665,-109 665,-109 668,-109 671,-112 671,-115 671,-115 671,-121 671,-121 671,-124 668,-127 665,-127"/>
<text text-anchor="middle" x="629.5" y="-115.8" font-family="Helvetica,sans-Serif" font-size="9.00" fill="#000000">AcmeRequest.js</text>
</a>
</g>
</g>
<!-- lib/Certificate.js&#45;&gt;lib/AcmeRequest.js -->
<g id="edge11" class="edge">
<title>lib/Certificate.js&#45;&gt;lib/AcmeRequest.js</title>
<path fill="none" stroke="#000000" stroke-width="2" stroke-opacity="0.200000" d="M154.2039,-151.9135C160.6133,-149.6408 166.6627,-146.1955 171,-141 191.9166,-115.9445 158.69,-93.5497 179,-68 235.6956,3.3221 288.1144,-29.4058 379,-23 468.1123,-16.7192 503.619,23.3292 580,-23 608.8005,-40.469 621.6259,-80.7726 626.6646,-102.8554"/>
<polygon fill="#000000" fill-opacity="0.200000" stroke="#000000" stroke-width="2" stroke-opacity="0.200000" points="624.6319,-103.3927 627.937,-108.8228 628.7395,-102.5167 624.6319,-103.3927"/>
</g>
<!-- lib/Directory.js -->
<g id="node14" class="node">
<title>lib/Directory.js</title>
<g id="a_node14"><a xlink:href="lib/Directory.js" xlink:title="Directory.js">
<path fill="#ffffcc" stroke="#000000" d="M240,-135C240,-135 190,-135 190,-135 187,-135 184,-132 184,-129 184,-129 184,-123 184,-123 184,-120 187,-117 190,-117 190,-117 240,-117 240,-117 243,-117 246,-120 246,-123 246,-123 246,-129 246,-129 246,-132 243,-135 240,-135"/>
<text text-anchor="middle" x="215" y="-123.8" font-family="Helvetica,sans-Serif" font-size="9.00" fill="#000000">Directory.js</text>
</a>
</g>
</g>
<!-- lib/Certificate.js&#45;&gt;lib/Directory.js -->
<g id="edge12" class="edge">
<title>lib/Certificate.js&#45;&gt;lib/Directory.js</title>
<path fill="none" stroke="#000000" stroke-width="2" stroke-opacity="0.200000" d="M151.5397,-146.9922C157.9866,-145.062 164.7261,-143.0003 171,-141 174.9263,-139.7482 179.0369,-138.399 183.102,-137.041"/>
<polygon fill="#000000" fill-opacity="0.200000" stroke="#000000" stroke-width="2" stroke-opacity="0.200000" points="183.9824,-138.9605 188.9985,-135.0555 182.6421,-134.9801 183.9824,-138.9605"/>
</g>
<!-- lib/identities/AccountIdentity.js -->
<g id="node15" class="node">
<title>lib/identities/AccountIdentity.js</title>
<g id="a_node15"><a xlink:href="lib/identities/AccountIdentity.js" xlink:title="AccountIdentity.js">
<path fill="#ffffcc" stroke="#000000" d="M353,-280C353,-280 277,-280 277,-280 274,-280 271,-277 271,-274 271,-274 271,-268 271,-268 271,-265 274,-262 277,-262 277,-262 353,-262 353,-262 356,-262 359,-265 359,-268 359,-268 359,-274 359,-274 359,-277 356,-280 353,-280"/>
<text text-anchor="middle" x="315" y="-268.8" font-family="Helvetica,sans-Serif" font-size="9.00" fill="#000000">AccountIdentity.js</text>
</a>
</g>
</g>
<!-- lib/Certificate.js&#45;&gt;lib/identities/AccountIdentity.js -->
<g id="edge13" class="edge">
<title>lib/Certificate.js&#45;&gt;lib/identities/AccountIdentity.js</title>
<path fill="none" stroke="#000000" stroke-width="2" stroke-opacity="0.200000" d="M137.4891,-165.092C148.9469,-170.9084 164.5543,-178.2305 179,-183 210.039,-193.2482 228.6897,-174.1107 251,-198 268.761,-217.018 241.7815,-236.4895 259,-256 260.8356,-258.08 262.9252,-259.886 265.1926,-261.4528"/>
<polygon fill="#000000" fill-opacity="0.200000" stroke="#000000" stroke-width="2" stroke-opacity="0.200000" points="264.5272,-263.4948 270.7705,-264.6913 266.6361,-259.8626 264.5272,-263.4948"/>
</g>
<!-- lib/identities/CertificateIdentity.js -->
<g id="node16" class="node">
<title>lib/identities/CertificateIdentity.js</title>
<g id="a_node16"><a xlink:href="lib/identities/CertificateIdentity.js" xlink:title="CertificateIdentity.js">
<path fill="#ffffcc" stroke="#000000" d="M357,-250C357,-250 273,-250 273,-250 270,-250 267,-247 267,-244 267,-244 267,-238 267,-238 267,-235 270,-232 273,-232 273,-232 357,-232 357,-232 360,-232 363,-235 363,-238 363,-238 363,-244 363,-244 363,-247 360,-250 357,-250"/>
<text text-anchor="middle" x="315" y="-238.8" font-family="Helvetica,sans-Serif" font-size="9.00" fill="#000000">CertificateIdentity.js</text>
</a>
</g>
</g>
<!-- lib/Certificate.js&#45;&gt;lib/identities/CertificateIdentity.js -->
<g id="edge14" class="edge">
<title>lib/Certificate.js&#45;&gt;lib/identities/CertificateIdentity.js</title>
<path fill="none" stroke="#000000" stroke-width="2" stroke-opacity="0.200000" d="M154.1911,-164.7561C162.3074,-166.833 170.9572,-169.0196 179,-171 210.9262,-178.8614 228.1545,-164.3532 251,-188 263.5969,-201.0388 246.3786,-214.985 259,-228 259.8598,-228.8867 260.7674,-229.718 261.7161,-230.4972"/>
<polygon fill="#000000" fill-opacity="0.200000" stroke="#000000" stroke-width="2" stroke-opacity="0.200000" points="260.6378,-232.3044 266.7714,-233.9748 263.0183,-228.8441 260.6378,-232.3044"/>
</g>
<!-- lib/Order.js -->
<g id="node17" class="node">
<title>lib/Order.js</title>
<g id="a_node17"><a xlink:href="lib/Order.js" xlink:title="Order.js">
<path fill="#ffffcc" stroke="#000000" d="M236,-165C236,-165 194,-165 194,-165 191,-165 188,-162 188,-159 188,-159 188,-153 188,-153 188,-150 191,-147 194,-147 194,-147 236,-147 236,-147 239,-147 242,-150 242,-153 242,-153 242,-159 242,-159 242,-162 239,-165 236,-165"/>
<text text-anchor="middle" x="215" y="-153.8" font-family="Helvetica,sans-Serif" font-size="9.00" fill="#000000">Order.js</text>
</a>
</g>
</g>
<!-- lib/Certificate.js&#45;&gt;lib/Order.js -->
<g id="edge15" class="edge">
<title>lib/Certificate.js&#45;&gt;lib/Order.js</title>
<path fill="none" stroke="#000000" stroke-width="2" stroke-opacity="0.200000" d="M154.0832,-156C163.0488,-156 172.7327,-156 181.6839,-156"/>
<polygon fill="#000000" fill-opacity="0.200000" stroke="#000000" stroke-width="2" stroke-opacity="0.200000" points="181.746,-158.1001 187.7459,-156 181.7459,-153.9001 181.746,-158.1001"/>
</g>
<!-- lib/x.509/rfc5280.js -->
<g id="node18" class="node">
<title>lib/x.509/rfc5280.js</title>
<g id="a_node18"><a xlink:href="lib/x.509/rfc5280.js" xlink:title="rfc5280.js">
<path fill="#ffffcc" stroke="#000000" d="M237,-227C237,-227 193,-227 193,-227 190,-227 187,-224 187,-221 187,-221 187,-215 187,-215 187,-212 190,-209 193,-209 193,-209 237,-209 237,-209 240,-209 243,-212 243,-215 243,-215 243,-221 243,-221 243,-224 240,-227 237,-227"/>
<text text-anchor="middle" x="215" y="-215.8" font-family="Helvetica,sans-Serif" font-size="9.00" fill="#000000">rfc5280.js</text>
</a>
</g>
</g>
<!-- lib/Certificate.js&#45;&gt;lib/x.509/rfc5280.js -->
<g id="edge16" class="edge">
<title>lib/Certificate.js&#45;&gt;lib/x.509/rfc5280.js</title>
<path fill="none" stroke="#000000" stroke-width="2" stroke-opacity="0.200000" d="M129.2601,-165.0729C140.0851,-175.8483 159.4761,-193.7722 179,-205 179.6048,-205.3478 180.2206,-205.689 180.8454,-206.0235"/>
<polygon fill="#000000" fill-opacity="0.200000" stroke="#000000" stroke-width="2" stroke-opacity="0.200000" points="180.3467,-208.1161 186.6609,-208.8517 182.1836,-204.339 180.3467,-208.1161"/>
</g>
<!-- lib/acme&#45;requests/NewAccountRequest.js -->
<g id="node7" class="node">
<title>lib/acme&#45;requests/NewAccountRequest.js</title>
<g id="a_node7"><a xlink:href="lib/acme-requests/NewAccountRequest.js" xlink:title="NewAccountRequest.js">
<path fill="#ffffcc" stroke="#000000" d="M529.5,-52C529.5,-52 429.5,-52 429.5,-52 426.5,-52 423.5,-49 423.5,-46 423.5,-46 423.5,-40 423.5,-40 423.5,-37 426.5,-34 429.5,-34 429.5,-34 529.5,-34 529.5,-34 532.5,-34 535.5,-37 535.5,-40 535.5,-40 535.5,-46 535.5,-46 535.5,-49 532.5,-52 529.5,-52"/>
<text text-anchor="middle" x="479.5" y="-40.8" font-family="Helvetica,sans-Serif" font-size="9.00" fill="#000000">NewAccountRequest.js</text>
</a>
</g>
</g>
<!-- lib/Account.js&#45;&gt;lib/acme&#45;requests/NewAccountRequest.js -->
<g id="edge5" class="edge">
<title>lib/Account.js&#45;&gt;lib/acme&#45;requests/NewAccountRequest.js</title>
<path fill="none" stroke="#000000" stroke-width="2" stroke-opacity="0.200000" d="M344.7897,-52.8269C364.9331,-51.3575 392.2812,-49.3625 417.074,-47.5539"/>
<polygon fill="#000000" fill-opacity="0.200000" stroke="#000000" stroke-width="2" stroke-opacity="0.200000" points="417.4849,-49.6296 423.3162,-47.0985 417.1793,-45.4407 417.4849,-49.6296"/>
</g>
<!-- lib/acme&#45;requests/NewAccountRequest.js&#45;&gt;lib/AcmeRequest.js -->
<g id="edge29" class="edge">
<title>lib/acme&#45;requests/NewAccountRequest.js&#45;&gt;lib/AcmeRequest.js</title>
<path fill="none" stroke="#000000" stroke-width="2" stroke-opacity="0.200000" d="M535.6003,-44.1044C550.7531,-46.2943 566.6397,-50.4463 580,-58 598.7203,-68.5842 613.305,-89.2184 621.6551,-103.3033"/>
<polygon fill="#000000" fill-opacity="0.200000" stroke="#000000" stroke-width="2" stroke-opacity="0.200000" points="620.0467,-104.7216 624.846,-108.8903 623.6939,-102.6386 620.0467,-104.7216"/>
</g>
<!-- lib/Nonce.js -->
<g id="node9" class="node">
<title>lib/Nonce.js</title>
<g id="a_node9"><a xlink:href="lib/Nonce.js" xlink:title="Nonce.js">
<path fill="#ffffcc" stroke="#000000" d="M732,-127C732,-127 690,-127 690,-127 687,-127 684,-124 684,-121 684,-121 684,-115 684,-115 684,-112 687,-109 690,-109 690,-109 732,-109 732,-109 735,-109 738,-112 738,-115 738,-115 738,-121 738,-121 738,-124 735,-127 732,-127"/>
<text text-anchor="middle" x="711" y="-115.8" font-family="Helvetica,sans-Serif" font-size="9.00" fill="#000000">Nonce.js</text>
</a>
</g>
</g>
<!-- lib/AcmeRequest.js&#45;&gt;lib/Nonce.js -->
<g id="edge6" class="edge">
<title>lib/AcmeRequest.js&#45;&gt;lib/Nonce.js</title>
<path fill="none" stroke="#000000" stroke-width="2" stroke-opacity="0.200000" d="M671.205,-118C673.3198,-118 675.4312,-118 677.5164,-118"/>
<polygon fill="#000000" fill-opacity="0.200000" stroke="#000000" stroke-width="2" stroke-opacity="0.200000" points="677.6704,-120.1001 683.6704,-118 677.6704,-115.9001 677.6704,-120.1001"/>
</g>
<!-- lib/Authorisation.js -->
<g id="node10" class="node">
<title>lib/Authorisation.js</title>
<g id="a_node10"><a xlink:href="lib/Authorisation.js" xlink:title="Authorisation.js">
<path fill="#ffffcc" stroke="#000000" d="M349,-202C349,-202 281,-202 281,-202 278,-202 275,-199 275,-196 275,-196 275,-190 275,-190 275,-187 278,-184 281,-184 281,-184 349,-184 349,-184 352,-184 355,-187 355,-190 355,-190 355,-196 355,-196 355,-199 352,-202 349,-202"/>
<text text-anchor="middle" x="315" y="-190.8" font-family="Helvetica,sans-Serif" font-size="9.00" fill="#000000">Authorisation.js</text>
</a>
</g>
</g>
<!-- lib/acme&#45;requests/AuthorisationRequest.js -->
<g id="node11" class="node">
<title>lib/acme&#45;requests/AuthorisationRequest.js</title>
<g id="a_node11"><a xlink:href="lib/acme-requests/AuthorisationRequest.js" xlink:title="AuthorisationRequest.js">
<path fill="#ffffcc" stroke="#000000" d="M530.5,-202C530.5,-202 428.5,-202 428.5,-202 425.5,-202 422.5,-199 422.5,-196 422.5,-196 422.5,-190 422.5,-190 422.5,-187 425.5,-184 428.5,-184 428.5,-184 530.5,-184 530.5,-184 533.5,-184 536.5,-187 536.5,-190 536.5,-190 536.5,-196 536.5,-196 536.5,-199 533.5,-202 530.5,-202"/>
<text text-anchor="middle" x="479.5" y="-190.8" font-family="Helvetica,sans-Serif" font-size="9.00" fill="#000000">AuthorisationRequest.js</text>
</a>
</g>
</g>
<!-- lib/Authorisation.js&#45;&gt;lib/acme&#45;requests/AuthorisationRequest.js -->
<g id="edge7" class="edge">
<title>lib/Authorisation.js&#45;&gt;lib/acme&#45;requests/AuthorisationRequest.js</title>
<path fill="none" stroke="#000000" stroke-width="2" stroke-opacity="0.200000" d="M355.2412,-193C373.5944,-193 395.7621,-193 416.2628,-193"/>
<polygon fill="#000000" fill-opacity="0.200000" stroke="#000000" stroke-width="2" stroke-opacity="0.200000" points="416.2798,-195.1001 422.2798,-193 416.2797,-190.9001 416.2798,-195.1001"/>
</g>
<!-- lib/acme&#45;requests/ReadyForChallengeValidationRequest.js -->
<g id="node12" class="node">
<title>lib/acme&#45;requests/ReadyForChallengeValidationRequest.js</title>
<g id="a_node12"><a xlink:href="lib/acme-requests/ReadyForChallengeValidationRequest.js" xlink:title="ReadyForChallengeValidationRequest.js">
<path fill="#ffffcc" stroke="#000000" d="M566,-232C566,-232 393,-232 393,-232 390,-232 387,-229 387,-226 387,-226 387,-220 387,-220 387,-217 390,-214 393,-214 393,-214 566,-214 566,-214 569,-214 572,-217 572,-220 572,-220 572,-226 572,-226 572,-229 569,-232 566,-232"/>
<text text-anchor="middle" x="479.5" y="-220.8" font-family="Helvetica,sans-Serif" font-size="9.00" fill="#000000">ReadyForChallengeValidationRequest.js</text>
</a>
</g>
</g>
<!-- lib/Authorisation.js&#45;&gt;lib/acme&#45;requests/ReadyForChallengeValidationRequest.js -->
<g id="edge8" class="edge">
<title>lib/Authorisation.js&#45;&gt;lib/acme&#45;requests/ReadyForChallengeValidationRequest.js</title>
<path fill="none" stroke="#000000" stroke-width="2" stroke-opacity="0.200000" d="M351.1051,-202.0081C360.1801,-204.1215 369.9211,-206.2616 379,-208 388.2547,-209.7721 398.0227,-211.4577 407.6868,-213.0158"/>
<polygon fill="#000000" fill-opacity="0.200000" stroke="#000000" stroke-width="2" stroke-opacity="0.200000" points="407.4299,-215.1012 413.6851,-213.9691 408.0891,-210.9533 407.4299,-215.1012"/>
</g>
<!-- lib/ChallengeServer.js -->
<g id="node13" class="node">
<title>lib/ChallengeServer.js</title>
<g id="a_node13"><a xlink:href="lib/ChallengeServer.js" xlink:title="ChallengeServer.js">
<path fill="#ffffcc" stroke="#000000" d="M521,-284C521,-284 438,-284 438,-284 435,-284 432,-281 432,-278 432,-278 432,-272 432,-272 432,-269 435,-266 438,-266 438,-266 521,-266 521,-266 524,-266 527,-269 527,-272 527,-272 527,-278 527,-278 527,-281 524,-284 521,-284"/>
<text text-anchor="middle" x="479.5" y="-272.8" font-family="Helvetica,sans-Serif" font-size="9.00" fill="#000000">ChallengeServer.js</text>
</a>
</g>
</g>
<!-- lib/Authorisation.js&#45;&gt;lib/ChallengeServer.js -->
<g id="edge9" class="edge">
<title>lib/Authorisation.js&#45;&gt;lib/ChallengeServer.js</title>
<path fill="none" stroke="#000000" stroke-width="2" stroke-opacity="0.200000" d="M355.0673,-199.8179C361.1154,-202.4354 366.7436,-206.0402 371,-211 385.6562,-228.0782 362.9264,-245.2485 379,-261 391.2705,-273.0246 408.777,-277.9194 425.7495,-279.3715"/>
<polygon fill="#000000" fill-opacity="0.200000" stroke="#000000" stroke-width="2" stroke-opacity="0.200000" points="425.849,-281.4816 431.9676,-279.7575 426.1093,-277.2897 425.849,-281.4816"/>
</g>
<!-- lib/acme&#45;requests/AuthorisationRequest.js&#45;&gt;lib/AcmeRequest.js -->
<g id="edge25" class="edge">
<title>lib/acme&#45;requests/AuthorisationRequest.js&#45;&gt;lib/AcmeRequest.js</title>
<path fill="none" stroke="#000000" stroke-width="2" stroke-opacity="0.200000" d="M536.6465,-191.7414C551.4822,-189.513 566.9468,-185.3801 580,-178 598.7203,-167.4158 613.305,-146.7816 621.6551,-132.6967"/>
<polygon fill="#000000" fill-opacity="0.200000" stroke="#000000" stroke-width="2" stroke-opacity="0.200000" points="623.6939,-133.3614 624.846,-127.1097 620.0467,-131.2784 623.6939,-133.3614"/>
</g>
<!-- lib/acme&#45;requests/ReadyForChallengeValidationRequest.js&#45;&gt;lib/AcmeRequest.js -->
<g id="edge31" class="edge">
<title>lib/acme&#45;requests/ReadyForChallengeValidationRequest.js&#45;&gt;lib/AcmeRequest.js</title>
<path fill="none" stroke="#000000" stroke-width="2" stroke-opacity="0.200000" d="M569.9166,-213.8706C573.4344,-212.164 576.8146,-210.2171 580,-208 605.9973,-189.9051 619.7488,-153.5922 625.7322,-133.0536"/>
<polygon fill="#000000" fill-opacity="0.200000" stroke="#000000" stroke-width="2" stroke-opacity="0.200000" points="627.7691,-133.5664 627.3447,-127.2237 623.7211,-132.4467 627.7691,-133.5664"/>
</g>
<!-- lib/Identity.js -->
<g id="node19" class="node">
<title>lib/Identity.js</title>
<g id="a_node19"><a xlink:href="lib/Identity.js" xlink:title="Identity.js">
<path fill="#ffffcc" stroke="#000000" d="M501,-314C501,-314 458,-314 458,-314 455,-314 452,-311 452,-308 452,-308 452,-302 452,-302 452,-299 455,-296 458,-296 458,-296 501,-296 501,-296 504,-296 507,-299 507,-302 507,-302 507,-308 507,-308 507,-311 504,-314 501,-314"/>
<text text-anchor="middle" x="479.5" y="-302.8" font-family="Helvetica,sans-Serif" font-size="9.00" fill="#000000">Identity.js</text>
</a>
</g>
</g>
<!-- lib/identities/AccountIdentity.js&#45;&gt;lib/Identity.js -->
<g id="edge32" class="edge">
<title>lib/identities/AccountIdentity.js&#45;&gt;lib/Identity.js</title>
<path fill="none" stroke="#000000" stroke-width="2" stroke-opacity="0.200000" d="M342.5,-280.0864C353.7258,-283.5532 366.8928,-287.3133 379,-290 400.9119,-294.8625 425.8675,-298.5968 445.429,-301.1232"/>
<polygon fill="#000000" fill-opacity="0.200000" stroke="#000000" stroke-width="2" stroke-opacity="0.200000" points="445.3638,-303.2316 451.5799,-301.901 445.8908,-299.0648 445.3638,-303.2316"/>
</g>
<!-- lib/identities/CertificateIdentity.js&#45;&gt;lib/Identity.js -->
<g id="edge33" class="edge">
<title>lib/identities/CertificateIdentity.js&#45;&gt;lib/Identity.js</title>
<path fill="none" stroke="#000000" stroke-width="2" stroke-opacity="0.200000" d="M363.1844,-249.8889C366.0409,-251.5969 368.6876,-253.6157 371,-256 381.8076,-267.1437 367.5774,-279.4875 379,-290 396.6034,-306.2009 423.7591,-309.4466 445.4066,-308.9166"/>
<polygon fill="#000000" fill-opacity="0.200000" stroke="#000000" stroke-width="2" stroke-opacity="0.200000" points="445.734,-311.0049 451.6418,-308.6581 445.5599,-306.8085 445.734,-311.0049"/>
</g>
<!-- lib/Order.js&#45;&gt;lib/Authorisation.js -->
<g id="edge22" class="edge">
<title>lib/Order.js&#45;&gt;lib/Authorisation.js</title>
<path fill="none" stroke="#000000" stroke-width="2" stroke-opacity="0.200000" d="M239.4628,-165.0512C253.022,-170.0681 270.0063,-176.3523 284.4339,-181.6906"/>
<polygon fill="#000000" fill-opacity="0.200000" stroke="#000000" stroke-width="2" stroke-opacity="0.200000" points="284.0873,-183.8014 290.4432,-183.914 285.5448,-179.8624 284.0873,-183.8014"/>
</g>
<!-- lib/Order.js&#45;&gt;lib/ChallengeServer.js -->
<g id="edge23" class="edge">
<title>lib/Order.js&#45;&gt;lib/ChallengeServer.js</title>
<path fill="none" stroke="#000000" stroke-width="2" stroke-opacity="0.200000" d="M242.1273,-162.2533C245.4728,-163.981 248.5651,-166.186 251,-169 262.5778,-182.3806 245.9574,-196.0427 259,-208 295.938,-241.8644 334.1455,-187.0447 371,-221 384.3335,-233.2846 365.8078,-248.5639 379,-261 391.444,-272.7309 408.9022,-277.578 425.7823,-279.0753"/>
<polygon fill="#000000" fill-opacity="0.200000" stroke="#000000" stroke-width="2" stroke-opacity="0.200000" points="425.8399,-281.1835 431.9648,-279.4819 426.1156,-276.9925 425.8399,-281.1835"/>
</g>
<!-- lib/Order.js&#45;&gt;lib/identities/CertificateIdentity.js -->
<g id="edge24" class="edge">
<title>lib/Order.js&#45;&gt;lib/identities/CertificateIdentity.js</title>
<path fill="none" stroke="#000000" stroke-width="2" stroke-opacity="0.200000" d="M240.9465,-165.0767C244.8136,-167.4432 248.3757,-170.3788 251,-174 265.2372,-193.6455 242.5531,-210.1635 259,-228 259.8626,-228.9355 260.7783,-229.8101 261.7395,-230.6275"/>
<polygon fill="#000000" fill-opacity="0.200000" stroke="#000000" stroke-width="2" stroke-opacity="0.200000" points="260.776,-232.5175 266.8908,-234.2553 263.1943,-229.0836 260.776,-232.5175"/>
</g>
<!-- lib/acme&#45;requests/CertificateRequest.js -->
<g id="node20" class="node">
<title>lib/acme&#45;requests/CertificateRequest.js</title>
<g id="a_node20"><a xlink:href="lib/acme-requests/CertificateRequest.js" xlink:title="CertificateRequest.js">
<path fill="#ffffcc" stroke="#000000" d="M524,-142C524,-142 435,-142 435,-142 432,-142 429,-139 429,-136 429,-136 429,-130 429,-130 429,-127 432,-124 435,-124 435,-124 524,-124 524,-124 527,-124 530,-127 530,-130 530,-130 530,-136 530,-136 530,-139 527,-142 524,-142"/>
<text text-anchor="middle" x="479.5" y="-130.8" font-family="Helvetica,sans-Serif" font-size="9.00" fill="#000000">CertificateRequest.js</text>
</a>
</g>
</g>
<!-- lib/Order.js&#45;&gt;lib/acme&#45;requests/CertificateRequest.js -->
<g id="edge17" class="edge">
<title>lib/Order.js&#45;&gt;lib/acme&#45;requests/CertificateRequest.js</title>
<path fill="none" stroke="#000000" stroke-width="2" stroke-opacity="0.200000" d="M242.3099,-153.6252C284.6318,-149.9451 366.9699,-142.7852 422.6051,-137.9474"/>
<polygon fill="#000000" fill-opacity="0.200000" stroke="#000000" stroke-width="2" stroke-opacity="0.200000" points="423.1193,-140.0107 428.9148,-137.3987 422.7554,-135.8265 423.1193,-140.0107"/>
</g>
<!-- lib/acme&#45;requests/CheckOrderStatusRequest.js -->
<g id="node21" class="node">
<title>lib/acme&#45;requests/CheckOrderStatusRequest.js</title>
<g id="a_node21"><a xlink:href="lib/acme-requests/CheckOrderStatusRequest.js" xlink:title="CheckOrderStatusRequest.js">
<path fill="#ffffcc" stroke="#000000" d="M541,-172C541,-172 418,-172 418,-172 415,-172 412,-169 412,-166 412,-166 412,-160 412,-160 412,-157 415,-154 418,-154 418,-154 541,-154 541,-154 544,-154 547,-157 547,-160 547,-160 547,-166 547,-166 547,-169 544,-172 541,-172"/>
<text text-anchor="middle" x="479.5" y="-160.8" font-family="Helvetica,sans-Serif" font-size="9.00" fill="#000000">CheckOrderStatusRequest.js</text>
</a>
</g>
</g>
<!-- lib/Order.js&#45;&gt;lib/acme&#45;requests/CheckOrderStatusRequest.js -->
<g id="edge18" class="edge">
<title>lib/Order.js&#45;&gt;lib/acme&#45;requests/CheckOrderStatusRequest.js</title>
<path fill="none" stroke="#000000" stroke-width="2" stroke-opacity="0.200000" d="M242.3099,-156.7228C280.5013,-157.7335 351.2791,-159.6066 405.6145,-161.0446"/>
<polygon fill="#000000" fill-opacity="0.200000" stroke="#000000" stroke-width="2" stroke-opacity="0.200000" points="405.7671,-163.1493 411.8206,-161.2089 405.8783,-158.9508 405.7671,-163.1493"/>
</g>
<!-- lib/acme&#45;requests/FinaliseOrderRequest.js -->
<g id="node22" class="node">
<title>lib/acme&#45;requests/FinaliseOrderRequest.js</title>
<g id="a_node22"><a xlink:href="lib/acme-requests/FinaliseOrderRequest.js" xlink:title="FinaliseOrderRequest.js">
<path fill="#ffffcc" stroke="#000000" d="M531.5,-82C531.5,-82 427.5,-82 427.5,-82 424.5,-82 421.5,-79 421.5,-76 421.5,-76 421.5,-70 421.5,-70 421.5,-67 424.5,-64 427.5,-64 427.5,-64 531.5,-64 531.5,-64 534.5,-64 537.5,-67 537.5,-70 537.5,-70 537.5,-76 537.5,-76 537.5,-79 534.5,-82 531.5,-82"/>
<text text-anchor="middle" x="479.5" y="-70.8" font-family="Helvetica,sans-Serif" font-size="9.00" fill="#000000">FinaliseOrderRequest.js</text>
</a>
</g>
</g>
<!-- lib/Order.js&#45;&gt;lib/acme&#45;requests/FinaliseOrderRequest.js -->
<g id="edge19" class="edge">
<title>lib/Order.js&#45;&gt;lib/acme&#45;requests/FinaliseOrderRequest.js</title>
<path fill="none" stroke="#000000" stroke-width="2" stroke-opacity="0.200000" d="M242.2802,-148.2858C245.6033,-146.3655 248.6486,-143.9745 251,-141 264.6841,-123.6893 242.8163,-107 259,-92 281.0235,-71.5873 358.3536,-69.0182 415.2436,-70.1129"/>
<polygon fill="#000000" fill-opacity="0.200000" stroke="#000000" stroke-width="2" stroke-opacity="0.200000" points="415.3329,-72.2153 421.3773,-70.2465 415.4244,-68.0163 415.3329,-72.2153"/>
</g>
<!-- lib/acme&#45;requests/NewOrderRequest.js -->
<g id="node23" class="node">
<title>lib/acme&#45;requests/NewOrderRequest.js</title>
<g id="a_node23"><a xlink:href="lib/acme-requests/NewOrderRequest.js" xlink:title="NewOrderRequest.js">
<path fill="#ffffcc" stroke="#000000" d="M524.5,-112C524.5,-112 434.5,-112 434.5,-112 431.5,-112 428.5,-109 428.5,-106 428.5,-106 428.5,-100 428.5,-100 428.5,-97 431.5,-94 434.5,-94 434.5,-94 524.5,-94 524.5,-94 527.5,-94 530.5,-97 530.5,-100 530.5,-100 530.5,-106 530.5,-106 530.5,-109 527.5,-112 524.5,-112"/>
<text text-anchor="middle" x="479.5" y="-100.8" font-family="Helvetica,sans-Serif" font-size="9.00" fill="#000000">NewOrderRequest.js</text>
</a>
</g>
</g>
<!-- lib/Order.js&#45;&gt;lib/acme&#45;requests/NewOrderRequest.js -->
<g id="edge20" class="edge">
<title>lib/Order.js&#45;&gt;lib/acme&#45;requests/NewOrderRequest.js</title>
<path fill="none" stroke="#000000" stroke-width="2" stroke-opacity="0.200000" d="M242.3539,-147.8434C245.5823,-145.9955 248.582,-143.7425 251,-141 259.8422,-130.971 248.5301,-120.3155 259,-112 283.3517,-92.6592 365.4847,-94.2282 422.3262,-97.9655"/>
<polygon fill="#000000" fill-opacity="0.200000" stroke="#000000" stroke-width="2" stroke-opacity="0.200000" points="422.306,-100.0689 428.4349,-98.3817 422.5916,-95.8786 422.306,-100.0689"/>
</g>
<!-- lib/acmeCsr.js -->
<g id="node24" class="node">
<title>lib/acmeCsr.js</title>
<g id="a_node24"><a xlink:href="lib/acmeCsr.js" xlink:title="acmeCsr.js">
<path fill="#ffffcc" stroke="#000000" d="M340,-136C340,-136 290,-136 290,-136 287,-136 284,-133 284,-130 284,-130 284,-124 284,-124 284,-121 287,-118 290,-118 290,-118 340,-118 340,-118 343,-118 346,-121 346,-124 346,-124 346,-130 346,-130 346,-133 343,-136 340,-136"/>
<text text-anchor="middle" x="315" y="-124.8" font-family="Helvetica,sans-Serif" font-size="9.00" fill="#000000">acmeCsr.js</text>
</a>
</g>
</g>
<!-- lib/Order.js&#45;&gt;lib/acmeCsr.js -->
<g id="edge21" class="edge">
<title>lib/Order.js&#45;&gt;lib/acmeCsr.js</title>
<path fill="none" stroke="#000000" stroke-width="2" stroke-opacity="0.200000" d="M242.0614,-148.1522C252.9964,-144.981 265.8002,-141.2679 277.6019,-137.8454"/>
<polygon fill="#000000" fill-opacity="0.200000" stroke="#000000" stroke-width="2" stroke-opacity="0.200000" points="278.4893,-139.7747 283.6669,-136.0866 277.3194,-135.7409 278.4893,-139.7747"/>
</g>
<!-- lib/acme&#45;requests/CertificateRequest.js&#45;&gt;lib/AcmeRequest.js -->
<g id="edge26" class="edge">
<title>lib/acme&#45;requests/CertificateRequest.js&#45;&gt;lib/AcmeRequest.js</title>
<path fill="none" stroke="#000000" stroke-width="2" stroke-opacity="0.200000" d="M530.2832,-127.9217C546.7903,-126.271 565.0507,-124.4449 581.359,-122.8141"/>
<polygon fill="#000000" fill-opacity="0.200000" stroke="#000000" stroke-width="2" stroke-opacity="0.200000" points="581.9803,-124.8625 587.7416,-122.1758 581.5623,-120.6834 581.9803,-124.8625"/>
</g>
<!-- lib/acme&#45;requests/CheckOrderStatusRequest.js&#45;&gt;lib/AcmeRequest.js -->
<g id="edge27" class="edge">
<title>lib/acme&#45;requests/CheckOrderStatusRequest.js&#45;&gt;lib/AcmeRequest.js</title>
<path fill="none" stroke="#000000" stroke-width="2" stroke-opacity="0.200000" d="M547.1796,-156.6637C558.3326,-154.5548 569.6296,-151.7446 580,-148 591.5353,-143.8348 603.3225,-136.8225 612.4996,-130.6245"/>
<polygon fill="#000000" fill-opacity="0.200000" stroke="#000000" stroke-width="2" stroke-opacity="0.200000" points="613.8491,-132.2441 617.5796,-127.0969 611.4535,-128.7942 613.8491,-132.2441"/>
</g>
<!-- lib/acme&#45;requests/FinaliseOrderRequest.js&#45;&gt;lib/AcmeRequest.js -->
<g id="edge28" class="edge">
<title>lib/acme&#45;requests/FinaliseOrderRequest.js&#45;&gt;lib/AcmeRequest.js</title>
<path fill="none" stroke="#000000" stroke-width="2" stroke-opacity="0.200000" d="M537.6048,-77.6831C551.7487,-79.904 566.6429,-83.177 580,-88 591.5353,-92.1652 603.3225,-99.1775 612.4996,-105.3755"/>
<polygon fill="#000000" fill-opacity="0.200000" stroke="#000000" stroke-width="2" stroke-opacity="0.200000" points="611.4535,-107.2058 617.5796,-108.9031 613.8491,-103.7559 611.4535,-107.2058"/>
</g>
<!-- lib/acme&#45;requests/NewOrderRequest.js&#45;&gt;lib/AcmeRequest.js -->
<g id="edge30" class="edge">
<title>lib/acme&#45;requests/NewOrderRequest.js&#45;&gt;lib/AcmeRequest.js</title>
<path fill="none" stroke="#000000" stroke-width="2" stroke-opacity="0.200000" d="M530.702,-108.1202C547.1855,-109.7685 565.3799,-111.588 581.6154,-113.2115"/>
<polygon fill="#000000" fill-opacity="0.200000" stroke="#000000" stroke-width="2" stroke-opacity="0.200000" points="581.7895,-115.3393 587.9687,-113.8469 582.2075,-111.1602 581.7895,-115.3393"/>
</g>
</g>
</svg>
