<?xml version="1.0" encoding="UTF-8" standalone="no"?>
<!DOCTYPE svg PUBLIC "-//W3C//DTD SVG 1.1//EN"
 "http://www.w3.org/Graphics/SVG/1.1/DTD/svg11.dtd">
<!-- Generated by graphviz version 2.40.1 (20161225.0304)
 -->
<!-- Title: dependency&#45;cruiser output Pages: 1 -->
<svg width="776pt" height="769pt"
 viewBox="0.00 0.00 776.00 768.61" xmlns="http://www.w3.org/2000/svg" xmlns:xlink="http://www.w3.org/1999/xlink">
<g id="graph0" class="graph" transform="scale(1 1) rotate(0) translate(4 764.6063)">
<title>dependency&#45;cruiser output</title>
<polygon fill="#ffffff" stroke="transparent" points="-4,4 -4,-764.6063 772,-764.6063 772,4 -4,4"/>
<g id="clust1" class="cluster">
<title>cluster_lib</title>
<path fill="#ffffff" stroke="#000000" stroke-width="2" d="M74,-128.6063C74,-128.6063 725.5,-128.6063 725.5,-128.6063 731.5,-128.6063 737.5,-134.6063 737.5,-140.6063 737.5,-140.6063 737.5,-632.6063 737.5,-632.6063 737.5,-638.6063 731.5,-644.6063 725.5,-644.6063 725.5,-644.6063 74,-644.6063 74,-644.6063 68,-644.6063 62,-638.6063 62,-632.6063 62,-632.6063 62,-140.6063 62,-140.6063 62,-134.6063 68,-128.6063 74,-128.6063"/>
<text text-anchor="middle" x="399.75" y="-633.4063" font-family="Helvetica,sans-Serif" font-weight="bold" font-size="9.00" fill="#000000">lib</text>
</g>
<g id="clust2" class="cluster">
<title>cluster_lib/acme&#45;requests</title>
<path fill="#ffffff" stroke="#000000" stroke-width="2" d="M341,-346.6063C341,-346.6063 518,-346.6063 518,-346.6063 524,-346.6063 530,-352.6063 530,-358.6063 530,-358.6063 530,-536.6063 530,-536.6063 530,-542.6063 524,-548.6063 518,-548.6063 518,-548.6063 341,-548.6063 341,-548.6063 335,-548.6063 329,-542.6063 329,-536.6063 329,-536.6063 329,-358.6063 329,-358.6063 329,-352.6063 335,-346.6063 341,-346.6063"/>
<text text-anchor="middle" x="429.5" y="-537.4063" font-family="Helvetica,sans-Serif" font-weight="bold" font-size="9.00" fill="#000000">acme&#45;requests</text>
</g>
<g id="clust3" class="cluster">
<title>cluster_lib/util</title>
<path fill="#ffffff" stroke="#000000" stroke-width="2" d="M550,-212.6063C550,-212.6063 625,-212.6063 625,-212.6063 631,-212.6063 637,-218.6063 637,-224.6063 637,-224.6063 637,-312.6063 637,-312.6063 637,-318.6063 631,-324.6063 625,-324.6063 625,-324.6063 550,-324.6063 550,-324.6063 544,-324.6063 538,-318.6063 538,-312.6063 538,-312.6063 538,-224.6063 538,-224.6063 538,-218.6063 544,-212.6063 550,-212.6063"/>
<text text-anchor="middle" x="587.5" y="-313.4063" font-family="Helvetica,sans-Serif" font-weight="bold" font-size="9.00" fill="#000000">util</text>
</g>
<g id="clust4" class="cluster">
<title>cluster_lib/x.509</title>
<path fill="#ffffff" stroke="#000000" stroke-width="2" d="M157,-566.6063C157,-566.6063 306.5,-566.6063 306.5,-566.6063 312.5,-566.6063 318.5,-572.6063 318.5,-578.6063 318.5,-578.6063 318.5,-606.6063 318.5,-606.6063 318.5,-612.6063 312.5,-618.6063 306.5,-618.6063 306.5,-618.6063 157,-618.6063 157,-618.6063 151,-618.6063 145,-612.6063 145,-606.6063 145,-606.6063 145,-578.6063 145,-578.6063 145,-572.6063 151,-566.6063 157,-566.6063"/>
<text text-anchor="middle" x="231.75" y="-607.4063" font-family="Helvetica,sans-Serif" font-weight="bold" font-size="9.00" fill="#000000">x.509</text>
</g>
<g id="clust5" class="cluster">
<title>cluster_typedefs</title>
<path fill="#ffffff" stroke="#000000" stroke-width="2" d="M657,-34.6063C657,-34.6063 748,-34.6063 748,-34.6063 754,-34.6063 760,-40.6063 760,-46.6063 760,-46.6063 760,-108.6063 760,-108.6063 760,-114.6063 754,-120.6063 748,-120.6063 748,-120.6063 657,-120.6063 657,-120.6063 651,-120.6063 645,-114.6063 645,-108.6063 645,-108.6063 645,-46.6063 645,-46.6063 645,-40.6063 651,-34.6063 657,-34.6063"/>
<text text-anchor="middle" x="702.5" y="-109.4063" font-family="Helvetica,sans-Serif" font-weight="bold" font-size="9.00" fill="#000000">typedefs</text>
</g>
<g id="clust6" class="cluster">
<title>cluster_typedefs/lib</title>
<path fill="#ffffff" stroke="#000000" stroke-width="2" d="M665,-42.6063C665,-42.6063 740,-42.6063 740,-42.6063 746,-42.6063 752,-48.6063 752,-54.6063 752,-54.6063 752,-82.6063 752,-82.6063 752,-88.6063 746,-94.6063 740,-94.6063 740,-94.6063 665,-94.6063 665,-94.6063 659,-94.6063 653,-88.6063 653,-82.6063 653,-82.6063 653,-54.6063 653,-54.6063 653,-48.6063 659,-42.6063 665,-42.6063"/>
<text text-anchor="middle" x="702.5" y="-83.4063" font-family="Helvetica,sans-Serif" font-weight="bold" font-size="9.00" fill="#000000">lib</text>
</g>
<!-- crypto -->
<g id="node1" class="node">
<title>crypto</title>
<path fill="#ffffcc" stroke="#c0c0c0" d="M608.5,-670.6063C608.5,-670.6063 566.5,-670.6063 566.5,-670.6063 563.5,-670.6063 560.5,-667.6063 560.5,-664.6063 560.5,-664.6063 560.5,-658.6063 560.5,-658.6063 560.5,-655.6063 563.5,-652.6063 566.5,-652.6063 566.5,-652.6063 608.5,-652.6063 608.5,-652.6063 611.5,-652.6063 614.5,-655.6063 614.5,-658.6063 614.5,-658.6063 614.5,-664.6063 614.5,-664.6063 614.5,-667.6063 611.5,-670.6063 608.5,-670.6063"/>
<text text-anchor="middle" x="587.5" y="-659.4063" font-family="Helvetica,sans-Serif" font-size="9.00" fill="#c0c0c0">crypto</text>
</g>
<!-- events -->
<g id="node2" class="node">
<title>events</title>
<path fill="#ffffcc" stroke="#c0c0c0" d="M450.5,-670.6063C450.5,-670.6063 408.5,-670.6063 408.5,-670.6063 405.5,-670.6063 402.5,-667.6063 402.5,-664.6063 402.5,-664.6063 402.5,-658.6063 402.5,-658.6063 402.5,-655.6063 405.5,-652.6063 408.5,-652.6063 408.5,-652.6063 450.5,-652.6063 450.5,-652.6063 453.5,-652.6063 456.5,-655.6063 456.5,-658.6063 456.5,-658.6063 456.5,-664.6063 456.5,-664.6063 456.5,-667.6063 453.5,-670.6063 450.5,-670.6063"/>
<text text-anchor="middle" x="429.5" y="-659.4063" font-family="Helvetica,sans-Serif" font-size="9.00" fill="#c0c0c0">events</text>
</g>
<!-- fs -->
<g id="node3" class="node">
<title>fs</title>
<path fill="#ffffcc" stroke="#c0c0c0" d="M294,-120.6063C294,-120.6063 252,-120.6063 252,-120.6063 249,-120.6063 246,-117.6063 246,-114.6063 246,-114.6063 246,-108.6063 246,-108.6063 246,-105.6063 249,-102.6063 252,-102.6063 252,-102.6063 294,-102.6063 294,-102.6063 297,-102.6063 300,-105.6063 300,-108.6063 300,-108.6063 300,-114.6063 300,-114.6063 300,-117.6063 297,-120.6063 294,-120.6063"/>
<text text-anchor="middle" x="273" y="-109.4063" font-family="Helvetica,sans-Serif" font-size="9.00" fill="#c0c0c0">fs</text>
</g>
<!-- http -->
<g id="node4" class="node">
<title>http</title>
<path fill="#ffffcc" stroke="#c0c0c0" d="M608.5,-760.6063C608.5,-760.6063 566.5,-760.6063 566.5,-760.6063 563.5,-760.6063 560.5,-757.6063 560.5,-754.6063 560.5,-754.6063 560.5,-748.6063 560.5,-748.6063 560.5,-745.6063 563.5,-742.6063 566.5,-742.6063 566.5,-742.6063 608.5,-742.6063 608.5,-742.6063 611.5,-742.6063 614.5,-745.6063 614.5,-748.6063 614.5,-748.6063 614.5,-754.6063 614.5,-754.6063 614.5,-757.6063 611.5,-760.6063 608.5,-760.6063"/>
<text text-anchor="middle" x="587.5" y="-749.4063" font-family="Helvetica,sans-Serif" font-size="9.00" fill="#c0c0c0">http</text>
</g>
<!-- index.js -->
<g id="node5" class="node">
<title>index.js</title>
<g id="a_node5"><a xlink:href="index.js" xlink:title="index.js">
<path fill="#ffffcc" stroke="#000000" d="M48,-79.6063C48,-79.6063 6,-79.6063 6,-79.6063 3,-79.6063 0,-76.6063 0,-73.6063 0,-73.6063 0,-67.6063 0,-67.6063 0,-64.6063 3,-61.6063 6,-61.6063 6,-61.6063 48,-61.6063 48,-61.6063 51,-61.6063 54,-64.6063 54,-67.6063 54,-67.6063 54,-73.6063 54,-73.6063 54,-76.6063 51,-79.6063 48,-79.6063"/>
<text text-anchor="middle" x="27" y="-68.4063" font-family="Helvetica,sans-Serif" font-size="9.00" fill="#000000">index.js</text>
</a>
</g>
</g>
<!-- lib/Certificate.js -->
<g id="node6" class="node">
<title>lib/Certificate.js</title>
<g id="a_node6"><a xlink:href="lib/Certificate.js" xlink:title="Certificate.js">
<path fill="#ffffcc" stroke="#000000" d="M131,-275.6063C131,-275.6063 76,-275.6063 76,-275.6063 73,-275.6063 70,-272.6063 70,-269.6063 70,-269.6063 70,-263.6063 70,-263.6063 70,-260.6063 73,-257.6063 76,-257.6063 76,-257.6063 131,-257.6063 131,-257.6063 134,-257.6063 137,-260.6063 137,-263.6063 137,-263.6063 137,-269.6063 137,-269.6063 137,-272.6063 134,-275.6063 131,-275.6063"/>
<text text-anchor="middle" x="103.5" y="-264.4063" font-family="Helvetica,sans-Serif" font-size="9.00" fill="#000000">Certificate.js</text>
</a>
</g>
</g>
<!-- index.js&#45;&gt;lib/Certificate.js -->
<g id="edge1" class="edge">
<title>index.js&#45;&gt;lib/Certificate.js</title>
<path fill="none" stroke="#000000" stroke-width="2" stroke-opacity="0.200000" d="M30.5704,-79.8078C36.894,-96.1 50.4821,-131.0881 62,-160.6063 74.6954,-193.1419 89.6391,-231.2699 97.6774,-251.7654"/>
<polygon fill="#000000" fill-opacity="0.200000" stroke="#000000" stroke-width="2" stroke-opacity="0.200000" points="95.7942,-252.7155 99.9402,-257.5343 99.7042,-251.1817 95.7942,-252.7155"/>
</g>
<!-- lib/Configuration.js -->
<g id="node7" class="node">
<title>lib/Configuration.js</title>
<g id="a_node7"><a xlink:href="lib/Configuration.js" xlink:title="Configuration.js">
<path fill="#ffffcc" stroke="#000000" d="M464,-238.6063C464,-238.6063 395,-238.6063 395,-238.6063 392,-238.6063 389,-235.6063 389,-232.6063 389,-232.6063 389,-226.6063 389,-226.6063 389,-223.6063 392,-220.6063 395,-220.6063 395,-220.6063 464,-220.6063 464,-220.6063 467,-220.6063 470,-223.6063 470,-226.6063 470,-226.6063 470,-232.6063 470,-232.6063 470,-235.6063 467,-238.6063 464,-238.6063"/>
<text text-anchor="middle" x="429.5" y="-227.4063" font-family="Helvetica,sans-Serif" font-size="9.00" fill="#000000">Configuration.js</text>
</a>
</g>
</g>
<!-- index.js&#45;&gt;lib/Configuration.js -->
<g id="edge2" class="edge">
<title>index.js&#45;&gt;lib/Configuration.js</title>
<path fill="none" stroke="#000000" stroke-width="2" stroke-opacity="0.200000" d="M54.1478,-70.355C117.8824,-70.1832 275.1589,-72.3108 321,-96.6063 372.1291,-123.7044 408.1206,-186.2191 422.5204,-214.8283"/>
<polygon fill="#000000" fill-opacity="0.200000" stroke="#000000" stroke-width="2" stroke-opacity="0.200000" points="420.7271,-215.94 425.2631,-220.3936 424.4944,-214.0834 420.7271,-215.94"/>
</g>
<!-- lib/Pluralise.js -->
<g id="node8" class="node">
<title>lib/Pluralise.js</title>
<g id="a_node8"><a xlink:href="lib/Pluralise.js" xlink:title="Pluralise.js">
<path fill="#ffffcc" stroke="#000000" d="M128.5,-154.6063C128.5,-154.6063 78.5,-154.6063 78.5,-154.6063 75.5,-154.6063 72.5,-151.6063 72.5,-148.6063 72.5,-148.6063 72.5,-142.6063 72.5,-142.6063 72.5,-139.6063 75.5,-136.6063 78.5,-136.6063 78.5,-136.6063 128.5,-136.6063 128.5,-136.6063 131.5,-136.6063 134.5,-139.6063 134.5,-142.6063 134.5,-142.6063 134.5,-148.6063 134.5,-148.6063 134.5,-151.6063 131.5,-154.6063 128.5,-154.6063"/>
<text text-anchor="middle" x="103.5" y="-143.4063" font-family="Helvetica,sans-Serif" font-size="9.00" fill="#000000">Pluralise.js</text>
</a>
</g>
</g>
<!-- index.js&#45;&gt;lib/Pluralise.js -->
<g id="edge3" class="edge">
<title>index.js&#45;&gt;lib/Pluralise.js</title>
<path fill="none" stroke="#000000" stroke-width="2" stroke-opacity="0.200000" d="M36.3804,-79.8027C49.6863,-92.8478 74.1356,-116.8177 89.566,-131.9455"/>
<polygon fill="#000000" fill-opacity="0.200000" stroke="#000000" stroke-width="2" stroke-opacity="0.200000" points="88.2882,-133.6337 94.0429,-136.3346 91.2286,-130.6345 88.2882,-133.6337"/>
</g>
<!-- lib/util/log.js -->
<g id="node9" class="node">
<title>lib/util/log.js</title>
<g id="a_node9"><a xlink:href="lib/util/log.js" xlink:title="log.js">
<path fill="#ffffcc" stroke="#000000" d="M608.5,-268.6063C608.5,-268.6063 566.5,-268.6063 566.5,-268.6063 563.5,-268.6063 560.5,-265.6063 560.5,-262.6063 560.5,-262.6063 560.5,-256.6063 560.5,-256.6063 560.5,-253.6063 563.5,-250.6063 566.5,-250.6063 566.5,-250.6063 608.5,-250.6063 608.5,-250.6063 611.5,-250.6063 614.5,-253.6063 614.5,-256.6063 614.5,-256.6063 614.5,-262.6063 614.5,-262.6063 614.5,-265.6063 611.5,-268.6063 608.5,-268.6063"/>
<text text-anchor="middle" x="587.5" y="-257.4063" font-family="Helvetica,sans-Serif" font-size="9.00" fill="#000000">log.js</text>
</a>
</g>
</g>
<!-- index.js&#45;&gt;lib/util/log.js -->
<g id="edge4" class="edge">
<title>index.js&#45;&gt;lib/util/log.js</title>
<path fill="none" stroke="#000000" stroke-width="2" stroke-opacity="0.200000" d="M54.1897,-66.9504C85.1833,-63.1054 137.394,-57.6063 182.5,-57.6063 182.5,-57.6063 182.5,-57.6063 273,-57.6063 391.1529,-57.6063 454.8251,-34.4535 530,-125.6063 546.8633,-146.0537 521.503,-223.8621 538,-244.6063 542.1937,-249.8796 548.1812,-253.3503 554.5509,-255.6221"/>
<polygon fill="#000000" fill-opacity="0.200000" stroke="#000000" stroke-width="2" stroke-opacity="0.200000" points="554.1175,-257.6842 560.4675,-257.3887 555.3192,-253.6598 554.1175,-257.6842"/>
</g>
<!-- lib/util/Throws.js -->
<g id="node10" class="node">
<title>lib/util/Throws.js</title>
<g id="a_node10"><a xlink:href="lib/util/Throws.js" xlink:title="Throws.js">
<path fill="#ffffcc" stroke="#000000" d="M609.5,-238.6063C609.5,-238.6063 565.5,-238.6063 565.5,-238.6063 562.5,-238.6063 559.5,-235.6063 559.5,-232.6063 559.5,-232.6063 559.5,-226.6063 559.5,-226.6063 559.5,-223.6063 562.5,-220.6063 565.5,-220.6063 565.5,-220.6063 609.5,-220.6063 609.5,-220.6063 612.5,-220.6063 615.5,-223.6063 615.5,-226.6063 615.5,-226.6063 615.5,-232.6063 615.5,-232.6063 615.5,-235.6063 612.5,-238.6063 609.5,-238.6063"/>
<text text-anchor="middle" x="587.5" y="-227.4063" font-family="Helvetica,sans-Serif" font-size="9.00" fill="#000000">Throws.js</text>
</a>
</g>
</g>
<!-- index.js&#45;&gt;lib/util/Throws.js -->
<g id="edge5" class="edge">
<title>index.js&#45;&gt;lib/util/Throws.js</title>
<path fill="none" stroke="#000000" stroke-width="2" stroke-opacity="0.200000" d="M37.9592,-61.5436C44.529,-56.606 53.279,-50.856 62,-47.6063 112.625,-28.7417 128.4744,-31.6063 182.5,-31.6063 182.5,-31.6063 182.5,-31.6063 273,-31.6063 330.2217,-31.6063 485.0504,-12.1965 530,-47.6063 539.4973,-55.0879 534.3939,-62.0664 538,-73.6063 554.1628,-125.3284 573.7153,-186.5639 582.6372,-214.4342"/>
<polygon fill="#000000" fill-opacity="0.200000" stroke="#000000" stroke-width="2" stroke-opacity="0.200000" points="580.7408,-215.3981 584.5708,-220.4717 584.7406,-214.1171 580.7408,-215.3981"/>
</g>
<!-- os -->
<g id="node11" class="node">
<title>os</title>
<path fill="#ffffcc" stroke="#c0c0c0" d="M608.5,-67.6063C608.5,-67.6063 566.5,-67.6063 566.5,-67.6063 563.5,-67.6063 560.5,-64.6063 560.5,-61.6063 560.5,-61.6063 560.5,-55.6063 560.5,-55.6063 560.5,-52.6063 563.5,-49.6063 566.5,-49.6063 566.5,-49.6063 608.5,-49.6063 608.5,-49.6063 611.5,-49.6063 614.5,-52.6063 614.5,-55.6063 614.5,-55.6063 614.5,-61.6063 614.5,-61.6063 614.5,-64.6063 611.5,-67.6063 608.5,-67.6063"/>
<text text-anchor="middle" x="587.5" y="-56.4063" font-family="Helvetica,sans-Serif" font-size="9.00" fill="#c0c0c0">os</text>
</g>
<!-- index.js&#45;&gt;os -->
<g id="edge6" class="edge">
<title>index.js&#45;&gt;os</title>
<path fill="none" stroke="#000000" stroke-dasharray="5,2" stroke-opacity="0.200000" d="M30.8543,-61.2339C36.0871,-49.8055 46.5891,-30.8708 62,-21.6063 108.3027,6.2294 128.4744,-5.6063 182.5,-5.6063 182.5,-5.6063 182.5,-5.6063 273,-5.6063 387.4434,-5.6063 421.258,14.0652 530,-21.6063 545.6502,-26.7401 561.2268,-37.1779 572.2122,-45.6622"/>
<polygon fill="#000000" fill-opacity="0.200000" stroke="#000000" stroke-opacity="0.200000" points="570.9145,-47.3132 576.9202,-49.3968 573.5246,-44.0227 570.9145,-47.3132"/>
</g>
<!-- lib/Certificate.js&#45;&gt;lib/util/log.js -->
<g id="edge27" class="edge">
<title>lib/Certificate.js&#45;&gt;lib/util/log.js</title>
<path fill="none" stroke="#000000" stroke-width="2" stroke-opacity="0.200000" d="M112.381,-257.5878C120.357,-249.8813 132.6768,-238.9123 145,-231.6063 177.8004,-212.1599 187.5179,-207.6145 225,-200.6063 294.9608,-187.5252 521.4642,-207.5823 530,-214.6063 540.6554,-223.3745 528.4079,-234.686 538,-244.6063 542.4474,-249.2058 548.2535,-252.4069 554.3176,-254.6319"/>
<polygon fill="#000000" fill-opacity="0.200000" stroke="#000000" stroke-width="2" stroke-opacity="0.200000" points="554.0734,-256.756 560.4269,-256.547 555.3298,-252.7483 554.0734,-256.756"/>
</g>
<!-- lib/Certificate.js&#45;&gt;lib/util/Throws.js -->
<g id="edge28" class="edge">
<title>lib/Certificate.js&#45;&gt;lib/util/Throws.js</title>
<path fill="none" stroke="#000000" stroke-width="2" stroke-opacity="0.200000" d="M106.7577,-257.3195C112.3161,-242.8265 125.009,-214.9093 145,-199.6063 212.7749,-147.7247 244.5455,-156.9585 329,-144.6063 417.3929,-131.678 451.0951,-102.7199 530,-144.6063 557.9519,-159.4444 574.797,-194.6128 582.4914,-214.7558"/>
<polygon fill="#000000" fill-opacity="0.200000" stroke="#000000" stroke-width="2" stroke-opacity="0.200000" points="580.554,-215.5724 584.5877,-220.4856 584.4983,-214.1293 580.554,-215.5724"/>
</g>
<!-- lib/Account.js -->
<g id="node12" class="node">
<title>lib/Account.js</title>
<g id="a_node12"><a xlink:href="lib/Account.js" xlink:title="Account.js">
<path fill="#ffffcc" stroke="#000000" d="M296.5,-275.6063C296.5,-275.6063 249.5,-275.6063 249.5,-275.6063 246.5,-275.6063 243.5,-272.6063 243.5,-269.6063 243.5,-269.6063 243.5,-263.6063 243.5,-263.6063 243.5,-260.6063 246.5,-257.6063 249.5,-257.6063 249.5,-257.6063 296.5,-257.6063 296.5,-257.6063 299.5,-257.6063 302.5,-260.6063 302.5,-263.6063 302.5,-263.6063 302.5,-269.6063 302.5,-269.6063 302.5,-272.6063 299.5,-275.6063 296.5,-275.6063"/>
<text text-anchor="middle" x="273" y="-264.4063" font-family="Helvetica,sans-Serif" font-size="9.00" fill="#000000">Account.js</text>
</a>
</g>
</g>
<!-- lib/Certificate.js&#45;&gt;lib/Account.js -->
<g id="edge21" class="edge">
<title>lib/Certificate.js&#45;&gt;lib/Account.js</title>
<path fill="none" stroke="#000000" stroke-width="2" stroke-opacity="0.200000" d="M137.3935,-266.6063C166.346,-266.6063 207.8642,-266.6063 237.3191,-266.6063"/>
<polygon fill="#000000" fill-opacity="0.200000" stroke="#000000" stroke-width="2" stroke-opacity="0.200000" points="237.4126,-268.7064 243.4125,-266.6063 237.4125,-264.5064 237.4126,-268.7064"/>
</g>
<!-- lib/AcmeRequest.js -->
<g id="node14" class="node">
<title>lib/AcmeRequest.js</title>
<g id="a_node14"><a xlink:href="lib/AcmeRequest.js" xlink:title="AcmeRequest.js">
<path fill="#ffffcc" stroke="#000000" d="M623,-417.6063C623,-417.6063 552,-417.6063 552,-417.6063 549,-417.6063 546,-414.6063 546,-411.6063 546,-411.6063 546,-405.6063 546,-405.6063 546,-402.6063 549,-399.6063 552,-399.6063 552,-399.6063 623,-399.6063 623,-399.6063 626,-399.6063 629,-402.6063 629,-405.6063 629,-405.6063 629,-411.6063 629,-411.6063 629,-414.6063 626,-417.6063 623,-417.6063"/>
<text text-anchor="middle" x="587.5" y="-406.4063" font-family="Helvetica,sans-Serif" font-size="9.00" fill="#000000">AcmeRequest.js</text>
</a>
</g>
</g>
<!-- lib/Certificate.js&#45;&gt;lib/AcmeRequest.js -->
<g id="edge23" class="edge">
<title>lib/Certificate.js&#45;&gt;lib/AcmeRequest.js</title>
<path fill="none" stroke="#000000" stroke-width="2" stroke-opacity="0.200000" d="M104.7685,-275.7628C109.5021,-309.1186 126.7977,-423.8332 145,-455.6063 169.0762,-497.6326 183.5429,-504.5626 225,-529.6063 263.7431,-553.0105 291.8575,-528.9724 321,-563.6063 334.6425,-579.8195 312.8085,-596.9379 329,-610.6063 363.1313,-639.4189 494.3536,-637.5218 530,-610.6063 560.446,-587.6173 579.5375,-467.2421 585.4942,-424.0506"/>
<polygon fill="#000000" fill-opacity="0.200000" stroke="#000000" stroke-width="2" stroke-opacity="0.200000" points="587.585,-424.26 586.3075,-418.0328 583.4228,-423.6975 587.585,-424.26"/>
</g>
<!-- lib/AccountIdentity.js -->
<g id="node15" class="node">
<title>lib/AccountIdentity.js</title>
<g id="a_node15"><a xlink:href="lib/AccountIdentity.js" xlink:title="AccountIdentity.js">
<path fill="#ffffcc" stroke="#000000" d="M311,-224.6063C311,-224.6063 235,-224.6063 235,-224.6063 232,-224.6063 229,-221.6063 229,-218.6063 229,-218.6063 229,-212.6063 229,-212.6063 229,-209.6063 232,-206.6063 235,-206.6063 235,-206.6063 311,-206.6063 311,-206.6063 314,-206.6063 317,-209.6063 317,-212.6063 317,-212.6063 317,-218.6063 317,-218.6063 317,-221.6063 314,-224.6063 311,-224.6063"/>
<text text-anchor="middle" x="273" y="-213.4063" font-family="Helvetica,sans-Serif" font-size="9.00" fill="#000000">AccountIdentity.js</text>
</a>
</g>
</g>
<!-- lib/Certificate.js&#45;&gt;lib/AccountIdentity.js -->
<g id="edge22" class="edge">
<title>lib/Certificate.js&#45;&gt;lib/AccountIdentity.js</title>
<path fill="none" stroke="#000000" stroke-width="2" stroke-opacity="0.200000" d="M133.413,-257.6059C162.2812,-248.9199 206.0256,-235.7579 236.8347,-226.4878"/>
<polygon fill="#000000" fill-opacity="0.200000" stroke="#000000" stroke-width="2" stroke-opacity="0.200000" points="237.6754,-228.428 242.8159,-224.6882 236.4652,-224.4061 237.6754,-228.428"/>
</g>
<!-- lib/CertificateIdentity.js -->
<g id="node23" class="node">
<title>lib/CertificateIdentity.js</title>
<g id="a_node23"><a xlink:href="lib/CertificateIdentity.js" xlink:title="CertificateIdentity.js">
<path fill="#ffffcc" stroke="#000000" d="M315,-476.6063C315,-476.6063 231,-476.6063 231,-476.6063 228,-476.6063 225,-473.6063 225,-470.6063 225,-470.6063 225,-464.6063 225,-464.6063 225,-461.6063 228,-458.6063 231,-458.6063 231,-458.6063 315,-458.6063 315,-458.6063 318,-458.6063 321,-461.6063 321,-464.6063 321,-464.6063 321,-470.6063 321,-470.6063 321,-473.6063 318,-476.6063 315,-476.6063"/>
<text text-anchor="middle" x="273" y="-465.4063" font-family="Helvetica,sans-Serif" font-size="9.00" fill="#000000">CertificateIdentity.js</text>
</a>
</g>
</g>
<!-- lib/Certificate.js&#45;&gt;lib/CertificateIdentity.js -->
<g id="edge24" class="edge">
<title>lib/Certificate.js&#45;&gt;lib/CertificateIdentity.js</title>
<path fill="none" stroke="#000000" stroke-width="2" stroke-opacity="0.200000" d="M105.7007,-275.7102C110.6007,-294.8174 123.6872,-340.025 145,-372.6063 172.5262,-414.686 181.9791,-426.5755 225,-452.6063 227.1429,-453.9029 229.4083,-455.0972 231.7418,-456.196"/>
<polygon fill="#000000" fill-opacity="0.200000" stroke="#000000" stroke-width="2" stroke-opacity="0.200000" points="230.9438,-458.1388 237.2848,-458.5894 232.6088,-454.2829 230.9438,-458.1388"/>
</g>
<!-- lib/Directory.js -->
<g id="node24" class="node">
<title>lib/Directory.js</title>
<g id="a_node24"><a xlink:href="lib/Directory.js" xlink:title="Directory.js">
<path fill="#ffffcc" stroke="#000000" d="M454.5,-574.6063C454.5,-574.6063 404.5,-574.6063 404.5,-574.6063 401.5,-574.6063 398.5,-571.6063 398.5,-568.6063 398.5,-568.6063 398.5,-562.6063 398.5,-562.6063 398.5,-559.6063 401.5,-556.6063 404.5,-556.6063 404.5,-556.6063 454.5,-556.6063 454.5,-556.6063 457.5,-556.6063 460.5,-559.6063 460.5,-562.6063 460.5,-562.6063 460.5,-568.6063 460.5,-568.6063 460.5,-571.6063 457.5,-574.6063 454.5,-574.6063"/>
<text text-anchor="middle" x="429.5" y="-563.4063" font-family="Helvetica,sans-Serif" font-size="9.00" fill="#000000">Directory.js</text>
</a>
</g>
</g>
<!-- lib/Certificate.js&#45;&gt;lib/Directory.js -->
<g id="edge25" class="edge">
<title>lib/Certificate.js&#45;&gt;lib/Directory.js</title>
<path fill="none" stroke="#000000" stroke-width="2" stroke-opacity="0.200000" d="M104.3423,-275.8155C106.9027,-299.8844 116.2638,-365.9584 145,-411.6063 199.744,-498.5678 232.9052,-515.2057 329,-551.6063 349.0681,-559.208 372.7937,-562.7453 392.152,-564.3649"/>
<polygon fill="#000000" fill-opacity="0.200000" stroke="#000000" stroke-width="2" stroke-opacity="0.200000" points="392.1326,-566.4693 398.2735,-564.8261 392.4482,-562.2812 392.1326,-566.4693"/>
</g>
<!-- lib/Order.js -->
<g id="node25" class="node">
<title>lib/Order.js</title>
<g id="a_node25"><a xlink:href="lib/Order.js" xlink:title="Order.js">
<path fill="#ffffcc" stroke="#000000" d="M203.5,-366.6063C203.5,-366.6063 161.5,-366.6063 161.5,-366.6063 158.5,-366.6063 155.5,-363.6063 155.5,-360.6063 155.5,-360.6063 155.5,-354.6063 155.5,-354.6063 155.5,-351.6063 158.5,-348.6063 161.5,-348.6063 161.5,-348.6063 203.5,-348.6063 203.5,-348.6063 206.5,-348.6063 209.5,-351.6063 209.5,-354.6063 209.5,-354.6063 209.5,-360.6063 209.5,-360.6063 209.5,-363.6063 206.5,-366.6063 203.5,-366.6063"/>
<text text-anchor="middle" x="182.5" y="-355.4063" font-family="Helvetica,sans-Serif" font-size="9.00" fill="#000000">Order.js</text>
</a>
</g>
</g>
<!-- lib/Certificate.js&#45;&gt;lib/Order.js -->
<g id="edge26" class="edge">
<title>lib/Certificate.js&#45;&gt;lib/Order.js</title>
<path fill="none" stroke="#000000" stroke-width="2" stroke-opacity="0.200000" d="M111.3636,-275.6644C125.205,-291.6082 154.0033,-324.7809 170.3962,-343.6639"/>
<polygon fill="#000000" fill-opacity="0.200000" stroke="#000000" stroke-width="2" stroke-opacity="0.200000" points="169.149,-345.4306 174.6682,-348.5848 172.3206,-342.6772 169.149,-345.4306"/>
</g>
<!-- lib/x.509/cert&#45;info.js -->
<g id="node26" class="node">
<title>lib/x.509/cert&#45;info.js</title>
<g id="a_node26"><a xlink:href="lib/x.509/cert-info.js" xlink:title="cert&#45;info.js">
<path fill="#ffffcc" stroke="#000000" d="M206,-592.6063C206,-592.6063 159,-592.6063 159,-592.6063 156,-592.6063 153,-589.6063 153,-586.6063 153,-586.6063 153,-580.6063 153,-580.6063 153,-577.6063 156,-574.6063 159,-574.6063 159,-574.6063 206,-574.6063 206,-574.6063 209,-574.6063 212,-577.6063 212,-580.6063 212,-580.6063 212,-586.6063 212,-586.6063 212,-589.6063 209,-592.6063 206,-592.6063"/>
<text text-anchor="middle" x="182.5" y="-581.4063" font-family="Helvetica,sans-Serif" font-size="9.00" fill="#000000">cert&#45;info.js</text>
</a>
</g>
</g>
<!-- lib/Certificate.js&#45;&gt;lib/x.509/cert&#45;info.js -->
<g id="edge29" class="edge">
<title>lib/Certificate.js&#45;&gt;lib/x.509/cert&#45;info.js</title>
<path fill="none" stroke="#000000" stroke-width="2" stroke-opacity="0.200000" d="M104.1902,-275.878C107.8725,-324.3319 125.758,-547.1197 145,-570.6063 145.8188,-571.6057 146.7188,-572.5284 147.6837,-573.3803"/>
<polygon fill="#000000" fill-opacity="0.200000" stroke="#000000" stroke-width="2" stroke-opacity="0.200000" points="146.8531,-575.3618 152.9742,-577.0773 149.2589,-571.9191 146.8531,-575.3618"/>
</g>
<!-- tls -->
<g id="node27" class="node">
<title>tls</title>
<path fill="#ffffcc" stroke="#c0c0c0" d="M203.5,-120.6063C203.5,-120.6063 161.5,-120.6063 161.5,-120.6063 158.5,-120.6063 155.5,-117.6063 155.5,-114.6063 155.5,-114.6063 155.5,-108.6063 155.5,-108.6063 155.5,-105.6063 158.5,-102.6063 161.5,-102.6063 161.5,-102.6063 203.5,-102.6063 203.5,-102.6063 206.5,-102.6063 209.5,-105.6063 209.5,-108.6063 209.5,-108.6063 209.5,-114.6063 209.5,-114.6063 209.5,-117.6063 206.5,-120.6063 203.5,-120.6063"/>
<text text-anchor="middle" x="182.5" y="-109.4063" font-family="Helvetica,sans-Serif" font-size="9.00" fill="#c0c0c0">tls</text>
</g>
<!-- lib/Certificate.js&#45;&gt;tls -->
<g id="edge30" class="edge">
<title>lib/Certificate.js&#45;&gt;tls</title>
<path fill="none" stroke="#000000" stroke-dasharray="5,2" stroke-opacity="0.200000" d="M106.6182,-257.6051C112.8583,-239.4165 127.1283,-196.9234 137,-160.6063 141.1855,-145.2082 134.4892,-137.6121 145,-125.6063 146.5077,-123.8841 148.2483,-122.3733 150.1367,-121.048"/>
<polygon fill="#000000" fill-opacity="0.200000" stroke="#000000" stroke-opacity="0.200000" points="151.3044,-122.7979 155.4228,-117.9555 149.1835,-119.1727 151.3044,-122.7979"/>
</g>
<!-- lib/Configuration.js&#45;&gt;crypto -->
<g id="edge37" class="edge">
<title>lib/Configuration.js&#45;&gt;crypto</title>
<path fill="none" stroke="#000000" stroke-dasharray="5,2" stroke-opacity="0.200000" d="M470.1416,-230.4103C491.4939,-233.1546 516.0577,-240.4633 530,-258.6063 543.1711,-275.7457 524.7836,-630.5018 538,-647.6063 542.0971,-652.9087 548.0448,-656.3056 554.4062,-658.4584"/>
<polygon fill="#000000" fill-opacity="0.200000" stroke="#000000" stroke-opacity="0.200000" points="553.9801,-660.5196 560.3235,-660.1047 555.106,-656.4733 553.9801,-660.5196"/>
</g>
<!-- lib/Configuration.js&#45;&gt;lib/util/log.js -->
<g id="edge35" class="edge">
<title>lib/Configuration.js&#45;&gt;lib/util/log.js</title>
<path fill="none" stroke="#000000" stroke-width="2" stroke-opacity="0.200000" d="M470.1357,-236.6127C488.4505,-239.8404 510.3362,-243.7943 530,-247.6063 537.898,-249.1374 546.3888,-250.8644 554.3569,-252.5212"/>
<polygon fill="#000000" fill-opacity="0.200000" stroke="#000000" stroke-width="2" stroke-opacity="0.200000" points="554.0271,-254.5976 560.3299,-253.7701 554.8867,-250.4865 554.0271,-254.5976"/>
</g>
<!-- lib/Configuration.js&#45;&gt;lib/util/Throws.js -->
<g id="edge36" class="edge">
<title>lib/Configuration.js&#45;&gt;lib/util/Throws.js</title>
<path fill="none" stroke="#000000" stroke-width="2" stroke-opacity="0.200000" d="M470.1889,-229.6063C495.9819,-229.6063 528.964,-229.6063 553.3836,-229.6063"/>
<polygon fill="#000000" fill-opacity="0.200000" stroke="#000000" stroke-width="2" stroke-opacity="0.200000" points="553.3979,-231.7064 559.3979,-229.6063 553.3978,-227.5064 553.3979,-231.7064"/>
</g>
<!-- lib/Configuration.js&#45;&gt;os -->
<g id="edge38" class="edge">
<title>lib/Configuration.js&#45;&gt;os</title>
<path fill="none" stroke="#000000" stroke-dasharray="5,2" stroke-opacity="0.200000" d="M437.9948,-220.4126C464.1428,-192.1131 543.532,-106.1919 574.7231,-72.4345"/>
<polygon fill="#000000" fill-opacity="0.200000" stroke="#000000" stroke-opacity="0.200000" points="576.4338,-73.6774 578.9632,-67.8454 573.349,-70.8271 576.4338,-73.6774"/>
</g>
<!-- path -->
<g id="node28" class="node">
<title>path</title>
<path fill="#ffffcc" stroke="#c0c0c0" d="M608.5,-700.6063C608.5,-700.6063 566.5,-700.6063 566.5,-700.6063 563.5,-700.6063 560.5,-697.6063 560.5,-694.6063 560.5,-694.6063 560.5,-688.6063 560.5,-688.6063 560.5,-685.6063 563.5,-682.6063 566.5,-682.6063 566.5,-682.6063 608.5,-682.6063 608.5,-682.6063 611.5,-682.6063 614.5,-685.6063 614.5,-688.6063 614.5,-688.6063 614.5,-694.6063 614.5,-694.6063 614.5,-697.6063 611.5,-700.6063 608.5,-700.6063"/>
<text text-anchor="middle" x="587.5" y="-689.4063" font-family="Helvetica,sans-Serif" font-size="9.00" fill="#c0c0c0">path</text>
</g>
<!-- lib/Configuration.js&#45;&gt;path -->
<g id="edge39" class="edge">
<title>lib/Configuration.js&#45;&gt;path</title>
<path fill="none" stroke="#000000" stroke-dasharray="5,2" stroke-opacity="0.200000" d="M470.1516,-230.4026C491.507,-233.1445 516.0706,-240.4533 530,-258.6063 544.1395,-277.033 523.9835,-658.0859 538,-676.6063 542.0659,-681.9787 548.0006,-685.4904 554.3594,-687.7707"/>
<polygon fill="#000000" fill-opacity="0.200000" stroke="#000000" stroke-opacity="0.200000" points="553.9269,-689.833 560.2769,-689.5366 555.128,-685.8084 553.9269,-689.833"/>
</g>
<!-- util -->
<g id="node29" class="node">
<title>util</title>
<path fill="#ffffcc" stroke="#c0c0c0" d="M608.5,-730.6063C608.5,-730.6063 566.5,-730.6063 566.5,-730.6063 563.5,-730.6063 560.5,-727.6063 560.5,-724.6063 560.5,-724.6063 560.5,-718.6063 560.5,-718.6063 560.5,-715.6063 563.5,-712.6063 566.5,-712.6063 566.5,-712.6063 608.5,-712.6063 608.5,-712.6063 611.5,-712.6063 614.5,-715.6063 614.5,-718.6063 614.5,-718.6063 614.5,-724.6063 614.5,-724.6063 614.5,-727.6063 611.5,-730.6063 608.5,-730.6063"/>
<text text-anchor="middle" x="587.5" y="-719.4063" font-family="Helvetica,sans-Serif" font-size="9.00" fill="#c0c0c0">util</text>
</g>
<!-- lib/Configuration.js&#45;&gt;util -->
<g id="edge40" class="edge">
<title>lib/Configuration.js&#45;&gt;util</title>
<path fill="none" stroke="#000000" stroke-dasharray="5,2" stroke-opacity="0.200000" d="M470.1606,-230.3957C491.5188,-233.1354 516.0823,-240.4444 530,-258.6063 545.1413,-278.3647 522.9906,-686.7475 538,-706.6063 542.0625,-711.9813 547.9958,-715.4941 554.3543,-717.7746"/>
<polygon fill="#000000" fill-opacity="0.200000" stroke="#000000" stroke-opacity="0.200000" points="553.9218,-719.837 560.2718,-719.5405 555.1229,-715.8123 553.9218,-719.837"/>
</g>
<!-- lib/Account.js&#45;&gt;lib/util/log.js -->
<g id="edge9" class="edge">
<title>lib/Account.js&#45;&gt;lib/util/log.js</title>
<path fill="none" stroke="#000000" stroke-width="2" stroke-opacity="0.200000" d="M302.5599,-261.5838C311.0682,-260.3557 320.3793,-259.2189 329,-258.6063 409.708,-252.8705 504.9474,-255.7096 554.2215,-257.8906"/>
<polygon fill="#000000" fill-opacity="0.200000" stroke="#000000" stroke-width="2" stroke-opacity="0.200000" points="554.1977,-259.9916 560.2869,-258.1661 554.3884,-255.7959 554.1977,-259.9916"/>
</g>
<!-- lib/Account.js&#45;&gt;lib/util/Throws.js -->
<g id="edge10" class="edge">
<title>lib/Account.js&#45;&gt;lib/util/Throws.js</title>
<path fill="none" stroke="#000000" stroke-width="2" stroke-opacity="0.200000" d="M300.1747,-257.5736C307.9394,-253.7704 315.7183,-248.5675 321,-241.6063 331.432,-227.8567 315.5977,-214.4808 329,-203.6063 398.5024,-147.2125 515.572,-193.8654 564.7081,-217.6986"/>
<polygon fill="#000000" fill-opacity="0.200000" stroke="#000000" stroke-width="2" stroke-opacity="0.200000" points="564.0457,-219.7133 570.3558,-220.4835 565.9032,-215.9464 564.0457,-219.7133"/>
</g>
<!-- lib/acme&#45;requests/NewAccountRequest.js -->
<g id="node13" class="node">
<title>lib/acme&#45;requests/NewAccountRequest.js</title>
<g id="a_node13"><a xlink:href="lib/acme-requests/NewAccountRequest.js" xlink:title="NewAccountRequest.js">
<path fill="#ffffcc" stroke="#000000" d="M479.5,-402.6063C479.5,-402.6063 379.5,-402.6063 379.5,-402.6063 376.5,-402.6063 373.5,-399.6063 373.5,-396.6063 373.5,-396.6063 373.5,-390.6063 373.5,-390.6063 373.5,-387.6063 376.5,-384.6063 379.5,-384.6063 379.5,-384.6063 479.5,-384.6063 479.5,-384.6063 482.5,-384.6063 485.5,-387.6063 485.5,-390.6063 485.5,-390.6063 485.5,-396.6063 485.5,-396.6063 485.5,-399.6063 482.5,-402.6063 479.5,-402.6063"/>
<text text-anchor="middle" x="429.5" y="-391.4063" font-family="Helvetica,sans-Serif" font-size="9.00" fill="#000000">NewAccountRequest.js</text>
</a>
</g>
</g>
<!-- lib/Account.js&#45;&gt;lib/acme&#45;requests/NewAccountRequest.js -->
<g id="edge7" class="edge">
<title>lib/Account.js&#45;&gt;lib/acme&#45;requests/NewAccountRequest.js</title>
<path fill="none" stroke="#000000" stroke-width="2" stroke-opacity="0.200000" d="M278.9554,-275.9541C288.7161,-291.5655 308.3005,-324.1405 321,-353.6063 325.6174,-364.3197 320.1121,-371.0495 329,-378.6063 339.7016,-387.7051 353.4687,-392.5949 367.3591,-395.0138"/>
<polygon fill="#000000" fill-opacity="0.200000" stroke="#000000" stroke-width="2" stroke-opacity="0.200000" points="367.0663,-397.0933 373.311,-395.9043 367.6878,-392.9396 367.0663,-397.0933"/>
</g>
<!-- lib/Account.js&#45;&gt;lib/AcmeRequest.js -->
<g id="edge8" class="edge">
<title>lib/Account.js&#45;&gt;lib/AcmeRequest.js</title>
<path fill="none" stroke="#000000" stroke-width="2" stroke-opacity="0.200000" d="M294.3426,-275.6132C304.708,-279.8272 317.4018,-284.7536 329,-288.6063 416.8949,-317.8033 451.3734,-294.659 530,-343.6063 550.9605,-356.6547 568.6479,-379.633 578.6635,-394.4812"/>
<polygon fill="#000000" fill-opacity="0.200000" stroke="#000000" stroke-width="2" stroke-opacity="0.200000" points="576.9463,-395.6919 581.9983,-399.5503 580.4551,-393.3836 576.9463,-395.6919"/>
</g>
<!-- lib/acme&#45;requests/NewAccountRequest.js&#45;&gt;lib/AcmeRequest.js -->
<g id="edge60" class="edge">
<title>lib/acme&#45;requests/NewAccountRequest.js&#45;&gt;lib/AcmeRequest.js</title>
<path fill="none" stroke="#000000" stroke-width="2" stroke-opacity="0.200000" d="M485.6498,-398.9369C503.3452,-400.6169 522.7141,-402.4557 539.7658,-404.0745"/>
<polygon fill="#000000" fill-opacity="0.200000" stroke="#000000" stroke-width="2" stroke-opacity="0.200000" points="539.7641,-406.1837 545.9357,-404.6603 540.1611,-402.0025 539.7641,-406.1837"/>
</g>
<!-- lib/AcmeRequest.js&#45;&gt;lib/util/Throws.js -->
<g id="edge15" class="edge">
<title>lib/AcmeRequest.js&#45;&gt;lib/util/Throws.js</title>
<path fill="none" stroke="#000000" stroke-width="2" stroke-opacity="0.200000" d="M579.292,-399.2818C566.6334,-384.2098 542.8804,-353.0004 534,-321.6063 529.7055,-306.4242 529.4279,-265.707 534,-250.6063 534.9287,-247.5388 535.4265,-246.5164 538,-244.6063 542.6068,-241.1869 547.9974,-238.54 553.4935,-236.493"/>
<polygon fill="#000000" fill-opacity="0.200000" stroke="#000000" stroke-width="2" stroke-opacity="0.200000" points="554.4404,-238.3909 559.4667,-234.499 553.1105,-234.407 554.4404,-238.3909"/>
</g>
<!-- typedefs/lib/AcmeRequest.js -->
<g id="node17" class="node">
<title>typedefs/lib/AcmeRequest.js</title>
<g id="a_node17"><a xlink:href="typedefs/lib/AcmeRequest.js" xlink:title="AcmeRequest.js">
<path fill="#ffffcc" stroke="#000000" d="M738,-68.6063C738,-68.6063 667,-68.6063 667,-68.6063 664,-68.6063 661,-65.6063 661,-62.6063 661,-62.6063 661,-56.6063 661,-56.6063 661,-53.6063 664,-50.6063 667,-50.6063 667,-50.6063 738,-50.6063 738,-50.6063 741,-50.6063 744,-53.6063 744,-56.6063 744,-56.6063 744,-62.6063 744,-62.6063 744,-65.6063 741,-68.6063 738,-68.6063"/>
<text text-anchor="middle" x="702.5" y="-57.4063" font-family="Helvetica,sans-Serif" font-size="9.00" fill="#000000">AcmeRequest.js</text>
</a>
</g>
</g>
<!-- lib/AcmeRequest.js&#45;&gt;typedefs/lib/AcmeRequest.js -->
<g id="edge13" class="edge">
<title>lib/AcmeRequest.js&#45;&gt;typedefs/lib/AcmeRequest.js</title>
<path fill="none" stroke="#000000" stroke-width="2" stroke-opacity="0.200000" d="M595.3378,-399.4107C606.955,-385.1425 628.3062,-356.3132 637,-327.6063 650.0211,-284.6106 628.4147,-167.3567 645,-125.6063 653.4946,-104.2226 672.0542,-85.0467 685.802,-72.9469"/>
<polygon fill="#000000" fill-opacity="0.200000" stroke="#000000" stroke-width="2" stroke-opacity="0.200000" points="687.4311,-74.3165 690.6217,-68.8182 684.6988,-71.1268 687.4311,-74.3165"/>
</g>
<!-- lib/Nonce.js -->
<g id="node18" class="node">
<title>lib/Nonce.js</title>
<g id="a_node18"><a xlink:href="lib/Nonce.js" xlink:title="Nonce.js">
<path fill="#ffffcc" stroke="#000000" d="M723.5,-417.6063C723.5,-417.6063 681.5,-417.6063 681.5,-417.6063 678.5,-417.6063 675.5,-414.6063 675.5,-411.6063 675.5,-411.6063 675.5,-405.6063 675.5,-405.6063 675.5,-402.6063 678.5,-399.6063 681.5,-399.6063 681.5,-399.6063 723.5,-399.6063 723.5,-399.6063 726.5,-399.6063 729.5,-402.6063 729.5,-405.6063 729.5,-405.6063 729.5,-411.6063 729.5,-411.6063 729.5,-414.6063 726.5,-417.6063 723.5,-417.6063"/>
<text text-anchor="middle" x="702.5" y="-406.4063" font-family="Helvetica,sans-Serif" font-size="9.00" fill="#000000">Nonce.js</text>
</a>
</g>
</g>
<!-- lib/AcmeRequest.js&#45;&gt;lib/Nonce.js -->
<g id="edge14" class="edge">
<title>lib/AcmeRequest.js&#45;&gt;lib/Nonce.js</title>
<path fill="none" stroke="#000000" stroke-width="2" stroke-opacity="0.200000" d="M629.0176,-408.6063C642.2871,-408.6063 656.7901,-408.6063 669.3795,-408.6063"/>
<polygon fill="#000000" fill-opacity="0.200000" stroke="#000000" stroke-width="2" stroke-opacity="0.200000" points="669.3923,-410.7064 675.3922,-408.6063 669.3922,-406.5064 669.3923,-410.7064"/>
</g>
<!-- lib/AccountIdentity.js&#45;&gt;lib/util/Throws.js -->
<g id="edge12" class="edge">
<title>lib/AccountIdentity.js&#45;&gt;lib/util/Throws.js</title>
<path fill="none" stroke="#000000" stroke-width="2" stroke-opacity="0.200000" d="M278.9155,-206.56C287.929,-193.7055 306.4561,-170.7051 329,-161.6063 370.4203,-144.8889 489.4825,-142.8062 530,-161.6063 553.4819,-172.5018 570.8446,-198.2342 580.0475,-214.7344"/>
<polygon fill="#000000" fill-opacity="0.200000" stroke="#000000" stroke-width="2" stroke-opacity="0.200000" points="578.3755,-216.0594 583.0651,-220.3511 582.0753,-214.0717 578.3755,-216.0594"/>
</g>
<!-- lib/Identity.js -->
<g id="node16" class="node">
<title>lib/Identity.js</title>
<g id="a_node16"><a xlink:href="lib/Identity.js" xlink:title="Identity.js">
<path fill="#ffffcc" stroke="#000000" d="M451,-282.6063C451,-282.6063 408,-282.6063 408,-282.6063 405,-282.6063 402,-279.6063 402,-276.6063 402,-276.6063 402,-270.6063 402,-270.6063 402,-267.6063 405,-264.6063 408,-264.6063 408,-264.6063 451,-264.6063 451,-264.6063 454,-264.6063 457,-267.6063 457,-270.6063 457,-270.6063 457,-276.6063 457,-276.6063 457,-279.6063 454,-282.6063 451,-282.6063"/>
<text text-anchor="middle" x="429.5" y="-271.4063" font-family="Helvetica,sans-Serif" font-size="9.00" fill="#000000">Identity.js</text>
</a>
</g>
</g>
<!-- lib/AccountIdentity.js&#45;&gt;lib/Identity.js -->
<g id="edge11" class="edge">
<title>lib/AccountIdentity.js&#45;&gt;lib/Identity.js</title>
<path fill="none" stroke="#000000" stroke-width="2" stroke-opacity="0.200000" d="M288.7799,-224.844C299.7889,-231.0208 314.9654,-239.0108 329,-244.6063 350.7077,-253.261 375.9867,-260.5426 395.7612,-265.6446"/>
<polygon fill="#000000" fill-opacity="0.200000" stroke="#000000" stroke-width="2" stroke-opacity="0.200000" points="395.3789,-267.7141 401.7113,-267.1571 396.4137,-263.6436 395.3789,-267.7141"/>
</g>
<!-- lib/Identity.js&#45;&gt;lib/util/log.js -->
<g id="edge44" class="edge">
<title>lib/Identity.js&#45;&gt;lib/util/log.js</title>
<path fill="none" stroke="#000000" stroke-width="2" stroke-opacity="0.200000" d="M457.0215,-271.1676C483.9823,-268.7787 525.1113,-265.1344 553.9685,-262.5774"/>
<polygon fill="#000000" fill-opacity="0.200000" stroke="#000000" stroke-width="2" stroke-opacity="0.200000" points="554.5027,-264.6384 560.2939,-262.0169 554.1319,-260.4548 554.5027,-264.6384"/>
</g>
<!-- lib/Identity.js&#45;&gt;lib/util/Throws.js -->
<g id="edge45" class="edge">
<title>lib/Identity.js&#45;&gt;lib/util/Throws.js</title>
<path fill="none" stroke="#000000" stroke-width="2" stroke-opacity="0.200000" d="M457.0215,-265.942C483.8479,-258.4714 524.7018,-247.0944 553.5362,-239.0645"/>
<polygon fill="#000000" fill-opacity="0.200000" stroke="#000000" stroke-width="2" stroke-opacity="0.200000" points="554.2807,-241.0372 559.4973,-237.4045 553.1539,-236.9912 554.2807,-241.0372"/>
</g>
<!-- lib/Identity.js&#45;&gt;util -->
<g id="edge46" class="edge">
<title>lib/Identity.js&#45;&gt;util</title>
<path fill="none" stroke="#000000" stroke-dasharray="5,2" stroke-opacity="0.200000" d="M453.6149,-282.7102C477.7998,-293.2813 513.7212,-313.2493 530,-343.6063 539.5328,-361.3831 525.8037,-690.5394 538,-706.6063 542.0737,-711.9728 548.0116,-715.4821 554.3711,-717.7618"/>
<polygon fill="#000000" fill-opacity="0.200000" stroke="#000000" stroke-opacity="0.200000" points="553.9385,-719.8242 560.2885,-719.5278 555.1397,-715.7996 553.9385,-719.8242"/>
</g>
<!-- lib/Authorisation.js -->
<g id="node19" class="node">
<title>lib/Authorisation.js</title>
<g id="a_node19"><a xlink:href="lib/Authorisation.js" xlink:title="Authorisation.js">
<path fill="#ffffcc" stroke="#000000" d="M307,-402.6063C307,-402.6063 239,-402.6063 239,-402.6063 236,-402.6063 233,-399.6063 233,-396.6063 233,-396.6063 233,-390.6063 233,-390.6063 233,-387.6063 236,-384.6063 239,-384.6063 239,-384.6063 307,-384.6063 307,-384.6063 310,-384.6063 313,-387.6063 313,-390.6063 313,-390.6063 313,-396.6063 313,-396.6063 313,-399.6063 310,-402.6063 307,-402.6063"/>
<text text-anchor="middle" x="273" y="-391.4063" font-family="Helvetica,sans-Serif" font-size="9.00" fill="#000000">Authorisation.js</text>
</a>
</g>
</g>
<!-- lib/Authorisation.js&#45;&gt;events -->
<g id="edge20" class="edge">
<title>lib/Authorisation.js&#45;&gt;events</title>
<path fill="none" stroke="#000000" stroke-dasharray="5,2" stroke-opacity="0.200000" d="M297.7398,-402.6441C306.6416,-407.2081 315.77,-413.7093 321,-422.6063 333.6772,-444.172 312.244,-629.0314 329,-647.6063 345.3943,-665.7802 373.5957,-668.3509 395.9592,-666.9018"/>
<polygon fill="#000000" fill-opacity="0.200000" stroke="#000000" stroke-opacity="0.200000" points="396.2901,-668.9818 402.0974,-666.3961 395.9452,-664.796 396.2901,-668.9818"/>
</g>
<!-- lib/Authorisation.js&#45;&gt;lib/util/log.js -->
<g id="edge19" class="edge">
<title>lib/Authorisation.js&#45;&gt;lib/util/log.js</title>
<path fill="none" stroke="#000000" stroke-width="2" stroke-opacity="0.200000" d="M280.6826,-384.2825C290.6188,-372.8683 309.0353,-353.8025 329,-343.6063 410.4423,-302.0127 462.3633,-361.1541 530,-299.6063 538.6284,-291.7546 529.6872,-282.7914 538,-274.6063 542.5109,-270.1646 548.2914,-267.0317 554.3001,-264.8236"/>
<polygon fill="#000000" fill-opacity="0.200000" stroke="#000000" stroke-width="2" stroke-opacity="0.200000" points="555.2599,-266.7225 560.3463,-262.9095 553.9922,-262.7184 555.2599,-266.7225"/>
</g>
<!-- lib/acme&#45;requests/AuthorisationRequest.js -->
<g id="node20" class="node">
<title>lib/acme&#45;requests/AuthorisationRequest.js</title>
<g id="a_node20"><a xlink:href="lib/acme-requests/AuthorisationRequest.js" xlink:title="AuthorisationRequest.js">
<path fill="#ffffcc" stroke="#000000" d="M480.5,-522.6063C480.5,-522.6063 378.5,-522.6063 378.5,-522.6063 375.5,-522.6063 372.5,-519.6063 372.5,-516.6063 372.5,-516.6063 372.5,-510.6063 372.5,-510.6063 372.5,-507.6063 375.5,-504.6063 378.5,-504.6063 378.5,-504.6063 480.5,-504.6063 480.5,-504.6063 483.5,-504.6063 486.5,-507.6063 486.5,-510.6063 486.5,-510.6063 486.5,-516.6063 486.5,-516.6063 486.5,-519.6063 483.5,-522.6063 480.5,-522.6063"/>
<text text-anchor="middle" x="429.5" y="-511.4063" font-family="Helvetica,sans-Serif" font-size="9.00" fill="#000000">AuthorisationRequest.js</text>
</a>
</g>
</g>
<!-- lib/Authorisation.js&#45;&gt;lib/acme&#45;requests/AuthorisationRequest.js -->
<g id="edge16" class="edge">
<title>lib/Authorisation.js&#45;&gt;lib/acme&#45;requests/AuthorisationRequest.js</title>
<path fill="none" stroke="#000000" stroke-width="2" stroke-opacity="0.200000" d="M310.5145,-402.6712C314.5448,-405.0001 318.1923,-407.9272 321,-411.6063 332.7784,-427.0403 315.6646,-484.4958 329,-498.6063 338.7543,-508.9275 352.3115,-514.2408 366.3156,-516.6752"/>
<polygon fill="#000000" fill-opacity="0.200000" stroke="#000000" stroke-width="2" stroke-opacity="0.200000" points="366.0955,-518.7652 372.3349,-517.5484 366.6985,-514.6087 366.0955,-518.7652"/>
</g>
<!-- lib/acme&#45;requests/ReadyForChallengeValidationRequest.js -->
<g id="node21" class="node">
<title>lib/acme&#45;requests/ReadyForChallengeValidationRequest.js</title>
<g id="a_node21"><a xlink:href="lib/acme-requests/ReadyForChallengeValidationRequest.js" xlink:title="ReadyForChallengeValidationRequest.js">
<path fill="#ffffcc" stroke="#000000" d="M516,-492.6063C516,-492.6063 343,-492.6063 343,-492.6063 340,-492.6063 337,-489.6063 337,-486.6063 337,-486.6063 337,-480.6063 337,-480.6063 337,-477.6063 340,-474.6063 343,-474.6063 343,-474.6063 516,-474.6063 516,-474.6063 519,-474.6063 522,-477.6063 522,-480.6063 522,-480.6063 522,-486.6063 522,-486.6063 522,-489.6063 519,-492.6063 516,-492.6063"/>
<text text-anchor="middle" x="429.5" y="-481.4063" font-family="Helvetica,sans-Serif" font-size="9.00" fill="#000000">ReadyForChallengeValidationRequest.js</text>
</a>
</g>
</g>
<!-- lib/Authorisation.js&#45;&gt;lib/acme&#45;requests/ReadyForChallengeValidationRequest.js -->
<g id="edge17" class="edge">
<title>lib/Authorisation.js&#45;&gt;lib/acme&#45;requests/ReadyForChallengeValidationRequest.js</title>
<path fill="none" stroke="#000000" stroke-width="2" stroke-opacity="0.200000" d="M310.3487,-402.8009C314.4061,-405.1086 318.1053,-407.9953 321,-411.6063 337.0005,-431.5663 310.9901,-450.4386 329,-468.6063 329.8849,-469.4989 330.7984,-470.3535 331.7382,-471.1714"/>
<polygon fill="#000000" fill-opacity="0.200000" stroke="#000000" stroke-width="2" stroke-opacity="0.200000" points="330.6139,-472.9565 336.646,-474.9624 333.1814,-469.6326 330.6139,-472.9565"/>
</g>
<!-- lib/ChallengeServer.js -->
<g id="node22" class="node">
<title>lib/ChallengeServer.js</title>
<g id="a_node22"><a xlink:href="lib/ChallengeServer.js" xlink:title="ChallengeServer.js">
<path fill="#ffffcc" stroke="#000000" d="M471,-604.6063C471,-604.6063 388,-604.6063 388,-604.6063 385,-604.6063 382,-601.6063 382,-598.6063 382,-598.6063 382,-592.6063 382,-592.6063 382,-589.6063 385,-586.6063 388,-586.6063 388,-586.6063 471,-586.6063 471,-586.6063 474,-586.6063 477,-589.6063 477,-592.6063 477,-592.6063 477,-598.6063 477,-598.6063 477,-601.6063 474,-604.6063 471,-604.6063"/>
<text text-anchor="middle" x="429.5" y="-593.4063" font-family="Helvetica,sans-Serif" font-size="9.00" fill="#000000">ChallengeServer.js</text>
</a>
</g>
</g>
<!-- lib/Authorisation.js&#45;&gt;lib/ChallengeServer.js -->
<g id="edge18" class="edge">
<title>lib/Authorisation.js&#45;&gt;lib/ChallengeServer.js</title>
<path fill="none" stroke="#000000" stroke-width="2" stroke-opacity="0.200000" d="M311.1316,-402.8279C314.9516,-405.1313 318.3795,-408.0097 321,-411.6063 332.0701,-426.7999 316.3942,-566.6603 329,-580.6063 340.6946,-593.5441 358.3443,-598.7265 375.6057,-600.2138"/>
<polygon fill="#000000" fill-opacity="0.200000" stroke="#000000" stroke-width="2" stroke-opacity="0.200000" points="375.8185,-602.3307 381.9358,-600.6021 376.0757,-598.1386 375.8185,-602.3307"/>
</g>
<!-- lib/acme&#45;requests/AuthorisationRequest.js&#45;&gt;lib/AcmeRequest.js -->
<g id="edge57" class="edge">
<title>lib/acme&#45;requests/AuthorisationRequest.js&#45;&gt;lib/AcmeRequest.js</title>
<path fill="none" stroke="#000000" stroke-width="2" stroke-opacity="0.200000" d="M486.7539,-513.4662C501.7512,-511.2607 517.27,-506.8598 530,-498.6063 557.6346,-480.6893 574.6027,-444.3074 582.4022,-423.71"/>
<polygon fill="#000000" fill-opacity="0.200000" stroke="#000000" stroke-width="2" stroke-opacity="0.200000" points="584.4517,-424.2187 584.53,-417.8623 580.5049,-422.7825 584.4517,-424.2187"/>
</g>
<!-- lib/acme&#45;requests/ReadyForChallengeValidationRequest.js&#45;&gt;lib/AcmeRequest.js -->
<g id="edge63" class="edge">
<title>lib/acme&#45;requests/ReadyForChallengeValidationRequest.js&#45;&gt;lib/AcmeRequest.js</title>
<path fill="none" stroke="#000000" stroke-width="2" stroke-opacity="0.200000" d="M515.9607,-474.5959C520.8176,-472.8981 525.5344,-470.9164 530,-468.6063 550.5893,-457.9548 567.9839,-437.0388 578.0835,-422.9386"/>
<polygon fill="#000000" fill-opacity="0.200000" stroke="#000000" stroke-width="2" stroke-opacity="0.200000" points="580.0085,-423.8486 581.7103,-417.7237 576.5604,-421.4506 580.0085,-423.8486"/>
</g>
<!-- lib/ChallengeServer.js&#45;&gt;http -->
<g id="edge34" class="edge">
<title>lib/ChallengeServer.js&#45;&gt;http</title>
<path fill="none" stroke="#000000" stroke-dasharray="5,2" stroke-opacity="0.200000" d="M466.7068,-604.6872C488.8591,-612.1308 515.4156,-625.0545 530,-646.6063 541.2531,-663.2354 525.3339,-721.0265 538,-736.6063 542.2068,-741.7808 548.1386,-745.2154 554.4406,-747.4842"/>
<polygon fill="#000000" fill-opacity="0.200000" stroke="#000000" stroke-opacity="0.200000" points="553.9422,-749.5273 560.2933,-749.2564 555.1595,-745.5076 553.9422,-749.5273"/>
</g>
<!-- lib/ChallengeServer.js&#45;&gt;lib/util/log.js -->
<g id="edge33" class="edge">
<title>lib/ChallengeServer.js&#45;&gt;lib/util/log.js</title>
<path fill="none" stroke="#000000" stroke-width="2" stroke-opacity="0.200000" d="M477.2128,-600.7351C496.4059,-600.0389 517.0237,-595.2711 530,-580.6063 552.5387,-555.1348 517.3801,-301.6546 538,-274.6063 542.0847,-269.2481 548.0272,-265.7423 554.3876,-263.4633"/>
<polygon fill="#000000" fill-opacity="0.200000" stroke="#000000" stroke-width="2" stroke-opacity="0.200000" points="555.1561,-265.4255 560.3049,-261.6972 553.9549,-261.4009 555.1561,-265.4255"/>
</g>
<!-- lib/CertificateIdentity.js&#45;&gt;lib/util/Throws.js -->
<g id="edge32" class="edge">
<title>lib/CertificateIdentity.js&#45;&gt;lib/util/Throws.js</title>
<path fill="none" stroke="#000000" stroke-width="2" stroke-opacity="0.200000" d="M315.0501,-458.3564C317.2882,-456.7306 319.3075,-454.8291 321,-452.6063 337.0288,-431.5545 309.9787,-232.9989 329,-214.6063 361.1102,-183.5572 485.6964,-208.9226 530,-214.6063 537.5947,-215.5806 545.6187,-217.2507 553.1848,-219.1313"/>
<polygon fill="#000000" fill-opacity="0.200000" stroke="#000000" stroke-width="2" stroke-opacity="0.200000" points="553.0777,-221.2732 559.4131,-220.7499 554.1342,-217.2082 553.0777,-221.2732"/>
</g>
<!-- lib/CertificateIdentity.js&#45;&gt;lib/Identity.js -->
<g id="edge31" class="edge">
<title>lib/CertificateIdentity.js&#45;&gt;lib/Identity.js</title>
<path fill="none" stroke="#000000" stroke-width="2" stroke-opacity="0.200000" d="M314.5231,-458.5765C316.9539,-456.9044 319.1553,-454.9319 321,-452.6063 336.0933,-433.5782 316.9777,-364.7094 329,-343.6063 344.8829,-315.7265 376.9614,-296.3923 400.6233,-285.2163"/>
<polygon fill="#000000" fill-opacity="0.200000" stroke="#000000" stroke-width="2" stroke-opacity="0.200000" points="401.5615,-287.0964 406.1392,-282.6855 399.81,-283.279 401.5615,-287.0964"/>
</g>
<!-- lib/Directory.js&#45;&gt;lib/util/log.js -->
<g id="edge41" class="edge">
<title>lib/Directory.js&#45;&gt;lib/util/log.js</title>
<path fill="none" stroke="#000000" stroke-width="2" stroke-opacity="0.200000" d="M460.6564,-570.7604C483.3885,-572.567 513.0712,-570.4989 530,-551.6063 550.5477,-528.6748 519.2994,-299.0674 538,-274.6063 542.092,-269.2537 548.0376,-265.7502 554.3986,-263.4716"/>
<polygon fill="#000000" fill-opacity="0.200000" stroke="#000000" stroke-width="2" stroke-opacity="0.200000" points="555.1671,-265.4339 560.3159,-261.7056 553.9659,-261.4093 555.1671,-265.4339"/>
</g>
<!-- lib/Directory.js&#45;&gt;lib/util/Throws.js -->
<g id="edge42" class="edge">
<title>lib/Directory.js&#45;&gt;lib/util/Throws.js</title>
<path fill="none" stroke="#000000" stroke-width="2" stroke-opacity="0.200000" d="M460.6717,-570.7741C483.4118,-572.5879 513.0979,-570.5228 530,-551.6063 552.7355,-526.1611 517.3139,-271.7438 538,-244.6063 541.8378,-239.5715 547.3159,-236.1723 553.2398,-233.8895"/>
<polygon fill="#000000" fill-opacity="0.200000" stroke="#000000" stroke-width="2" stroke-opacity="0.200000" points="554.194,-235.789 559.268,-231.9596 552.9134,-231.789 554.194,-235.789"/>
</g>
<!-- lib/Directory.js&#45;&gt;util -->
<g id="edge43" class="edge">
<title>lib/Directory.js&#45;&gt;util</title>
<path fill="none" stroke="#000000" stroke-dasharray="5,2" stroke-opacity="0.200000" d="M460.5088,-560.965C483.1636,-559.4909 512.8142,-561.8986 530,-580.6063 548.9806,-601.2678 520.5777,-684.6148 538,-706.6063 542.1838,-711.8874 548.1674,-715.3613 554.5362,-717.6338"/>
<polygon fill="#000000" fill-opacity="0.200000" stroke="#000000" stroke-opacity="0.200000" points="554.1029,-719.6959 560.4529,-719.4003 555.3045,-715.6715 554.1029,-719.6959"/>
</g>
<!-- lib/Order.js&#45;&gt;lib/util/log.js -->
<g id="edge55" class="edge">
<title>lib/Order.js&#45;&gt;lib/util/log.js</title>
<path fill="none" stroke="#000000" stroke-width="2" stroke-opacity="0.200000" d="M193.7716,-348.3567C201.9922,-342.013 213.6375,-333.8296 225,-328.6063 268.4927,-308.6128 281.7533,-308.2946 329,-300.6063 351.0826,-297.0128 510.9926,-300.4078 530,-288.6063 536.0884,-284.8261 532.3959,-279.073 538,-274.6063 542.7925,-270.7864 548.5479,-267.9371 554.4122,-265.8124"/>
<polygon fill="#000000" fill-opacity="0.200000" stroke="#000000" stroke-width="2" stroke-opacity="0.200000" points="555.215,-267.7601 560.2811,-263.9202 553.9261,-263.7627 555.215,-267.7601"/>
</g>
<!-- lib/Order.js&#45;&gt;lib/util/Throws.js -->
<g id="edge56" class="edge">
<title>lib/Order.js&#45;&gt;lib/util/Throws.js</title>
<path fill="none" stroke="#000000" stroke-width="2" stroke-opacity="0.200000" d="M183.3301,-348.5957C185.7296,-328.0153 194.5817,-277.3532 225,-251.6063 258.3368,-223.389 291.311,-262.6393 321,-230.6063 338.3894,-211.8439 309.6949,-190.3911 329,-173.6063 345.8538,-158.9527 509.3107,-165.1962 530,-173.6063 550.513,-181.9447 567.715,-201.5083 577.8127,-215.1487"/>
<polygon fill="#000000" fill-opacity="0.200000" stroke="#000000" stroke-width="2" stroke-opacity="0.200000" points="576.2488,-216.5718 581.4494,-220.2275 579.6636,-214.1266 576.2488,-216.5718"/>
</g>
<!-- lib/Order.js&#45;&gt;lib/Authorisation.js -->
<g id="edge51" class="edge">
<title>lib/Order.js&#45;&gt;lib/Authorisation.js</title>
<path fill="none" stroke="#000000" stroke-width="2" stroke-opacity="0.200000" d="M203.6133,-366.754C210.4159,-369.6461 218.0043,-372.8145 225,-375.6063 230.5796,-377.8329 236.554,-380.1367 242.327,-382.3223"/>
<polygon fill="#000000" fill-opacity="0.200000" stroke="#000000" stroke-width="2" stroke-opacity="0.200000" points="241.6556,-384.3133 248.0108,-384.4611 243.1348,-380.3824 241.6556,-384.3133"/>
</g>
<!-- lib/Order.js&#45;&gt;lib/ChallengeServer.js -->
<g id="edge53" class="edge">
<title>lib/Order.js&#45;&gt;lib/ChallengeServer.js</title>
<path fill="none" stroke="#000000" stroke-width="2" stroke-opacity="0.200000" d="M207.3951,-366.6188C209.0747,-367.7981 210.6374,-369.122 212,-370.6063 224.0711,-383.7556 211.2674,-397.203 225,-408.6063 258.1723,-436.1518 291.9807,-390.7152 321,-422.6063 344.6608,-448.6085 305.3827,-554.5645 329,-580.6063 340.7159,-593.5249 358.3704,-598.7029 375.6297,-600.1921"/>
<polygon fill="#000000" fill-opacity="0.200000" stroke="#000000" stroke-width="2" stroke-opacity="0.200000" points="375.8412,-602.309 381.9588,-600.5813 376.0991,-598.1169 375.8412,-602.309"/>
</g>
<!-- lib/Order.js&#45;&gt;lib/CertificateIdentity.js -->
<g id="edge52" class="edge">
<title>lib/Order.js&#45;&gt;lib/CertificateIdentity.js</title>
<path fill="none" stroke="#000000" stroke-width="2" stroke-opacity="0.200000" d="M187.0982,-366.7589C193.0791,-378.7761 203.7383,-400.5815 212,-419.6063 218.279,-434.0654 213.4573,-441.8703 225,-452.6063 225.911,-453.4536 226.8693,-454.2531 227.8668,-455.0074"/>
<polygon fill="#000000" fill-opacity="0.200000" stroke="#000000" stroke-width="2" stroke-opacity="0.200000" points="226.9642,-456.9243 233.1438,-458.4152 229.2427,-453.396 226.9642,-456.9243"/>
</g>
<!-- lib/acme&#45;requests/CertificateRequest.js -->
<g id="node30" class="node">
<title>lib/acme&#45;requests/CertificateRequest.js</title>
<g id="a_node30"><a xlink:href="lib/acme-requests/CertificateRequest.js" xlink:title="CertificateRequest.js">
<path fill="#ffffcc" stroke="#000000" d="M474,-432.6063C474,-432.6063 385,-432.6063 385,-432.6063 382,-432.6063 379,-429.6063 379,-426.6063 379,-426.6063 379,-420.6063 379,-420.6063 379,-417.6063 382,-414.6063 385,-414.6063 385,-414.6063 474,-414.6063 474,-414.6063 477,-414.6063 480,-417.6063 480,-420.6063 480,-420.6063 480,-426.6063 480,-426.6063 480,-429.6063 477,-432.6063 474,-432.6063"/>
<text text-anchor="middle" x="429.5" y="-421.4063" font-family="Helvetica,sans-Serif" font-size="9.00" fill="#000000">CertificateRequest.js</text>
</a>
</g>
</g>
<!-- lib/Order.js&#45;&gt;lib/acme&#45;requests/CertificateRequest.js -->
<g id="edge47" class="edge">
<title>lib/Order.js&#45;&gt;lib/acme&#45;requests/CertificateRequest.js</title>
<path fill="none" stroke="#000000" stroke-width="2" stroke-opacity="0.200000" d="M209.6678,-355.8183C245.2749,-354.0894 305.0768,-353.4966 321,-367.6063 334.8955,-379.9191 315.5829,-395.7738 329,-408.6063 340.5925,-419.6936 356.6292,-424.7971 372.4905,-426.7687"/>
<polygon fill="#000000" fill-opacity="0.200000" stroke="#000000" stroke-width="2" stroke-opacity="0.200000" points="372.6084,-428.8908 378.7868,-427.395 373.0242,-424.7114 372.6084,-428.8908"/>
</g>
<!-- lib/acme&#45;requests/FinaliseOrderRequest.js -->
<g id="node31" class="node">
<title>lib/acme&#45;requests/FinaliseOrderRequest.js</title>
<g id="a_node31"><a xlink:href="lib/acme-requests/FinaliseOrderRequest.js" xlink:title="FinaliseOrderRequest.js">
<path fill="#ffffcc" stroke="#000000" d="M481.5,-462.6063C481.5,-462.6063 377.5,-462.6063 377.5,-462.6063 374.5,-462.6063 371.5,-459.6063 371.5,-456.6063 371.5,-456.6063 371.5,-450.6063 371.5,-450.6063 371.5,-447.6063 374.5,-444.6063 377.5,-444.6063 377.5,-444.6063 481.5,-444.6063 481.5,-444.6063 484.5,-444.6063 487.5,-447.6063 487.5,-450.6063 487.5,-450.6063 487.5,-456.6063 487.5,-456.6063 487.5,-459.6063 484.5,-462.6063 481.5,-462.6063"/>
<text text-anchor="middle" x="429.5" y="-451.4063" font-family="Helvetica,sans-Serif" font-size="9.00" fill="#000000">FinaliseOrderRequest.js</text>
</a>
</g>
</g>
<!-- lib/Order.js&#45;&gt;lib/acme&#45;requests/FinaliseOrderRequest.js -->
<g id="edge48" class="edge">
<title>lib/Order.js&#45;&gt;lib/acme&#45;requests/FinaliseOrderRequest.js</title>
<path fill="none" stroke="#000000" stroke-width="2" stroke-opacity="0.200000" d="M209.9227,-362.1991C214.9359,-363.0171 220.123,-363.8491 225,-364.6063 246.3038,-367.9138 305.8492,-363.2686 321,-378.6063 339.9061,-397.7456 310.126,-419.4353 329,-438.6063 338.6058,-448.3632 351.6246,-453.5827 365.1041,-456.1192"/>
<polygon fill="#000000" fill-opacity="0.200000" stroke="#000000" stroke-width="2" stroke-opacity="0.200000" points="365.0647,-458.2391 371.3192,-457.1026 365.7211,-454.0907 365.0647,-458.2391"/>
</g>
<!-- lib/acme&#45;requests/NewOrderRequest.js -->
<g id="node32" class="node">
<title>lib/acme&#45;requests/NewOrderRequest.js</title>
<g id="a_node32"><a xlink:href="lib/acme-requests/NewOrderRequest.js" xlink:title="NewOrderRequest.js">
<path fill="#ffffcc" stroke="#000000" d="M474.5,-372.6063C474.5,-372.6063 384.5,-372.6063 384.5,-372.6063 381.5,-372.6063 378.5,-369.6063 378.5,-366.6063 378.5,-366.6063 378.5,-360.6063 378.5,-360.6063 378.5,-357.6063 381.5,-354.6063 384.5,-354.6063 384.5,-354.6063 474.5,-354.6063 474.5,-354.6063 477.5,-354.6063 480.5,-357.6063 480.5,-360.6063 480.5,-360.6063 480.5,-366.6063 480.5,-366.6063 480.5,-369.6063 477.5,-372.6063 474.5,-372.6063"/>
<text text-anchor="middle" x="429.5" y="-361.4063" font-family="Helvetica,sans-Serif" font-size="9.00" fill="#000000">NewOrderRequest.js</text>
</a>
</g>
</g>
<!-- lib/Order.js&#45;&gt;lib/acme&#45;requests/NewOrderRequest.js -->
<g id="edge49" class="edge">
<title>lib/Order.js&#45;&gt;lib/acme&#45;requests/NewOrderRequest.js</title>
<path fill="none" stroke="#000000" stroke-width="2" stroke-opacity="0.200000" d="M209.9079,-354.6459C214.9226,-354.2127 220.1141,-353.8357 225,-353.6063 267.6197,-351.6051 278.3784,-351.6463 321,-353.6063 337.6615,-354.3725 355.7168,-355.7971 372.2293,-357.3358"/>
<polygon fill="#000000" fill-opacity="0.200000" stroke="#000000" stroke-width="2" stroke-opacity="0.200000" points="372.0658,-359.4296 378.2376,-357.9068 372.4632,-355.2485 372.0658,-359.4296"/>
</g>
<!-- lib/acmeCsr.js -->
<g id="node33" class="node">
<title>lib/acmeCsr.js</title>
<g id="a_node33"><a xlink:href="lib/acmeCsr.js" xlink:title="acmeCsr.js">
<path fill="#ffffcc" stroke="#000000" d="M298,-446.6063C298,-446.6063 248,-446.6063 248,-446.6063 245,-446.6063 242,-443.6063 242,-440.6063 242,-440.6063 242,-434.6063 242,-434.6063 242,-431.6063 245,-428.6063 248,-428.6063 248,-428.6063 298,-428.6063 298,-428.6063 301,-428.6063 304,-431.6063 304,-434.6063 304,-434.6063 304,-440.6063 304,-440.6063 304,-443.6063 301,-446.6063 298,-446.6063"/>
<text text-anchor="middle" x="273" y="-435.4063" font-family="Helvetica,sans-Serif" font-size="9.00" fill="#000000">acmeCsr.js</text>
</a>
</g>
</g>
<!-- lib/Order.js&#45;&gt;lib/acmeCsr.js -->
<g id="edge50" class="edge">
<title>lib/Order.js&#45;&gt;lib/acmeCsr.js</title>
<path fill="none" stroke="#000000" stroke-width="2" stroke-opacity="0.200000" d="M186.6231,-366.9257C193.0075,-380.3556 206.5055,-405.124 225,-419.6063 228.4204,-422.2847 232.2816,-424.5961 236.2911,-426.5831"/>
<polygon fill="#000000" fill-opacity="0.200000" stroke="#000000" stroke-width="2" stroke-opacity="0.200000" points="235.4916,-428.5264 241.823,-429.0955 237.2284,-424.7023 235.4916,-428.5264"/>
</g>
<!-- lib/util/async&#45;foreach.js -->
<g id="node34" class="node">
<title>lib/util/async&#45;foreach.js</title>
<g id="a_node34"><a xlink:href="lib/util/async-foreach.js" xlink:title="async&#45;foreach.js">
<path fill="#ffffcc" stroke="#000000" d="M623,-298.6063C623,-298.6063 552,-298.6063 552,-298.6063 549,-298.6063 546,-295.6063 546,-292.6063 546,-292.6063 546,-286.6063 546,-286.6063 546,-283.6063 549,-280.6063 552,-280.6063 552,-280.6063 623,-280.6063 623,-280.6063 626,-280.6063 629,-283.6063 629,-286.6063 629,-286.6063 629,-292.6063 629,-292.6063 629,-295.6063 626,-298.6063 623,-298.6063"/>
<text text-anchor="middle" x="587.5" y="-287.4063" font-family="Helvetica,sans-Serif" font-size="9.00" fill="#000000">async&#45;foreach.js</text>
</a>
</g>
</g>
<!-- lib/Order.js&#45;&gt;lib/util/async&#45;foreach.js -->
<g id="edge54" class="edge">
<title>lib/Order.js&#45;&gt;lib/util/async&#45;foreach.js</title>
<path fill="none" stroke="#000000" stroke-width="2" stroke-opacity="0.200000" d="M209.8949,-351.5974C214.911,-350.5563 220.1062,-349.517 225,-348.6063 359.9765,-323.4881 394.5877,-322.2577 530,-299.6063 533.1855,-299.0734 536.4691,-298.5182 539.7771,-297.9545"/>
<polygon fill="#000000" fill-opacity="0.200000" stroke="#000000" stroke-width="2" stroke-opacity="0.200000" points="540.1821,-300.0158 545.7418,-296.9336 539.4735,-295.876 540.1821,-300.0158"/>
</g>
<!-- lib/x.509/cert&#45;info.js&#45;&gt;fs -->
<g id="edge65" class="edge">
<title>lib/x.509/cert&#45;info.js&#45;&gt;fs</title>
<path fill="none" stroke="#000000" stroke-dasharray="5,2" stroke-opacity="0.200000" d="M208.4353,-574.5774C209.7889,-573.4094 210.9999,-572.092 212,-570.6063 239.6219,-529.5713 194.746,-164.7411 225,-125.6063 228.7828,-120.7131 234.1781,-117.4591 239.9953,-115.3111"/>
<polygon fill="#000000" fill-opacity="0.200000" stroke="#000000" stroke-opacity="0.200000" points="240.7802,-117.2674 245.9091,-113.5118 239.5576,-113.2492 240.7802,-117.2674"/>
</g>
<!-- lib/x.509/asn1&#45;parser.js -->
<g id="node35" class="node">
<title>lib/x.509/asn1&#45;parser.js</title>
<g id="a_node35"><a xlink:href="lib/x.509/asn1-parser.js" xlink:title="asn1&#45;parser.js">
<path fill="#ffffcc" stroke="#000000" d="M304.5,-592.6063C304.5,-592.6063 241.5,-592.6063 241.5,-592.6063 238.5,-592.6063 235.5,-589.6063 235.5,-586.6063 235.5,-586.6063 235.5,-580.6063 235.5,-580.6063 235.5,-577.6063 238.5,-574.6063 241.5,-574.6063 241.5,-574.6063 304.5,-574.6063 304.5,-574.6063 307.5,-574.6063 310.5,-577.6063 310.5,-580.6063 310.5,-580.6063 310.5,-586.6063 310.5,-586.6063 310.5,-589.6063 307.5,-592.6063 304.5,-592.6063"/>
<text text-anchor="middle" x="273" y="-581.4063" font-family="Helvetica,sans-Serif" font-size="9.00" fill="#000000">asn1&#45;parser.js</text>
</a>
</g>
</g>
<!-- lib/x.509/cert&#45;info.js&#45;&gt;lib/x.509/asn1&#45;parser.js -->
<g id="edge64" class="edge">
<title>lib/x.509/cert&#45;info.js&#45;&gt;lib/x.509/asn1&#45;parser.js</title>
<path fill="none" stroke="#000000" stroke-width="2" stroke-opacity="0.200000" d="M212.1331,-583.6063C217.5845,-583.6063 223.3806,-583.6063 229.1464,-583.6063"/>
<polygon fill="#000000" fill-opacity="0.200000" stroke="#000000" stroke-width="2" stroke-opacity="0.200000" points="229.3734,-585.7064 235.3734,-583.6063 229.3733,-581.5064 229.3734,-585.7064"/>
</g>
<!-- lib/acme&#45;requests/CertificateRequest.js&#45;&gt;lib/AcmeRequest.js -->
<g id="edge58" class="edge">
<title>lib/acme&#45;requests/CertificateRequest.js&#45;&gt;lib/AcmeRequest.js</title>
<path fill="none" stroke="#000000" stroke-width="2" stroke-opacity="0.200000" d="M480.3619,-418.7776C499.4086,-416.9694 520.9653,-414.9228 539.7232,-413.142"/>
<polygon fill="#000000" fill-opacity="0.200000" stroke="#000000" stroke-width="2" stroke-opacity="0.200000" points="540.195,-415.2068 545.9696,-412.549 539.798,-411.0256 540.195,-415.2068"/>
</g>
<!-- lib/acme&#45;requests/FinaliseOrderRequest.js&#45;&gt;lib/AcmeRequest.js -->
<g id="edge59" class="edge">
<title>lib/acme&#45;requests/FinaliseOrderRequest.js&#45;&gt;lib/AcmeRequest.js</title>
<path fill="none" stroke="#000000" stroke-width="2" stroke-opacity="0.200000" d="M487.6607,-448.2762C501.7322,-446.0744 516.5794,-442.9723 530,-438.6063 543.3122,-434.2755 557.2562,-427.0754 568.0784,-420.8144"/>
<polygon fill="#000000" fill-opacity="0.200000" stroke="#000000" stroke-width="2" stroke-opacity="0.200000" points="569.3388,-422.5088 573.4333,-417.6461 567.2001,-418.8941 569.3388,-422.5088"/>
</g>
<!-- lib/acme&#45;requests/NewOrderRequest.js&#45;&gt;lib/util/Throws.js -->
<g id="edge62" class="edge">
<title>lib/acme&#45;requests/NewOrderRequest.js&#45;&gt;lib/util/Throws.js</title>
<path fill="none" stroke="#000000" stroke-width="2" stroke-opacity="0.200000" d="M480.6639,-369.3306C498.6467,-368.4748 517.472,-363.8206 530,-350.6063 546.2525,-333.4634 523.2209,-263.0346 538,-244.6063 541.9607,-239.6676 547.494,-236.3115 553.4333,-234.0408"/>
<polygon fill="#000000" fill-opacity="0.200000" stroke="#000000" stroke-width="2" stroke-opacity="0.200000" points="554.3887,-235.9402 559.4648,-232.1135 553.1103,-231.9395 554.3887,-235.9402"/>
</g>
<!-- lib/acme&#45;requests/NewOrderRequest.js&#45;&gt;lib/AcmeRequest.js -->
<g id="edge61" class="edge">
<title>lib/acme&#45;requests/NewOrderRequest.js&#45;&gt;lib/AcmeRequest.js</title>
<path fill="none" stroke="#000000" stroke-width="2" stroke-opacity="0.200000" d="M480.6138,-367.8969C496.6806,-370.1272 514.3146,-373.5035 530,-378.6063 543.3122,-382.937 557.2562,-390.1371 568.0784,-396.3981"/>
<polygon fill="#000000" fill-opacity="0.200000" stroke="#000000" stroke-width="2" stroke-opacity="0.200000" points="567.2001,-398.3184 573.4333,-399.5664 569.3388,-394.7037 567.2001,-398.3184"/>
</g>
</g>
</svg>
