<?xml version="1.0" encoding="UTF-8" standalone="no"?>
<!DOCTYPE svg PUBLIC "-//W3C//DTD SVG 1.1//EN"
 "http://www.w3.org/Graphics/SVG/1.1/DTD/svg11.dtd">
<!-- Generated by graphviz version 2.40.1 (20161225.0304)
 -->
<!-- Title: dependency&#45;cruiser output Pages: 1 -->
<svg width="772pt" height="360pt"
 viewBox="0.00 0.00 772.00 360.00" xmlns="http://www.w3.org/2000/svg" xmlns:xlink="http://www.w3.org/1999/xlink">
<g id="graph0" class="graph" transform="scale(1 1) rotate(0) translate(4 356)">
<title>dependency&#45;cruiser output</title>
<polygon fill="#ffffff" stroke="transparent" points="-4,4 -4,-356 768,-356 768,4 -4,4"/>
<g id="clust1" class="cluster">
<title>cluster_lib</title>
<path fill="#ffffff" stroke="#000000" stroke-width="2" d="M74,-8C74,-8 744,-8 744,-8 750,-8 756,-14 756,-20 756,-20 756,-332 756,-332 756,-338 750,-344 744,-344 744,-344 74,-344 74,-344 68,-344 62,-338 62,-332 62,-332 62,-20 62,-20 62,-14 68,-8 74,-8"/>
<text text-anchor="middle" x="409" y="-332.8" font-family="Helvetica,sans-Serif" font-weight="bold" font-size="9.00" fill="#000000">lib</text>
</g>
<g id="clust2" class="cluster">
<title>cluster_lib/acme&#45;requests</title>
<path fill="#ffffff" stroke="#000000" stroke-width="2" d="M401,-86C401,-86 578,-86 578,-86 584,-86 590,-92 590,-98 590,-98 590,-306 590,-306 590,-312 584,-318 578,-318 578,-318 401,-318 401,-318 395,-318 389,-312 389,-306 389,-306 389,-98 389,-98 389,-92 395,-86 401,-86"/>
<text text-anchor="middle" x="489.5" y="-306.8" font-family="Helvetica,sans-Serif" font-weight="bold" font-size="9.00" fill="#000000">acme&#45;requests</text>
</g>
<g id="clust3" class="cluster">
<title>cluster_lib/x.509</title>
<path fill="#ffffff" stroke="#000000" stroke-width="2" d="M204,-172C204,-172 252,-172 252,-172 258,-172 264,-178 264,-184 264,-184 264,-212 264,-212 264,-218 258,-224 252,-224 252,-224 204,-224 204,-224 198,-224 192,-218 192,-212 192,-212 192,-184 192,-184 192,-178 198,-172 204,-172"/>
<text text-anchor="middle" x="228" y="-212.8" font-family="Helvetica,sans-Serif" font-weight="bold" font-size="9.00" fill="#000000">x.509</text>
</g>
<!-- index.js -->
<g id="node1" class="node">
<title>index.js</title>
<g id="a_node1"><a xlink:href="index.js" xlink:title="index.js">
<path fill="#ffffcc" stroke="#000000" d="M48,-91C48,-91 6,-91 6,-91 3,-91 0,-88 0,-85 0,-85 0,-79 0,-79 0,-76 3,-73 6,-73 6,-73 48,-73 48,-73 51,-73 54,-76 54,-79 54,-79 54,-85 54,-85 54,-88 51,-91 48,-91"/>
<text text-anchor="middle" x="27" y="-79.8" font-family="Helvetica,sans-Serif" font-size="9.00" fill="#000000">index.js</text>
</a>
</g>
</g>
<!-- lib/Certificate.js -->
<g id="node2" class="node">
<title>lib/Certificate.js</title>
<g id="a_node2"><a xlink:href="lib/Certificate.js" xlink:title="Certificate.js">
<path fill="#ffffcc" stroke="#000000" d="M148,-136C148,-136 93,-136 93,-136 90,-136 87,-133 87,-130 87,-130 87,-124 87,-124 87,-121 90,-118 93,-118 93,-118 148,-118 148,-118 151,-118 154,-121 154,-124 154,-124 154,-130 154,-130 154,-133 151,-136 148,-136"/>
<text text-anchor="middle" x="120.5" y="-124.8" font-family="Helvetica,sans-Serif" font-size="9.00" fill="#000000">Certificate.js</text>
</a>
</g>
</g>
<!-- index.js&#45;&gt;lib/Certificate.js -->
<g id="edge1" class="edge">
<title>index.js&#45;&gt;lib/Certificate.js</title>
<path fill="none" stroke="#000000" stroke-width="2" stroke-opacity="0.200000" d="M35.3655,-91.1474C41.9806,-97.8529 51.7769,-106.6802 62,-112 67.8392,-115.0386 74.3327,-117.4889 80.8085,-119.4568"/>
<polygon fill="#000000" fill-opacity="0.200000" stroke="#000000" stroke-width="2" stroke-opacity="0.200000" points="80.3862,-121.5197 86.7313,-121.1315 81.529,-117.4781 80.3862,-121.5197"/>
</g>
<!-- lib/Configuration.js -->
<g id="node3" class="node">
<title>lib/Configuration.js</title>
<g id="a_node3"><a xlink:href="lib/Configuration.js" xlink:title="Configuration.js">
<path fill="#ffffcc" stroke="#000000" d="M155,-106C155,-106 86,-106 86,-106 83,-106 80,-103 80,-100 80,-100 80,-94 80,-94 80,-91 83,-88 86,-88 86,-88 155,-88 155,-88 158,-88 161,-91 161,-94 161,-94 161,-100 161,-100 161,-103 158,-106 155,-106"/>
<text text-anchor="middle" x="120.5" y="-94.8" font-family="Helvetica,sans-Serif" font-size="9.00" fill="#000000">Configuration.js</text>
</a>
</g>
</g>
<!-- index.js&#45;&gt;lib/Configuration.js -->
<g id="edge2" class="edge">
<title>index.js&#45;&gt;lib/Configuration.js</title>
<path fill="none" stroke="#000000" stroke-width="2" stroke-opacity="0.200000" d="M54.0441,-86.3386C60.238,-87.3323 66.9969,-88.4166 73.7556,-89.5009"/>
<polygon fill="#000000" fill-opacity="0.200000" stroke="#000000" stroke-width="2" stroke-opacity="0.200000" points="73.6894,-91.6171 79.9463,-90.4941 74.3547,-87.4701 73.6894,-91.6171"/>
</g>
<!-- lib/LetsEncryptServer.js -->
<g id="node4" class="node">
<title>lib/LetsEncryptServer.js</title>
<g id="a_node4"><a xlink:href="lib/LetsEncryptServer.js" xlink:title="LetsEncryptServer.js">
<path fill="#ffffcc" stroke="#000000" d="M165,-76C165,-76 76,-76 76,-76 73,-76 70,-73 70,-70 70,-70 70,-64 70,-64 70,-61 73,-58 76,-58 76,-58 165,-58 165,-58 168,-58 171,-61 171,-64 171,-64 171,-70 171,-70 171,-73 168,-76 165,-76"/>
<text text-anchor="middle" x="120.5" y="-64.8" font-family="Helvetica,sans-Serif" font-size="9.00" fill="#000000">LetsEncryptServer.js</text>
</a>
</g>
</g>
<!-- index.js&#45;&gt;lib/LetsEncryptServer.js -->
<g id="edge3" class="edge">
<title>index.js&#45;&gt;lib/LetsEncryptServer.js</title>
<path fill="none" stroke="#000000" stroke-width="2" stroke-opacity="0.200000" d="M54.0441,-77.6614C57.1453,-77.1639 60.3881,-76.6436 63.7016,-76.112"/>
<polygon fill="#000000" fill-opacity="0.200000" stroke="#000000" stroke-width="2" stroke-opacity="0.200000" points="64.1353,-78.1694 69.7269,-75.1454 63.4699,-74.0224 64.1353,-78.1694"/>
</g>
<!-- lib/MonkeyPatchTls.js -->
<g id="node5" class="node">
<title>lib/MonkeyPatchTls.js</title>
<g id="a_node5"><a xlink:href="lib/MonkeyPatchTls.js" xlink:title="MonkeyPatchTls.js">
<path fill="#ffffcc" stroke="#000000" d="M161,-46C161,-46 80,-46 80,-46 77,-46 74,-43 74,-40 74,-40 74,-34 74,-34 74,-31 77,-28 80,-28 80,-28 161,-28 161,-28 164,-28 167,-31 167,-34 167,-34 167,-40 167,-40 167,-43 164,-46 161,-46"/>
<text text-anchor="middle" x="120.5" y="-34.8" font-family="Helvetica,sans-Serif" font-size="9.00" fill="#000000">MonkeyPatchTls.js</text>
</a>
</g>
</g>
<!-- index.js&#45;&gt;lib/MonkeyPatchTls.js -->
<g id="edge4" class="edge">
<title>index.js&#45;&gt;lib/MonkeyPatchTls.js</title>
<path fill="none" stroke="#000000" stroke-width="2" stroke-opacity="0.200000" d="M35.3655,-72.8526C41.9806,-66.1471 51.7769,-57.3198 62,-52 64.6507,-50.6206 67.4363,-49.3625 70.2939,-48.2156"/>
<polygon fill="#000000" fill-opacity="0.200000" stroke="#000000" stroke-width="2" stroke-opacity="0.200000" points="71.3423,-50.0669 76.2403,-46.0148 69.8844,-46.128 71.3423,-50.0669"/>
</g>
<!-- lib/Account.js -->
<g id="node6" class="node">
<title>lib/Account.js</title>
<g id="a_node6"><a xlink:href="lib/Account.js" xlink:title="Account.js">
<path fill="#ffffcc" stroke="#000000" d="M356.5,-280C356.5,-280 309.5,-280 309.5,-280 306.5,-280 303.5,-277 303.5,-274 303.5,-274 303.5,-268 303.5,-268 303.5,-265 306.5,-262 309.5,-262 309.5,-262 356.5,-262 356.5,-262 359.5,-262 362.5,-265 362.5,-268 362.5,-268 362.5,-274 362.5,-274 362.5,-277 359.5,-280 356.5,-280"/>
<text text-anchor="middle" x="333" y="-268.8" font-family="Helvetica,sans-Serif" font-size="9.00" fill="#000000">Account.js</text>
</a>
</g>
</g>
<!-- lib/Certificate.js&#45;&gt;lib/Account.js -->
<g id="edge11" class="edge">
<title>lib/Certificate.js&#45;&gt;lib/Account.js</title>
<path fill="none" stroke="#000000" stroke-width="2" stroke-opacity="0.200000" d="M139.5795,-136.0367C151.9977,-141.6097 168.6776,-148.5236 184,-153 222.1573,-164.1476 242.7963,-142.0298 272,-169 288.5523,-184.2864 274.2448,-198.2015 285,-218 293.3249,-233.3247 306.9679,-247.7907 317.5852,-257.7255"/>
<polygon fill="#000000" fill-opacity="0.200000" stroke="#000000" stroke-width="2" stroke-opacity="0.200000" points="316.3737,-259.4631 322.2205,-261.9581 319.2058,-256.3615 316.3737,-259.4631"/>
</g>
<!-- lib/AccountIdentity.js -->
<g id="node8" class="node">
<title>lib/AccountIdentity.js</title>
<g id="a_node8"><a xlink:href="lib/AccountIdentity.js" xlink:title="AccountIdentity.js">
<path fill="#ffffcc" stroke="#000000" d="M266,-41C266,-41 190,-41 190,-41 187,-41 184,-38 184,-35 184,-35 184,-29 184,-29 184,-26 187,-23 190,-23 190,-23 266,-23 266,-23 269,-23 272,-26 272,-29 272,-29 272,-35 272,-35 272,-38 269,-41 266,-41"/>
<text text-anchor="middle" x="228" y="-29.8" font-family="Helvetica,sans-Serif" font-size="9.00" fill="#000000">AccountIdentity.js</text>
</a>
</g>
</g>
<!-- lib/Certificate.js&#45;&gt;lib/AccountIdentity.js -->
<g id="edge12" class="edge">
<title>lib/Certificate.js&#45;&gt;lib/AccountIdentity.js</title>
<path fill="none" stroke="#000000" stroke-width="2" stroke-opacity="0.200000" d="M154.1346,-122.1955C160.3935,-119.9607 166.4004,-116.7124 171,-112 186.4378,-96.1833 171.4612,-82.2009 184,-64 189.3988,-56.1633 197.3631,-49.5386 205.0374,-44.3858"/>
<polygon fill="#000000" fill-opacity="0.200000" stroke="#000000" stroke-width="2" stroke-opacity="0.200000" points="206.3343,-46.0497 210.2689,-41.0567 204.0794,-42.5062 206.3343,-46.0497"/>
</g>
<!-- lib/AcmeRequest.js -->
<g id="node10" class="node">
<title>lib/AcmeRequest.js</title>
<g id="a_node10"><a xlink:href="lib/AcmeRequest.js" xlink:title="AcmeRequest.js">
<path fill="#ffffcc" stroke="#000000" d="M675,-187C675,-187 604,-187 604,-187 601,-187 598,-184 598,-181 598,-181 598,-175 598,-175 598,-172 601,-169 604,-169 604,-169 675,-169 675,-169 678,-169 681,-172 681,-175 681,-175 681,-181 681,-181 681,-184 678,-187 675,-187"/>
<text text-anchor="middle" x="639.5" y="-175.8" font-family="Helvetica,sans-Serif" font-size="9.00" fill="#000000">AcmeRequest.js</text>
</a>
</g>
</g>
<!-- lib/Certificate.js&#45;&gt;lib/AcmeRequest.js -->
<g id="edge13" class="edge">
<title>lib/Certificate.js&#45;&gt;lib/AcmeRequest.js</title>
<path fill="none" stroke="#000000" stroke-width="2" stroke-opacity="0.200000" d="M152.2213,-136.0168C162.2945,-138.4679 173.536,-140.7809 184,-142 222.8483,-146.5261 232.9686,-144.4963 272,-142 320.7428,-138.8825 345.641,-161.6945 381,-128 395.7058,-113.9864 373.4297,-96.0464 389,-83 406.1184,-68.6564 570.9048,-71.4177 590,-83 618.8005,-100.469 631.6259,-140.7726 636.6646,-162.8554"/>
<polygon fill="#000000" fill-opacity="0.200000" stroke="#000000" stroke-width="2" stroke-opacity="0.200000" points="634.6319,-163.3927 637.937,-168.8228 638.7395,-162.5167 634.6319,-163.3927"/>
</g>
<!-- lib/CertificateIdentity.js -->
<g id="node16" class="node">
<title>lib/CertificateIdentity.js</title>
<g id="a_node16"><a xlink:href="lib/CertificateIdentity.js" xlink:title="CertificateIdentity.js">
<path fill="#ffffcc" stroke="#000000" d="M375,-48C375,-48 291,-48 291,-48 288,-48 285,-45 285,-42 285,-42 285,-36 285,-36 285,-33 288,-30 291,-30 291,-30 375,-30 375,-30 378,-30 381,-33 381,-36 381,-36 381,-42 381,-42 381,-45 378,-48 375,-48"/>
<text text-anchor="middle" x="333" y="-36.8" font-family="Helvetica,sans-Serif" font-size="9.00" fill="#000000">CertificateIdentity.js</text>
</a>
</g>
</g>
<!-- lib/Certificate.js&#45;&gt;lib/CertificateIdentity.js -->
<g id="edge14" class="edge">
<title>lib/Certificate.js&#45;&gt;lib/CertificateIdentity.js</title>
<path fill="none" stroke="#000000" stroke-width="2" stroke-opacity="0.200000" d="M154.1506,-121.4771C160.2627,-119.2929 166.2093,-116.247 171,-112 181.8737,-102.3604 173.0889,-91.5973 184,-82 198.3807,-69.3509 242.7958,-57.4806 279.4212,-49.4301"/>
<polygon fill="#000000" fill-opacity="0.200000" stroke="#000000" stroke-width="2" stroke-opacity="0.200000" points="280.2726,-51.3945 285.6921,-48.0719 279.3835,-47.2896 280.2726,-51.3945"/>
</g>
<!-- lib/Directory.js -->
<g id="node17" class="node">
<title>lib/Directory.js</title>
<g id="a_node17"><a xlink:href="lib/Directory.js" xlink:title="Directory.js">
<path fill="#ffffcc" stroke="#000000" d="M253,-106C253,-106 203,-106 203,-106 200,-106 197,-103 197,-100 197,-100 197,-94 197,-94 197,-91 200,-88 203,-88 203,-88 253,-88 253,-88 256,-88 259,-91 259,-94 259,-94 259,-100 259,-100 259,-103 256,-106 253,-106"/>
<text text-anchor="middle" x="228" y="-94.8" font-family="Helvetica,sans-Serif" font-size="9.00" fill="#000000">Directory.js</text>
</a>
</g>
</g>
<!-- lib/Certificate.js&#45;&gt;lib/Directory.js -->
<g id="edge15" class="edge">
<title>lib/Certificate.js&#45;&gt;lib/Directory.js</title>
<path fill="none" stroke="#000000" stroke-width="2" stroke-opacity="0.200000" d="M152.7535,-117.999C164.7651,-114.647 178.4913,-110.8164 190.9031,-107.3526"/>
<polygon fill="#000000" fill-opacity="0.200000" stroke="#000000" stroke-width="2" stroke-opacity="0.200000" points="191.6625,-109.321 196.8772,-105.6854 190.5335,-105.2756 191.6625,-109.321"/>
</g>
<!-- lib/Order.js -->
<g id="node18" class="node">
<title>lib/Order.js</title>
<g id="a_node18"><a xlink:href="lib/Order.js" xlink:title="Order.js">
<path fill="#ffffcc" stroke="#000000" d="M249,-136C249,-136 207,-136 207,-136 204,-136 201,-133 201,-130 201,-130 201,-124 201,-124 201,-121 204,-118 207,-118 207,-118 249,-118 249,-118 252,-118 255,-121 255,-124 255,-124 255,-130 255,-130 255,-133 252,-136 249,-136"/>
<text text-anchor="middle" x="228" y="-124.8" font-family="Helvetica,sans-Serif" font-size="9.00" fill="#000000">Order.js</text>
</a>
</g>
</g>
<!-- lib/Certificate.js&#45;&gt;lib/Order.js -->
<g id="edge16" class="edge">
<title>lib/Certificate.js&#45;&gt;lib/Order.js</title>
<path fill="none" stroke="#000000" stroke-width="2" stroke-opacity="0.200000" d="M154.2187,-127C167.1302,-127 181.8411,-127 194.712,-127"/>
<polygon fill="#000000" fill-opacity="0.200000" stroke="#000000" stroke-width="2" stroke-opacity="0.200000" points="194.8667,-129.1001 200.8667,-127 194.8667,-124.9001 194.8667,-129.1001"/>
</g>
<!-- lib/x.509/rfc5280.js -->
<g id="node19" class="node">
<title>lib/x.509/rfc5280.js</title>
<g id="a_node19"><a xlink:href="lib/x.509/rfc5280.js" xlink:title="rfc5280.js">
<path fill="#ffffcc" stroke="#000000" d="M250,-198C250,-198 206,-198 206,-198 203,-198 200,-195 200,-192 200,-192 200,-186 200,-186 200,-183 203,-180 206,-180 206,-180 250,-180 250,-180 253,-180 256,-183 256,-186 256,-186 256,-192 256,-192 256,-195 253,-198 250,-198"/>
<text text-anchor="middle" x="228" y="-186.8" font-family="Helvetica,sans-Serif" font-size="9.00" fill="#000000">rfc5280.js</text>
</a>
</g>
</g>
<!-- lib/Certificate.js&#45;&gt;lib/x.509/rfc5280.js -->
<g id="edge17" class="edge">
<title>lib/Certificate.js&#45;&gt;lib/x.509/rfc5280.js</title>
<path fill="none" stroke="#000000" stroke-width="2" stroke-opacity="0.200000" d="M130.0465,-136.2284C141.8338,-147.1571 162.9186,-165.2317 184,-176 187.181,-177.6248 190.5977,-179.0793 194.0699,-180.3733"/>
<polygon fill="#000000" fill-opacity="0.200000" stroke="#000000" stroke-width="2" stroke-opacity="0.200000" points="193.5771,-182.4249 199.934,-182.4012 194.9498,-178.4555 193.5771,-182.4249"/>
</g>
<!-- lib/acme&#45;requests/NewAccountRequest.js -->
<g id="node7" class="node">
<title>lib/acme&#45;requests/NewAccountRequest.js</title>
<g id="a_node7"><a xlink:href="lib/acme-requests/NewAccountRequest.js" xlink:title="NewAccountRequest.js">
<path fill="#ffffcc" stroke="#000000" d="M539.5,-292C539.5,-292 439.5,-292 439.5,-292 436.5,-292 433.5,-289 433.5,-286 433.5,-286 433.5,-280 433.5,-280 433.5,-277 436.5,-274 439.5,-274 439.5,-274 539.5,-274 539.5,-274 542.5,-274 545.5,-277 545.5,-280 545.5,-280 545.5,-286 545.5,-286 545.5,-289 542.5,-292 539.5,-292"/>
<text text-anchor="middle" x="489.5" y="-280.8" font-family="Helvetica,sans-Serif" font-size="9.00" fill="#000000">NewAccountRequest.js</text>
</a>
</g>
</g>
<!-- lib/Account.js&#45;&gt;lib/acme&#45;requests/NewAccountRequest.js -->
<g id="edge5" class="edge">
<title>lib/Account.js&#45;&gt;lib/acme&#45;requests/NewAccountRequest.js</title>
<path fill="none" stroke="#000000" stroke-width="2" stroke-opacity="0.200000" d="M362.8048,-273.2854C380.9632,-274.6777 404.8598,-276.51 427.0011,-278.2078"/>
<polygon fill="#000000" fill-opacity="0.200000" stroke="#000000" stroke-width="2" stroke-opacity="0.200000" points="427.0504,-280.3176 433.1934,-278.6826 427.3715,-276.1299 427.0504,-280.3176"/>
</g>
<!-- lib/acme&#45;requests/NewAccountRequest.js&#45;&gt;lib/AcmeRequest.js -->
<g id="edge31" class="edge">
<title>lib/acme&#45;requests/NewAccountRequest.js&#45;&gt;lib/AcmeRequest.js</title>
<path fill="none" stroke="#000000" stroke-width="2" stroke-opacity="0.200000" d="M545.5535,-283.6291C561.0403,-281.5152 577.1135,-276.9694 590,-268 615.9973,-249.9051 629.7488,-213.5922 635.7322,-193.0536"/>
<polygon fill="#000000" fill-opacity="0.200000" stroke="#000000" stroke-width="2" stroke-opacity="0.200000" points="637.7691,-193.5664 637.3447,-187.2237 633.7211,-192.4467 637.7691,-193.5664"/>
</g>
<!-- lib/Identity.js -->
<g id="node9" class="node">
<title>lib/Identity.js</title>
<g id="a_node9"><a xlink:href="lib/Identity.js" xlink:title="Identity.js">
<path fill="#ffffcc" stroke="#000000" d="M511,-34C511,-34 468,-34 468,-34 465,-34 462,-31 462,-28 462,-28 462,-22 462,-22 462,-19 465,-16 468,-16 468,-16 511,-16 511,-16 514,-16 517,-19 517,-22 517,-22 517,-28 517,-28 517,-31 514,-34 511,-34"/>
<text text-anchor="middle" x="489.5" y="-22.8" font-family="Helvetica,sans-Serif" font-size="9.00" fill="#000000">Identity.js</text>
</a>
</g>
</g>
<!-- lib/AccountIdentity.js&#45;&gt;lib/Identity.js -->
<g id="edge6" class="edge">
<title>lib/AccountIdentity.js&#45;&gt;lib/Identity.js</title>
<path fill="none" stroke="#000000" stroke-width="2" stroke-opacity="0.200000" d="M272.1236,-25.1883C276.466,-24.7041 280.8132,-24.2924 285,-24 344.9651,-19.8124 415.0611,-21.6013 455.659,-23.293"/>
<polygon fill="#000000" fill-opacity="0.200000" stroke="#000000" stroke-width="2" stroke-opacity="0.200000" points="455.5878,-25.3918 461.6726,-23.5519 455.7686,-21.1957 455.5878,-25.3918"/>
</g>
<!-- lib/Nonce.js -->
<g id="node11" class="node">
<title>lib/Nonce.js</title>
<g id="a_node11"><a xlink:href="lib/Nonce.js" xlink:title="Nonce.js">
<path fill="#ffffcc" stroke="#000000" d="M742,-187C742,-187 700,-187 700,-187 697,-187 694,-184 694,-181 694,-181 694,-175 694,-175 694,-172 697,-169 700,-169 700,-169 742,-169 742,-169 745,-169 748,-172 748,-175 748,-175 748,-181 748,-181 748,-184 745,-187 742,-187"/>
<text text-anchor="middle" x="721" y="-175.8" font-family="Helvetica,sans-Serif" font-size="9.00" fill="#000000">Nonce.js</text>
</a>
</g>
</g>
<!-- lib/AcmeRequest.js&#45;&gt;lib/Nonce.js -->
<g id="edge7" class="edge">
<title>lib/AcmeRequest.js&#45;&gt;lib/Nonce.js</title>
<path fill="none" stroke="#000000" stroke-width="2" stroke-opacity="0.200000" d="M681.205,-178C683.3198,-178 685.4312,-178 687.5164,-178"/>
<polygon fill="#000000" fill-opacity="0.200000" stroke="#000000" stroke-width="2" stroke-opacity="0.200000" points="687.6704,-180.1001 693.6704,-178 687.6704,-175.9001 687.6704,-180.1001"/>
</g>
<!-- lib/Authorisation.js -->
<g id="node12" class="node">
<title>lib/Authorisation.js</title>
<g id="a_node12"><a xlink:href="lib/Authorisation.js" xlink:title="Authorisation.js">
<path fill="#ffffcc" stroke="#000000" d="M367,-122C367,-122 299,-122 299,-122 296,-122 293,-119 293,-116 293,-116 293,-110 293,-110 293,-107 296,-104 299,-104 299,-104 367,-104 367,-104 370,-104 373,-107 373,-110 373,-110 373,-116 373,-116 373,-119 370,-122 367,-122"/>
<text text-anchor="middle" x="333" y="-110.8" font-family="Helvetica,sans-Serif" font-size="9.00" fill="#000000">Authorisation.js</text>
</a>
</g>
</g>
<!-- lib/acme&#45;requests/AuthorisationRequest.js -->
<g id="node13" class="node">
<title>lib/acme&#45;requests/AuthorisationRequest.js</title>
<g id="a_node13"><a xlink:href="lib/acme-requests/AuthorisationRequest.js" xlink:title="AuthorisationRequest.js">
<path fill="#ffffcc" stroke="#000000" d="M540.5,-112C540.5,-112 438.5,-112 438.5,-112 435.5,-112 432.5,-109 432.5,-106 432.5,-106 432.5,-100 432.5,-100 432.5,-97 435.5,-94 438.5,-94 438.5,-94 540.5,-94 540.5,-94 543.5,-94 546.5,-97 546.5,-100 546.5,-100 546.5,-106 546.5,-106 546.5,-109 543.5,-112 540.5,-112"/>
<text text-anchor="middle" x="489.5" y="-100.8" font-family="Helvetica,sans-Serif" font-size="9.00" fill="#000000">AuthorisationRequest.js</text>
</a>
</g>
</g>
<!-- lib/Authorisation.js&#45;&gt;lib/acme&#45;requests/AuthorisationRequest.js -->
<g id="edge8" class="edge">
<title>lib/Authorisation.js&#45;&gt;lib/acme&#45;requests/AuthorisationRequest.js</title>
<path fill="none" stroke="#000000" stroke-width="2" stroke-opacity="0.200000" d="M373.3026,-110.4248C389.4135,-109.3953 408.3561,-108.1849 426.2178,-107.0436"/>
<polygon fill="#000000" fill-opacity="0.200000" stroke="#000000" stroke-width="2" stroke-opacity="0.200000" points="426.3744,-109.138 432.2282,-106.6595 426.1065,-104.9465 426.3744,-109.138"/>
</g>
<!-- lib/acme&#45;requests/ReadyForChallengeValidationRequest.js -->
<g id="node14" class="node">
<title>lib/acme&#45;requests/ReadyForChallengeValidationRequest.js</title>
<g id="a_node14"><a xlink:href="lib/acme-requests/ReadyForChallengeValidationRequest.js" xlink:title="ReadyForChallengeValidationRequest.js">
<path fill="#ffffcc" stroke="#000000" d="M576,-142C576,-142 403,-142 403,-142 400,-142 397,-139 397,-136 397,-136 397,-130 397,-130 397,-127 400,-124 403,-124 403,-124 576,-124 576,-124 579,-124 582,-127 582,-130 582,-130 582,-136 582,-136 582,-139 579,-142 576,-142"/>
<text text-anchor="middle" x="489.5" y="-130.8" font-family="Helvetica,sans-Serif" font-size="9.00" fill="#000000">ReadyForChallengeValidationRequest.js</text>
</a>
</g>
</g>
<!-- lib/Authorisation.js&#45;&gt;lib/acme&#45;requests/ReadyForChallengeValidationRequest.js -->
<g id="edge9" class="edge">
<title>lib/Authorisation.js&#45;&gt;lib/acme&#45;requests/ReadyForChallengeValidationRequest.js</title>
<path fill="none" stroke="#000000" stroke-width="2" stroke-opacity="0.200000" d="M373.3026,-118.1505C385.3975,-119.6962 399.0882,-121.4458 412.7195,-123.1878"/>
<polygon fill="#000000" fill-opacity="0.200000" stroke="#000000" stroke-width="2" stroke-opacity="0.200000" points="412.7545,-125.3093 418.9723,-123.9869 413.287,-121.1432 412.7545,-125.3093"/>
</g>
<!-- lib/ChallengeServer.js -->
<g id="node15" class="node">
<title>lib/ChallengeServer.js</title>
<g id="a_node15"><a xlink:href="lib/ChallengeServer.js" xlink:title="ChallengeServer.js">
<path fill="#ffffcc" stroke="#000000" d="M531,-64C531,-64 448,-64 448,-64 445,-64 442,-61 442,-58 442,-58 442,-52 442,-52 442,-49 445,-46 448,-46 448,-46 531,-46 531,-46 534,-46 537,-49 537,-52 537,-52 537,-58 537,-58 537,-61 534,-64 531,-64"/>
<text text-anchor="middle" x="489.5" y="-52.8" font-family="Helvetica,sans-Serif" font-size="9.00" fill="#000000">ChallengeServer.js</text>
</a>
</g>
</g>
<!-- lib/Authorisation.js&#45;&gt;lib/ChallengeServer.js -->
<g id="edge10" class="edge">
<title>lib/Authorisation.js&#45;&gt;lib/ChallengeServer.js</title>
<path fill="none" stroke="#000000" stroke-width="2" stroke-opacity="0.200000" d="M368.2072,-103.9364C372.9182,-101.5983 377.3682,-98.6683 381,-95 388.32,-87.6064 381.0399,-79.6996 389,-73 401.9841,-62.072 419.3133,-56.8003 435.9214,-54.4826"/>
<polygon fill="#000000" fill-opacity="0.200000" stroke="#000000" stroke-width="2" stroke-opacity="0.200000" points="436.2893,-56.5536 441.9982,-53.7573 435.7916,-52.3832 436.2893,-56.5536"/>
</g>
<!-- lib/acme&#45;requests/AuthorisationRequest.js&#45;&gt;lib/AcmeRequest.js -->
<g id="edge27" class="edge">
<title>lib/acme&#45;requests/AuthorisationRequest.js&#45;&gt;lib/AcmeRequest.js</title>
<path fill="none" stroke="#000000" stroke-width="2" stroke-opacity="0.200000" d="M546.6465,-104.2586C561.4822,-106.487 576.9468,-110.6199 590,-118 608.7203,-128.5842 623.305,-149.2184 631.6551,-163.3033"/>
<polygon fill="#000000" fill-opacity="0.200000" stroke="#000000" stroke-width="2" stroke-opacity="0.200000" points="630.0467,-164.7216 634.846,-168.8903 633.6939,-162.6386 630.0467,-164.7216"/>
</g>
<!-- lib/acme&#45;requests/ReadyForChallengeValidationRequest.js&#45;&gt;lib/AcmeRequest.js -->
<g id="edge33" class="edge">
<title>lib/acme&#45;requests/ReadyForChallengeValidationRequest.js&#45;&gt;lib/AcmeRequest.js</title>
<path fill="none" stroke="#000000" stroke-width="2" stroke-opacity="0.200000" d="M569.7643,-142.025C576.6969,-143.6906 583.5289,-145.6634 590,-148 601.5353,-152.1652 613.3225,-159.1775 622.4996,-165.3755"/>
<polygon fill="#000000" fill-opacity="0.200000" stroke="#000000" stroke-width="2" stroke-opacity="0.200000" points="621.4535,-167.2058 627.5796,-168.9031 623.8491,-163.7559 621.4535,-167.2058"/>
</g>
<!-- lib/CertificateIdentity.js&#45;&gt;lib/Identity.js -->
<g id="edge18" class="edge">
<title>lib/CertificateIdentity.js&#45;&gt;lib/Identity.js</title>
<path fill="none" stroke="#000000" stroke-width="2" stroke-opacity="0.200000" d="M381.2322,-34.6853C405.2644,-32.5355 433.7491,-29.9873 455.4682,-28.0444"/>
<polygon fill="#000000" fill-opacity="0.200000" stroke="#000000" stroke-width="2" stroke-opacity="0.200000" points="455.9024,-30.114 461.6914,-27.4877 455.5281,-25.9307 455.9024,-30.114"/>
</g>
<!-- lib/Order.js&#45;&gt;lib/Authorisation.js -->
<g id="edge24" class="edge">
<title>lib/Order.js&#45;&gt;lib/Authorisation.js</title>
<path fill="none" stroke="#000000" stroke-width="2" stroke-opacity="0.200000" d="M255.0401,-123.3947C264.7812,-122.0958 276.0653,-120.5913 286.9711,-119.1372"/>
<polygon fill="#000000" fill-opacity="0.200000" stroke="#000000" stroke-width="2" stroke-opacity="0.200000" points="287.3089,-121.2108 292.9787,-118.3362 286.7538,-117.0477 287.3089,-121.2108"/>
</g>
<!-- lib/Order.js&#45;&gt;lib/ChallengeServer.js -->
<g id="edge26" class="edge">
<title>lib/Order.js&#45;&gt;lib/ChallengeServer.js</title>
<path fill="none" stroke="#000000" stroke-width="2" stroke-opacity="0.200000" d="M255.0369,-120.1322C260.886,-118.0163 266.8543,-115.3382 272,-112 279.1234,-107.3788 277.4827,-101.9482 285,-98 323.1732,-77.9509 344.0931,-106.2944 381,-84 386.1743,-80.8744 383.877,-76.2091 389,-73 402.7918,-64.3607 419.6177,-59.603 435.5275,-57.0539"/>
<polygon fill="#000000" fill-opacity="0.200000" stroke="#000000" stroke-width="2" stroke-opacity="0.200000" points="436.1653,-59.0839 441.8055,-56.1516 435.5678,-54.9266 436.1653,-59.0839"/>
</g>
<!-- lib/Order.js&#45;&gt;lib/CertificateIdentity.js -->
<g id="edge25" class="edge">
<title>lib/Order.js&#45;&gt;lib/CertificateIdentity.js</title>
<path fill="none" stroke="#000000" stroke-width="2" stroke-opacity="0.200000" d="M255.223,-122.4574C261.4771,-120.2345 267.58,-116.9254 272,-112 289.6439,-92.3386 267.1053,-73.4334 285,-54 285.6653,-53.2775 286.3649,-52.5895 287.0944,-51.9343"/>
<polygon fill="#000000" fill-opacity="0.200000" stroke="#000000" stroke-width="2" stroke-opacity="0.200000" points="288.7324,-53.3337 292.2978,-48.0708 286.2286,-49.9616 288.7324,-53.3337"/>
</g>
<!-- lib/acme&#45;requests/CertificateRequest.js -->
<g id="node20" class="node">
<title>lib/acme&#45;requests/CertificateRequest.js</title>
<g id="a_node20"><a xlink:href="lib/acme-requests/CertificateRequest.js" xlink:title="CertificateRequest.js">
<path fill="#ffffcc" stroke="#000000" d="M534,-262C534,-262 445,-262 445,-262 442,-262 439,-259 439,-256 439,-256 439,-250 439,-250 439,-247 442,-244 445,-244 445,-244 534,-244 534,-244 537,-244 540,-247 540,-250 540,-250 540,-256 540,-256 540,-259 537,-262 534,-262"/>
<text text-anchor="middle" x="489.5" y="-250.8" font-family="Helvetica,sans-Serif" font-size="9.00" fill="#000000">CertificateRequest.js</text>
</a>
</g>
</g>
<!-- lib/Order.js&#45;&gt;lib/acme&#45;requests/CertificateRequest.js -->
<g id="edge19" class="edge">
<title>lib/Order.js&#45;&gt;lib/acme&#45;requests/CertificateRequest.js</title>
<path fill="none" stroke="#000000" stroke-width="2" stroke-opacity="0.200000" d="M244.7588,-136.1896C253.7835,-141.8149 264.5587,-149.712 272,-159 281.0858,-170.3406 274.8873,-178.5647 285,-189 323.6519,-228.8849 386.7737,-244.0159 432.6783,-249.7002"/>
<polygon fill="#000000" fill-opacity="0.200000" stroke="#000000" stroke-width="2" stroke-opacity="0.200000" points="432.5502,-251.7995 438.7534,-250.4101 433.0378,-247.6278 432.5502,-251.7995"/>
</g>
<!-- lib/acme&#45;requests/CheckOrderStatusRequest.js -->
<g id="node21" class="node">
<title>lib/acme&#45;requests/CheckOrderStatusRequest.js</title>
<g id="a_node21"><a xlink:href="lib/acme-requests/CheckOrderStatusRequest.js" xlink:title="CheckOrderStatusRequest.js">
<path fill="#ffffcc" stroke="#000000" d="M551,-202C551,-202 428,-202 428,-202 425,-202 422,-199 422,-196 422,-196 422,-190 422,-190 422,-187 425,-184 428,-184 428,-184 551,-184 551,-184 554,-184 557,-187 557,-190 557,-190 557,-196 557,-196 557,-199 554,-202 551,-202"/>
<text text-anchor="middle" x="489.5" y="-190.8" font-family="Helvetica,sans-Serif" font-size="9.00" fill="#000000">CheckOrderStatusRequest.js</text>
</a>
</g>
</g>
<!-- lib/Order.js&#45;&gt;lib/acme&#45;requests/CheckOrderStatusRequest.js -->
<g id="edge20" class="edge">
<title>lib/Order.js&#45;&gt;lib/acme&#45;requests/CheckOrderStatusRequest.js</title>
<path fill="none" stroke="#000000" stroke-width="2" stroke-opacity="0.200000" d="M252.4851,-136.0976C283.7549,-147.4033 339.7254,-166.5944 389,-178 397.6706,-180.007 406.8268,-181.8055 415.9404,-183.3997"/>
<polygon fill="#000000" fill-opacity="0.200000" stroke="#000000" stroke-width="2" stroke-opacity="0.200000" points="415.6502,-185.4805 421.9177,-184.418 416.3556,-181.3401 415.6502,-185.4805"/>
</g>
<!-- lib/acme&#45;requests/FinaliseOrderRequest.js -->
<g id="node22" class="node">
<title>lib/acme&#45;requests/FinaliseOrderRequest.js</title>
<g id="a_node22"><a xlink:href="lib/acme-requests/FinaliseOrderRequest.js" xlink:title="FinaliseOrderRequest.js">
<path fill="#ffffcc" stroke="#000000" d="M541.5,-172C541.5,-172 437.5,-172 437.5,-172 434.5,-172 431.5,-169 431.5,-166 431.5,-166 431.5,-160 431.5,-160 431.5,-157 434.5,-154 437.5,-154 437.5,-154 541.5,-154 541.5,-154 544.5,-154 547.5,-157 547.5,-160 547.5,-160 547.5,-166 547.5,-166 547.5,-169 544.5,-172 541.5,-172"/>
<text text-anchor="middle" x="489.5" y="-160.8" font-family="Helvetica,sans-Serif" font-size="9.00" fill="#000000">FinaliseOrderRequest.js</text>
</a>
</g>
</g>
<!-- lib/Order.js&#45;&gt;lib/acme&#45;requests/FinaliseOrderRequest.js -->
<g id="edge21" class="edge">
<title>lib/Order.js&#45;&gt;lib/acme&#45;requests/FinaliseOrderRequest.js</title>
<path fill="none" stroke="#000000" stroke-width="2" stroke-opacity="0.200000" d="M255.0002,-130.717C294.8316,-136.2005 370.515,-146.6197 425.1464,-154.1406"/>
<polygon fill="#000000" fill-opacity="0.200000" stroke="#000000" stroke-width="2" stroke-opacity="0.200000" points="425.1354,-156.2588 431.3657,-154.9968 425.7082,-152.0981 425.1354,-156.2588"/>
</g>
<!-- lib/acme&#45;requests/NewOrderRequest.js -->
<g id="node23" class="node">
<title>lib/acme&#45;requests/NewOrderRequest.js</title>
<g id="a_node23"><a xlink:href="lib/acme-requests/NewOrderRequest.js" xlink:title="NewOrderRequest.js">
<path fill="#ffffcc" stroke="#000000" d="M534.5,-232C534.5,-232 444.5,-232 444.5,-232 441.5,-232 438.5,-229 438.5,-226 438.5,-226 438.5,-220 438.5,-220 438.5,-217 441.5,-214 444.5,-214 444.5,-214 534.5,-214 534.5,-214 537.5,-214 540.5,-217 540.5,-220 540.5,-220 540.5,-226 540.5,-226 540.5,-229 537.5,-232 534.5,-232"/>
<text text-anchor="middle" x="489.5" y="-220.8" font-family="Helvetica,sans-Serif" font-size="9.00" fill="#000000">NewOrderRequest.js</text>
</a>
</g>
</g>
<!-- lib/Order.js&#45;&gt;lib/acme&#45;requests/NewOrderRequest.js -->
<g id="edge22" class="edge">
<title>lib/Order.js&#45;&gt;lib/acme&#45;requests/NewOrderRequest.js</title>
<path fill="none" stroke="#000000" stroke-width="2" stroke-opacity="0.200000" d="M239.7504,-136.1593C250.9532,-144.6155 268.5129,-157.165 285,-166 328.9381,-189.5453 340.9039,-194.8965 389,-208 402.8507,-211.7735 418.0506,-214.6637 432.3425,-216.8508"/>
<polygon fill="#000000" fill-opacity="0.200000" stroke="#000000" stroke-width="2" stroke-opacity="0.200000" points="432.1631,-218.947 438.4055,-217.7456 432.7764,-214.792 432.1631,-218.947"/>
</g>
<!-- lib/acmeCsr.js -->
<g id="node24" class="node">
<title>lib/acmeCsr.js</title>
<g id="a_node24"><a xlink:href="lib/acmeCsr.js" xlink:title="acmeCsr.js">
<path fill="#ffffcc" stroke="#000000" d="M358,-78C358,-78 308,-78 308,-78 305,-78 302,-75 302,-72 302,-72 302,-66 302,-66 302,-63 305,-60 308,-60 308,-60 358,-60 358,-60 361,-60 364,-63 364,-66 364,-66 364,-72 364,-72 364,-75 361,-78 358,-78"/>
<text text-anchor="middle" x="333" y="-66.8" font-family="Helvetica,sans-Serif" font-size="9.00" fill="#000000">acmeCsr.js</text>
</a>
</g>
</g>
<!-- lib/Order.js&#45;&gt;lib/acmeCsr.js -->
<g id="edge23" class="edge">
<title>lib/Order.js&#45;&gt;lib/acmeCsr.js</title>
<path fill="none" stroke="#000000" stroke-width="2" stroke-opacity="0.200000" d="M255.3105,-121.2798C261.2761,-119.0981 267.2257,-116.1029 272,-112 281.4981,-103.8375 275.6263,-95.305 285,-87 288.3432,-84.0379 292.2204,-81.5454 296.2938,-79.4522"/>
<polygon fill="#000000" fill-opacity="0.200000" stroke="#000000" stroke-width="2" stroke-opacity="0.200000" points="297.3758,-81.2655 301.9381,-76.8388 295.611,-77.4542 297.3758,-81.2655"/>
</g>
<!-- lib/acme&#45;requests/CertificateRequest.js&#45;&gt;lib/AcmeRequest.js -->
<g id="edge28" class="edge">
<title>lib/acme&#45;requests/CertificateRequest.js&#45;&gt;lib/AcmeRequest.js</title>
<path fill="none" stroke="#000000" stroke-width="2" stroke-opacity="0.200000" d="M540.1518,-252.6053C556.8816,-250.6583 575.0273,-246.4654 590,-238 608.7203,-227.4158 623.305,-206.7816 631.6551,-192.6967"/>
<polygon fill="#000000" fill-opacity="0.200000" stroke="#000000" stroke-width="2" stroke-opacity="0.200000" points="633.6939,-193.3614 634.846,-187.1097 630.0467,-191.2784 633.6939,-193.3614"/>
</g>
<!-- lib/acme&#45;requests/CheckOrderStatusRequest.js&#45;&gt;lib/AcmeRequest.js -->
<g id="edge29" class="edge">
<title>lib/acme&#45;requests/CheckOrderStatusRequest.js&#45;&gt;lib/AcmeRequest.js</title>
<path fill="none" stroke="#000000" stroke-width="2" stroke-opacity="0.200000" d="M557.0403,-186.246C568.7191,-185.0781 580.6416,-183.8858 591.6599,-182.784"/>
<polygon fill="#000000" fill-opacity="0.200000" stroke="#000000" stroke-width="2" stroke-opacity="0.200000" points="591.9196,-184.8686 597.6808,-182.1819 591.5016,-180.6895 591.9196,-184.8686"/>
</g>
<!-- lib/acme&#45;requests/FinaliseOrderRequest.js&#45;&gt;lib/AcmeRequest.js -->
<g id="edge30" class="edge">
<title>lib/acme&#45;requests/FinaliseOrderRequest.js&#45;&gt;lib/AcmeRequest.js</title>
<path fill="none" stroke="#000000" stroke-width="2" stroke-opacity="0.200000" d="M547.9234,-168.8423C562.3332,-170.2833 577.6023,-171.8102 591.4561,-173.1956"/>
<polygon fill="#000000" fill-opacity="0.200000" stroke="#000000" stroke-width="2" stroke-opacity="0.200000" points="591.5343,-175.3138 597.7135,-173.8214 591.9523,-171.1347 591.5343,-175.3138"/>
</g>
<!-- lib/acme&#45;requests/NewOrderRequest.js&#45;&gt;lib/AcmeRequest.js -->
<g id="edge32" class="edge">
<title>lib/acme&#45;requests/NewOrderRequest.js&#45;&gt;lib/AcmeRequest.js</title>
<path fill="none" stroke="#000000" stroke-width="2" stroke-opacity="0.200000" d="M540.563,-219.3478C556.7099,-217.1502 574.4029,-213.6318 590,-208 601.5353,-203.8348 613.3225,-196.8225 622.4996,-190.6245"/>
<polygon fill="#000000" fill-opacity="0.200000" stroke="#000000" stroke-width="2" stroke-opacity="0.200000" points="623.8491,-192.2441 627.5796,-187.0969 621.4535,-188.7942 623.8491,-192.2441"/>
</g>
</g>
</svg>
