<?xml version="1.0" encoding="UTF-8" standalone="no"?>
<!DOCTYPE svg PUBLIC "-//W3C//DTD SVG 1.1//EN"
 "http://www.w3.org/Graphics/SVG/1.1/DTD/svg11.dtd">
<!-- Generated by graphviz version 2.43.0 (0)
 -->
<!-- Title: dependency&#45;cruiser output Pages: 1 -->
<svg width="808pt" height="356pt"
 viewBox="0.00 0.00 808.00 356.00" xmlns="http://www.w3.org/2000/svg" xmlns:xlink="http://www.w3.org/1999/xlink">
<g id="graph0" class="graph" transform="scale(1 1) rotate(0) translate(4 352)">
<title>dependency&#45;cruiser output</title>
<polygon fill="white" stroke="transparent" points="-4,4 -4,-352 804,-352 804,4 -4,4"/>
<g id="clust1" class="cluster">
<title>cluster_lib</title>
<path fill="#ffffff" stroke="black" stroke-width="2" d="M74,-8C74,-8 780,-8 780,-8 786,-8 792,-14 792,-20 792,-20 792,-328 792,-328 792,-334 786,-340 780,-340 780,-340 74,-340 74,-340 68,-340 62,-334 62,-328 62,-328 62,-20 62,-20 62,-14 68,-8 74,-8"/>
<text text-anchor="middle" x="427" y="-328.8" font-family="Helvetica,sans-Serif" font-weight="bold" font-size="9.00">lib</text>
</g>
<g id="clust2" class="cluster">
<title>cluster_lib/acme&#45;requests</title>
<path fill="#ffffff" stroke="black" stroke-width="2" d="M422,-26C422,-26 608,-26 608,-26 614,-26 620,-32 620,-38 620,-38 620,-246 620,-246 620,-252 614,-258 608,-258 608,-258 422,-258 422,-258 416,-258 410,-252 410,-246 410,-246 410,-38 410,-38 410,-32 416,-26 422,-26"/>
<text text-anchor="middle" x="515" y="-246.8" font-family="Helvetica,sans-Serif" font-weight="bold" font-size="9.00">acme&#45;requests</text>
</g>
<g id="clust3" class="cluster">
<title>cluster_lib/identities</title>
<path fill="#ffffff" stroke="black" stroke-width="2" d="M292,-224C292,-224 390,-224 390,-224 396,-224 402,-230 402,-236 402,-236 402,-294 402,-294 402,-300 396,-306 390,-306 390,-306 292,-306 292,-306 286,-306 280,-300 280,-294 280,-294 280,-236 280,-236 280,-230 286,-224 292,-224"/>
<text text-anchor="middle" x="341" y="-294.8" font-family="Helvetica,sans-Serif" font-weight="bold" font-size="9.00">identities</text>
</g>
<g id="clust4" class="cluster">
<title>cluster_lib/staging</title>
<path fill="#ffffff" stroke="black" stroke-width="2" d="M82,-173C82,-173 174,-173 174,-173 180,-173 186,-179 186,-185 186,-185 186,-213 186,-213 186,-219 180,-225 174,-225 174,-225 82,-225 82,-225 76,-225 70,-219 70,-213 70,-213 70,-185 70,-185 70,-179 76,-173 82,-173"/>
<text text-anchor="middle" x="128" y="-213.8" font-family="Helvetica,sans-Serif" font-weight="bold" font-size="9.00">staging</text>
</g>
<g id="clust5" class="cluster">
<title>cluster_lib/x.509</title>
<path fill="#ffffff" stroke="black" stroke-width="2" d="M206,-201C206,-201 260,-201 260,-201 266,-201 272,-207 272,-213 272,-213 272,-241 272,-241 272,-247 266,-253 260,-253 260,-253 206,-253 206,-253 200,-253 194,-247 194,-241 194,-241 194,-213 194,-213 194,-207 200,-201 206,-201"/>
<text text-anchor="middle" x="233" y="-241.8" font-family="Helvetica,sans-Serif" font-weight="bold" font-size="9.00">x.509</text>
</g>
<!-- index.js -->
<g id="node1" class="node">
<title>index.js</title>
<g id="a_node1"><a xlink:href="index.js" xlink:title="index.js">
<path fill="#ffffcc" stroke="black" d="M48,-150C48,-150 6,-150 6,-150 3,-150 0,-147 0,-144 0,-144 0,-138 0,-138 0,-135 3,-132 6,-132 6,-132 48,-132 48,-132 51,-132 54,-135 54,-138 54,-138 54,-144 54,-144 54,-147 51,-150 48,-150"/>
<text text-anchor="middle" x="27" y="-138.8" font-family="Helvetica,sans-Serif" font-size="9.00">index.js</text>
</a>
</g>
</g>
<!-- lib/Certificate.js -->
<g id="node2" class="node">
<title>lib/Certificate.js</title>
<g id="a_node2"><a xlink:href="lib/Certificate.js" xlink:title="Certificate.js">
<path fill="#ffffcc" stroke="black" d="M158,-165C158,-165 98,-165 98,-165 95,-165 92,-162 92,-159 92,-159 92,-153 92,-153 92,-150 95,-147 98,-147 98,-147 158,-147 158,-147 161,-147 164,-150 164,-153 164,-153 164,-159 164,-159 164,-162 161,-165 158,-165"/>
<text text-anchor="middle" x="128" y="-153.8" font-family="Helvetica,sans-Serif" font-size="9.00">Certificate.js</text>
</a>
</g>
</g>
<!-- index.js&#45;&gt;lib/Certificate.js -->
<g id="edge1" class="edge">
<title>index.js&#45;&gt;lib/Certificate.js</title>
<path fill="none" stroke="#000000" stroke-width="2" stroke-opacity="0.200000" d="M54.01,-144.94C63.68,-146.41 74.92,-148.11 85.63,-149.73"/>
<polygon fill="#000000" fill-opacity="0.200000" stroke="#000000" stroke-width="2" stroke-opacity="0.200000" points="85.61,-151.85 91.86,-150.68 86.24,-147.7 85.61,-151.85"/>
</g>
<!-- lib/Configuration.js -->
<g id="node3" class="node">
<title>lib/Configuration.js</title>
<g id="a_node3"><a xlink:href="lib/Configuration.js" xlink:title="Configuration.js">
<path fill="#ffffcc" stroke="black" d="M165.5,-135C165.5,-135 90.5,-135 90.5,-135 87.5,-135 84.5,-132 84.5,-129 84.5,-129 84.5,-123 84.5,-123 84.5,-120 87.5,-117 90.5,-117 90.5,-117 165.5,-117 165.5,-117 168.5,-117 171.5,-120 171.5,-123 171.5,-123 171.5,-129 171.5,-129 171.5,-132 168.5,-135 165.5,-135"/>
<text text-anchor="middle" x="128" y="-123.8" font-family="Helvetica,sans-Serif" font-size="9.00">Configuration.js</text>
</a>
</g>
</g>
<!-- index.js&#45;&gt;lib/Configuration.js -->
<g id="edge2" class="edge">
<title>index.js&#45;&gt;lib/Configuration.js</title>
<path fill="none" stroke="#000000" stroke-width="2" stroke-opacity="0.200000" d="M54.01,-137.06C61.41,-135.94 69.71,-134.68 78,-133.42"/>
<polygon fill="#000000" fill-opacity="0.200000" stroke="#000000" stroke-width="2" stroke-opacity="0.200000" points="78.7,-135.44 84.32,-132.47 78.07,-131.29 78.7,-135.44"/>
</g>
<!-- lib/LetsEncryptServer.js -->
<g id="node4" class="node">
<title>lib/LetsEncryptServer.js</title>
<g id="a_node4"><a xlink:href="lib/LetsEncryptServer.js" xlink:title="LetsEncryptServer.js">
<path fill="#ffffcc" stroke="black" d="M176.5,-105C176.5,-105 79.5,-105 79.5,-105 76.5,-105 73.5,-102 73.5,-99 73.5,-99 73.5,-93 73.5,-93 73.5,-90 76.5,-87 79.5,-87 79.5,-87 176.5,-87 176.5,-87 179.5,-87 182.5,-90 182.5,-93 182.5,-93 182.5,-99 182.5,-99 182.5,-102 179.5,-105 176.5,-105"/>
<text text-anchor="middle" x="128" y="-93.8" font-family="Helvetica,sans-Serif" font-size="9.00">LetsEncryptServer.js</text>
</a>
</g>
</g>
<!-- index.js&#45;&gt;lib/LetsEncryptServer.js -->
<g id="edge3" class="edge">
<title>index.js&#45;&gt;lib/LetsEncryptServer.js</title>
<path fill="none" stroke="#000000" stroke-width="2" stroke-opacity="0.200000" d="M36.04,-131.77C42.42,-125.03 51.92,-116.18 62,-111 64.69,-109.62 67.51,-108.36 70.4,-107.22"/>
<polygon fill="#000000" fill-opacity="0.200000" stroke="#000000" stroke-width="2" stroke-opacity="0.200000" points="71.5,-109.05 76.42,-105.03 70.07,-105.1 71.5,-109.05"/>
</g>
<!-- lib/staging/monkeyPatchTls.js -->
<g id="node5" class="node">
<title>lib/staging/monkeyPatchTls.js</title>
<g id="a_node5"><a xlink:href="lib/staging/monkeyPatchTls.js" xlink:title="monkeyPatchTls.js">
<path fill="#ffffcc" stroke="black" d="M172,-199C172,-199 84,-199 84,-199 81,-199 78,-196 78,-193 78,-193 78,-187 78,-187 78,-184 81,-181 84,-181 84,-181 172,-181 172,-181 175,-181 178,-184 178,-187 178,-187 178,-193 178,-193 178,-196 175,-199 172,-199"/>
<text text-anchor="middle" x="128" y="-187.8" font-family="Helvetica,sans-Serif" font-size="9.00">monkeyPatchTls.js</text>
</a>
</g>
</g>
<!-- index.js&#45;&gt;lib/staging/monkeyPatchTls.js -->
<g id="edge4" class="edge">
<title>index.js&#45;&gt;lib/staging/monkeyPatchTls.js</title>
<path fill="none" stroke="#000000" stroke-width="2" stroke-opacity="0.200000" d="M34.14,-150.21C40.21,-158.56 50.27,-170.5 62,-177 65.16,-178.75 68.52,-180.27 71.99,-181.58"/>
<polygon fill="#000000" fill-opacity="0.200000" stroke="#000000" stroke-width="2" stroke-opacity="0.200000" points="71.55,-183.65 77.91,-183.6 72.91,-179.68 71.55,-183.65"/>
</g>
<!-- lib/Account.js -->
<g id="node6" class="node">
<title>lib/Account.js</title>
<g id="a_node6"><a xlink:href="lib/Account.js" xlink:title="Account.js">
<path fill="#ffffcc" stroke="black" d="M366.5,-64C366.5,-64 315.5,-64 315.5,-64 312.5,-64 309.5,-61 309.5,-58 309.5,-58 309.5,-52 309.5,-52 309.5,-49 312.5,-46 315.5,-46 315.5,-46 366.5,-46 366.5,-46 369.5,-46 372.5,-49 372.5,-52 372.5,-52 372.5,-58 372.5,-58 372.5,-61 369.5,-64 366.5,-64"/>
<text text-anchor="middle" x="341" y="-52.8" font-family="Helvetica,sans-Serif" font-size="9.00">Account.js</text>
</a>
</g>
</g>
<!-- lib/Certificate.js&#45;&gt;lib/Account.js -->
<g id="edge10" class="edge">
<title>lib/Certificate.js&#45;&gt;lib/Account.js</title>
<path fill="none" stroke="#000000" stroke-width="2" stroke-opacity="0.200000" d="M164.26,-152.76C172.27,-150.5 180.13,-146.85 186,-141 195.77,-131.26 185.08,-121.53 194,-111 221.13,-78.98 240.59,-86.43 280,-72 287.45,-69.27 295.56,-66.71 303.33,-64.45"/>
<polygon fill="#000000" fill-opacity="0.200000" stroke="#000000" stroke-width="2" stroke-opacity="0.200000" points="304,-66.44 309.19,-62.78 302.85,-62.4 304,-66.44"/>
</g>
<!-- lib/AcmeRequest.js -->
<g id="node8" class="node">
<title>lib/AcmeRequest.js</title>
<g id="a_node8"><a xlink:href="lib/AcmeRequest.js" xlink:title="AcmeRequest.js">
<path fill="#ffffcc" stroke="black" d="M710,-127C710,-127 634,-127 634,-127 631,-127 628,-124 628,-121 628,-121 628,-115 628,-115 628,-112 631,-109 634,-109 634,-109 710,-109 710,-109 713,-109 716,-112 716,-115 716,-115 716,-121 716,-121 716,-124 713,-127 710,-127"/>
<text text-anchor="middle" x="672" y="-115.8" font-family="Helvetica,sans-Serif" font-size="9.00">AcmeRequest.js</text>
</a>
</g>
</g>
<!-- lib/Certificate.js&#45;&gt;lib/AcmeRequest.js -->
<g id="edge11" class="edge">
<title>lib/Certificate.js&#45;&gt;lib/AcmeRequest.js</title>
<path fill="none" stroke="#000000" stroke-width="2" stroke-opacity="0.200000" d="M164.29,-153.5C172.49,-151.25 180.44,-147.42 186,-141 206.23,-117.68 174.95,-96.29 194,-72 254.74,5.46 311.77,-29.4 410,-23 503.14,-16.94 539.9,24.91 620,-23 649.1,-40.4 662.55,-80.73 667.93,-102.84"/>
<polygon fill="#000000" fill-opacity="0.200000" stroke="#000000" stroke-width="2" stroke-opacity="0.200000" points="665.91,-103.43 669.3,-108.81 670.01,-102.5 665.91,-103.43"/>
</g>
<!-- lib/Directory.js -->
<g id="node14" class="node">
<title>lib/Directory.js</title>
<g id="a_node14"><a xlink:href="lib/Directory.js" xlink:title="Directory.js">
<path fill="#ffffcc" stroke="black" d="M260,-135C260,-135 206,-135 206,-135 203,-135 200,-132 200,-129 200,-129 200,-123 200,-123 200,-120 203,-117 206,-117 206,-117 260,-117 260,-117 263,-117 266,-120 266,-123 266,-123 266,-129 266,-129 266,-132 263,-135 260,-135"/>
<text text-anchor="middle" x="233" y="-123.8" font-family="Helvetica,sans-Serif" font-size="9.00">Directory.js</text>
</a>
</g>
</g>
<!-- lib/Certificate.js&#45;&gt;lib/Directory.js -->
<g id="edge12" class="edge">
<title>lib/Certificate.js&#45;&gt;lib/Directory.js</title>
<path fill="none" stroke="#000000" stroke-width="2" stroke-opacity="0.200000" d="M164.06,-147.12C171.33,-145.18 178.93,-143.08 186,-141 190.21,-139.76 194.62,-138.4 198.97,-137.03"/>
<polygon fill="#000000" fill-opacity="0.200000" stroke="#000000" stroke-width="2" stroke-opacity="0.200000" points="199.76,-138.98 204.84,-135.15 198.48,-134.98 199.76,-138.98"/>
</g>
<!-- lib/identities/AccountIdentity.js -->
<g id="node15" class="node">
<title>lib/identities/AccountIdentity.js</title>
<g id="a_node15"><a xlink:href="lib/identities/AccountIdentity.js" xlink:title="AccountIdentity.js">
<path fill="#ffffcc" stroke="black" d="M383.5,-280C383.5,-280 298.5,-280 298.5,-280 295.5,-280 292.5,-277 292.5,-274 292.5,-274 292.5,-268 292.5,-268 292.5,-265 295.5,-262 298.5,-262 298.5,-262 383.5,-262 383.5,-262 386.5,-262 389.5,-265 389.5,-268 389.5,-268 389.5,-274 389.5,-274 389.5,-277 386.5,-280 383.5,-280"/>
<text text-anchor="middle" x="341" y="-268.8" font-family="Helvetica,sans-Serif" font-size="9.00">AccountIdentity.js</text>
</a>
</g>
</g>
<!-- lib/Certificate.js&#45;&gt;lib/identities/AccountIdentity.js -->
<g id="edge13" class="edge">
<title>lib/Certificate.js&#45;&gt;lib/identities/AccountIdentity.js</title>
<path fill="none" stroke="#000000" stroke-width="2" stroke-opacity="0.200000" d="M164.03,-160.1C171.78,-162.19 179.58,-165.32 186,-170 191.48,-174 188.42,-179.14 194,-183 223.04,-203.07 247.71,-172.39 272,-198 289.91,-216.88 262.62,-236.63 280,-256 282.04,-258.28 284.38,-260.23 286.91,-261.91"/>
<polygon fill="#000000" fill-opacity="0.200000" stroke="#000000" stroke-width="2" stroke-opacity="0.200000" points="286.1,-263.87 292.35,-264.98 288.16,-260.21 286.1,-263.87"/>
</g>
<!-- lib/identities/CertificateIdentity.js -->
<g id="node16" class="node">
<title>lib/identities/CertificateIdentity.js</title>
<g id="a_node16"><a xlink:href="lib/identities/CertificateIdentity.js" xlink:title="CertificateIdentity.js">
<path fill="#ffffcc" stroke="black" d="M388,-250C388,-250 294,-250 294,-250 291,-250 288,-247 288,-244 288,-244 288,-238 288,-238 288,-235 291,-232 294,-232 294,-232 388,-232 388,-232 391,-232 394,-235 394,-238 394,-238 394,-244 394,-244 394,-247 391,-250 388,-250"/>
<text text-anchor="middle" x="341" y="-238.8" font-family="Helvetica,sans-Serif" font-size="9.00">CertificateIdentity.js</text>
</a>
</g>
</g>
<!-- lib/Certificate.js&#45;&gt;lib/identities/CertificateIdentity.js -->
<g id="edge14" class="edge">
<title>lib/Certificate.js&#45;&gt;lib/identities/CertificateIdentity.js</title>
<path fill="none" stroke="#000000" stroke-width="2" stroke-opacity="0.200000" d="M164.07,-164.17C173.76,-166.41 184.28,-168.82 194,-171 228.62,-178.77 247.13,-162.7 272,-188 284.71,-200.93 267.28,-215.08 280,-228 280.87,-228.88 281.78,-229.71 282.74,-230.49"/>
<polygon fill="#000000" fill-opacity="0.200000" stroke="#000000" stroke-width="2" stroke-opacity="0.200000" points="281.67,-232.31 287.8,-233.98 284.05,-228.85 281.67,-232.31"/>
</g>
<!-- lib/Order.js -->
<g id="node17" class="node">
<title>lib/Order.js</title>
<g id="a_node17"><a xlink:href="lib/Order.js" xlink:title="Order.js">
<path fill="#ffffcc" stroke="black" d="M254,-165C254,-165 212,-165 212,-165 209,-165 206,-162 206,-159 206,-159 206,-153 206,-153 206,-150 209,-147 212,-147 212,-147 254,-147 254,-147 257,-147 260,-150 260,-153 260,-153 260,-159 260,-159 260,-162 257,-165 254,-165"/>
<text text-anchor="middle" x="233" y="-153.8" font-family="Helvetica,sans-Serif" font-size="9.00">Order.js</text>
</a>
</g>
</g>
<!-- lib/Certificate.js&#45;&gt;lib/Order.js -->
<g id="edge15" class="edge">
<title>lib/Certificate.js&#45;&gt;lib/Order.js</title>
<path fill="none" stroke="#000000" stroke-width="2" stroke-opacity="0.200000" d="M164.16,-156C175.66,-156 188.39,-156 199.67,-156"/>
<polygon fill="#000000" fill-opacity="0.200000" stroke="#000000" stroke-width="2" stroke-opacity="0.200000" points="199.78,-158.1 205.78,-156 199.78,-153.9 199.78,-158.1"/>
</g>
<!-- lib/x.509/rfc5280.js -->
<g id="node18" class="node">
<title>lib/x.509/rfc5280.js</title>
<g id="a_node18"><a xlink:href="lib/x.509/rfc5280.js" xlink:title="rfc5280.js">
<path fill="#ffffcc" stroke="black" d="M258,-227C258,-227 208,-227 208,-227 205,-227 202,-224 202,-221 202,-221 202,-215 202,-215 202,-212 205,-209 208,-209 208,-209 258,-209 258,-209 261,-209 264,-212 264,-215 264,-215 264,-221 264,-221 264,-224 261,-227 258,-227"/>
<text text-anchor="middle" x="233" y="-215.8" font-family="Helvetica,sans-Serif" font-size="9.00">rfc5280.js</text>
</a>
</g>
</g>
<!-- lib/Certificate.js&#45;&gt;lib/x.509/rfc5280.js -->
<g id="edge16" class="edge">
<title>lib/Certificate.js&#45;&gt;lib/x.509/rfc5280.js</title>
<path fill="none" stroke="#000000" stroke-width="2" stroke-opacity="0.200000" d="M164.08,-158.36C172.19,-160.47 180.14,-164.04 186,-170 197.19,-181.37 183.32,-193.14 194,-205 194.84,-205.93 195.75,-206.8 196.71,-207.6"/>
<polygon fill="#000000" fill-opacity="0.200000" stroke="#000000" stroke-width="2" stroke-opacity="0.200000" points="195.79,-209.51 201.94,-211.13 198.14,-206.03 195.79,-209.51"/>
</g>
<!-- lib/acme&#45;requests/NewAccountRequest.js -->
<g id="node7" class="node">
<title>lib/acme&#45;requests/NewAccountRequest.js</title>
<g id="a_node7"><a xlink:href="lib/acme-requests/NewAccountRequest.js" xlink:title="NewAccountRequest.js">
<path fill="#ffffcc" stroke="black" d="M568.5,-52C568.5,-52 461.5,-52 461.5,-52 458.5,-52 455.5,-49 455.5,-46 455.5,-46 455.5,-40 455.5,-40 455.5,-37 458.5,-34 461.5,-34 461.5,-34 568.5,-34 568.5,-34 571.5,-34 574.5,-37 574.5,-40 574.5,-40 574.5,-46 574.5,-46 574.5,-49 571.5,-52 568.5,-52"/>
<text text-anchor="middle" x="515" y="-40.8" font-family="Helvetica,sans-Serif" font-size="9.00">NewAccountRequest.js</text>
</a>
</g>
</g>
<!-- lib/Account.js&#45;&gt;lib/acme&#45;requests/NewAccountRequest.js -->
<g id="edge5" class="edge">
<title>lib/Account.js&#45;&gt;lib/acme&#45;requests/NewAccountRequest.js</title>
<path fill="none" stroke="#000000" stroke-width="2" stroke-opacity="0.200000" d="M372.75,-52.85C393.95,-51.38 422.92,-49.35 449.11,-47.53"/>
<polygon fill="#000000" fill-opacity="0.200000" stroke="#000000" stroke-width="2" stroke-opacity="0.200000" points="449.51,-49.6 455.35,-47.09 449.21,-45.41 449.51,-49.6"/>
</g>
<!-- lib/acme&#45;requests/NewAccountRequest.js&#45;&gt;lib/AcmeRequest.js -->
<g id="edge29" class="edge">
<title>lib/acme&#45;requests/NewAccountRequest.js&#45;&gt;lib/AcmeRequest.js</title>
<path fill="none" stroke="#000000" stroke-width="2" stroke-opacity="0.200000" d="M574.51,-44.02C590.03,-46.23 606.27,-50.41 620,-58 639.23,-68.62 654.41,-89.55 663.05,-103.66"/>
<polygon fill="#000000" fill-opacity="0.200000" stroke="#000000" stroke-width="2" stroke-opacity="0.200000" points="661.27,-104.78 666.14,-108.87 664.89,-102.64 661.27,-104.78"/>
</g>
<!-- lib/Nonce.js -->
<g id="node9" class="node">
<title>lib/Nonce.js</title>
<g id="a_node9"><a xlink:href="lib/Nonce.js" xlink:title="Nonce.js">
<path fill="#ffffcc" stroke="black" d="M778,-127C778,-127 735,-127 735,-127 732,-127 729,-124 729,-121 729,-121 729,-115 729,-115 729,-112 732,-109 735,-109 735,-109 778,-109 778,-109 781,-109 784,-112 784,-115 784,-115 784,-121 784,-121 784,-124 781,-127 778,-127"/>
<text text-anchor="middle" x="756.5" y="-115.8" font-family="Helvetica,sans-Serif" font-size="9.00">Nonce.js</text>
</a>
</g>
</g>
<!-- lib/AcmeRequest.js&#45;&gt;lib/Nonce.js -->
<g id="edge6" class="edge">
<title>lib/AcmeRequest.js&#45;&gt;lib/Nonce.js</title>
<path fill="none" stroke="#000000" stroke-width="2" stroke-opacity="0.200000" d="M716.18,-118C718.37,-118 720.54,-118 722.69,-118"/>
<polygon fill="#000000" fill-opacity="0.200000" stroke="#000000" stroke-width="2" stroke-opacity="0.200000" points="723,-120.1 729,-118 723,-115.9 723,-120.1"/>
</g>
<!-- lib/Authorisation.js -->
<g id="node10" class="node">
<title>lib/Authorisation.js</title>
<g id="a_node10"><a xlink:href="lib/Authorisation.js" xlink:title="Authorisation.js">
<path fill="#ffffcc" stroke="black" d="M378,-202C378,-202 304,-202 304,-202 301,-202 298,-199 298,-196 298,-196 298,-190 298,-190 298,-187 301,-184 304,-184 304,-184 378,-184 378,-184 381,-184 384,-187 384,-190 384,-190 384,-196 384,-196 384,-199 381,-202 378,-202"/>
<text text-anchor="middle" x="341" y="-190.8" font-family="Helvetica,sans-Serif" font-size="9.00">Authorisation.js</text>
</a>
</g>
</g>
<!-- lib/acme&#45;requests/AuthorisationRequest.js -->
<g id="node11" class="node">
<title>lib/acme&#45;requests/AuthorisationRequest.js</title>
<g id="a_node11"><a xlink:href="lib/acme-requests/AuthorisationRequest.js" xlink:title="AuthorisationRequest.js">
<path fill="#ffffcc" stroke="black" d="M570.5,-202C570.5,-202 459.5,-202 459.5,-202 456.5,-202 453.5,-199 453.5,-196 453.5,-196 453.5,-190 453.5,-190 453.5,-187 456.5,-184 459.5,-184 459.5,-184 570.5,-184 570.5,-184 573.5,-184 576.5,-187 576.5,-190 576.5,-190 576.5,-196 576.5,-196 576.5,-199 573.5,-202 570.5,-202"/>
<text text-anchor="middle" x="515" y="-190.8" font-family="Helvetica,sans-Serif" font-size="9.00">AuthorisationRequest.js</text>
</a>
</g>
</g>
<!-- lib/Authorisation.js&#45;&gt;lib/acme&#45;requests/AuthorisationRequest.js -->
<g id="edge7" class="edge">
<title>lib/Authorisation.js&#45;&gt;lib/acme&#45;requests/AuthorisationRequest.js</title>
<path fill="none" stroke="#000000" stroke-width="2" stroke-opacity="0.200000" d="M384.08,-193C402.99,-193 425.79,-193 446.97,-193"/>
<polygon fill="#000000" fill-opacity="0.200000" stroke="#000000" stroke-width="2" stroke-opacity="0.200000" points="447.19,-195.1 453.19,-193 447.19,-190.9 447.19,-195.1"/>
</g>
<!-- lib/acme&#45;requests/ReadyForChallengeValidationRequest.js -->
<g id="node12" class="node">
<title>lib/acme&#45;requests/ReadyForChallengeValidationRequest.js</title>
<g id="a_node12"><a xlink:href="lib/acme-requests/ReadyForChallengeValidationRequest.js" xlink:title="ReadyForChallengeValidationRequest.js">
<path fill="#ffffcc" stroke="black" d="M606,-232C606,-232 424,-232 424,-232 421,-232 418,-229 418,-226 418,-226 418,-220 418,-220 418,-217 421,-214 424,-214 424,-214 606,-214 606,-214 609,-214 612,-217 612,-220 612,-220 612,-226 612,-226 612,-229 609,-232 606,-232"/>
<text text-anchor="middle" x="515" y="-220.8" font-family="Helvetica,sans-Serif" font-size="9.00">ReadyForChallengeValidationRequest.js</text>
</a>
</g>
</g>
<!-- lib/Authorisation.js&#45;&gt;lib/acme&#45;requests/ReadyForChallengeValidationRequest.js -->
<g id="edge8" class="edge">
<title>lib/Authorisation.js&#45;&gt;lib/acme&#45;requests/ReadyForChallengeValidationRequest.js</title>
<path fill="none" stroke="#000000" stroke-width="2" stroke-opacity="0.200000" d="M380.74,-202.06C390.28,-204.15 400.49,-206.27 410,-208 419.75,-209.78 430.05,-211.47 440.22,-213.05"/>
<polygon fill="#000000" fill-opacity="0.200000" stroke="#000000" stroke-width="2" stroke-opacity="0.200000" points="439.94,-215.13 446.19,-213.96 440.58,-210.98 439.94,-215.13"/>
</g>
<!-- lib/ChallengeServer.js -->
<g id="node13" class="node">
<title>lib/ChallengeServer.js</title>
<g id="a_node13"><a xlink:href="lib/ChallengeServer.js" xlink:title="ChallengeServer.js">
<path fill="#ffffcc" stroke="black" d="M558,-284C558,-284 472,-284 472,-284 469,-284 466,-281 466,-278 466,-278 466,-272 466,-272 466,-269 469,-266 472,-266 472,-266 558,-266 558,-266 561,-266 564,-269 564,-272 564,-272 564,-278 564,-278 564,-281 561,-284 558,-284"/>
<text text-anchor="middle" x="515" y="-272.8" font-family="Helvetica,sans-Serif" font-size="9.00">ChallengeServer.js</text>
</a>
</g>
</g>
<!-- lib/Authorisation.js&#45;&gt;lib/ChallengeServer.js -->
<g id="edge9" class="edge">
<title>lib/Authorisation.js&#45;&gt;lib/ChallengeServer.js</title>
<path fill="none" stroke="#000000" stroke-width="2" stroke-opacity="0.200000" d="M384.28,-199.1C390.99,-201.79 397.27,-205.6 402,-211 416.82,-227.93 393.89,-245.29 410,-261 423.06,-273.74 441.83,-278.66 459.83,-279.92"/>
<polygon fill="#000000" fill-opacity="0.200000" stroke="#000000" stroke-width="2" stroke-opacity="0.200000" points="459.81,-282.02 465.9,-280.21 460.01,-277.82 459.81,-282.02"/>
</g>
<!-- lib/acme&#45;requests/AuthorisationRequest.js&#45;&gt;lib/AcmeRequest.js -->
<g id="edge25" class="edge">
<title>lib/acme&#45;requests/AuthorisationRequest.js&#45;&gt;lib/AcmeRequest.js</title>
<path fill="none" stroke="#000000" stroke-width="2" stroke-opacity="0.200000" d="M576.68,-191.66C591.53,-189.37 606.91,-185.23 620,-178 639.23,-167.38 654.41,-146.45 663.05,-132.34"/>
<polygon fill="#000000" fill-opacity="0.200000" stroke="#000000" stroke-width="2" stroke-opacity="0.200000" points="664.89,-133.36 666.14,-127.13 661.27,-131.22 664.89,-133.36"/>
</g>
<!-- lib/acme&#45;requests/ReadyForChallengeValidationRequest.js&#45;&gt;lib/AcmeRequest.js -->
<g id="edge31" class="edge">
<title>lib/acme&#45;requests/ReadyForChallengeValidationRequest.js&#45;&gt;lib/AcmeRequest.js</title>
<path fill="none" stroke="#000000" stroke-width="2" stroke-opacity="0.200000" d="M609.52,-213.99C613.17,-212.25 616.69,-210.26 620,-208 646.34,-190.01 660.68,-153.65 666.99,-133.08"/>
<polygon fill="#000000" fill-opacity="0.200000" stroke="#000000" stroke-width="2" stroke-opacity="0.200000" points="669.03,-133.59 668.7,-127.24 665,-132.41 669.03,-133.59"/>
</g>
<!-- lib/Identity.js -->
<g id="node19" class="node">
<title>lib/Identity.js</title>
<g id="a_node19"><a xlink:href="lib/Identity.js" xlink:title="Identity.js">
<path fill="#ffffcc" stroke="black" d="M539,-314C539,-314 491,-314 491,-314 488,-314 485,-311 485,-308 485,-308 485,-302 485,-302 485,-299 488,-296 491,-296 491,-296 539,-296 539,-296 542,-296 545,-299 545,-302 545,-302 545,-308 545,-308 545,-311 542,-314 539,-314"/>
<text text-anchor="middle" x="515" y="-302.8" font-family="Helvetica,sans-Serif" font-size="9.00">Identity.js</text>
</a>
</g>
</g>
<!-- lib/identities/AccountIdentity.js&#45;&gt;lib/Identity.js -->
<g id="edge32" class="edge">
<title>lib/identities/AccountIdentity.js&#45;&gt;lib/Identity.js</title>
<path fill="none" stroke="#000000" stroke-width="2" stroke-opacity="0.200000" d="M371.25,-280.07C383.18,-283.53 397.17,-287.29 410,-290 432.65,-294.78 458.39,-298.5 478.6,-301.05"/>
<polygon fill="#000000" fill-opacity="0.200000" stroke="#000000" stroke-width="2" stroke-opacity="0.200000" points="478.47,-303.15 484.68,-301.8 478.99,-298.98 478.47,-303.15"/>
</g>
<!-- lib/identities/CertificateIdentity.js&#45;&gt;lib/Identity.js -->
<g id="edge33" class="edge">
<title>lib/identities/CertificateIdentity.js&#45;&gt;lib/Identity.js</title>
<path fill="none" stroke="#000000" stroke-width="2" stroke-opacity="0.200000" d="M394.16,-249.9C397.01,-251.61 399.66,-253.63 402,-256 412.9,-267.05 398.55,-279.52 410,-290 428.2,-306.67 456.21,-309.91 478.57,-309.26"/>
<polygon fill="#000000" fill-opacity="0.200000" stroke="#000000" stroke-width="2" stroke-opacity="0.200000" points="478.82,-311.35 484.72,-308.98 478.63,-307.15 478.82,-311.35"/>
</g>
<!-- lib/Order.js&#45;&gt;lib/Authorisation.js -->
<g id="edge22" class="edge">
<title>lib/Order.js&#45;&gt;lib/Authorisation.js</title>
<path fill="none" stroke="#000000" stroke-width="2" stroke-opacity="0.200000" d="M259.93,-165.05C274.43,-170.11 292.63,-176.46 308.01,-181.83"/>
<polygon fill="#000000" fill-opacity="0.200000" stroke="#000000" stroke-width="2" stroke-opacity="0.200000" points="307.61,-183.92 313.97,-183.91 309,-179.95 307.61,-183.92"/>
</g>
<!-- lib/Order.js&#45;&gt;lib/ChallengeServer.js -->
<g id="edge23" class="edge">
<title>lib/Order.js&#45;&gt;lib/ChallengeServer.js</title>
<path fill="none" stroke="#000000" stroke-width="2" stroke-opacity="0.200000" d="M260.31,-160.98C264.72,-162.86 268.87,-165.44 272,-169 283.69,-182.28 266.9,-196.1 280,-208 320.37,-244.66 361.72,-184.24 402,-221 415.39,-233.22 396.78,-248.59 410,-261 423.25,-273.43 441.96,-278.3 459.86,-279.62"/>
<polygon fill="#000000" fill-opacity="0.200000" stroke="#000000" stroke-width="2" stroke-opacity="0.200000" points="459.79,-281.72 465.89,-279.93 460.01,-277.52 459.79,-281.72"/>
</g>
<!-- lib/Order.js&#45;&gt;lib/identities/CertificateIdentity.js -->
<g id="edge24" class="edge">
<title>lib/Order.js&#45;&gt;lib/identities/CertificateIdentity.js</title>
<path fill="none" stroke="#000000" stroke-width="2" stroke-opacity="0.200000" d="M260.21,-164.2C264.74,-166.69 268.96,-169.89 272,-174 286.45,-193.49 263.42,-210.29 280,-228 280.87,-228.93 281.8,-229.81 282.76,-230.63"/>
<polygon fill="#000000" fill-opacity="0.200000" stroke="#000000" stroke-width="2" stroke-opacity="0.200000" points="281.82,-232.53 287.93,-234.28 284.24,-229.1 281.82,-232.53"/>
</g>
<!-- lib/acme&#45;requests/CertificateRequest.js -->
<g id="node20" class="node">
<title>lib/acme&#45;requests/CertificateRequest.js</title>
<g id="a_node20"><a xlink:href="lib/acme-requests/CertificateRequest.js" xlink:title="CertificateRequest.js">
<path fill="#ffffcc" stroke="black" d="M563.5,-142C563.5,-142 466.5,-142 466.5,-142 463.5,-142 460.5,-139 460.5,-136 460.5,-136 460.5,-130 460.5,-130 460.5,-127 463.5,-124 466.5,-124 466.5,-124 563.5,-124 563.5,-124 566.5,-124 569.5,-127 569.5,-130 569.5,-130 569.5,-136 569.5,-136 569.5,-139 566.5,-142 563.5,-142"/>
<text text-anchor="middle" x="515" y="-130.8" font-family="Helvetica,sans-Serif" font-size="9.00">CertificateRequest.js</text>
</a>
</g>
</g>
<!-- lib/Order.js&#45;&gt;lib/acme&#45;requests/CertificateRequest.js -->
<g id="edge17" class="edge">
<title>lib/Order.js&#45;&gt;lib/acme&#45;requests/CertificateRequest.js</title>
<path fill="none" stroke="#000000" stroke-width="2" stroke-opacity="0.200000" d="M260.09,-153.86C304.06,-150.25 394,-142.86 454.16,-137.92"/>
<polygon fill="#000000" fill-opacity="0.200000" stroke="#000000" stroke-width="2" stroke-opacity="0.200000" points="454.44,-140 460.25,-137.42 454.1,-135.81 454.44,-140"/>
</g>
<!-- lib/acme&#45;requests/CheckOrderStatusRequest.js -->
<g id="node21" class="node">
<title>lib/acme&#45;requests/CheckOrderStatusRequest.js</title>
<g id="a_node21"><a xlink:href="lib/acme-requests/CheckOrderStatusRequest.js" xlink:title="CheckOrderStatusRequest.js">
<path fill="#ffffcc" stroke="black" d="M582,-172C582,-172 448,-172 448,-172 445,-172 442,-169 442,-166 442,-166 442,-160 442,-160 442,-157 445,-154 448,-154 448,-154 582,-154 582,-154 585,-154 588,-157 588,-160 588,-160 588,-166 588,-166 588,-169 585,-172 582,-172"/>
<text text-anchor="middle" x="515" y="-160.8" font-family="Helvetica,sans-Serif" font-size="9.00">CheckOrderStatusRequest.js</text>
</a>
</g>
</g>
<!-- lib/Order.js&#45;&gt;lib/acme&#45;requests/CheckOrderStatusRequest.js -->
<g id="edge18" class="edge">
<title>lib/Order.js&#45;&gt;lib/acme&#45;requests/CheckOrderStatusRequest.js</title>
<path fill="none" stroke="#000000" stroke-width="2" stroke-opacity="0.200000" d="M260.09,-156.65C299.79,-157.64 376.98,-159.57 435.88,-161.05"/>
<polygon fill="#000000" fill-opacity="0.200000" stroke="#000000" stroke-width="2" stroke-opacity="0.200000" points="435.83,-163.15 441.88,-161.2 435.94,-158.95 435.83,-163.15"/>
</g>
<!-- lib/acme&#45;requests/FinaliseOrderRequest.js -->
<g id="node22" class="node">
<title>lib/acme&#45;requests/FinaliseOrderRequest.js</title>
<g id="a_node22"><a xlink:href="lib/acme-requests/FinaliseOrderRequest.js" xlink:title="FinaliseOrderRequest.js">
<path fill="#ffffcc" stroke="black" d="M569.5,-82C569.5,-82 460.5,-82 460.5,-82 457.5,-82 454.5,-79 454.5,-76 454.5,-76 454.5,-70 454.5,-70 454.5,-67 457.5,-64 460.5,-64 460.5,-64 569.5,-64 569.5,-64 572.5,-64 575.5,-67 575.5,-70 575.5,-70 575.5,-76 575.5,-76 575.5,-79 572.5,-82 569.5,-82"/>
<text text-anchor="middle" x="515" y="-70.8" font-family="Helvetica,sans-Serif" font-size="9.00">FinaliseOrderRequest.js</text>
</a>
</g>
</g>
<!-- lib/Order.js&#45;&gt;lib/acme&#45;requests/FinaliseOrderRequest.js -->
<g id="edge19" class="edge">
<title>lib/Order.js&#45;&gt;lib/acme&#45;requests/FinaliseOrderRequest.js</title>
<path fill="none" stroke="#000000" stroke-width="2" stroke-opacity="0.200000" d="M260.11,-149.88C264.64,-147.75 268.89,-144.87 272,-141 286.09,-123.45 263.45,-106.25 280,-91 292.17,-79.78 383.19,-75.55 448.04,-73.96"/>
<polygon fill="#000000" fill-opacity="0.200000" stroke="#000000" stroke-width="2" stroke-opacity="0.200000" points="448.28,-76.06 454.23,-73.81 448.18,-71.86 448.28,-76.06"/>
</g>
<!-- lib/acme&#45;requests/NewOrderRequest.js -->
<g id="node23" class="node">
<title>lib/acme&#45;requests/NewOrderRequest.js</title>
<g id="a_node23"><a xlink:href="lib/acme-requests/NewOrderRequest.js" xlink:title="NewOrderRequest.js">
<path fill="#ffffcc" stroke="black" d="M563,-112C563,-112 467,-112 467,-112 464,-112 461,-109 461,-106 461,-106 461,-100 461,-100 461,-97 464,-94 467,-94 467,-94 563,-94 563,-94 566,-94 569,-97 569,-100 569,-100 569,-106 569,-106 569,-109 566,-112 563,-112"/>
<text text-anchor="middle" x="515" y="-100.8" font-family="Helvetica,sans-Serif" font-size="9.00">NewOrderRequest.js</text>
</a>
</g>
</g>
<!-- lib/Order.js&#45;&gt;lib/acme&#45;requests/NewOrderRequest.js -->
<g id="edge20" class="edge">
<title>lib/Order.js&#45;&gt;lib/acme&#45;requests/NewOrderRequest.js</title>
<path fill="none" stroke="#000000" stroke-width="2" stroke-opacity="0.200000" d="M260.17,-149.42C264.58,-147.33 268.78,-144.59 272,-141 280.94,-131.05 269.52,-120.3 280,-112 306.07,-91.34 394.41,-93.42 454.77,-97.6"/>
<polygon fill="#000000" fill-opacity="0.200000" stroke="#000000" stroke-width="2" stroke-opacity="0.200000" points="454.75,-99.71 460.89,-98.04 455.05,-95.52 454.75,-99.71"/>
</g>
<!-- lib/acmeCsr.js -->
<g id="node24" class="node">
<title>lib/acmeCsr.js</title>
<g id="a_node24"><a xlink:href="lib/acmeCsr.js" xlink:title="acmeCsr.js">
<path fill="#ffffcc" stroke="black" d="M367,-136C367,-136 315,-136 315,-136 312,-136 309,-133 309,-130 309,-130 309,-124 309,-124 309,-121 312,-118 315,-118 315,-118 367,-118 367,-118 370,-118 373,-121 373,-124 373,-124 373,-130 373,-130 373,-133 370,-136 367,-136"/>
<text text-anchor="middle" x="341" y="-124.8" font-family="Helvetica,sans-Serif" font-size="9.00">acmeCsr.js</text>
</a>
</g>
</g>
<!-- lib/Order.js&#45;&gt;lib/acmeCsr.js -->
<g id="edge21" class="edge">
<title>lib/Order.js&#45;&gt;lib/acmeCsr.js</title>
<path fill="none" stroke="#000000" stroke-width="2" stroke-opacity="0.200000" d="M260.2,-148.83C273.08,-145.31 288.81,-141 302.9,-137.15"/>
<polygon fill="#000000" fill-opacity="0.200000" stroke="#000000" stroke-width="2" stroke-opacity="0.200000" points="303.59,-139.14 308.82,-135.53 302.48,-135.09 303.59,-139.14"/>
</g>
<!-- lib/acme&#45;requests/CertificateRequest.js&#45;&gt;lib/AcmeRequest.js -->
<g id="edge26" class="edge">
<title>lib/acme&#45;requests/CertificateRequest.js&#45;&gt;lib/AcmeRequest.js</title>
<path fill="none" stroke="#000000" stroke-width="2" stroke-opacity="0.200000" d="M569.78,-127.8C586.6,-126.17 605.07,-124.38 621.57,-122.78"/>
<polygon fill="#000000" fill-opacity="0.200000" stroke="#000000" stroke-width="2" stroke-opacity="0.200000" points="621.79,-124.87 627.56,-122.2 621.39,-120.69 621.79,-124.87"/>
</g>
<!-- lib/acme&#45;requests/CheckOrderStatusRequest.js&#45;&gt;lib/AcmeRequest.js -->
<g id="edge27" class="edge">
<title>lib/acme&#45;requests/CheckOrderStatusRequest.js&#45;&gt;lib/AcmeRequest.js</title>
<path fill="none" stroke="#000000" stroke-width="2" stroke-opacity="0.200000" d="M588.21,-156.3C599.03,-154.24 609.93,-151.53 620,-148 631.94,-143.81 644.2,-136.71 653.7,-130.46"/>
<polygon fill="#000000" fill-opacity="0.200000" stroke="#000000" stroke-width="2" stroke-opacity="0.200000" points="654.88,-132.2 658.68,-127.11 652.53,-128.72 654.88,-132.2"/>
</g>
<!-- lib/acme&#45;requests/FinaliseOrderRequest.js&#45;&gt;lib/AcmeRequest.js -->
<g id="edge28" class="edge">
<title>lib/acme&#45;requests/FinaliseOrderRequest.js&#45;&gt;lib/AcmeRequest.js</title>
<path fill="none" stroke="#000000" stroke-width="2" stroke-opacity="0.200000" d="M575.53,-77.55C590.33,-79.77 605.97,-83.08 620,-88 631.94,-92.19 644.2,-99.29 653.7,-105.54"/>
<polygon fill="#000000" fill-opacity="0.200000" stroke="#000000" stroke-width="2" stroke-opacity="0.200000" points="652.53,-107.28 658.68,-108.89 654.88,-103.8 652.53,-107.28"/>
</g>
<!-- lib/acme&#45;requests/NewOrderRequest.js&#45;&gt;lib/AcmeRequest.js -->
<g id="edge30" class="edge">
<title>lib/acme&#45;requests/NewOrderRequest.js&#45;&gt;lib/AcmeRequest.js</title>
<path fill="none" stroke="#000000" stroke-width="2" stroke-opacity="0.200000" d="M569.34,-108.16C586.34,-109.81 605.07,-111.62 621.77,-113.24"/>
<polygon fill="#000000" fill-opacity="0.200000" stroke="#000000" stroke-width="2" stroke-opacity="0.200000" points="621.65,-115.33 627.82,-113.82 622.05,-111.15 621.65,-115.33"/>
</g>
</g>
</svg>
