<?xml version="1.0" encoding="UTF-8" standalone="no"?>
<!DOCTYPE svg PUBLIC "-//W3C//DTD SVG 1.1//EN"
 "http://www.w3.org/Graphics/SVG/1.1/DTD/svg11.dtd">
<!-- Generated by graphviz version 2.40.1 (20161225.0304)
 -->
<!-- Title: dependency&#45;cruiser output Pages: 1 -->
<svg width="770pt" height="453pt"
 viewBox="0.00 0.00 770.00 452.63" xmlns="http://www.w3.org/2000/svg" xmlns:xlink="http://www.w3.org/1999/xlink">
<g id="graph0" class="graph" transform="scale(1 1) rotate(0) translate(4 448.6269)">
<title>dependency&#45;cruiser output</title>
<polygon fill="#ffffff" stroke="transparent" points="-4,4 -4,-448.6269 766,-448.6269 766,4 -4,4"/>
<g id="clust1" class="cluster">
<title>cluster_fs</title>
<path fill="#ffffff" stroke="#000000" stroke-width="2" d="M300,-44.6269C300,-44.6269 346,-44.6269 346,-44.6269 352,-44.6269 358,-50.6269 358,-56.6269 358,-56.6269 358,-84.6269 358,-84.6269 358,-90.6269 352,-96.6269 346,-96.6269 346,-96.6269 300,-96.6269 300,-96.6269 294,-96.6269 288,-90.6269 288,-84.6269 288,-84.6269 288,-56.6269 288,-56.6269 288,-50.6269 294,-44.6269 300,-44.6269"/>
<text text-anchor="middle" x="323" y="-85.4269" font-family="Helvetica,sans-Serif" font-weight="bold" font-size="9.00" fill="#000000">fs</text>
</g>
<g id="clust2" class="cluster">
<title>cluster_lib</title>
<path fill="#ffffff" stroke="#000000" stroke-width="2" d="M74,-104.6269C74,-104.6269 742,-104.6269 742,-104.6269 748,-104.6269 754,-110.6269 754,-116.6269 754,-116.6269 754,-424.6269 754,-424.6269 754,-430.6269 748,-436.6269 742,-436.6269 742,-436.6269 74,-436.6269 74,-436.6269 68,-436.6269 62,-430.6269 62,-424.6269 62,-424.6269 62,-116.6269 62,-116.6269 62,-110.6269 68,-104.6269 74,-104.6269"/>
<text text-anchor="middle" x="408" y="-425.4269" font-family="Helvetica,sans-Serif" font-weight="bold" font-size="9.00" fill="#000000">lib</text>
</g>
<g id="clust3" class="cluster">
<title>cluster_lib/acme&#45;requests</title>
<path fill="#ffffff" stroke="#000000" stroke-width="2" d="M399,-122.6269C399,-122.6269 576,-122.6269 576,-122.6269 582,-122.6269 588,-128.6269 588,-134.6269 588,-134.6269 588,-342.6269 588,-342.6269 588,-348.6269 582,-354.6269 576,-354.6269 576,-354.6269 399,-354.6269 399,-354.6269 393,-354.6269 387,-348.6269 387,-342.6269 387,-342.6269 387,-134.6269 387,-134.6269 387,-128.6269 393,-122.6269 399,-122.6269"/>
<text text-anchor="middle" x="487.5" y="-343.4269" font-family="Helvetica,sans-Serif" font-weight="bold" font-size="9.00" fill="#000000">acme&#45;requests</text>
</g>
<g id="clust4" class="cluster">
<title>cluster_lib/identities</title>
<path fill="#ffffff" stroke="#000000" stroke-width="2" d="M279,-320.6269C279,-320.6269 367,-320.6269 367,-320.6269 373,-320.6269 379,-326.6269 379,-332.6269 379,-332.6269 379,-390.6269 379,-390.6269 379,-396.6269 373,-402.6269 367,-402.6269 367,-402.6269 279,-402.6269 279,-402.6269 273,-402.6269 267,-396.6269 267,-390.6269 267,-390.6269 267,-332.6269 267,-332.6269 267,-326.6269 273,-320.6269 279,-320.6269"/>
<text text-anchor="middle" x="323" y="-391.4269" font-family="Helvetica,sans-Serif" font-weight="bold" font-size="9.00" fill="#000000">identities</text>
</g>
<g id="clust5" class="cluster">
<title>cluster_lib/staging</title>
<path fill="#ffffff" stroke="#000000" stroke-width="2" d="M82,-234.6269C82,-234.6269 167,-234.6269 167,-234.6269 173,-234.6269 179,-240.6269 179,-246.6269 179,-246.6269 179,-274.6269 179,-274.6269 179,-280.6269 173,-286.6269 167,-286.6269 167,-286.6269 82,-286.6269 82,-286.6269 76,-286.6269 70,-280.6269 70,-274.6269 70,-274.6269 70,-246.6269 70,-246.6269 70,-240.6269 76,-234.6269 82,-234.6269"/>
<text text-anchor="middle" x="124.5" y="-275.4269" font-family="Helvetica,sans-Serif" font-weight="bold" font-size="9.00" fill="#000000">staging</text>
</g>
<g id="clust6" class="cluster">
<title>cluster_lib/x.509</title>
<path fill="#ffffff" stroke="#000000" stroke-width="2" d="M199,-277.6269C199,-277.6269 247,-277.6269 247,-277.6269 253,-277.6269 259,-283.6269 259,-289.6269 259,-289.6269 259,-317.6269 259,-317.6269 259,-323.6269 253,-329.6269 247,-329.6269 247,-329.6269 199,-329.6269 199,-329.6269 193,-329.6269 187,-323.6269 187,-317.6269 187,-317.6269 187,-289.6269 187,-289.6269 187,-283.6269 193,-277.6269 199,-277.6269"/>
<text text-anchor="middle" x="223" y="-318.4269" font-family="Helvetica,sans-Serif" font-weight="bold" font-size="9.00" fill="#000000">x.509</text>
</g>
<!-- fs/promises -->
<g id="node1" class="node">
<title>fs/promises</title>
<path fill="#ffffcc" stroke="#c0c0c0" d="M344,-70.6269C344,-70.6269 302,-70.6269 302,-70.6269 299,-70.6269 296,-67.6269 296,-64.6269 296,-64.6269 296,-58.6269 296,-58.6269 296,-55.6269 299,-52.6269 302,-52.6269 302,-52.6269 344,-52.6269 344,-52.6269 347,-52.6269 350,-55.6269 350,-58.6269 350,-58.6269 350,-64.6269 350,-64.6269 350,-67.6269 347,-70.6269 344,-70.6269"/>
<text text-anchor="middle" x="323" y="-59.4269" font-family="Helvetica,sans-Serif" font-size="9.00" fill="#c0c0c0">promises</text>
</g>
<!-- index.js -->
<g id="node2" class="node">
<title>index.js</title>
<g id="a_node2"><a xlink:href="index.js" xlink:title="index.js">
<path fill="#ffffcc" stroke="#000000" d="M48,-196.6269C48,-196.6269 6,-196.6269 6,-196.6269 3,-196.6269 0,-193.6269 0,-190.6269 0,-190.6269 0,-184.6269 0,-184.6269 0,-181.6269 3,-178.6269 6,-178.6269 6,-178.6269 48,-178.6269 48,-178.6269 51,-178.6269 54,-181.6269 54,-184.6269 54,-184.6269 54,-190.6269 54,-190.6269 54,-193.6269 51,-196.6269 48,-196.6269"/>
<text text-anchor="middle" x="27" y="-185.4269" font-family="Helvetica,sans-Serif" font-size="9.00" fill="#000000">index.js</text>
</a>
</g>
</g>
<!-- lib/Certificate.js -->
<g id="node3" class="node">
<title>lib/Certificate.js</title>
<g id="a_node3"><a xlink:href="lib/Certificate.js" xlink:title="Certificate.js">
<path fill="#ffffcc" stroke="#000000" d="M152,-226.6269C152,-226.6269 97,-226.6269 97,-226.6269 94,-226.6269 91,-223.6269 91,-220.6269 91,-220.6269 91,-214.6269 91,-214.6269 91,-211.6269 94,-208.6269 97,-208.6269 97,-208.6269 152,-208.6269 152,-208.6269 155,-208.6269 158,-211.6269 158,-214.6269 158,-214.6269 158,-220.6269 158,-220.6269 158,-223.6269 155,-226.6269 152,-226.6269"/>
<text text-anchor="middle" x="124.5" y="-215.4269" font-family="Helvetica,sans-Serif" font-size="9.00" fill="#000000">Certificate.js</text>
</a>
</g>
</g>
<!-- index.js&#45;&gt;lib/Certificate.js -->
<g id="edge1" class="edge">
<title>index.js&#45;&gt;lib/Certificate.js</title>
<path fill="none" stroke="#000000" stroke-width="2" stroke-opacity="0.200000" d="M46.3964,-196.6309C51.4145,-198.7683 56.8546,-200.9205 62,-202.6269 69.199,-205.0143 76.981,-207.1913 84.529,-209.1014"/>
<polygon fill="#000000" fill-opacity="0.200000" stroke="#000000" stroke-width="2" stroke-opacity="0.200000" points="84.4684,-211.249 90.7963,-210.6419 85.471,-207.1704 84.4684,-211.249"/>
</g>
<!-- lib/Configuration.js -->
<g id="node4" class="node">
<title>lib/Configuration.js</title>
<g id="a_node4"><a xlink:href="lib/Configuration.js" xlink:title="Configuration.js">
<path fill="#ffffcc" stroke="#000000" d="M159,-196.6269C159,-196.6269 90,-196.6269 90,-196.6269 87,-196.6269 84,-193.6269 84,-190.6269 84,-190.6269 84,-184.6269 84,-184.6269 84,-181.6269 87,-178.6269 90,-178.6269 90,-178.6269 159,-178.6269 159,-178.6269 162,-178.6269 165,-181.6269 165,-184.6269 165,-184.6269 165,-190.6269 165,-190.6269 165,-193.6269 162,-196.6269 159,-196.6269"/>
<text text-anchor="middle" x="124.5" y="-185.4269" font-family="Helvetica,sans-Serif" font-size="9.00" fill="#000000">Configuration.js</text>
</a>
</g>
</g>
<!-- index.js&#45;&gt;lib/Configuration.js -->
<g id="edge2" class="edge">
<title>index.js&#45;&gt;lib/Configuration.js</title>
<path fill="none" stroke="#000000" stroke-width="2" stroke-opacity="0.200000" d="M54.1592,-187.6269C61.523,-187.6269 69.7104,-187.6269 77.8213,-187.6269"/>
<polygon fill="#000000" fill-opacity="0.200000" stroke="#000000" stroke-width="2" stroke-opacity="0.200000" points="77.9939,-189.727 83.9939,-187.6269 77.9938,-185.527 77.9939,-189.727"/>
</g>
<!-- lib/HttpServer.js -->
<g id="node5" class="node">
<title>lib/HttpServer.js</title>
<g id="a_node5"><a xlink:href="lib/HttpServer.js" xlink:title="HttpServer.js">
<path fill="#ffffcc" stroke="#000000" d="M516,-380.6269C516,-380.6269 459,-380.6269 459,-380.6269 456,-380.6269 453,-377.6269 453,-374.6269 453,-374.6269 453,-368.6269 453,-368.6269 453,-365.6269 456,-362.6269 459,-362.6269 459,-362.6269 516,-362.6269 516,-362.6269 519,-362.6269 522,-365.6269 522,-368.6269 522,-368.6269 522,-374.6269 522,-374.6269 522,-377.6269 519,-380.6269 516,-380.6269"/>
<text text-anchor="middle" x="487.5" y="-369.4269" font-family="Helvetica,sans-Serif" font-size="9.00" fill="#000000">HttpServer.js</text>
</a>
</g>
</g>
<!-- index.js&#45;&gt;lib/HttpServer.js -->
<g id="edge3" class="edge">
<title>index.js&#45;&gt;lib/HttpServer.js</title>
<path fill="none" stroke="#000000" stroke-width="2" stroke-opacity="0.200000" d="M32.4366,-178.3416C38.5921,-168.4648 49.4172,-152.8807 62,-142.6269 176.6266,-49.2168 273.1273,61.5994 379,-41.6269 391.5738,-53.8864 375.3041,-344.5272 387,-357.6269 401.6297,-374.0123 425.8507,-377.7573 446.8489,-377.2881"/>
<polygon fill="#000000" fill-opacity="0.200000" stroke="#000000" stroke-width="2" stroke-opacity="0.200000" points="447.0531,-379.3816 452.9607,-377.0341 446.8787,-375.1852 447.0531,-379.3816"/>
</g>
<!-- lib/LetsEncryptServer.js -->
<g id="node6" class="node">
<title>lib/LetsEncryptServer.js</title>
<g id="a_node6"><a xlink:href="lib/LetsEncryptServer.js" xlink:title="LetsEncryptServer.js">
<path fill="#ffffcc" stroke="#000000" d="M169,-166.6269C169,-166.6269 80,-166.6269 80,-166.6269 77,-166.6269 74,-163.6269 74,-160.6269 74,-160.6269 74,-154.6269 74,-154.6269 74,-151.6269 77,-148.6269 80,-148.6269 80,-148.6269 169,-148.6269 169,-148.6269 172,-148.6269 175,-151.6269 175,-154.6269 175,-154.6269 175,-160.6269 175,-160.6269 175,-163.6269 172,-166.6269 169,-166.6269"/>
<text text-anchor="middle" x="124.5" y="-155.4269" font-family="Helvetica,sans-Serif" font-size="9.00" fill="#000000">LetsEncryptServer.js</text>
</a>
</g>
</g>
<!-- index.js&#45;&gt;lib/LetsEncryptServer.js -->
<g id="edge4" class="edge">
<title>index.js&#45;&gt;lib/LetsEncryptServer.js</title>
<path fill="none" stroke="#000000" stroke-width="2" stroke-opacity="0.200000" d="M46.3964,-178.6229C51.4145,-176.4855 56.8546,-174.3332 62,-172.6269 66.7199,-171.0616 71.6904,-169.5868 76.6812,-168.2183"/>
<polygon fill="#000000" fill-opacity="0.200000" stroke="#000000" stroke-width="2" stroke-opacity="0.200000" points="77.2767,-170.233 82.5356,-166.6617 76.1974,-166.174 77.2767,-170.233"/>
</g>
<!-- lib/staging/monkeyPatchTls.js -->
<g id="node7" class="node">
<title>lib/staging/monkeyPatchTls.js</title>
<g id="a_node7"><a xlink:href="lib/staging/monkeyPatchTls.js" xlink:title="monkeyPatchTls.js">
<path fill="#ffffcc" stroke="#000000" d="M165,-260.6269C165,-260.6269 84,-260.6269 84,-260.6269 81,-260.6269 78,-257.6269 78,-254.6269 78,-254.6269 78,-248.6269 78,-248.6269 78,-245.6269 81,-242.6269 84,-242.6269 84,-242.6269 165,-242.6269 165,-242.6269 168,-242.6269 171,-245.6269 171,-248.6269 171,-248.6269 171,-254.6269 171,-254.6269 171,-257.6269 168,-260.6269 165,-260.6269"/>
<text text-anchor="middle" x="124.5" y="-249.4269" font-family="Helvetica,sans-Serif" font-size="9.00" fill="#000000">monkeyPatchTls.js</text>
</a>
</g>
</g>
<!-- index.js&#45;&gt;lib/staging/monkeyPatchTls.js -->
<g id="edge5" class="edge">
<title>index.js&#45;&gt;lib/staging/monkeyPatchTls.js</title>
<path fill="none" stroke="#000000" stroke-width="2" stroke-opacity="0.200000" d="M30.6846,-196.7861C35.8658,-208.4342 46.4447,-228.2745 62,-238.6269 65.1485,-240.7223 68.5682,-242.49 72.1308,-243.9803"/>
<polygon fill="#000000" fill-opacity="0.200000" stroke="#000000" stroke-width="2" stroke-opacity="0.200000" points="71.4728,-245.976 77.8284,-246.1009 72.9378,-242.0398 71.4728,-245.976"/>
</g>
<!-- lib/Account.js -->
<g id="node8" class="node">
<title>lib/Account.js</title>
<g id="a_node8"><a xlink:href="lib/Account.js" xlink:title="Account.js">
<path fill="#ffffcc" stroke="#000000" d="M346.5,-156.6269C346.5,-156.6269 299.5,-156.6269 299.5,-156.6269 296.5,-156.6269 293.5,-153.6269 293.5,-150.6269 293.5,-150.6269 293.5,-144.6269 293.5,-144.6269 293.5,-141.6269 296.5,-138.6269 299.5,-138.6269 299.5,-138.6269 346.5,-138.6269 346.5,-138.6269 349.5,-138.6269 352.5,-141.6269 352.5,-144.6269 352.5,-144.6269 352.5,-150.6269 352.5,-150.6269 352.5,-153.6269 349.5,-156.6269 346.5,-156.6269"/>
<text text-anchor="middle" x="323" y="-145.4269" font-family="Helvetica,sans-Serif" font-size="9.00" fill="#000000">Account.js</text>
</a>
</g>
</g>
<!-- lib/Certificate.js&#45;&gt;lib/Account.js -->
<g id="edge11" class="edge">
<title>lib/Certificate.js&#45;&gt;lib/Account.js</title>
<path fill="none" stroke="#000000" stroke-width="2" stroke-opacity="0.200000" d="M158.2352,-212.891C165.6282,-210.6688 173.0226,-207.4085 179,-202.6269 184.9,-197.9071 181.1414,-192.398 187,-187.6269 215.6842,-164.2672 257.5692,-154.5489 287.2649,-150.5062"/>
<polygon fill="#000000" fill-opacity="0.200000" stroke="#000000" stroke-width="2" stroke-opacity="0.200000" points="287.7196,-152.5654 293.4075,-149.7268 287.1909,-148.3988 287.7196,-152.5654"/>
</g>
<!-- lib/AcmeRequest.js -->
<g id="node10" class="node">
<title>lib/AcmeRequest.js</title>
<g id="a_node10"><a xlink:href="lib/AcmeRequest.js" xlink:title="AcmeRequest.js">
<path fill="#ffffcc" stroke="#000000" d="M673,-223.6269C673,-223.6269 602,-223.6269 602,-223.6269 599,-223.6269 596,-220.6269 596,-217.6269 596,-217.6269 596,-211.6269 596,-211.6269 596,-208.6269 599,-205.6269 602,-205.6269 602,-205.6269 673,-205.6269 673,-205.6269 676,-205.6269 679,-208.6269 679,-211.6269 679,-211.6269 679,-217.6269 679,-217.6269 679,-220.6269 676,-223.6269 673,-223.6269"/>
<text text-anchor="middle" x="637.5" y="-212.4269" font-family="Helvetica,sans-Serif" font-size="9.00" fill="#000000">AcmeRequest.js</text>
</a>
</g>
</g>
<!-- lib/Certificate.js&#45;&gt;lib/AcmeRequest.js -->
<g id="edge12" class="edge">
<title>lib/Certificate.js&#45;&gt;lib/AcmeRequest.js</title>
<path fill="none" stroke="#000000" stroke-width="2" stroke-opacity="0.200000" d="M158.0826,-214.6472C165.926,-212.404 173.5655,-208.6942 179,-202.6269 194.0151,-185.8634 171.7881,-169.212 187,-152.6269 209.9818,-127.5703 384.767,-119.7475 387,-119.6269 476.2033,-114.8091 511.619,-73.2977 588,-119.6269 616.8005,-137.0959 629.6259,-177.3995 634.6646,-199.4823"/>
<polygon fill="#000000" fill-opacity="0.200000" stroke="#000000" stroke-width="2" stroke-opacity="0.200000" points="632.6319,-200.0195 635.937,-205.4496 636.7395,-199.1436 632.6319,-200.0195"/>
</g>
<!-- lib/Directory.js -->
<g id="node15" class="node">
<title>lib/Directory.js</title>
<g id="a_node15"><a xlink:href="lib/Directory.js" xlink:title="Directory.js">
<path fill="#ffffcc" stroke="#000000" d="M248,-211.6269C248,-211.6269 198,-211.6269 198,-211.6269 195,-211.6269 192,-208.6269 192,-205.6269 192,-205.6269 192,-199.6269 192,-199.6269 192,-196.6269 195,-193.6269 198,-193.6269 198,-193.6269 248,-193.6269 248,-193.6269 251,-193.6269 254,-196.6269 254,-199.6269 254,-199.6269 254,-205.6269 254,-205.6269 254,-208.6269 251,-211.6269 248,-211.6269"/>
<text text-anchor="middle" x="223" y="-200.4269" font-family="Helvetica,sans-Serif" font-size="9.00" fill="#000000">Directory.js</text>
</a>
</g>
</g>
<!-- lib/Certificate.js&#45;&gt;lib/Directory.js -->
<g id="edge13" class="edge">
<title>lib/Certificate.js&#45;&gt;lib/Directory.js</title>
<path fill="none" stroke="#000000" stroke-width="2" stroke-opacity="0.200000" d="M158.1226,-212.5067C166.9979,-211.1551 176.6286,-209.6885 185.6861,-208.3092"/>
<polygon fill="#000000" fill-opacity="0.200000" stroke="#000000" stroke-width="2" stroke-opacity="0.200000" points="186.2333,-210.3502 191.8488,-207.3707 185.601,-206.198 186.2333,-210.3502"/>
</g>
<!-- lib/identities/AccountIdentity.js -->
<g id="node16" class="node">
<title>lib/identities/AccountIdentity.js</title>
<g id="a_node16"><a xlink:href="lib/identities/AccountIdentity.js" xlink:title="AccountIdentity.js">
<path fill="#ffffcc" stroke="#000000" d="M361,-376.6269C361,-376.6269 285,-376.6269 285,-376.6269 282,-376.6269 279,-373.6269 279,-370.6269 279,-370.6269 279,-364.6269 279,-364.6269 279,-361.6269 282,-358.6269 285,-358.6269 285,-358.6269 361,-358.6269 361,-358.6269 364,-358.6269 367,-361.6269 367,-364.6269 367,-364.6269 367,-370.6269 367,-370.6269 367,-373.6269 364,-376.6269 361,-376.6269"/>
<text text-anchor="middle" x="323" y="-365.4269" font-family="Helvetica,sans-Serif" font-size="9.00" fill="#000000">AccountIdentity.js</text>
</a>
</g>
</g>
<!-- lib/Certificate.js&#45;&gt;lib/identities/AccountIdentity.js -->
<g id="edge14" class="edge">
<title>lib/Certificate.js&#45;&gt;lib/identities/AccountIdentity.js</title>
<path fill="none" stroke="#000000" stroke-width="2" stroke-opacity="0.200000" d="M158.1356,-220.5711C165.7921,-222.6789 173.3301,-226.1072 179,-231.6269 188.2737,-240.6548 177.5209,-250.8148 187,-259.6269 210.9402,-281.8824 237.1095,-250.3524 259,-274.6269 282.338,-300.5065 244.3999,-326.1004 267,-352.6269 268.9378,-354.9013 271.1793,-356.85 273.6279,-358.5179"/>
<polygon fill="#000000" fill-opacity="0.200000" stroke="#000000" stroke-width="2" stroke-opacity="0.200000" points="272.6665,-360.3875 278.9142,-361.5613 274.7622,-356.7476 272.6665,-360.3875"/>
</g>
<!-- lib/identities/CertificateIdentity.js -->
<g id="node17" class="node">
<title>lib/identities/CertificateIdentity.js</title>
<g id="a_node17"><a xlink:href="lib/identities/CertificateIdentity.js" xlink:title="CertificateIdentity.js">
<path fill="#ffffcc" stroke="#000000" d="M365,-346.6269C365,-346.6269 281,-346.6269 281,-346.6269 278,-346.6269 275,-343.6269 275,-340.6269 275,-340.6269 275,-334.6269 275,-334.6269 275,-331.6269 278,-328.6269 281,-328.6269 281,-328.6269 365,-328.6269 365,-328.6269 368,-328.6269 371,-331.6269 371,-334.6269 371,-334.6269 371,-340.6269 371,-340.6269 371,-343.6269 368,-346.6269 365,-346.6269"/>
<text text-anchor="middle" x="323" y="-335.4269" font-family="Helvetica,sans-Serif" font-size="9.00" fill="#000000">CertificateIdentity.js</text>
</a>
</g>
</g>
<!-- lib/Certificate.js&#45;&gt;lib/identities/CertificateIdentity.js -->
<g id="edge15" class="edge">
<title>lib/Certificate.js&#45;&gt;lib/identities/CertificateIdentity.js</title>
<path fill="none" stroke="#000000" stroke-width="2" stroke-opacity="0.200000" d="M158.0221,-221.4967C165.5071,-223.5891 172.9957,-226.7784 179,-231.6269 185.1856,-236.6217 180.7658,-242.6928 187,-247.6269 212.782,-268.0321 236.9331,-240.2519 259,-264.6269 277.0554,-284.5707 248.9071,-304.717 267,-324.6269 267.8558,-325.5686 268.7653,-326.4489 269.721,-327.2713"/>
<polygon fill="#000000" fill-opacity="0.200000" stroke="#000000" stroke-width="2" stroke-opacity="0.200000" points="268.7433,-329.1529 274.8497,-330.9197 271.1779,-325.7305 268.7433,-329.1529"/>
</g>
<!-- lib/Order.js -->
<g id="node18" class="node">
<title>lib/Order.js</title>
<g id="a_node18"><a xlink:href="lib/Order.js" xlink:title="Order.js">
<path fill="#ffffcc" stroke="#000000" d="M244,-241.6269C244,-241.6269 202,-241.6269 202,-241.6269 199,-241.6269 196,-238.6269 196,-235.6269 196,-235.6269 196,-229.6269 196,-229.6269 196,-226.6269 199,-223.6269 202,-223.6269 202,-223.6269 244,-223.6269 244,-223.6269 247,-223.6269 250,-226.6269 250,-229.6269 250,-229.6269 250,-235.6269 250,-235.6269 250,-238.6269 247,-241.6269 244,-241.6269"/>
<text text-anchor="middle" x="223" y="-230.4269" font-family="Helvetica,sans-Serif" font-size="9.00" fill="#000000">Order.js</text>
</a>
</g>
</g>
<!-- lib/Certificate.js&#45;&gt;lib/Order.js -->
<g id="edge16" class="edge">
<title>lib/Certificate.js&#45;&gt;lib/Order.js</title>
<path fill="none" stroke="#000000" stroke-width="2" stroke-opacity="0.200000" d="M158.1226,-222.7471C168.2763,-224.2933 179.4185,-225.9901 189.5602,-227.5345"/>
<polygon fill="#000000" fill-opacity="0.200000" stroke="#000000" stroke-width="2" stroke-opacity="0.200000" points="189.48,-229.6464 195.7278,-228.4737 190.1123,-225.4943 189.48,-229.6464"/>
</g>
<!-- lib/x.509/rfc5280.js -->
<g id="node19" class="node">
<title>lib/x.509/rfc5280.js</title>
<g id="a_node19"><a xlink:href="lib/x.509/rfc5280.js" xlink:title="rfc5280.js">
<path fill="#ffffcc" stroke="#000000" d="M245,-303.6269C245,-303.6269 201,-303.6269 201,-303.6269 198,-303.6269 195,-300.6269 195,-297.6269 195,-297.6269 195,-291.6269 195,-291.6269 195,-288.6269 198,-285.6269 201,-285.6269 201,-285.6269 245,-285.6269 245,-285.6269 248,-285.6269 251,-288.6269 251,-291.6269 251,-291.6269 251,-297.6269 251,-297.6269 251,-300.6269 248,-303.6269 245,-303.6269"/>
<text text-anchor="middle" x="223" y="-292.4269" font-family="Helvetica,sans-Serif" font-size="9.00" fill="#000000">rfc5280.js</text>
</a>
</g>
</g>
<!-- lib/Certificate.js&#45;&gt;lib/x.509/rfc5280.js -->
<g id="edge17" class="edge">
<title>lib/Certificate.js&#45;&gt;lib/x.509/rfc5280.js</title>
<path fill="none" stroke="#000000" stroke-width="2" stroke-opacity="0.200000" d="M158.0458,-219.9553C165.8897,-222.0551 173.5387,-225.6337 179,-231.6269 194.1582,-248.2611 172.6496,-264.291 187,-281.6269 187.7945,-282.5866 188.6657,-283.4756 189.5982,-284.2989"/>
<polygon fill="#000000" fill-opacity="0.200000" stroke="#000000" stroke-width="2" stroke-opacity="0.200000" points="188.5846,-286.1536 194.699,-287.8927 191.0036,-282.7202 188.5846,-286.1536"/>
</g>
<!-- lib/acme&#45;requests/NewAccountRequest.js -->
<g id="node9" class="node">
<title>lib/acme&#45;requests/NewAccountRequest.js</title>
<g id="a_node9"><a xlink:href="lib/acme-requests/NewAccountRequest.js" xlink:title="NewAccountRequest.js">
<path fill="#ffffcc" stroke="#000000" d="M537.5,-148.6269C537.5,-148.6269 437.5,-148.6269 437.5,-148.6269 434.5,-148.6269 431.5,-145.6269 431.5,-142.6269 431.5,-142.6269 431.5,-136.6269 431.5,-136.6269 431.5,-133.6269 434.5,-130.6269 437.5,-130.6269 437.5,-130.6269 537.5,-130.6269 537.5,-130.6269 540.5,-130.6269 543.5,-133.6269 543.5,-136.6269 543.5,-136.6269 543.5,-142.6269 543.5,-142.6269 543.5,-145.6269 540.5,-148.6269 537.5,-148.6269"/>
<text text-anchor="middle" x="487.5" y="-137.4269" font-family="Helvetica,sans-Serif" font-size="9.00" fill="#000000">NewAccountRequest.js</text>
</a>
</g>
</g>
<!-- lib/Account.js&#45;&gt;lib/acme&#45;requests/NewAccountRequest.js -->
<g id="edge6" class="edge">
<title>lib/Account.js&#45;&gt;lib/acme&#45;requests/NewAccountRequest.js</title>
<path fill="none" stroke="#000000" stroke-width="2" stroke-opacity="0.200000" d="M352.7897,-146.1781C372.9331,-145.1985 400.2812,-143.8685 425.074,-142.6628"/>
<polygon fill="#000000" fill-opacity="0.200000" stroke="#000000" stroke-width="2" stroke-opacity="0.200000" points="425.4253,-144.7483 431.3162,-142.3592 425.2212,-140.5532 425.4253,-144.7483"/>
</g>
<!-- lib/acme&#45;requests/NewAccountRequest.js&#45;&gt;lib/AcmeRequest.js -->
<g id="edge31" class="edge">
<title>lib/acme&#45;requests/NewAccountRequest.js&#45;&gt;lib/AcmeRequest.js</title>
<path fill="none" stroke="#000000" stroke-width="2" stroke-opacity="0.200000" d="M543.6003,-140.7313C558.7531,-142.9212 574.6397,-147.0732 588,-154.6269 606.7203,-165.211 621.305,-185.8453 629.6551,-199.9302"/>
<polygon fill="#000000" fill-opacity="0.200000" stroke="#000000" stroke-width="2" stroke-opacity="0.200000" points="628.0467,-201.3484 632.846,-205.5171 631.6939,-199.2655 628.0467,-201.3484"/>
</g>
<!-- lib/Nonce.js -->
<g id="node11" class="node">
<title>lib/Nonce.js</title>
<g id="a_node11"><a xlink:href="lib/Nonce.js" xlink:title="Nonce.js">
<path fill="#ffffcc" stroke="#000000" d="M740,-223.6269C740,-223.6269 698,-223.6269 698,-223.6269 695,-223.6269 692,-220.6269 692,-217.6269 692,-217.6269 692,-211.6269 692,-211.6269 692,-208.6269 695,-205.6269 698,-205.6269 698,-205.6269 740,-205.6269 740,-205.6269 743,-205.6269 746,-208.6269 746,-211.6269 746,-211.6269 746,-217.6269 746,-217.6269 746,-220.6269 743,-223.6269 740,-223.6269"/>
<text text-anchor="middle" x="719" y="-212.4269" font-family="Helvetica,sans-Serif" font-size="9.00" fill="#000000">Nonce.js</text>
</a>
</g>
</g>
<!-- lib/AcmeRequest.js&#45;&gt;lib/Nonce.js -->
<g id="edge7" class="edge">
<title>lib/AcmeRequest.js&#45;&gt;lib/Nonce.js</title>
<path fill="none" stroke="#000000" stroke-width="2" stroke-opacity="0.200000" d="M679.205,-214.6269C681.3198,-214.6269 683.4312,-214.6269 685.5164,-214.6269"/>
<polygon fill="#000000" fill-opacity="0.200000" stroke="#000000" stroke-width="2" stroke-opacity="0.200000" points="685.6704,-216.727 691.6704,-214.6269 685.6704,-212.527 685.6704,-216.727"/>
</g>
<!-- lib/Authorisation.js -->
<g id="node12" class="node">
<title>lib/Authorisation.js</title>
<g id="a_node12"><a xlink:href="lib/Authorisation.js" xlink:title="Authorisation.js">
<path fill="#ffffcc" stroke="#000000" d="M357,-298.6269C357,-298.6269 289,-298.6269 289,-298.6269 286,-298.6269 283,-295.6269 283,-292.6269 283,-292.6269 283,-286.6269 283,-286.6269 283,-283.6269 286,-280.6269 289,-280.6269 289,-280.6269 357,-280.6269 357,-280.6269 360,-280.6269 363,-283.6269 363,-286.6269 363,-286.6269 363,-292.6269 363,-292.6269 363,-295.6269 360,-298.6269 357,-298.6269"/>
<text text-anchor="middle" x="323" y="-287.4269" font-family="Helvetica,sans-Serif" font-size="9.00" fill="#000000">Authorisation.js</text>
</a>
</g>
</g>
<!-- lib/Authorisation.js&#45;&gt;lib/HttpServer.js -->
<g id="edge10" class="edge">
<title>lib/Authorisation.js&#45;&gt;lib/HttpServer.js</title>
<path fill="none" stroke="#000000" stroke-width="2" stroke-opacity="0.200000" d="M363.0673,-296.4448C369.1154,-299.0622 374.7436,-302.6671 379,-307.6269 393.6562,-324.705 370.9264,-341.8754 387,-357.6269 402.3934,-372.7118 426.0272,-376.5759 446.5093,-376.4989"/>
<polygon fill="#000000" fill-opacity="0.200000" stroke="#000000" stroke-width="2" stroke-opacity="0.200000" points="446.8016,-378.5928 452.7521,-376.3565 446.7057,-374.3939 446.8016,-378.5928"/>
</g>
<!-- lib/acme&#45;requests/AuthorisationRequest.js -->
<g id="node13" class="node">
<title>lib/acme&#45;requests/AuthorisationRequest.js</title>
<g id="a_node13"><a xlink:href="lib/acme-requests/AuthorisationRequest.js" xlink:title="AuthorisationRequest.js">
<path fill="#ffffcc" stroke="#000000" d="M538.5,-298.6269C538.5,-298.6269 436.5,-298.6269 436.5,-298.6269 433.5,-298.6269 430.5,-295.6269 430.5,-292.6269 430.5,-292.6269 430.5,-286.6269 430.5,-286.6269 430.5,-283.6269 433.5,-280.6269 436.5,-280.6269 436.5,-280.6269 538.5,-280.6269 538.5,-280.6269 541.5,-280.6269 544.5,-283.6269 544.5,-286.6269 544.5,-286.6269 544.5,-292.6269 544.5,-292.6269 544.5,-295.6269 541.5,-298.6269 538.5,-298.6269"/>
<text text-anchor="middle" x="487.5" y="-287.4269" font-family="Helvetica,sans-Serif" font-size="9.00" fill="#000000">AuthorisationRequest.js</text>
</a>
</g>
</g>
<!-- lib/Authorisation.js&#45;&gt;lib/acme&#45;requests/AuthorisationRequest.js -->
<g id="edge8" class="edge">
<title>lib/Authorisation.js&#45;&gt;lib/acme&#45;requests/AuthorisationRequest.js</title>
<path fill="none" stroke="#000000" stroke-width="2" stroke-opacity="0.200000" d="M363.2412,-289.6269C381.5944,-289.6269 403.7621,-289.6269 424.2628,-289.6269"/>
<polygon fill="#000000" fill-opacity="0.200000" stroke="#000000" stroke-width="2" stroke-opacity="0.200000" points="424.2798,-291.727 430.2798,-289.6269 424.2797,-287.527 424.2798,-291.727"/>
</g>
<!-- lib/acme&#45;requests/ReadyForChallengeValidationRequest.js -->
<g id="node14" class="node">
<title>lib/acme&#45;requests/ReadyForChallengeValidationRequest.js</title>
<g id="a_node14"><a xlink:href="lib/acme-requests/ReadyForChallengeValidationRequest.js" xlink:title="ReadyForChallengeValidationRequest.js">
<path fill="#ffffcc" stroke="#000000" d="M574,-328.6269C574,-328.6269 401,-328.6269 401,-328.6269 398,-328.6269 395,-325.6269 395,-322.6269 395,-322.6269 395,-316.6269 395,-316.6269 395,-313.6269 398,-310.6269 401,-310.6269 401,-310.6269 574,-310.6269 574,-310.6269 577,-310.6269 580,-313.6269 580,-316.6269 580,-316.6269 580,-322.6269 580,-322.6269 580,-325.6269 577,-328.6269 574,-328.6269"/>
<text text-anchor="middle" x="487.5" y="-317.4269" font-family="Helvetica,sans-Serif" font-size="9.00" fill="#000000">ReadyForChallengeValidationRequest.js</text>
</a>
</g>
</g>
<!-- lib/Authorisation.js&#45;&gt;lib/acme&#45;requests/ReadyForChallengeValidationRequest.js -->
<g id="edge9" class="edge">
<title>lib/Authorisation.js&#45;&gt;lib/acme&#45;requests/ReadyForChallengeValidationRequest.js</title>
<path fill="none" stroke="#000000" stroke-width="2" stroke-opacity="0.200000" d="M359.1051,-298.635C368.1801,-300.7484 377.9211,-302.8884 387,-304.6269 396.2547,-306.399 406.0227,-308.0846 415.6868,-309.6427"/>
<polygon fill="#000000" fill-opacity="0.200000" stroke="#000000" stroke-width="2" stroke-opacity="0.200000" points="415.4299,-311.7281 421.6851,-310.5959 416.0891,-307.5802 415.4299,-311.7281"/>
</g>
<!-- lib/acme&#45;requests/AuthorisationRequest.js&#45;&gt;lib/AcmeRequest.js -->
<g id="edge27" class="edge">
<title>lib/acme&#45;requests/AuthorisationRequest.js&#45;&gt;lib/AcmeRequest.js</title>
<path fill="none" stroke="#000000" stroke-width="2" stroke-opacity="0.200000" d="M544.6465,-288.3683C559.4822,-286.1398 574.9468,-282.0069 588,-274.6269 606.7203,-264.0427 621.305,-243.4084 629.6551,-229.3236"/>
<polygon fill="#000000" fill-opacity="0.200000" stroke="#000000" stroke-width="2" stroke-opacity="0.200000" points="631.6939,-229.9882 632.846,-223.7366 628.0467,-227.9053 631.6939,-229.9882"/>
</g>
<!-- lib/acme&#45;requests/ReadyForChallengeValidationRequest.js&#45;&gt;lib/AcmeRequest.js -->
<g id="edge33" class="edge">
<title>lib/acme&#45;requests/ReadyForChallengeValidationRequest.js&#45;&gt;lib/AcmeRequest.js</title>
<path fill="none" stroke="#000000" stroke-width="2" stroke-opacity="0.200000" d="M577.9166,-310.4975C581.4344,-308.7909 584.8146,-306.844 588,-304.6269 613.9973,-286.5319 627.7488,-250.219 633.7322,-229.6805"/>
<polygon fill="#000000" fill-opacity="0.200000" stroke="#000000" stroke-width="2" stroke-opacity="0.200000" points="635.7691,-230.1933 635.3447,-223.8506 631.7211,-229.0736 635.7691,-230.1933"/>
</g>
<!-- lib/Identity.js -->
<g id="node20" class="node">
<title>lib/Identity.js</title>
<g id="a_node20"><a xlink:href="lib/Identity.js" xlink:title="Identity.js">
<path fill="#ffffcc" stroke="#000000" d="M509,-410.6269C509,-410.6269 466,-410.6269 466,-410.6269 463,-410.6269 460,-407.6269 460,-404.6269 460,-404.6269 460,-398.6269 460,-398.6269 460,-395.6269 463,-392.6269 466,-392.6269 466,-392.6269 509,-392.6269 509,-392.6269 512,-392.6269 515,-395.6269 515,-398.6269 515,-398.6269 515,-404.6269 515,-404.6269 515,-407.6269 512,-410.6269 509,-410.6269"/>
<text text-anchor="middle" x="487.5" y="-399.4269" font-family="Helvetica,sans-Serif" font-size="9.00" fill="#000000">Identity.js</text>
</a>
</g>
</g>
<!-- lib/identities/AccountIdentity.js&#45;&gt;lib/Identity.js -->
<g id="edge34" class="edge">
<title>lib/identities/AccountIdentity.js&#45;&gt;lib/Identity.js</title>
<path fill="none" stroke="#000000" stroke-width="2" stroke-opacity="0.200000" d="M350.5,-376.7133C361.7258,-380.1801 374.8928,-383.9401 387,-386.6269 408.9119,-391.4894 433.8675,-395.2237 453.429,-397.7501"/>
<polygon fill="#000000" fill-opacity="0.200000" stroke="#000000" stroke-width="2" stroke-opacity="0.200000" points="453.3638,-399.8585 459.5799,-398.5278 453.8908,-395.6917 453.3638,-399.8585"/>
</g>
<!-- lib/identities/CertificateIdentity.js&#45;&gt;lib/Identity.js -->
<g id="edge35" class="edge">
<title>lib/identities/CertificateIdentity.js&#45;&gt;lib/Identity.js</title>
<path fill="none" stroke="#000000" stroke-width="2" stroke-opacity="0.200000" d="M371.1844,-346.5157C374.0409,-348.2237 376.6876,-350.2426 379,-352.6269 389.8076,-363.7706 375.5774,-376.1144 387,-386.6269 404.6034,-402.8278 431.7591,-406.0735 453.4066,-405.5435"/>
<polygon fill="#000000" fill-opacity="0.200000" stroke="#000000" stroke-width="2" stroke-opacity="0.200000" points="453.734,-407.6318 459.6418,-405.2849 453.5599,-403.4354 453.734,-407.6318"/>
</g>
<!-- lib/Order.js&#45;&gt;fs/promises -->
<g id="edge26" class="edge">
<title>lib/Order.js&#45;&gt;fs/promises</title>
<path fill="none" stroke="#000000" stroke-dasharray="5,2" stroke-opacity="0.200000" d="M250.1848,-225.3138C253.6105,-223.3323 256.7105,-220.8175 259,-217.6269 274.0644,-196.6336 254.3927,-124.1815 267,-101.6269 273.713,-89.6172 285.718,-80.3183 296.8956,-73.7215"/>
<polygon fill="#000000" fill-opacity="0.200000" stroke="#000000" stroke-opacity="0.200000" points="298.0811,-75.4645 302.2896,-70.7001 296.0285,-71.8002 298.0811,-75.4645"/>
</g>
<!-- lib/Order.js&#45;&gt;lib/HttpServer.js -->
<g id="edge24" class="edge">
<title>lib/Order.js&#45;&gt;lib/HttpServer.js</title>
<path fill="none" stroke="#000000" stroke-width="2" stroke-opacity="0.200000" d="M250.3038,-238.7326C253.6235,-240.4819 256.6615,-242.7322 259,-245.6269 275.6292,-266.2112 248.1095,-286.0959 267,-304.6269 302.7733,-339.7193 342.1455,-283.6716 379,-317.6269 392.3335,-329.9114 373.8078,-345.1907 387,-357.6269 402.6827,-372.4108 426.3293,-376.2616 446.7459,-376.2527"/>
<polygon fill="#000000" fill-opacity="0.200000" stroke="#000000" stroke-width="2" stroke-opacity="0.200000" points="447.0073,-378.3482 452.966,-376.1339 446.927,-374.149 447.0073,-378.3482"/>
</g>
<!-- lib/Order.js&#45;&gt;lib/Authorisation.js -->
<g id="edge23" class="edge">
<title>lib/Order.js&#45;&gt;lib/Authorisation.js</title>
<path fill="none" stroke="#000000" stroke-width="2" stroke-opacity="0.200000" d="M245.8369,-241.7954C250.48,-244.257 255.1235,-247.2048 259,-250.6269 263.8053,-254.8689 262.1643,-258.4195 267,-262.6269 274.079,-268.7861 282.8083,-273.8758 291.2506,-277.9121"/>
<polygon fill="#000000" fill-opacity="0.200000" stroke="#000000" stroke-width="2" stroke-opacity="0.200000" points="290.6946,-279.9661 297.0257,-280.5384 292.4333,-276.1429 290.6946,-279.9661"/>
</g>
<!-- lib/Order.js&#45;&gt;lib/identities/CertificateIdentity.js -->
<g id="edge25" class="edge">
<title>lib/Order.js&#45;&gt;lib/identities/CertificateIdentity.js</title>
<path fill="none" stroke="#000000" stroke-width="2" stroke-opacity="0.200000" d="M249.428,-241.842C253.1407,-244.1794 256.5273,-247.0694 259,-250.6269 277.8807,-277.7901 245.0584,-299.8703 267,-324.6269 267.8441,-325.5792 268.7429,-326.4689 269.6891,-327.2999"/>
<polygon fill="#000000" fill-opacity="0.200000" stroke="#000000" stroke-width="2" stroke-opacity="0.200000" points="268.687,-329.1669 274.7789,-330.9833 271.1493,-325.7644 268.687,-329.1669"/>
</g>
<!-- lib/acme&#45;requests/CertificateRequest.js -->
<g id="node21" class="node">
<title>lib/acme&#45;requests/CertificateRequest.js</title>
<g id="a_node21"><a xlink:href="lib/acme-requests/CertificateRequest.js" xlink:title="CertificateRequest.js">
<path fill="#ffffcc" stroke="#000000" d="M532,-238.6269C532,-238.6269 443,-238.6269 443,-238.6269 440,-238.6269 437,-235.6269 437,-232.6269 437,-232.6269 437,-226.6269 437,-226.6269 437,-223.6269 440,-220.6269 443,-220.6269 443,-220.6269 532,-220.6269 532,-220.6269 535,-220.6269 538,-223.6269 538,-226.6269 538,-226.6269 538,-232.6269 538,-232.6269 538,-235.6269 535,-238.6269 532,-238.6269"/>
<text text-anchor="middle" x="487.5" y="-227.4269" font-family="Helvetica,sans-Serif" font-size="9.00" fill="#000000">CertificateRequest.js</text>
</a>
</g>
</g>
<!-- lib/Order.js&#45;&gt;lib/acme&#45;requests/CertificateRequest.js -->
<g id="edge18" class="edge">
<title>lib/Order.js&#45;&gt;lib/acme&#45;requests/CertificateRequest.js</title>
<path fill="none" stroke="#000000" stroke-width="2" stroke-opacity="0.200000" d="M250.4353,-235.5079C255.916,-235.9742 261.6362,-236.3836 267,-236.6269 316.7266,-238.8825 329.248,-238.2301 379,-236.6269 395.8027,-236.0854 414.0463,-235.0735 430.6946,-233.9839"/>
<polygon fill="#000000" fill-opacity="0.200000" stroke="#000000" stroke-width="2" stroke-opacity="0.200000" points="430.9035,-236.0747 436.7503,-233.5797 430.6238,-231.8841 430.9035,-236.0747"/>
</g>
<!-- lib/acme&#45;requests/CheckOrderStatusRequest.js -->
<g id="node22" class="node">
<title>lib/acme&#45;requests/CheckOrderStatusRequest.js</title>
<g id="a_node22"><a xlink:href="lib/acme-requests/CheckOrderStatusRequest.js" xlink:title="CheckOrderStatusRequest.js">
<path fill="#ffffcc" stroke="#000000" d="M549,-268.6269C549,-268.6269 426,-268.6269 426,-268.6269 423,-268.6269 420,-265.6269 420,-262.6269 420,-262.6269 420,-256.6269 420,-256.6269 420,-253.6269 423,-250.6269 426,-250.6269 426,-250.6269 549,-250.6269 549,-250.6269 552,-250.6269 555,-253.6269 555,-256.6269 555,-256.6269 555,-262.6269 555,-262.6269 555,-265.6269 552,-268.6269 549,-268.6269"/>
<text text-anchor="middle" x="487.5" y="-257.4269" font-family="Helvetica,sans-Serif" font-size="9.00" fill="#000000">CheckOrderStatusRequest.js</text>
</a>
</g>
</g>
<!-- lib/Order.js&#45;&gt;lib/acme&#45;requests/CheckOrderStatusRequest.js -->
<g id="edge19" class="edge">
<title>lib/Order.js&#45;&gt;lib/acme&#45;requests/CheckOrderStatusRequest.js</title>
<path fill="none" stroke="#000000" stroke-width="2" stroke-opacity="0.200000" d="M250.3985,-238.019C255.8823,-238.9822 261.613,-239.9067 267,-240.6269 315.6407,-247.1298 370.6306,-251.8732 413.5277,-254.9942"/>
<polygon fill="#000000" fill-opacity="0.200000" stroke="#000000" stroke-width="2" stroke-opacity="0.200000" points="413.6316,-257.107 419.7668,-255.4429 413.9329,-252.9178 413.6316,-257.107"/>
</g>
<!-- lib/acme&#45;requests/FinaliseOrderRequest.js -->
<g id="node23" class="node">
<title>lib/acme&#45;requests/FinaliseOrderRequest.js</title>
<g id="a_node23"><a xlink:href="lib/acme-requests/FinaliseOrderRequest.js" xlink:title="FinaliseOrderRequest.js">
<path fill="#ffffcc" stroke="#000000" d="M539.5,-178.6269C539.5,-178.6269 435.5,-178.6269 435.5,-178.6269 432.5,-178.6269 429.5,-175.6269 429.5,-172.6269 429.5,-172.6269 429.5,-166.6269 429.5,-166.6269 429.5,-163.6269 432.5,-160.6269 435.5,-160.6269 435.5,-160.6269 539.5,-160.6269 539.5,-160.6269 542.5,-160.6269 545.5,-163.6269 545.5,-166.6269 545.5,-166.6269 545.5,-172.6269 545.5,-172.6269 545.5,-175.6269 542.5,-178.6269 539.5,-178.6269"/>
<text text-anchor="middle" x="487.5" y="-167.4269" font-family="Helvetica,sans-Serif" font-size="9.00" fill="#000000">FinaliseOrderRequest.js</text>
</a>
</g>
</g>
<!-- lib/Order.js&#45;&gt;lib/acme&#45;requests/FinaliseOrderRequest.js -->
<g id="edge20" class="edge">
<title>lib/Order.js&#45;&gt;lib/acme&#45;requests/FinaliseOrderRequest.js</title>
<path fill="none" stroke="#000000" stroke-width="2" stroke-opacity="0.200000" d="M250.3057,-224.4274C253.5416,-222.5861 256.5562,-220.3465 259,-217.6269 267.3652,-208.3175 257.3382,-198.5824 267,-190.6269 290.1288,-171.5827 366.795,-167.9418 423.2552,-168.0086"/>
<polygon fill="#000000" fill-opacity="0.200000" stroke="#000000" stroke-width="2" stroke-opacity="0.200000" points="423.3355,-170.1088 429.3429,-168.0301 423.3504,-165.9088 423.3355,-170.1088"/>
</g>
<!-- lib/acme&#45;requests/NewOrderRequest.js -->
<g id="node24" class="node">
<title>lib/acme&#45;requests/NewOrderRequest.js</title>
<g id="a_node24"><a xlink:href="lib/acme-requests/NewOrderRequest.js" xlink:title="NewOrderRequest.js">
<path fill="#ffffcc" stroke="#000000" d="M532.5,-208.6269C532.5,-208.6269 442.5,-208.6269 442.5,-208.6269 439.5,-208.6269 436.5,-205.6269 436.5,-202.6269 436.5,-202.6269 436.5,-196.6269 436.5,-196.6269 436.5,-193.6269 439.5,-190.6269 442.5,-190.6269 442.5,-190.6269 532.5,-190.6269 532.5,-190.6269 535.5,-190.6269 538.5,-193.6269 538.5,-196.6269 538.5,-196.6269 538.5,-202.6269 538.5,-202.6269 538.5,-205.6269 535.5,-208.6269 532.5,-208.6269"/>
<text text-anchor="middle" x="487.5" y="-197.4269" font-family="Helvetica,sans-Serif" font-size="9.00" fill="#000000">NewOrderRequest.js</text>
</a>
</g>
</g>
<!-- lib/Order.js&#45;&gt;lib/acme&#45;requests/NewOrderRequest.js -->
<g id="edge21" class="edge">
<title>lib/Order.js&#45;&gt;lib/acme&#45;requests/NewOrderRequest.js</title>
<path fill="none" stroke="#000000" stroke-width="2" stroke-opacity="0.200000" d="M249.5105,-223.5799C252.8698,-221.8701 256.1305,-219.8927 259,-217.6269 263.7443,-213.8806 261.6573,-209.4551 267,-206.6269 294.2712,-192.1903 374.5654,-193.1537 430.3326,-195.8504"/>
<polygon fill="#000000" fill-opacity="0.200000" stroke="#000000" stroke-width="2" stroke-opacity="0.200000" points="430.2293,-197.9477 436.3271,-196.1514 430.44,-193.753 430.2293,-197.9477"/>
</g>
<!-- lib/acmeCsr.js -->
<g id="node25" class="node">
<title>lib/acmeCsr.js</title>
<g id="a_node25"><a xlink:href="lib/acmeCsr.js" xlink:title="acmeCsr.js">
<path fill="#ffffcc" stroke="#000000" d="M348,-230.6269C348,-230.6269 298,-230.6269 298,-230.6269 295,-230.6269 292,-227.6269 292,-224.6269 292,-224.6269 292,-218.6269 292,-218.6269 292,-215.6269 295,-212.6269 298,-212.6269 298,-212.6269 348,-212.6269 348,-212.6269 351,-212.6269 354,-215.6269 354,-218.6269 354,-218.6269 354,-224.6269 354,-224.6269 354,-227.6269 351,-230.6269 348,-230.6269"/>
<text text-anchor="middle" x="323" y="-219.4269" font-family="Helvetica,sans-Serif" font-size="9.00" fill="#000000">acmeCsr.js</text>
</a>
</g>
</g>
<!-- lib/Order.js&#45;&gt;lib/acmeCsr.js -->
<g id="edge22" class="edge">
<title>lib/Order.js&#45;&gt;lib/acmeCsr.js</title>
<path fill="none" stroke="#000000" stroke-width="2" stroke-opacity="0.200000" d="M250.0614,-229.6501C260.9964,-228.4473 273.8002,-227.0389 285.6019,-225.7407"/>
<polygon fill="#000000" fill-opacity="0.200000" stroke="#000000" stroke-width="2" stroke-opacity="0.200000" points="285.9325,-227.817 291.6669,-225.0735 285.4733,-223.6422 285.9325,-227.817"/>
</g>
<!-- lib/acme&#45;requests/CertificateRequest.js&#45;&gt;lib/AcmeRequest.js -->
<g id="edge28" class="edge">
<title>lib/acme&#45;requests/CertificateRequest.js&#45;&gt;lib/AcmeRequest.js</title>
<path fill="none" stroke="#000000" stroke-width="2" stroke-opacity="0.200000" d="M538.2832,-224.5486C554.7903,-222.8978 573.0507,-221.0718 589.359,-219.441"/>
<polygon fill="#000000" fill-opacity="0.200000" stroke="#000000" stroke-width="2" stroke-opacity="0.200000" points="589.9803,-221.4894 595.7416,-218.8027 589.5623,-217.3102 589.9803,-221.4894"/>
</g>
<!-- lib/acme&#45;requests/CheckOrderStatusRequest.js&#45;&gt;lib/AcmeRequest.js -->
<g id="edge29" class="edge">
<title>lib/acme&#45;requests/CheckOrderStatusRequest.js&#45;&gt;lib/AcmeRequest.js</title>
<path fill="none" stroke="#000000" stroke-width="2" stroke-opacity="0.200000" d="M555.1796,-253.2906C566.3326,-251.1817 577.6296,-248.3714 588,-244.6269 599.5353,-240.4617 611.3225,-233.4494 620.4996,-227.2513"/>
<polygon fill="#000000" fill-opacity="0.200000" stroke="#000000" stroke-width="2" stroke-opacity="0.200000" points="621.8491,-228.871 625.5796,-223.7238 619.4535,-225.4211 621.8491,-228.871"/>
</g>
<!-- lib/acme&#45;requests/FinaliseOrderRequest.js&#45;&gt;lib/AcmeRequest.js -->
<g id="edge30" class="edge">
<title>lib/acme&#45;requests/FinaliseOrderRequest.js&#45;&gt;lib/AcmeRequest.js</title>
<path fill="none" stroke="#000000" stroke-width="2" stroke-opacity="0.200000" d="M545.6048,-174.31C559.7487,-176.5309 574.6429,-179.8039 588,-184.6269 599.5353,-188.7921 611.3225,-195.8044 620.4996,-202.0024"/>
<polygon fill="#000000" fill-opacity="0.200000" stroke="#000000" stroke-width="2" stroke-opacity="0.200000" points="619.4535,-203.8326 625.5796,-205.5299 621.8491,-200.3828 619.4535,-203.8326"/>
</g>
<!-- lib/acme&#45;requests/NewOrderRequest.js&#45;&gt;lib/AcmeRequest.js -->
<g id="edge32" class="edge">
<title>lib/acme&#45;requests/NewOrderRequest.js&#45;&gt;lib/AcmeRequest.js</title>
<path fill="none" stroke="#000000" stroke-width="2" stroke-opacity="0.200000" d="M538.702,-204.7471C555.1855,-206.3954 573.3799,-208.2149 589.6154,-209.8384"/>
<polygon fill="#000000" fill-opacity="0.200000" stroke="#000000" stroke-width="2" stroke-opacity="0.200000" points="589.7895,-211.9662 595.9687,-210.4737 590.2075,-207.7871 589.7895,-211.9662"/>
</g>
</g>
</svg>
