<?xml version="1.0" encoding="UTF-8" standalone="no"?>
<!DOCTYPE svg PUBLIC "-//W3C//DTD SVG 1.1//EN"
 "http://www.w3.org/Graphics/SVG/1.1/DTD/svg11.dtd">
<!-- Generated by graphviz version 2.40.1 (20161225.0304)
 -->
<!-- Title: dependency&#45;cruiser output Pages: 1 -->
<svg width="752pt" height="387pt"
 viewBox="0.00 0.00 752.00 386.70" xmlns="http://www.w3.org/2000/svg" xmlns:xlink="http://www.w3.org/1999/xlink">
<g id="graph0" class="graph" transform="scale(1 1) rotate(0) translate(4 382.6972)">
<title>dependency&#45;cruiser output</title>
<polygon fill="#ffffff" stroke="transparent" points="-4,4 -4,-382.6972 748,-382.6972 748,4 -4,4"/>
<g id="clust1" class="cluster">
<title>cluster_lib</title>
<path fill="#ffffff" stroke="#000000" stroke-width="2" d="M74,-64.6972C74,-64.6972 724,-64.6972 724,-64.6972 730,-64.6972 736,-70.6972 736,-76.6972 736,-76.6972 736,-358.6972 736,-358.6972 736,-364.6972 730,-370.6972 724,-370.6972 724,-370.6972 74,-370.6972 74,-370.6972 68,-370.6972 62,-364.6972 62,-358.6972 62,-358.6972 62,-76.6972 62,-76.6972 62,-70.6972 68,-64.6972 74,-64.6972"/>
<text text-anchor="middle" x="399" y="-359.4972" font-family="Helvetica,sans-Serif" font-weight="bold" font-size="9.00" fill="#000000">lib</text>
</g>
<g id="clust2" class="cluster">
<title>cluster_lib/acme&#45;requests</title>
<path fill="#ffffff" stroke="#000000" stroke-width="2" d="M381,-142.6972C381,-142.6972 558,-142.6972 558,-142.6972 564,-142.6972 570,-148.6972 570,-154.6972 570,-154.6972 570,-332.6972 570,-332.6972 570,-338.6972 564,-344.6972 558,-344.6972 558,-344.6972 381,-344.6972 381,-344.6972 375,-344.6972 369,-338.6972 369,-332.6972 369,-332.6972 369,-154.6972 369,-154.6972 369,-148.6972 375,-142.6972 381,-142.6972"/>
<text text-anchor="middle" x="469.5" y="-333.4972" font-family="Helvetica,sans-Serif" font-weight="bold" font-size="9.00" fill="#000000">acme&#45;requests</text>
</g>
<g id="clust3" class="cluster">
<title>cluster_lib/x.509</title>
<path fill="#ffffff" stroke="#000000" stroke-width="2" d="M182.5,-280.6972C182.5,-280.6972 346.5,-280.6972 346.5,-280.6972 352.5,-280.6972 358.5,-286.6972 358.5,-292.6972 358.5,-292.6972 358.5,-320.6972 358.5,-320.6972 358.5,-326.6972 352.5,-332.6972 346.5,-332.6972 346.5,-332.6972 182.5,-332.6972 182.5,-332.6972 176.5,-332.6972 170.5,-326.6972 170.5,-320.6972 170.5,-320.6972 170.5,-292.6972 170.5,-292.6972 170.5,-286.6972 176.5,-280.6972 182.5,-280.6972"/>
<text text-anchor="middle" x="264.5" y="-321.4972" font-family="Helvetica,sans-Serif" font-weight="bold" font-size="9.00" fill="#000000">x.509</text>
</g>
<!-- index.js -->
<g id="node1" class="node">
<title>index.js</title>
<g id="a_node1"><a xlink:href="index.js" xlink:title="index.js">
<path fill="#ffffcc" stroke="#000000" d="M48,-144.6972C48,-144.6972 6,-144.6972 6,-144.6972 3,-144.6972 0,-141.6972 0,-138.6972 0,-138.6972 0,-132.6972 0,-132.6972 0,-129.6972 3,-126.6972 6,-126.6972 6,-126.6972 48,-126.6972 48,-126.6972 51,-126.6972 54,-129.6972 54,-132.6972 54,-132.6972 54,-138.6972 54,-138.6972 54,-141.6972 51,-144.6972 48,-144.6972"/>
<text text-anchor="middle" x="27" y="-133.4972" font-family="Helvetica,sans-Serif" font-size="9.00" fill="#000000">index.js</text>
</a>
</g>
</g>
<!-- lib/Certificate.js -->
<g id="node2" class="node">
<title>lib/Certificate.js</title>
<g id="a_node2"><a xlink:href="lib/Certificate.js" xlink:title="Certificate.js">
<path fill="#ffffcc" stroke="#000000" d="M138,-159.6972C138,-159.6972 83,-159.6972 83,-159.6972 80,-159.6972 77,-156.6972 77,-153.6972 77,-153.6972 77,-147.6972 77,-147.6972 77,-144.6972 80,-141.6972 83,-141.6972 83,-141.6972 138,-141.6972 138,-141.6972 141,-141.6972 144,-144.6972 144,-147.6972 144,-147.6972 144,-153.6972 144,-153.6972 144,-156.6972 141,-159.6972 138,-159.6972"/>
<text text-anchor="middle" x="110.5" y="-148.4972" font-family="Helvetica,sans-Serif" font-size="9.00" fill="#000000">Certificate.js</text>
</a>
</g>
</g>
<!-- index.js&#45;&gt;lib/Certificate.js -->
<g id="edge1" class="edge">
<title>index.js&#45;&gt;lib/Certificate.js</title>
<path fill="none" stroke="#000000" stroke-width="2" stroke-opacity="0.200000" d="M54.341,-140.6087C59.6502,-141.5625 65.3137,-142.5799 70.9247,-143.5879"/>
<polygon fill="#000000" fill-opacity="0.200000" stroke="#000000" stroke-width="2" stroke-opacity="0.200000" points="70.6966,-145.6804 76.9734,-144.6744 71.4393,-141.5466 70.6966,-145.6804"/>
</g>
<!-- lib/Configuration.js -->
<g id="node3" class="node">
<title>lib/Configuration.js</title>
<g id="a_node3"><a xlink:href="lib/Configuration.js" xlink:title="Configuration.js">
<path fill="#ffffcc" stroke="#000000" d="M145,-129.6972C145,-129.6972 76,-129.6972 76,-129.6972 73,-129.6972 70,-126.6972 70,-123.6972 70,-123.6972 70,-117.6972 70,-117.6972 70,-114.6972 73,-111.6972 76,-111.6972 76,-111.6972 145,-111.6972 145,-111.6972 148,-111.6972 151,-114.6972 151,-117.6972 151,-117.6972 151,-123.6972 151,-123.6972 151,-126.6972 148,-129.6972 145,-129.6972"/>
<text text-anchor="middle" x="110.5" y="-118.4972" font-family="Helvetica,sans-Serif" font-size="9.00" fill="#000000">Configuration.js</text>
</a>
</g>
</g>
<!-- index.js&#45;&gt;lib/Configuration.js -->
<g id="edge2" class="edge">
<title>index.js&#45;&gt;lib/Configuration.js</title>
<path fill="none" stroke="#000000" stroke-width="2" stroke-opacity="0.200000" d="M54.341,-130.7856C57.278,-130.258 60.3235,-129.7109 63.4084,-129.1567"/>
<polygon fill="#000000" fill-opacity="0.200000" stroke="#000000" stroke-width="2" stroke-opacity="0.200000" points="64.2401,-131.141 69.7743,-128.0132 63.4975,-127.0072 64.2401,-131.141"/>
</g>
<!-- lib/Account.js -->
<g id="node4" class="node">
<title>lib/Account.js</title>
<g id="a_node4"><a xlink:href="lib/Account.js" xlink:title="Account.js">
<path fill="#ffffcc" stroke="#000000" d="M336.5,-272.6972C336.5,-272.6972 289.5,-272.6972 289.5,-272.6972 286.5,-272.6972 283.5,-269.6972 283.5,-266.6972 283.5,-266.6972 283.5,-260.6972 283.5,-260.6972 283.5,-257.6972 286.5,-254.6972 289.5,-254.6972 289.5,-254.6972 336.5,-254.6972 336.5,-254.6972 339.5,-254.6972 342.5,-257.6972 342.5,-260.6972 342.5,-260.6972 342.5,-266.6972 342.5,-266.6972 342.5,-269.6972 339.5,-272.6972 336.5,-272.6972"/>
<text text-anchor="middle" x="313" y="-261.4972" font-family="Helvetica,sans-Serif" font-size="9.00" fill="#000000">Account.js</text>
</a>
</g>
</g>
<!-- lib/Certificate.js&#45;&gt;lib/Account.js -->
<g id="edge9" class="edge">
<title>lib/Certificate.js&#45;&gt;lib/Account.js</title>
<path fill="none" stroke="#000000" stroke-width="2" stroke-opacity="0.200000" d="M119.3825,-159.7795C129.5479,-169.8562 146.9947,-186.2073 164,-197.6972 205.6675,-225.8504 218.3986,-229.8001 265,-248.6972 269.005,-250.3212 273.2558,-251.878 277.5076,-253.3329"/>
<polygon fill="#000000" fill-opacity="0.200000" stroke="#000000" stroke-width="2" stroke-opacity="0.200000" points="276.9271,-255.3528 283.2831,-255.2503 278.2504,-251.3667 276.9271,-255.3528"/>
</g>
<!-- lib/AccountIdentity.js -->
<g id="node6" class="node">
<title>lib/AccountIdentity.js</title>
<g id="a_node6"><a xlink:href="lib/AccountIdentity.js" xlink:title="AccountIdentity.js">
<path fill="#ffffcc" stroke="#000000" d="M246,-105.6972C246,-105.6972 170,-105.6972 170,-105.6972 167,-105.6972 164,-102.6972 164,-99.6972 164,-99.6972 164,-93.6972 164,-93.6972 164,-90.6972 167,-87.6972 170,-87.6972 170,-87.6972 246,-87.6972 246,-87.6972 249,-87.6972 252,-90.6972 252,-93.6972 252,-93.6972 252,-99.6972 252,-99.6972 252,-102.6972 249,-105.6972 246,-105.6972"/>
<text text-anchor="middle" x="208" y="-94.4972" font-family="Helvetica,sans-Serif" font-size="9.00" fill="#000000">AccountIdentity.js</text>
</a>
</g>
</g>
<!-- lib/Certificate.js&#45;&gt;lib/AccountIdentity.js -->
<g id="edge10" class="edge">
<title>lib/Certificate.js&#45;&gt;lib/AccountIdentity.js</title>
<path fill="none" stroke="#000000" stroke-width="2" stroke-opacity="0.200000" d="M140.0638,-141.6165C143.8834,-139.9119 147.6323,-137.945 151,-135.6972 158.0624,-130.9832 157.3422,-126.9671 164,-121.6972 170.0278,-116.926 177.0754,-112.4957 183.7414,-108.7307"/>
<polygon fill="#000000" fill-opacity="0.200000" stroke="#000000" stroke-width="2" stroke-opacity="0.200000" points="184.9655,-110.4547 189.2203,-105.7317 182.9488,-106.7705 184.9655,-110.4547"/>
</g>
<!-- lib/AcmeRequest.js -->
<g id="node8" class="node">
<title>lib/AcmeRequest.js</title>
<g id="a_node8"><a xlink:href="lib/AcmeRequest.js" xlink:title="AcmeRequest.js">
<path fill="#ffffcc" stroke="#000000" d="M655,-228.6972C655,-228.6972 584,-228.6972 584,-228.6972 581,-228.6972 578,-225.6972 578,-222.6972 578,-222.6972 578,-216.6972 578,-216.6972 578,-213.6972 581,-210.6972 584,-210.6972 584,-210.6972 655,-210.6972 655,-210.6972 658,-210.6972 661,-213.6972 661,-216.6972 661,-216.6972 661,-222.6972 661,-222.6972 661,-225.6972 658,-228.6972 655,-228.6972"/>
<text text-anchor="middle" x="619.5" y="-217.4972" font-family="Helvetica,sans-Serif" font-size="9.00" fill="#000000">AcmeRequest.js</text>
</a>
</g>
</g>
<!-- lib/Certificate.js&#45;&gt;lib/AcmeRequest.js -->
<g id="edge11" class="edge">
<title>lib/Certificate.js&#45;&gt;lib/AcmeRequest.js</title>
<path fill="none" stroke="#000000" stroke-width="2" stroke-opacity="0.200000" d="M144.0894,-141.4709C146.6506,-139.8477 149.0085,-137.9398 151,-135.6972 167.3915,-117.2391 144.6465,-97.0211 164,-81.6972 305.4687,30.3163 422.5489,23.3151 570,-80.6972 590.8999,-95.44 609.3128,-171.7571 616.4021,-204.6188"/>
<polygon fill="#000000" fill-opacity="0.200000" stroke="#000000" stroke-width="2" stroke-opacity="0.200000" points="614.3673,-205.1468 617.6664,-210.5806 618.4759,-204.2755 614.3673,-205.1468"/>
</g>
<!-- lib/CertificateIdentity.js -->
<g id="node14" class="node">
<title>lib/CertificateIdentity.js</title>
<g id="a_node14"><a xlink:href="lib/CertificateIdentity.js" xlink:title="CertificateIdentity.js">
<path fill="#ffffcc" stroke="#000000" d="M355,-126.6972C355,-126.6972 271,-126.6972 271,-126.6972 268,-126.6972 265,-123.6972 265,-120.6972 265,-120.6972 265,-114.6972 265,-114.6972 265,-111.6972 268,-108.6972 271,-108.6972 271,-108.6972 355,-108.6972 355,-108.6972 358,-108.6972 361,-111.6972 361,-114.6972 361,-114.6972 361,-120.6972 361,-120.6972 361,-123.6972 358,-126.6972 355,-126.6972"/>
<text text-anchor="middle" x="313" y="-115.4972" font-family="Helvetica,sans-Serif" font-size="9.00" fill="#000000">CertificateIdentity.js</text>
</a>
</g>
</g>
<!-- lib/Certificate.js&#45;&gt;lib/CertificateIdentity.js -->
<g id="edge12" class="edge">
<title>lib/Certificate.js&#45;&gt;lib/CertificateIdentity.js</title>
<path fill="none" stroke="#000000" stroke-width="2" stroke-opacity="0.200000" d="M139.7381,-141.6278C147.5617,-139.4411 156.0534,-137.2815 164,-135.6972 195.0023,-129.5163 230.085,-125.1511 258.4173,-122.2688"/>
<polygon fill="#000000" fill-opacity="0.200000" stroke="#000000" stroke-width="2" stroke-opacity="0.200000" points="258.963,-124.3249 264.7251,-121.6401 258.5464,-120.1456 258.963,-124.3249"/>
</g>
<!-- lib/Directory.js -->
<g id="node15" class="node">
<title>lib/Directory.js</title>
<g id="a_node15"><a xlink:href="lib/Directory.js" xlink:title="Directory.js">
<path fill="#ffffcc" stroke="#000000" d="M233,-159.6972C233,-159.6972 183,-159.6972 183,-159.6972 180,-159.6972 177,-156.6972 177,-153.6972 177,-153.6972 177,-147.6972 177,-147.6972 177,-144.6972 180,-141.6972 183,-141.6972 183,-141.6972 233,-141.6972 233,-141.6972 236,-141.6972 239,-144.6972 239,-147.6972 239,-147.6972 239,-153.6972 239,-153.6972 239,-156.6972 236,-159.6972 233,-159.6972"/>
<text text-anchor="middle" x="208" y="-148.4972" font-family="Helvetica,sans-Serif" font-size="9.00" fill="#000000">Directory.js</text>
</a>
</g>
</g>
<!-- lib/Certificate.js&#45;&gt;lib/Directory.js -->
<g id="edge13" class="edge">
<title>lib/Certificate.js&#45;&gt;lib/Directory.js</title>
<path fill="none" stroke="#000000" stroke-width="2" stroke-opacity="0.200000" d="M144.054,-150.6972C152.5645,-150.6972 161.7616,-150.6972 170.4559,-150.6972"/>
<polygon fill="#000000" fill-opacity="0.200000" stroke="#000000" stroke-width="2" stroke-opacity="0.200000" points="170.6809,-152.7973 176.6809,-150.6972 170.6809,-148.5973 170.6809,-152.7973"/>
</g>
<!-- lib/Order.js -->
<g id="node16" class="node">
<title>lib/Order.js</title>
<g id="a_node16"><a xlink:href="lib/Order.js" xlink:title="Order.js">
<path fill="#ffffcc" stroke="#000000" d="M229,-191.6972C229,-191.6972 187,-191.6972 187,-191.6972 184,-191.6972 181,-188.6972 181,-185.6972 181,-185.6972 181,-179.6972 181,-179.6972 181,-176.6972 184,-173.6972 187,-173.6972 187,-173.6972 229,-173.6972 229,-173.6972 232,-173.6972 235,-176.6972 235,-179.6972 235,-179.6972 235,-185.6972 235,-185.6972 235,-188.6972 232,-191.6972 229,-191.6972"/>
<text text-anchor="middle" x="208" y="-180.4972" font-family="Helvetica,sans-Serif" font-size="9.00" fill="#000000">Order.js</text>
</a>
</g>
</g>
<!-- lib/Certificate.js&#45;&gt;lib/Order.js -->
<g id="edge14" class="edge">
<title>lib/Certificate.js&#45;&gt;lib/Order.js</title>
<path fill="none" stroke="#000000" stroke-width="2" stroke-opacity="0.200000" d="M138.1788,-159.7815C149.6938,-163.5608 163.1509,-167.9775 175.161,-171.9193"/>
<polygon fill="#000000" fill-opacity="0.200000" stroke="#000000" stroke-width="2" stroke-opacity="0.200000" points="174.5701,-173.9355 180.9258,-173.8113 175.8799,-169.9449 174.5701,-173.9355"/>
</g>
<!-- lib/x.509/cert&#45;info.js -->
<g id="node17" class="node">
<title>lib/x.509/cert&#45;info.js</title>
<g id="a_node17"><a xlink:href="lib/x.509/cert-info.js" xlink:title="cert&#45;info.js">
<path fill="#ffffcc" stroke="#000000" d="M231.5,-306.6972C231.5,-306.6972 184.5,-306.6972 184.5,-306.6972 181.5,-306.6972 178.5,-303.6972 178.5,-300.6972 178.5,-300.6972 178.5,-294.6972 178.5,-294.6972 178.5,-291.6972 181.5,-288.6972 184.5,-288.6972 184.5,-288.6972 231.5,-288.6972 231.5,-288.6972 234.5,-288.6972 237.5,-291.6972 237.5,-294.6972 237.5,-294.6972 237.5,-300.6972 237.5,-300.6972 237.5,-303.6972 234.5,-306.6972 231.5,-306.6972"/>
<text text-anchor="middle" x="208" y="-295.4972" font-family="Helvetica,sans-Serif" font-size="9.00" fill="#000000">cert&#45;info.js</text>
</a>
</g>
</g>
<!-- lib/Certificate.js&#45;&gt;lib/x.509/cert&#45;info.js -->
<g id="edge15" class="edge">
<title>lib/Certificate.js&#45;&gt;lib/x.509/cert&#45;info.js</title>
<path fill="none" stroke="#000000" stroke-width="2" stroke-opacity="0.200000" d="M111.4178,-159.7066C114.35,-183.7134 125.6773,-249.7678 164,-284.6972 166.5019,-286.9776 169.3859,-288.8591 172.456,-290.4114"/>
<polygon fill="#000000" fill-opacity="0.200000" stroke="#000000" stroke-width="2" stroke-opacity="0.200000" points="171.7999,-292.4154 178.1409,-292.8648 173.4642,-288.5592 171.7999,-292.4154"/>
</g>
<!-- lib/acme&#45;requests/NewAccountRequest.js -->
<g id="node5" class="node">
<title>lib/acme&#45;requests/NewAccountRequest.js</title>
<g id="a_node5"><a xlink:href="lib/acme-requests/NewAccountRequest.js" xlink:title="NewAccountRequest.js">
<path fill="#ffffcc" stroke="#000000" d="M519.5,-318.6972C519.5,-318.6972 419.5,-318.6972 419.5,-318.6972 416.5,-318.6972 413.5,-315.6972 413.5,-312.6972 413.5,-312.6972 413.5,-306.6972 413.5,-306.6972 413.5,-303.6972 416.5,-300.6972 419.5,-300.6972 419.5,-300.6972 519.5,-300.6972 519.5,-300.6972 522.5,-300.6972 525.5,-303.6972 525.5,-306.6972 525.5,-306.6972 525.5,-312.6972 525.5,-312.6972 525.5,-315.6972 522.5,-318.6972 519.5,-318.6972"/>
<text text-anchor="middle" x="469.5" y="-307.4972" font-family="Helvetica,sans-Serif" font-size="9.00" fill="#000000">NewAccountRequest.js</text>
</a>
</g>
</g>
<!-- lib/Account.js&#45;&gt;lib/acme&#45;requests/NewAccountRequest.js -->
<g id="edge3" class="edge">
<title>lib/Account.js&#45;&gt;lib/acme&#45;requests/NewAccountRequest.js</title>
<path fill="none" stroke="#000000" stroke-width="2" stroke-opacity="0.200000" d="M342.633,-268.1294C349.2213,-270.2016 355.7877,-273.2408 361,-277.6972 367.3469,-283.1236 362.3,-289.7134 369,-294.6972 379.9858,-302.8691 393.548,-307.4646 407.1144,-309.9013"/>
<polygon fill="#000000" fill-opacity="0.200000" stroke="#000000" stroke-width="2" stroke-opacity="0.200000" points="407.0864,-312.0223 413.3387,-310.874 407.735,-307.8727 407.0864,-312.0223"/>
</g>
<!-- lib/acme&#45;requests/NewAccountRequest.js&#45;&gt;lib/AcmeRequest.js -->
<g id="edge27" class="edge">
<title>lib/acme&#45;requests/NewAccountRequest.js&#45;&gt;lib/AcmeRequest.js</title>
<path fill="none" stroke="#000000" stroke-width="2" stroke-opacity="0.200000" d="M525.6279,-309.5822C540.9461,-307.427 556.9117,-303.0457 570,-294.6972 592.2576,-280.5 606.7185,-252.3017 613.9649,-234.8152"/>
<polygon fill="#000000" fill-opacity="0.200000" stroke="#000000" stroke-width="2" stroke-opacity="0.200000" points="616.0496,-235.2549 616.3093,-228.9033 612.1454,-233.7066 616.0496,-235.2549"/>
</g>
<!-- lib/Identity.js -->
<g id="node7" class="node">
<title>lib/Identity.js</title>
<g id="a_node7"><a xlink:href="lib/Identity.js" xlink:title="Identity.js">
<path fill="#ffffcc" stroke="#000000" d="M491,-104.6972C491,-104.6972 448,-104.6972 448,-104.6972 445,-104.6972 442,-101.6972 442,-98.6972 442,-98.6972 442,-92.6972 442,-92.6972 442,-89.6972 445,-86.6972 448,-86.6972 448,-86.6972 491,-86.6972 491,-86.6972 494,-86.6972 497,-89.6972 497,-92.6972 497,-92.6972 497,-98.6972 497,-98.6972 497,-101.6972 494,-104.6972 491,-104.6972"/>
<text text-anchor="middle" x="469.5" y="-93.4972" font-family="Helvetica,sans-Serif" font-size="9.00" fill="#000000">Identity.js</text>
</a>
</g>
</g>
<!-- lib/AccountIdentity.js&#45;&gt;lib/Identity.js -->
<g id="edge4" class="edge">
<title>lib/AccountIdentity.js&#45;&gt;lib/Identity.js</title>
<path fill="none" stroke="#000000" stroke-width="2" stroke-opacity="0.200000" d="M252.0642,-96.5287C303.885,-96.3305 388.77,-96.0059 435.6818,-95.8265"/>
<polygon fill="#000000" fill-opacity="0.200000" stroke="#000000" stroke-width="2" stroke-opacity="0.200000" points="435.7725,-97.9263 441.7644,-95.8032 435.7564,-93.7263 435.7725,-97.9263"/>
</g>
<!-- lib/Nonce.js -->
<g id="node9" class="node">
<title>lib/Nonce.js</title>
<g id="a_node9"><a xlink:href="lib/Nonce.js" xlink:title="Nonce.js">
<path fill="#ffffcc" stroke="#000000" d="M722,-228.6972C722,-228.6972 680,-228.6972 680,-228.6972 677,-228.6972 674,-225.6972 674,-222.6972 674,-222.6972 674,-216.6972 674,-216.6972 674,-213.6972 677,-210.6972 680,-210.6972 680,-210.6972 722,-210.6972 722,-210.6972 725,-210.6972 728,-213.6972 728,-216.6972 728,-216.6972 728,-222.6972 728,-222.6972 728,-225.6972 725,-228.6972 722,-228.6972"/>
<text text-anchor="middle" x="701" y="-217.4972" font-family="Helvetica,sans-Serif" font-size="9.00" fill="#000000">Nonce.js</text>
</a>
</g>
</g>
<!-- lib/AcmeRequest.js&#45;&gt;lib/Nonce.js -->
<g id="edge5" class="edge">
<title>lib/AcmeRequest.js&#45;&gt;lib/Nonce.js</title>
<path fill="none" stroke="#000000" stroke-width="2" stroke-opacity="0.200000" d="M661.205,-219.6972C663.3198,-219.6972 665.4312,-219.6972 667.5164,-219.6972"/>
<polygon fill="#000000" fill-opacity="0.200000" stroke="#000000" stroke-width="2" stroke-opacity="0.200000" points="667.6704,-221.7973 673.6704,-219.6972 667.6704,-217.5973 667.6704,-221.7973"/>
</g>
<!-- lib/Authorisation.js -->
<g id="node10" class="node">
<title>lib/Authorisation.js</title>
<g id="a_node10"><a xlink:href="lib/Authorisation.js" xlink:title="Authorisation.js">
<path fill="#ffffcc" stroke="#000000" d="M347,-170.6972C347,-170.6972 279,-170.6972 279,-170.6972 276,-170.6972 273,-167.6972 273,-164.6972 273,-164.6972 273,-158.6972 273,-158.6972 273,-155.6972 276,-152.6972 279,-152.6972 279,-152.6972 347,-152.6972 347,-152.6972 350,-152.6972 353,-155.6972 353,-158.6972 353,-158.6972 353,-164.6972 353,-164.6972 353,-167.6972 350,-170.6972 347,-170.6972"/>
<text text-anchor="middle" x="313" y="-159.4972" font-family="Helvetica,sans-Serif" font-size="9.00" fill="#000000">Authorisation.js</text>
</a>
</g>
</g>
<!-- lib/acme&#45;requests/AuthorisationRequest.js -->
<g id="node11" class="node">
<title>lib/acme&#45;requests/AuthorisationRequest.js</title>
<g id="a_node11"><a xlink:href="lib/acme-requests/AuthorisationRequest.js" xlink:title="AuthorisationRequest.js">
<path fill="#ffffcc" stroke="#000000" d="M520.5,-168.6972C520.5,-168.6972 418.5,-168.6972 418.5,-168.6972 415.5,-168.6972 412.5,-165.6972 412.5,-162.6972 412.5,-162.6972 412.5,-156.6972 412.5,-156.6972 412.5,-153.6972 415.5,-150.6972 418.5,-150.6972 418.5,-150.6972 520.5,-150.6972 520.5,-150.6972 523.5,-150.6972 526.5,-153.6972 526.5,-156.6972 526.5,-156.6972 526.5,-162.6972 526.5,-162.6972 526.5,-165.6972 523.5,-168.6972 520.5,-168.6972"/>
<text text-anchor="middle" x="469.5" y="-157.4972" font-family="Helvetica,sans-Serif" font-size="9.00" fill="#000000">AuthorisationRequest.js</text>
</a>
</g>
</g>
<!-- lib/Authorisation.js&#45;&gt;lib/acme&#45;requests/AuthorisationRequest.js -->
<g id="edge6" class="edge">
<title>lib/Authorisation.js&#45;&gt;lib/acme&#45;requests/AuthorisationRequest.js</title>
<path fill="none" stroke="#000000" stroke-width="2" stroke-opacity="0.200000" d="M353.3026,-161.1821C369.4135,-160.9762 388.3561,-160.7342 406.2178,-160.5059"/>
<polygon fill="#000000" fill-opacity="0.200000" stroke="#000000" stroke-width="2" stroke-opacity="0.200000" points="406.2556,-162.6057 412.2282,-160.4291 406.2018,-158.406 406.2556,-162.6057"/>
</g>
<!-- lib/acme&#45;requests/ReadyForChallengeValidationRequest.js -->
<g id="node12" class="node">
<title>lib/acme&#45;requests/ReadyForChallengeValidationRequest.js</title>
<g id="a_node12"><a xlink:href="lib/acme-requests/ReadyForChallengeValidationRequest.js" xlink:title="ReadyForChallengeValidationRequest.js">
<path fill="#ffffcc" stroke="#000000" d="M556,-198.6972C556,-198.6972 383,-198.6972 383,-198.6972 380,-198.6972 377,-195.6972 377,-192.6972 377,-192.6972 377,-186.6972 377,-186.6972 377,-183.6972 380,-180.6972 383,-180.6972 383,-180.6972 556,-180.6972 556,-180.6972 559,-180.6972 562,-183.6972 562,-186.6972 562,-186.6972 562,-192.6972 562,-192.6972 562,-195.6972 559,-198.6972 556,-198.6972"/>
<text text-anchor="middle" x="469.5" y="-187.4972" font-family="Helvetica,sans-Serif" font-size="9.00" fill="#000000">ReadyForChallengeValidationRequest.js</text>
</a>
</g>
</g>
<!-- lib/Authorisation.js&#45;&gt;lib/acme&#45;requests/ReadyForChallengeValidationRequest.js -->
<g id="edge7" class="edge">
<title>lib/Authorisation.js&#45;&gt;lib/acme&#45;requests/ReadyForChallengeValidationRequest.js</title>
<path fill="none" stroke="#000000" stroke-width="2" stroke-opacity="0.200000" d="M349.9624,-170.7176C356.2949,-172.1367 362.8231,-173.5212 369,-174.6972 378.3284,-176.4731 388.1771,-178.1654 397.9151,-179.7307"/>
<polygon fill="#000000" fill-opacity="0.200000" stroke="#000000" stroke-width="2" stroke-opacity="0.200000" points="397.7035,-181.8233 403.9583,-180.6885 398.3611,-177.6751 397.7035,-181.8233"/>
</g>
<!-- lib/ChallengeServer.js -->
<g id="node13" class="node">
<title>lib/ChallengeServer.js</title>
<g id="a_node13"><a xlink:href="lib/ChallengeServer.js" xlink:title="ChallengeServer.js">
<path fill="#ffffcc" stroke="#000000" d="M511,-134.6972C511,-134.6972 428,-134.6972 428,-134.6972 425,-134.6972 422,-131.6972 422,-128.6972 422,-128.6972 422,-122.6972 422,-122.6972 422,-119.6972 425,-116.6972 428,-116.6972 428,-116.6972 511,-116.6972 511,-116.6972 514,-116.6972 517,-119.6972 517,-122.6972 517,-122.6972 517,-128.6972 517,-128.6972 517,-131.6972 514,-134.6972 511,-134.6972"/>
<text text-anchor="middle" x="469.5" y="-123.4972" font-family="Helvetica,sans-Serif" font-size="9.00" fill="#000000">ChallengeServer.js</text>
</a>
</g>
</g>
<!-- lib/Authorisation.js&#45;&gt;lib/ChallengeServer.js -->
<g id="edge8" class="edge">
<title>lib/Authorisation.js&#45;&gt;lib/ChallengeServer.js</title>
<path fill="none" stroke="#000000" stroke-width="2" stroke-opacity="0.200000" d="M338.6084,-152.6605C345.9055,-149.933 353.8209,-146.8278 361,-143.6972 364.6438,-142.1082 365.2035,-140.8759 369,-139.6972 383.8526,-135.086 400.413,-131.9902 415.7369,-129.913"/>
<polygon fill="#000000" fill-opacity="0.200000" stroke="#000000" stroke-width="2" stroke-opacity="0.200000" points="416.0836,-131.9859 421.7671,-129.1386 415.5485,-127.8201 416.0836,-131.9859"/>
</g>
<!-- lib/acme&#45;requests/AuthorisationRequest.js&#45;&gt;lib/AcmeRequest.js -->
<g id="edge24" class="edge">
<title>lib/acme&#45;requests/AuthorisationRequest.js&#45;&gt;lib/AcmeRequest.js</title>
<path fill="none" stroke="#000000" stroke-width="2" stroke-opacity="0.200000" d="M526.5086,-162.3101C541.1891,-164.5469 556.6118,-168.3453 570,-174.6972 585.1494,-181.8846 598.9551,-195.2776 608.1144,-205.5908"/>
<polygon fill="#000000" fill-opacity="0.200000" stroke="#000000" stroke-width="2" stroke-opacity="0.200000" points="606.7176,-207.1873 612.223,-210.3655 609.9013,-204.4478 606.7176,-207.1873"/>
</g>
<!-- lib/acme&#45;requests/ReadyForChallengeValidationRequest.js&#45;&gt;lib/AcmeRequest.js -->
<g id="edge29" class="edge">
<title>lib/acme&#45;requests/ReadyForChallengeValidationRequest.js&#45;&gt;lib/AcmeRequest.js</title>
<path fill="none" stroke="#000000" stroke-width="2" stroke-opacity="0.200000" d="M538.9465,-198.7075C549.3995,-200.4547 560.0174,-202.4523 570,-204.6972 575.34,-205.898 580.9433,-207.3774 586.3818,-208.9346"/>
<polygon fill="#000000" fill-opacity="0.200000" stroke="#000000" stroke-width="2" stroke-opacity="0.200000" points="585.8495,-210.9669 592.1982,-210.6453 587.0346,-206.9376 585.8495,-210.9669"/>
</g>
<!-- lib/CertificateIdentity.js&#45;&gt;lib/Identity.js -->
<g id="edge16" class="edge">
<title>lib/CertificateIdentity.js&#45;&gt;lib/Identity.js</title>
<path fill="none" stroke="#000000" stroke-width="2" stroke-opacity="0.200000" d="M361.2322,-110.9169C385.3676,-107.5241 413.9937,-103.5 435.7474,-100.4419"/>
<polygon fill="#000000" fill-opacity="0.200000" stroke="#000000" stroke-width="2" stroke-opacity="0.200000" points="436.0422,-102.5213 441.6914,-99.6064 435.4575,-98.3621 436.0422,-102.5213"/>
</g>
<!-- lib/Order.js&#45;&gt;lib/Authorisation.js -->
<g id="edge21" class="edge">
<title>lib/Order.js&#45;&gt;lib/Authorisation.js</title>
<path fill="none" stroke="#000000" stroke-width="2" stroke-opacity="0.200000" d="M235.0401,-177.2892C244.7812,-175.3409 256.0653,-173.0841 266.9711,-170.903"/>
<polygon fill="#000000" fill-opacity="0.200000" stroke="#000000" stroke-width="2" stroke-opacity="0.200000" points="267.5071,-172.9374 272.9787,-169.7014 266.6834,-168.819 267.5071,-172.9374"/>
</g>
<!-- lib/Order.js&#45;&gt;lib/ChallengeServer.js -->
<g id="edge23" class="edge">
<title>lib/Order.js&#45;&gt;lib/ChallengeServer.js</title>
<path fill="none" stroke="#000000" stroke-width="2" stroke-opacity="0.200000" d="M235.4318,-175.0327C241.2604,-172.6286 247.1206,-169.5607 252,-165.6972 260.0217,-159.3456 256.2059,-151.9273 265,-146.6972 277.6896,-139.1503 359.4137,-132.5859 415.6271,-128.8869"/>
<polygon fill="#000000" fill-opacity="0.200000" stroke="#000000" stroke-width="2" stroke-opacity="0.200000" points="415.8147,-130.9792 421.6657,-128.4941 415.542,-126.7881 415.8147,-130.9792"/>
</g>
<!-- lib/Order.js&#45;&gt;lib/CertificateIdentity.js -->
<g id="edge22" class="edge">
<title>lib/Order.js&#45;&gt;lib/CertificateIdentity.js</title>
<path fill="none" stroke="#000000" stroke-width="2" stroke-opacity="0.200000" d="M235.0954,-176.0754C241.2066,-173.5977 247.2753,-170.2356 252,-165.6972 262.4797,-155.6306 254.4704,-145.7116 265,-135.6972 267.4184,-133.3971 270.1582,-131.3846 273.0735,-129.6249"/>
<polygon fill="#000000" fill-opacity="0.200000" stroke="#000000" stroke-width="2" stroke-opacity="0.200000" points="274.1859,-131.4112 278.4787,-126.7227 272.1991,-127.7108 274.1859,-131.4112"/>
</g>
<!-- lib/acme&#45;requests/CertificateRequest.js -->
<g id="node18" class="node">
<title>lib/acme&#45;requests/CertificateRequest.js</title>
<g id="a_node18"><a xlink:href="lib/acme-requests/CertificateRequest.js" xlink:title="CertificateRequest.js">
<path fill="#ffffcc" stroke="#000000" d="M514,-288.6972C514,-288.6972 425,-288.6972 425,-288.6972 422,-288.6972 419,-285.6972 419,-282.6972 419,-282.6972 419,-276.6972 419,-276.6972 419,-273.6972 422,-270.6972 425,-270.6972 425,-270.6972 514,-270.6972 514,-270.6972 517,-270.6972 520,-273.6972 520,-276.6972 520,-276.6972 520,-282.6972 520,-282.6972 520,-285.6972 517,-288.6972 514,-288.6972"/>
<text text-anchor="middle" x="469.5" y="-277.4972" font-family="Helvetica,sans-Serif" font-size="9.00" fill="#000000">CertificateRequest.js</text>
</a>
</g>
</g>
<!-- lib/Order.js&#45;&gt;lib/acme&#45;requests/CertificateRequest.js -->
<g id="edge17" class="edge">
<title>lib/Order.js&#45;&gt;lib/acme&#45;requests/CertificateRequest.js</title>
<path fill="none" stroke="#000000" stroke-width="2" stroke-opacity="0.200000" d="M229.3325,-191.6992C239.9035,-195.8642 252.9549,-200.5703 265,-203.6972 285.8994,-209.1227 345.6013,-203.561 361,-218.6972 375.799,-233.2439 354.1514,-250.2011 369,-264.6972 380.5339,-275.9572 396.6373,-281.0903 412.5789,-283.0356"/>
<polygon fill="#000000" fill-opacity="0.200000" stroke="#000000" stroke-width="2" stroke-opacity="0.200000" points="412.7332,-285.1603 418.9078,-283.6487 413.1382,-280.9799 412.7332,-285.1603"/>
</g>
<!-- lib/acme&#45;requests/FinaliseOrderRequest.js -->
<g id="node19" class="node">
<title>lib/acme&#45;requests/FinaliseOrderRequest.js</title>
<g id="a_node19"><a xlink:href="lib/acme-requests/FinaliseOrderRequest.js" xlink:title="FinaliseOrderRequest.js">
<path fill="#ffffcc" stroke="#000000" d="M521.5,-228.6972C521.5,-228.6972 417.5,-228.6972 417.5,-228.6972 414.5,-228.6972 411.5,-225.6972 411.5,-222.6972 411.5,-222.6972 411.5,-216.6972 411.5,-216.6972 411.5,-213.6972 414.5,-210.6972 417.5,-210.6972 417.5,-210.6972 521.5,-210.6972 521.5,-210.6972 524.5,-210.6972 527.5,-213.6972 527.5,-216.6972 527.5,-216.6972 527.5,-222.6972 527.5,-222.6972 527.5,-225.6972 524.5,-228.6972 521.5,-228.6972"/>
<text text-anchor="middle" x="469.5" y="-217.4972" font-family="Helvetica,sans-Serif" font-size="9.00" fill="#000000">FinaliseOrderRequest.js</text>
</a>
</g>
</g>
<!-- lib/Order.js&#45;&gt;lib/acme&#45;requests/FinaliseOrderRequest.js -->
<g id="edge18" class="edge">
<title>lib/Order.js&#45;&gt;lib/acme&#45;requests/FinaliseOrderRequest.js</title>
<path fill="none" stroke="#000000" stroke-width="2" stroke-opacity="0.200000" d="M235.2244,-181.9485C273.2901,-181.3545 340.104,-182.0941 361,-193.6972 366.285,-196.6318 363.8309,-201.5629 369,-204.6972 379.8245,-211.2607 392.477,-215.3232 405.0822,-217.7711"/>
<polygon fill="#000000" fill-opacity="0.200000" stroke="#000000" stroke-width="2" stroke-opacity="0.200000" points="404.9868,-219.886 411.2582,-218.8469 405.7077,-215.7483 404.9868,-219.886"/>
</g>
<!-- lib/acme&#45;requests/NewOrderRequest.js -->
<g id="node20" class="node">
<title>lib/acme&#45;requests/NewOrderRequest.js</title>
<g id="a_node20"><a xlink:href="lib/acme-requests/NewOrderRequest.js" xlink:title="NewOrderRequest.js">
<path fill="#ffffcc" stroke="#000000" d="M514.5,-258.6972C514.5,-258.6972 424.5,-258.6972 424.5,-258.6972 421.5,-258.6972 418.5,-255.6972 418.5,-252.6972 418.5,-252.6972 418.5,-246.6972 418.5,-246.6972 418.5,-243.6972 421.5,-240.6972 424.5,-240.6972 424.5,-240.6972 514.5,-240.6972 514.5,-240.6972 517.5,-240.6972 520.5,-243.6972 520.5,-246.6972 520.5,-246.6972 520.5,-252.6972 520.5,-252.6972 520.5,-255.6972 517.5,-258.6972 514.5,-258.6972"/>
<text text-anchor="middle" x="469.5" y="-247.4972" font-family="Helvetica,sans-Serif" font-size="9.00" fill="#000000">NewOrderRequest.js</text>
</a>
</g>
</g>
<!-- lib/Order.js&#45;&gt;lib/acme&#45;requests/NewOrderRequest.js -->
<g id="edge19" class="edge">
<title>lib/Order.js&#45;&gt;lib/acme&#45;requests/NewOrderRequest.js</title>
<path fill="none" stroke="#000000" stroke-width="2" stroke-opacity="0.200000" d="M235.2247,-187.0534C279.0435,-194.0773 360.41,-207.1772 361,-207.6972 370.3899,-215.9719 359.5532,-226.4874 369,-234.6972 380.8727,-245.0151 396.6666,-249.9653 412.2101,-252.0352"/>
<polygon fill="#000000" fill-opacity="0.200000" stroke="#000000" stroke-width="2" stroke-opacity="0.200000" points="412.1834,-254.1448 418.377,-252.7131 412.6424,-249.97 412.1834,-254.1448"/>
</g>
<!-- lib/acmeCsr.js -->
<g id="node21" class="node">
<title>lib/acmeCsr.js</title>
<g id="a_node21"><a xlink:href="lib/acmeCsr.js" xlink:title="acmeCsr.js">
<path fill="#ffffcc" stroke="#000000" d="M338,-242.6972C338,-242.6972 288,-242.6972 288,-242.6972 285,-242.6972 282,-239.6972 282,-236.6972 282,-236.6972 282,-230.6972 282,-230.6972 282,-227.6972 285,-224.6972 288,-224.6972 288,-224.6972 338,-224.6972 338,-224.6972 341,-224.6972 344,-227.6972 344,-230.6972 344,-230.6972 344,-236.6972 344,-236.6972 344,-239.6972 341,-242.6972 338,-242.6972"/>
<text text-anchor="middle" x="313" y="-231.4972" font-family="Helvetica,sans-Serif" font-size="9.00" fill="#000000">acmeCsr.js</text>
</a>
</g>
</g>
<!-- lib/Order.js&#45;&gt;lib/acmeCsr.js -->
<g id="edge20" class="edge">
<title>lib/Order.js&#45;&gt;lib/acmeCsr.js</title>
<path fill="none" stroke="#000000" stroke-width="2" stroke-opacity="0.200000" d="M222.1687,-191.7861C233.4909,-198.8297 249.9083,-208.5594 265,-215.6972 270.0222,-218.0725 275.449,-220.3596 280.7847,-222.4603"/>
<polygon fill="#000000" fill-opacity="0.200000" stroke="#000000" stroke-width="2" stroke-opacity="0.200000" points="280.1611,-224.4704 286.5151,-224.6621 281.6675,-220.5498 280.1611,-224.4704"/>
</g>
<!-- lib/x.509/asn1&#45;parser.js -->
<g id="node22" class="node">
<title>lib/x.509/asn1&#45;parser.js</title>
<g id="a_node22"><a xlink:href="lib/x.509/asn1-parser.js" xlink:title="asn1&#45;parser.js">
<path fill="#ffffcc" stroke="#000000" d="M344.5,-306.6972C344.5,-306.6972 281.5,-306.6972 281.5,-306.6972 278.5,-306.6972 275.5,-303.6972 275.5,-300.6972 275.5,-300.6972 275.5,-294.6972 275.5,-294.6972 275.5,-291.6972 278.5,-288.6972 281.5,-288.6972 281.5,-288.6972 344.5,-288.6972 344.5,-288.6972 347.5,-288.6972 350.5,-291.6972 350.5,-294.6972 350.5,-294.6972 350.5,-300.6972 350.5,-300.6972 350.5,-303.6972 347.5,-306.6972 344.5,-306.6972"/>
<text text-anchor="middle" x="313" y="-295.4972" font-family="Helvetica,sans-Serif" font-size="9.00" fill="#000000">asn1&#45;parser.js</text>
</a>
</g>
</g>
<!-- lib/x.509/cert&#45;info.js&#45;&gt;lib/x.509/asn1&#45;parser.js -->
<g id="edge30" class="edge">
<title>lib/x.509/cert&#45;info.js&#45;&gt;lib/x.509/asn1&#45;parser.js</title>
<path fill="none" stroke="#000000" stroke-width="2" stroke-opacity="0.200000" d="M237.5278,-297.6972C247.3646,-297.6972 258.5418,-297.6972 269.2233,-297.6972"/>
<polygon fill="#000000" fill-opacity="0.200000" stroke="#000000" stroke-width="2" stroke-opacity="0.200000" points="269.4413,-299.7973 275.4413,-297.6972 269.4412,-295.5973 269.4413,-299.7973"/>
</g>
<!-- lib/acme&#45;requests/CertificateRequest.js&#45;&gt;lib/AcmeRequest.js -->
<g id="edge25" class="edge">
<title>lib/acme&#45;requests/CertificateRequest.js&#45;&gt;lib/AcmeRequest.js</title>
<path fill="none" stroke="#000000" stroke-width="2" stroke-opacity="0.200000" d="M520.0133,-277.9824C536.554,-275.9214 554.6195,-271.9942 570,-264.6972 585.1494,-257.5098 598.9551,-244.1167 608.1144,-233.8036"/>
<polygon fill="#000000" fill-opacity="0.200000" stroke="#000000" stroke-width="2" stroke-opacity="0.200000" points="609.9013,-234.9466 612.223,-229.0288 606.7176,-232.2071 609.9013,-234.9466"/>
</g>
<!-- lib/acme&#45;requests/FinaliseOrderRequest.js&#45;&gt;lib/AcmeRequest.js -->
<g id="edge26" class="edge">
<title>lib/acme&#45;requests/FinaliseOrderRequest.js&#45;&gt;lib/AcmeRequest.js</title>
<path fill="none" stroke="#000000" stroke-width="2" stroke-opacity="0.200000" d="M527.9234,-219.6972C542.3332,-219.6972 557.6023,-219.6972 571.4561,-219.6972"/>
<polygon fill="#000000" fill-opacity="0.200000" stroke="#000000" stroke-width="2" stroke-opacity="0.200000" points="571.7136,-221.7973 577.7135,-219.6972 571.7135,-217.5973 571.7136,-221.7973"/>
</g>
<!-- lib/acme&#45;requests/NewOrderRequest.js&#45;&gt;lib/AcmeRequest.js -->
<g id="edge28" class="edge">
<title>lib/acme&#45;requests/NewOrderRequest.js&#45;&gt;lib/AcmeRequest.js</title>
<path fill="none" stroke="#000000" stroke-width="2" stroke-opacity="0.200000" d="M520.6368,-243.5381C536.5429,-241.2286 554.0795,-238.2773 570,-234.6972 575.34,-233.4963 580.9433,-232.017 586.3818,-230.4598"/>
<polygon fill="#000000" fill-opacity="0.200000" stroke="#000000" stroke-width="2" stroke-opacity="0.200000" points="587.0346,-232.4568 592.1982,-228.749 585.8495,-228.4275 587.0346,-232.4568"/>
</g>
</g>
</svg>
