<?xml version="1.0" encoding="UTF-8" standalone="no"?>
<!DOCTYPE svg PUBLIC "-//W3C//DTD SVG 1.1//EN"
 "http://www.w3.org/Graphics/SVG/1.1/DTD/svg11.dtd">
<!-- Generated by graphviz version 2.40.1 (20161225.0304)
 -->
<!-- Title: dependency&#45;cruiser output Pages: 1 -->
<svg width="770pt" height="356pt"
 viewBox="0.00 0.00 770.00 356.00" xmlns="http://www.w3.org/2000/svg" xmlns:xlink="http://www.w3.org/1999/xlink">
<g id="graph0" class="graph" transform="scale(1 1) rotate(0) translate(4 352)">
<title>dependency&#45;cruiser output</title>
<polygon fill="#ffffff" stroke="transparent" points="-4,4 -4,-352 766,-352 766,4 -4,4"/>
<g id="clust1" class="cluster">
<title>cluster_lib</title>
<path fill="#ffffff" stroke="#000000" stroke-width="2" d="M74,-8C74,-8 742,-8 742,-8 748,-8 754,-14 754,-20 754,-20 754,-328 754,-328 754,-334 748,-340 742,-340 742,-340 74,-340 74,-340 68,-340 62,-334 62,-328 62,-328 62,-20 62,-20 62,-14 68,-8 74,-8"/>
<text text-anchor="middle" x="408" y="-328.8" font-family="Helvetica,sans-Serif" font-weight="bold" font-size="9.00" fill="#000000">lib</text>
</g>
<g id="clust2" class="cluster">
<title>cluster_lib/acme&#45;requests</title>
<path fill="#ffffff" stroke="#000000" stroke-width="2" d="M399,-26C399,-26 576,-26 576,-26 582,-26 588,-32 588,-38 588,-38 588,-246 588,-246 588,-252 582,-258 576,-258 576,-258 399,-258 399,-258 393,-258 387,-252 387,-246 387,-246 387,-38 387,-38 387,-32 393,-26 399,-26"/>
<text text-anchor="middle" x="487.5" y="-246.8" font-family="Helvetica,sans-Serif" font-weight="bold" font-size="9.00" fill="#000000">acme&#45;requests</text>
</g>
<g id="clust3" class="cluster">
<title>cluster_lib/identities</title>
<path fill="#ffffff" stroke="#000000" stroke-width="2" d="M279,-224C279,-224 367,-224 367,-224 373,-224 379,-230 379,-236 379,-236 379,-294 379,-294 379,-300 373,-306 367,-306 367,-306 279,-306 279,-306 273,-306 267,-300 267,-294 267,-294 267,-236 267,-236 267,-230 273,-224 279,-224"/>
<text text-anchor="middle" x="323" y="-294.8" font-family="Helvetica,sans-Serif" font-weight="bold" font-size="9.00" fill="#000000">identities</text>
</g>
<g id="clust4" class="cluster">
<title>cluster_lib/staging</title>
<path fill="#ffffff" stroke="#000000" stroke-width="2" d="M82,-173C82,-173 167,-173 167,-173 173,-173 179,-179 179,-185 179,-185 179,-213 179,-213 179,-219 173,-225 167,-225 167,-225 82,-225 82,-225 76,-225 70,-219 70,-213 70,-213 70,-185 70,-185 70,-179 76,-173 82,-173"/>
<text text-anchor="middle" x="124.5" y="-213.8" font-family="Helvetica,sans-Serif" font-weight="bold" font-size="9.00" fill="#000000">staging</text>
</g>
<g id="clust5" class="cluster">
<title>cluster_lib/x.509</title>
<path fill="#ffffff" stroke="#000000" stroke-width="2" d="M199,-201C199,-201 247,-201 247,-201 253,-201 259,-207 259,-213 259,-213 259,-241 259,-241 259,-247 253,-253 247,-253 247,-253 199,-253 199,-253 193,-253 187,-247 187,-241 187,-241 187,-213 187,-213 187,-207 193,-201 199,-201"/>
<text text-anchor="middle" x="223" y="-241.8" font-family="Helvetica,sans-Serif" font-weight="bold" font-size="9.00" fill="#000000">x.509</text>
</g>
<!-- index.js -->
<g id="node1" class="node">
<title>index.js</title>
<g id="a_node1"><a xlink:href="index.js" xlink:title="index.js">
<path fill="#ffffcc" stroke="#000000" d="M48,-150C48,-150 6,-150 6,-150 3,-150 0,-147 0,-144 0,-144 0,-138 0,-138 0,-135 3,-132 6,-132 6,-132 48,-132 48,-132 51,-132 54,-135 54,-138 54,-138 54,-144 54,-144 54,-147 51,-150 48,-150"/>
<text text-anchor="middle" x="27" y="-138.8" font-family="Helvetica,sans-Serif" font-size="9.00" fill="#000000">index.js</text>
</a>
</g>
</g>
<!-- lib/Certificate.js -->
<g id="node2" class="node">
<title>lib/Certificate.js</title>
<g id="a_node2"><a xlink:href="lib/Certificate.js" xlink:title="Certificate.js">
<path fill="#ffffcc" stroke="#000000" d="M152,-165C152,-165 97,-165 97,-165 94,-165 91,-162 91,-159 91,-159 91,-153 91,-153 91,-150 94,-147 97,-147 97,-147 152,-147 152,-147 155,-147 158,-150 158,-153 158,-153 158,-159 158,-159 158,-162 155,-165 152,-165"/>
<text text-anchor="middle" x="124.5" y="-153.8" font-family="Helvetica,sans-Serif" font-size="9.00" fill="#000000">Certificate.js</text>
</a>
</g>
</g>
<!-- index.js&#45;&gt;lib/Certificate.js -->
<g id="edge1" class="edge">
<title>index.js&#45;&gt;lib/Certificate.js</title>
<path fill="none" stroke="#000000" stroke-width="2" stroke-opacity="0.200000" d="M54.1592,-145.1783C63.6738,-146.6421 74.5636,-148.3175 84.8864,-149.9056"/>
<polygon fill="#000000" fill-opacity="0.200000" stroke="#000000" stroke-width="2" stroke-opacity="0.200000" points="84.6346,-151.9915 90.8842,-150.8283 85.2733,-147.8403 84.6346,-151.9915"/>
</g>
<!-- lib/Configuration.js -->
<g id="node3" class="node">
<title>lib/Configuration.js</title>
<g id="a_node3"><a xlink:href="lib/Configuration.js" xlink:title="Configuration.js">
<path fill="#ffffcc" stroke="#000000" d="M159,-135C159,-135 90,-135 90,-135 87,-135 84,-132 84,-129 84,-129 84,-123 84,-123 84,-120 87,-117 90,-117 90,-117 159,-117 159,-117 162,-117 165,-120 165,-123 165,-123 165,-129 165,-129 165,-132 162,-135 159,-135"/>
<text text-anchor="middle" x="124.5" y="-123.8" font-family="Helvetica,sans-Serif" font-size="9.00" fill="#000000">Configuration.js</text>
</a>
</g>
</g>
<!-- index.js&#45;&gt;lib/Configuration.js -->
<g id="edge2" class="edge">
<title>index.js&#45;&gt;lib/Configuration.js</title>
<path fill="none" stroke="#000000" stroke-width="2" stroke-opacity="0.200000" d="M54.1592,-136.8217C61.523,-135.6888 69.7104,-134.4292 77.8213,-133.1813"/>
<polygon fill="#000000" fill-opacity="0.200000" stroke="#000000" stroke-width="2" stroke-opacity="0.200000" points="78.383,-135.2197 83.9939,-132.2317 77.7443,-131.0686 78.383,-135.2197"/>
</g>
<!-- lib/LetsEncryptServer.js -->
<g id="node4" class="node">
<title>lib/LetsEncryptServer.js</title>
<g id="a_node4"><a xlink:href="lib/LetsEncryptServer.js" xlink:title="LetsEncryptServer.js">
<path fill="#ffffcc" stroke="#000000" d="M169,-105C169,-105 80,-105 80,-105 77,-105 74,-102 74,-99 74,-99 74,-93 74,-93 74,-90 77,-87 80,-87 80,-87 169,-87 169,-87 172,-87 175,-90 175,-93 175,-93 175,-99 175,-99 175,-102 172,-105 169,-105"/>
<text text-anchor="middle" x="124.5" y="-93.8" font-family="Helvetica,sans-Serif" font-size="9.00" fill="#000000">LetsEncryptServer.js</text>
</a>
</g>
</g>
<!-- index.js&#45;&gt;lib/LetsEncryptServer.js -->
<g id="edge3" class="edge">
<title>index.js&#45;&gt;lib/LetsEncryptServer.js</title>
<path fill="none" stroke="#000000" stroke-width="2" stroke-opacity="0.200000" d="M35.3421,-131.8071C41.9449,-125.0778 51.7361,-116.2407 62,-111 64.7144,-109.6141 67.561,-108.3531 70.4807,-107.2062"/>
<polygon fill="#000000" fill-opacity="0.200000" stroke="#000000" stroke-width="2" stroke-opacity="0.200000" points="71.6292,-109.0241 76.5576,-105.0089 70.201,-105.0744 71.6292,-109.0241"/>
</g>
<!-- lib/staging/monkeyPatchTls.js -->
<g id="node5" class="node">
<title>lib/staging/monkeyPatchTls.js</title>
<g id="a_node5"><a xlink:href="lib/staging/monkeyPatchTls.js" xlink:title="monkeyPatchTls.js">
<path fill="#ffffcc" stroke="#000000" d="M165,-199C165,-199 84,-199 84,-199 81,-199 78,-196 78,-193 78,-193 78,-187 78,-187 78,-184 81,-181 84,-181 84,-181 165,-181 165,-181 168,-181 171,-184 171,-187 171,-187 171,-193 171,-193 171,-196 168,-199 165,-199"/>
<text text-anchor="middle" x="124.5" y="-187.8" font-family="Helvetica,sans-Serif" font-size="9.00" fill="#000000">monkeyPatchTls.js</text>
</a>
</g>
</g>
<!-- index.js&#45;&gt;lib/staging/monkeyPatchTls.js -->
<g id="edge4" class="edge">
<title>index.js&#45;&gt;lib/staging/monkeyPatchTls.js</title>
<path fill="none" stroke="#000000" stroke-width="2" stroke-opacity="0.200000" d="M33.3934,-150.1912C39.6916,-158.5173 50.0811,-170.4534 62,-177 65.2512,-178.7858 68.7205,-180.3268 72.2954,-181.6565"/>
<polygon fill="#000000" fill-opacity="0.200000" stroke="#000000" stroke-width="2" stroke-opacity="0.200000" points="71.6273,-183.6474 77.9838,-183.5771 72.9708,-179.668 71.6273,-183.6474"/>
</g>
<!-- lib/Account.js -->
<g id="node6" class="node">
<title>lib/Account.js</title>
<g id="a_node6"><a xlink:href="lib/Account.js" xlink:title="Account.js">
<path fill="#ffffcc" stroke="#000000" d="M346.5,-64C346.5,-64 299.5,-64 299.5,-64 296.5,-64 293.5,-61 293.5,-58 293.5,-58 293.5,-52 293.5,-52 293.5,-49 296.5,-46 299.5,-46 299.5,-46 346.5,-46 346.5,-46 349.5,-46 352.5,-49 352.5,-52 352.5,-52 352.5,-58 352.5,-58 352.5,-61 349.5,-64 346.5,-64"/>
<text text-anchor="middle" x="323" y="-52.8" font-family="Helvetica,sans-Serif" font-size="9.00" fill="#000000">Account.js</text>
</a>
</g>
</g>
<!-- lib/Certificate.js&#45;&gt;lib/Account.js -->
<g id="edge10" class="edge">
<title>lib/Certificate.js&#45;&gt;lib/Account.js</title>
<path fill="none" stroke="#000000" stroke-width="2" stroke-opacity="0.200000" d="M158.2359,-152.466C165.8898,-150.217 173.4016,-146.6432 179,-141 188.7186,-131.2036 178.4406,-121.8239 187,-111 212.0384,-79.3376 229.2306,-82.2445 267,-68 273.4349,-65.5731 280.4629,-63.5108 287.2985,-61.7927"/>
<polygon fill="#000000" fill-opacity="0.200000" stroke="#000000" stroke-width="2" stroke-opacity="0.200000" points="288.1518,-63.748 293.4995,-60.311 287.1757,-59.663 288.1518,-63.748"/>
</g>
<!-- lib/AcmeRequest.js -->
<g id="node8" class="node">
<title>lib/AcmeRequest.js</title>
<g id="a_node8"><a xlink:href="lib/AcmeRequest.js" xlink:title="AcmeRequest.js">
<path fill="#ffffcc" stroke="#000000" d="M673,-127C673,-127 602,-127 602,-127 599,-127 596,-124 596,-121 596,-121 596,-115 596,-115 596,-112 599,-109 602,-109 602,-109 673,-109 673,-109 676,-109 679,-112 679,-115 679,-115 679,-121 679,-121 679,-124 676,-127 673,-127"/>
<text text-anchor="middle" x="637.5" y="-115.8" font-family="Helvetica,sans-Serif" font-size="9.00" fill="#000000">AcmeRequest.js</text>
</a>
</g>
</g>
<!-- lib/Certificate.js&#45;&gt;lib/AcmeRequest.js -->
<g id="edge11" class="edge">
<title>lib/Certificate.js&#45;&gt;lib/AcmeRequest.js</title>
<path fill="none" stroke="#000000" stroke-width="2" stroke-opacity="0.200000" d="M158.0071,-153.2826C165.9481,-151.0465 173.6537,-147.2746 179,-141 200.168,-116.1565 166.69,-93.5497 187,-68 243.6956,3.3221 296.1144,-29.4058 387,-23 476.1123,-16.7192 511.619,23.3292 588,-23 616.8005,-40.469 629.6259,-80.7726 634.6646,-102.8554"/>
<polygon fill="#000000" fill-opacity="0.200000" stroke="#000000" stroke-width="2" stroke-opacity="0.200000" points="632.6319,-103.3927 635.937,-108.8228 636.7395,-102.5167 632.6319,-103.3927"/>
</g>
<!-- lib/Directory.js -->
<g id="node14" class="node">
<title>lib/Directory.js</title>
<g id="a_node14"><a xlink:href="lib/Directory.js" xlink:title="Directory.js">
<path fill="#ffffcc" stroke="#000000" d="M248,-135C248,-135 198,-135 198,-135 195,-135 192,-132 192,-129 192,-129 192,-123 192,-123 192,-120 195,-117 198,-117 198,-117 248,-117 248,-117 251,-117 254,-120 254,-123 254,-123 254,-129 254,-129 254,-132 251,-135 248,-135"/>
<text text-anchor="middle" x="223" y="-123.8" font-family="Helvetica,sans-Serif" font-size="9.00" fill="#000000">Directory.js</text>
</a>
</g>
</g>
<!-- lib/Certificate.js&#45;&gt;lib/Directory.js -->
<g id="edge12" class="edge">
<title>lib/Certificate.js&#45;&gt;lib/Directory.js</title>
<path fill="none" stroke="#000000" stroke-width="2" stroke-opacity="0.200000" d="M158.0257,-147.1133C164.9812,-145.1742 172.2468,-143.0784 179,-141 182.9387,-139.7878 187.0567,-138.4624 191.1258,-137.1172"/>
<polygon fill="#000000" fill-opacity="0.200000" stroke="#000000" stroke-width="2" stroke-opacity="0.200000" points="192.0024,-139.0384 197.0259,-135.143 190.6696,-135.0554 192.0024,-139.0384"/>
</g>
<!-- lib/identities/AccountIdentity.js -->
<g id="node15" class="node">
<title>lib/identities/AccountIdentity.js</title>
<g id="a_node15"><a xlink:href="lib/identities/AccountIdentity.js" xlink:title="AccountIdentity.js">
<path fill="#ffffcc" stroke="#000000" d="M361,-280C361,-280 285,-280 285,-280 282,-280 279,-277 279,-274 279,-274 279,-268 279,-268 279,-265 282,-262 285,-262 285,-262 361,-262 361,-262 364,-262 367,-265 367,-268 367,-268 367,-274 367,-274 367,-277 364,-280 361,-280"/>
<text text-anchor="middle" x="323" y="-268.8" font-family="Helvetica,sans-Serif" font-size="9.00" fill="#000000">AccountIdentity.js</text>
</a>
</g>
</g>
<!-- lib/Certificate.js&#45;&gt;lib/identities/AccountIdentity.js -->
<g id="edge13" class="edge">
<title>lib/Certificate.js&#45;&gt;lib/identities/AccountIdentity.js</title>
<path fill="none" stroke="#000000" stroke-width="2" stroke-opacity="0.200000" d="M158.0093,-160.3348C165.4116,-162.4123 172.8668,-165.4783 179,-170 184.4605,-174.0258 181.4482,-179.101 187,-183 213.7493,-201.7861 236.6897,-174.1107 259,-198 276.761,-217.018 249.7815,-236.4895 267,-256 268.8356,-258.08 270.9252,-259.886 273.1926,-261.4528"/>
<polygon fill="#000000" fill-opacity="0.200000" stroke="#000000" stroke-width="2" stroke-opacity="0.200000" points="272.5272,-263.4948 278.7705,-264.6913 274.6361,-259.8626 272.5272,-263.4948"/>
</g>
<!-- lib/identities/CertificateIdentity.js -->
<g id="node16" class="node">
<title>lib/identities/CertificateIdentity.js</title>
<g id="a_node16"><a xlink:href="lib/identities/CertificateIdentity.js" xlink:title="CertificateIdentity.js">
<path fill="#ffffcc" stroke="#000000" d="M365,-250C365,-250 281,-250 281,-250 278,-250 275,-247 275,-244 275,-244 275,-238 275,-238 275,-235 278,-232 281,-232 281,-232 365,-232 365,-232 368,-232 371,-235 371,-238 371,-238 371,-244 371,-244 371,-247 368,-250 365,-250"/>
<text text-anchor="middle" x="323" y="-238.8" font-family="Helvetica,sans-Serif" font-size="9.00" fill="#000000">CertificateIdentity.js</text>
</a>
</g>
</g>
<!-- lib/Certificate.js&#45;&gt;lib/identities/CertificateIdentity.js -->
<g id="edge14" class="edge">
<title>lib/Certificate.js&#45;&gt;lib/identities/CertificateIdentity.js</title>
<path fill="none" stroke="#000000" stroke-width="2" stroke-opacity="0.200000" d="M158.2283,-164.1188C167.5476,-166.3556 177.6643,-168.7776 187,-171 218.986,-178.6144 236.1545,-164.3532 259,-188 271.5969,-201.0388 254.3786,-214.985 267,-228 267.8598,-228.8867 268.7674,-229.718 269.7161,-230.4972"/>
<polygon fill="#000000" fill-opacity="0.200000" stroke="#000000" stroke-width="2" stroke-opacity="0.200000" points="268.6378,-232.3044 274.7714,-233.9748 271.0183,-228.8441 268.6378,-232.3044"/>
</g>
<!-- lib/Order.js -->
<g id="node17" class="node">
<title>lib/Order.js</title>
<g id="a_node17"><a xlink:href="lib/Order.js" xlink:title="Order.js">
<path fill="#ffffcc" stroke="#000000" d="M244,-165C244,-165 202,-165 202,-165 199,-165 196,-162 196,-159 196,-159 196,-153 196,-153 196,-150 199,-147 202,-147 202,-147 244,-147 244,-147 247,-147 250,-150 250,-153 250,-153 250,-159 250,-159 250,-162 247,-165 244,-165"/>
<text text-anchor="middle" x="223" y="-153.8" font-family="Helvetica,sans-Serif" font-size="9.00" fill="#000000">Order.js</text>
</a>
</g>
</g>
<!-- lib/Certificate.js&#45;&gt;lib/Order.js -->
<g id="edge15" class="edge">
<title>lib/Certificate.js&#45;&gt;lib/Order.js</title>
<path fill="none" stroke="#000000" stroke-width="2" stroke-opacity="0.200000" d="M158.1226,-156C168.2763,-156 179.4185,-156 189.5602,-156"/>
<polygon fill="#000000" fill-opacity="0.200000" stroke="#000000" stroke-width="2" stroke-opacity="0.200000" points="189.7278,-158.1001 195.7278,-156 189.7277,-153.9001 189.7278,-158.1001"/>
</g>
<!-- lib/x.509/rfc5280.js -->
<g id="node18" class="node">
<title>lib/x.509/rfc5280.js</title>
<g id="a_node18"><a xlink:href="lib/x.509/rfc5280.js" xlink:title="rfc5280.js">
<path fill="#ffffcc" stroke="#000000" d="M245,-227C245,-227 201,-227 201,-227 198,-227 195,-224 195,-221 195,-221 195,-215 195,-215 195,-212 198,-209 201,-209 201,-209 245,-209 245,-209 248,-209 251,-212 251,-215 251,-215 251,-221 251,-221 251,-224 248,-227 245,-227"/>
<text text-anchor="middle" x="223" y="-215.8" font-family="Helvetica,sans-Serif" font-size="9.00" fill="#000000">rfc5280.js</text>
</a>
</g>
</g>
<!-- lib/Certificate.js&#45;&gt;lib/x.509/rfc5280.js -->
<g id="edge16" class="edge">
<title>lib/Certificate.js&#45;&gt;lib/x.509/rfc5280.js</title>
<path fill="none" stroke="#000000" stroke-width="2" stroke-opacity="0.200000" d="M158.0624,-158.6564C165.8119,-160.7614 173.4119,-164.2605 179,-170 190.1313,-181.4329 176.4247,-193.0509 187,-205 187.8257,-205.933 188.7237,-206.7991 189.6787,-207.603"/>
<polygon fill="#000000" fill-opacity="0.200000" stroke="#000000" stroke-width="2" stroke-opacity="0.200000" points="188.7186,-209.4896 194.8609,-211.1272 191.0804,-206.0166 188.7186,-209.4896"/>
</g>
<!-- lib/acme&#45;requests/NewAccountRequest.js -->
<g id="node7" class="node">
<title>lib/acme&#45;requests/NewAccountRequest.js</title>
<g id="a_node7"><a xlink:href="lib/acme-requests/NewAccountRequest.js" xlink:title="NewAccountRequest.js">
<path fill="#ffffcc" stroke="#000000" d="M537.5,-52C537.5,-52 437.5,-52 437.5,-52 434.5,-52 431.5,-49 431.5,-46 431.5,-46 431.5,-40 431.5,-40 431.5,-37 434.5,-34 437.5,-34 437.5,-34 537.5,-34 537.5,-34 540.5,-34 543.5,-37 543.5,-40 543.5,-40 543.5,-46 543.5,-46 543.5,-49 540.5,-52 537.5,-52"/>
<text text-anchor="middle" x="487.5" y="-40.8" font-family="Helvetica,sans-Serif" font-size="9.00" fill="#000000">NewAccountRequest.js</text>
</a>
</g>
</g>
<!-- lib/Account.js&#45;&gt;lib/acme&#45;requests/NewAccountRequest.js -->
<g id="edge5" class="edge">
<title>lib/Account.js&#45;&gt;lib/acme&#45;requests/NewAccountRequest.js</title>
<path fill="none" stroke="#000000" stroke-width="2" stroke-opacity="0.200000" d="M352.7897,-52.8269C372.9331,-51.3575 400.2812,-49.3625 425.074,-47.5539"/>
<polygon fill="#000000" fill-opacity="0.200000" stroke="#000000" stroke-width="2" stroke-opacity="0.200000" points="425.4849,-49.6296 431.3162,-47.0985 425.1793,-45.4407 425.4849,-49.6296"/>
</g>
<!-- lib/acme&#45;requests/NewAccountRequest.js&#45;&gt;lib/AcmeRequest.js -->
<g id="edge29" class="edge">
<title>lib/acme&#45;requests/NewAccountRequest.js&#45;&gt;lib/AcmeRequest.js</title>
<path fill="none" stroke="#000000" stroke-width="2" stroke-opacity="0.200000" d="M543.6003,-44.1044C558.7531,-46.2943 574.6397,-50.4463 588,-58 606.7203,-68.5842 621.305,-89.2184 629.6551,-103.3033"/>
<polygon fill="#000000" fill-opacity="0.200000" stroke="#000000" stroke-width="2" stroke-opacity="0.200000" points="628.0467,-104.7216 632.846,-108.8903 631.6939,-102.6386 628.0467,-104.7216"/>
</g>
<!-- lib/Nonce.js -->
<g id="node9" class="node">
<title>lib/Nonce.js</title>
<g id="a_node9"><a xlink:href="lib/Nonce.js" xlink:title="Nonce.js">
<path fill="#ffffcc" stroke="#000000" d="M740,-127C740,-127 698,-127 698,-127 695,-127 692,-124 692,-121 692,-121 692,-115 692,-115 692,-112 695,-109 698,-109 698,-109 740,-109 740,-109 743,-109 746,-112 746,-115 746,-115 746,-121 746,-121 746,-124 743,-127 740,-127"/>
<text text-anchor="middle" x="719" y="-115.8" font-family="Helvetica,sans-Serif" font-size="9.00" fill="#000000">Nonce.js</text>
</a>
</g>
</g>
<!-- lib/AcmeRequest.js&#45;&gt;lib/Nonce.js -->
<g id="edge6" class="edge">
<title>lib/AcmeRequest.js&#45;&gt;lib/Nonce.js</title>
<path fill="none" stroke="#000000" stroke-width="2" stroke-opacity="0.200000" d="M679.205,-118C681.3198,-118 683.4312,-118 685.5164,-118"/>
<polygon fill="#000000" fill-opacity="0.200000" stroke="#000000" stroke-width="2" stroke-opacity="0.200000" points="685.6704,-120.1001 691.6704,-118 685.6704,-115.9001 685.6704,-120.1001"/>
</g>
<!-- lib/Authorisation.js -->
<g id="node10" class="node">
<title>lib/Authorisation.js</title>
<g id="a_node10"><a xlink:href="lib/Authorisation.js" xlink:title="Authorisation.js">
<path fill="#ffffcc" stroke="#000000" d="M357,-202C357,-202 289,-202 289,-202 286,-202 283,-199 283,-196 283,-196 283,-190 283,-190 283,-187 286,-184 289,-184 289,-184 357,-184 357,-184 360,-184 363,-187 363,-190 363,-190 363,-196 363,-196 363,-199 360,-202 357,-202"/>
<text text-anchor="middle" x="323" y="-190.8" font-family="Helvetica,sans-Serif" font-size="9.00" fill="#000000">Authorisation.js</text>
</a>
</g>
</g>
<!-- lib/acme&#45;requests/AuthorisationRequest.js -->
<g id="node11" class="node">
<title>lib/acme&#45;requests/AuthorisationRequest.js</title>
<g id="a_node11"><a xlink:href="lib/acme-requests/AuthorisationRequest.js" xlink:title="AuthorisationRequest.js">
<path fill="#ffffcc" stroke="#000000" d="M538.5,-202C538.5,-202 436.5,-202 436.5,-202 433.5,-202 430.5,-199 430.5,-196 430.5,-196 430.5,-190 430.5,-190 430.5,-187 433.5,-184 436.5,-184 436.5,-184 538.5,-184 538.5,-184 541.5,-184 544.5,-187 544.5,-190 544.5,-190 544.5,-196 544.5,-196 544.5,-199 541.5,-202 538.5,-202"/>
<text text-anchor="middle" x="487.5" y="-190.8" font-family="Helvetica,sans-Serif" font-size="9.00" fill="#000000">AuthorisationRequest.js</text>
</a>
</g>
</g>
<!-- lib/Authorisation.js&#45;&gt;lib/acme&#45;requests/AuthorisationRequest.js -->
<g id="edge7" class="edge">
<title>lib/Authorisation.js&#45;&gt;lib/acme&#45;requests/AuthorisationRequest.js</title>
<path fill="none" stroke="#000000" stroke-width="2" stroke-opacity="0.200000" d="M363.2412,-193C381.5944,-193 403.7621,-193 424.2628,-193"/>
<polygon fill="#000000" fill-opacity="0.200000" stroke="#000000" stroke-width="2" stroke-opacity="0.200000" points="424.2798,-195.1001 430.2798,-193 424.2797,-190.9001 424.2798,-195.1001"/>
</g>
<!-- lib/acme&#45;requests/ReadyForChallengeValidationRequest.js -->
<g id="node12" class="node">
<title>lib/acme&#45;requests/ReadyForChallengeValidationRequest.js</title>
<g id="a_node12"><a xlink:href="lib/acme-requests/ReadyForChallengeValidationRequest.js" xlink:title="ReadyForChallengeValidationRequest.js">
<path fill="#ffffcc" stroke="#000000" d="M574,-232C574,-232 401,-232 401,-232 398,-232 395,-229 395,-226 395,-226 395,-220 395,-220 395,-217 398,-214 401,-214 401,-214 574,-214 574,-214 577,-214 580,-217 580,-220 580,-220 580,-226 580,-226 580,-229 577,-232 574,-232"/>
<text text-anchor="middle" x="487.5" y="-220.8" font-family="Helvetica,sans-Serif" font-size="9.00" fill="#000000">ReadyForChallengeValidationRequest.js</text>
</a>
</g>
</g>
<!-- lib/Authorisation.js&#45;&gt;lib/acme&#45;requests/ReadyForChallengeValidationRequest.js -->
<g id="edge8" class="edge">
<title>lib/Authorisation.js&#45;&gt;lib/acme&#45;requests/ReadyForChallengeValidationRequest.js</title>
<path fill="none" stroke="#000000" stroke-width="2" stroke-opacity="0.200000" d="M359.1051,-202.0081C368.1801,-204.1215 377.9211,-206.2616 387,-208 396.2547,-209.7721 406.0227,-211.4577 415.6868,-213.0158"/>
<polygon fill="#000000" fill-opacity="0.200000" stroke="#000000" stroke-width="2" stroke-opacity="0.200000" points="415.4299,-215.1012 421.6851,-213.9691 416.0891,-210.9533 415.4299,-215.1012"/>
</g>
<!-- lib/ChallengeServer.js -->
<g id="node13" class="node">
<title>lib/ChallengeServer.js</title>
<g id="a_node13"><a xlink:href="lib/ChallengeServer.js" xlink:title="ChallengeServer.js">
<path fill="#ffffcc" stroke="#000000" d="M529,-284C529,-284 446,-284 446,-284 443,-284 440,-281 440,-278 440,-278 440,-272 440,-272 440,-269 443,-266 446,-266 446,-266 529,-266 529,-266 532,-266 535,-269 535,-272 535,-272 535,-278 535,-278 535,-281 532,-284 529,-284"/>
<text text-anchor="middle" x="487.5" y="-272.8" font-family="Helvetica,sans-Serif" font-size="9.00" fill="#000000">ChallengeServer.js</text>
</a>
</g>
</g>
<!-- lib/Authorisation.js&#45;&gt;lib/ChallengeServer.js -->
<g id="edge9" class="edge">
<title>lib/Authorisation.js&#45;&gt;lib/ChallengeServer.js</title>
<path fill="none" stroke="#000000" stroke-width="2" stroke-opacity="0.200000" d="M363.0673,-199.8179C369.1154,-202.4354 374.7436,-206.0402 379,-211 393.6562,-228.0782 370.9264,-245.2485 387,-261 399.2705,-273.0246 416.777,-277.9194 433.7495,-279.3715"/>
<polygon fill="#000000" fill-opacity="0.200000" stroke="#000000" stroke-width="2" stroke-opacity="0.200000" points="433.849,-281.4816 439.9676,-279.7575 434.1093,-277.2897 433.849,-281.4816"/>
</g>
<!-- lib/acme&#45;requests/AuthorisationRequest.js&#45;&gt;lib/AcmeRequest.js -->
<g id="edge25" class="edge">
<title>lib/acme&#45;requests/AuthorisationRequest.js&#45;&gt;lib/AcmeRequest.js</title>
<path fill="none" stroke="#000000" stroke-width="2" stroke-opacity="0.200000" d="M544.6465,-191.7414C559.4822,-189.513 574.9468,-185.3801 588,-178 606.7203,-167.4158 621.305,-146.7816 629.6551,-132.6967"/>
<polygon fill="#000000" fill-opacity="0.200000" stroke="#000000" stroke-width="2" stroke-opacity="0.200000" points="631.6939,-133.3614 632.846,-127.1097 628.0467,-131.2784 631.6939,-133.3614"/>
</g>
<!-- lib/acme&#45;requests/ReadyForChallengeValidationRequest.js&#45;&gt;lib/AcmeRequest.js -->
<g id="edge31" class="edge">
<title>lib/acme&#45;requests/ReadyForChallengeValidationRequest.js&#45;&gt;lib/AcmeRequest.js</title>
<path fill="none" stroke="#000000" stroke-width="2" stroke-opacity="0.200000" d="M577.9166,-213.8706C581.4344,-212.164 584.8146,-210.2171 588,-208 613.9973,-189.9051 627.7488,-153.5922 633.7322,-133.0536"/>
<polygon fill="#000000" fill-opacity="0.200000" stroke="#000000" stroke-width="2" stroke-opacity="0.200000" points="635.7691,-133.5664 635.3447,-127.2237 631.7211,-132.4467 635.7691,-133.5664"/>
</g>
<!-- lib/Identity.js -->
<g id="node19" class="node">
<title>lib/Identity.js</title>
<g id="a_node19"><a xlink:href="lib/Identity.js" xlink:title="Identity.js">
<path fill="#ffffcc" stroke="#000000" d="M509,-314C509,-314 466,-314 466,-314 463,-314 460,-311 460,-308 460,-308 460,-302 460,-302 460,-299 463,-296 466,-296 466,-296 509,-296 509,-296 512,-296 515,-299 515,-302 515,-302 515,-308 515,-308 515,-311 512,-314 509,-314"/>
<text text-anchor="middle" x="487.5" y="-302.8" font-family="Helvetica,sans-Serif" font-size="9.00" fill="#000000">Identity.js</text>
</a>
</g>
</g>
<!-- lib/identities/AccountIdentity.js&#45;&gt;lib/Identity.js -->
<g id="edge32" class="edge">
<title>lib/identities/AccountIdentity.js&#45;&gt;lib/Identity.js</title>
<path fill="none" stroke="#000000" stroke-width="2" stroke-opacity="0.200000" d="M350.5,-280.0864C361.7258,-283.5532 374.8928,-287.3133 387,-290 408.9119,-294.8625 433.8675,-298.5968 453.429,-301.1232"/>
<polygon fill="#000000" fill-opacity="0.200000" stroke="#000000" stroke-width="2" stroke-opacity="0.200000" points="453.3638,-303.2316 459.5799,-301.901 453.8908,-299.0648 453.3638,-303.2316"/>
</g>
<!-- lib/identities/CertificateIdentity.js&#45;&gt;lib/Identity.js -->
<g id="edge33" class="edge">
<title>lib/identities/CertificateIdentity.js&#45;&gt;lib/Identity.js</title>
<path fill="none" stroke="#000000" stroke-width="2" stroke-opacity="0.200000" d="M371.1844,-249.8889C374.0409,-251.5969 376.6876,-253.6157 379,-256 389.8076,-267.1437 375.5774,-279.4875 387,-290 404.6034,-306.2009 431.7591,-309.4466 453.4066,-308.9166"/>
<polygon fill="#000000" fill-opacity="0.200000" stroke="#000000" stroke-width="2" stroke-opacity="0.200000" points="453.734,-311.0049 459.6418,-308.6581 453.5599,-306.8085 453.734,-311.0049"/>
</g>
<!-- lib/Order.js&#45;&gt;lib/Authorisation.js -->
<g id="edge22" class="edge">
<title>lib/Order.js&#45;&gt;lib/Authorisation.js</title>
<path fill="none" stroke="#000000" stroke-width="2" stroke-opacity="0.200000" d="M247.4628,-165.0512C261.022,-170.0681 278.0063,-176.3523 292.4339,-181.6906"/>
<polygon fill="#000000" fill-opacity="0.200000" stroke="#000000" stroke-width="2" stroke-opacity="0.200000" points="292.0873,-183.8014 298.4432,-183.914 293.5448,-179.8624 292.0873,-183.8014"/>
</g>
<!-- lib/Order.js&#45;&gt;lib/ChallengeServer.js -->
<g id="edge23" class="edge">
<title>lib/Order.js&#45;&gt;lib/ChallengeServer.js</title>
<path fill="none" stroke="#000000" stroke-width="2" stroke-opacity="0.200000" d="M250.1273,-162.2533C253.4728,-163.981 256.5651,-166.186 259,-169 270.5778,-182.3806 253.9574,-196.0427 267,-208 303.938,-241.8644 342.1455,-187.0447 379,-221 392.3335,-233.2846 373.8078,-248.5639 387,-261 399.444,-272.7309 416.9022,-277.578 433.7823,-279.0753"/>
<polygon fill="#000000" fill-opacity="0.200000" stroke="#000000" stroke-width="2" stroke-opacity="0.200000" points="433.8399,-281.1835 439.9648,-279.4819 434.1156,-276.9925 433.8399,-281.1835"/>
</g>
<!-- lib/Order.js&#45;&gt;lib/identities/CertificateIdentity.js -->
<g id="edge24" class="edge">
<title>lib/Order.js&#45;&gt;lib/identities/CertificateIdentity.js</title>
<path fill="none" stroke="#000000" stroke-width="2" stroke-opacity="0.200000" d="M248.9465,-165.0767C252.8136,-167.4432 256.3757,-170.3788 259,-174 273.2372,-193.6455 250.5531,-210.1635 267,-228 267.8626,-228.9355 268.7783,-229.8101 269.7395,-230.6275"/>
<polygon fill="#000000" fill-opacity="0.200000" stroke="#000000" stroke-width="2" stroke-opacity="0.200000" points="268.776,-232.5175 274.8908,-234.2553 271.1943,-229.0836 268.776,-232.5175"/>
</g>
<!-- lib/acme&#45;requests/CertificateRequest.js -->
<g id="node20" class="node">
<title>lib/acme&#45;requests/CertificateRequest.js</title>
<g id="a_node20"><a xlink:href="lib/acme-requests/CertificateRequest.js" xlink:title="CertificateRequest.js">
<path fill="#ffffcc" stroke="#000000" d="M532,-142C532,-142 443,-142 443,-142 440,-142 437,-139 437,-136 437,-136 437,-130 437,-130 437,-127 440,-124 443,-124 443,-124 532,-124 532,-124 535,-124 538,-127 538,-130 538,-130 538,-136 538,-136 538,-139 535,-142 532,-142"/>
<text text-anchor="middle" x="487.5" y="-130.8" font-family="Helvetica,sans-Serif" font-size="9.00" fill="#000000">CertificateRequest.js</text>
</a>
</g>
</g>
<!-- lib/Order.js&#45;&gt;lib/acme&#45;requests/CertificateRequest.js -->
<g id="edge17" class="edge">
<title>lib/Order.js&#45;&gt;lib/acme&#45;requests/CertificateRequest.js</title>
<path fill="none" stroke="#000000" stroke-width="2" stroke-opacity="0.200000" d="M250.3099,-153.6252C292.6318,-149.9451 374.9699,-142.7852 430.6051,-137.9474"/>
<polygon fill="#000000" fill-opacity="0.200000" stroke="#000000" stroke-width="2" stroke-opacity="0.200000" points="431.1193,-140.0107 436.9148,-137.3987 430.7554,-135.8265 431.1193,-140.0107"/>
</g>
<!-- lib/acme&#45;requests/CheckOrderStatusRequest.js -->
<g id="node21" class="node">
<title>lib/acme&#45;requests/CheckOrderStatusRequest.js</title>
<g id="a_node21"><a xlink:href="lib/acme-requests/CheckOrderStatusRequest.js" xlink:title="CheckOrderStatusRequest.js">
<path fill="#ffffcc" stroke="#000000" d="M549,-172C549,-172 426,-172 426,-172 423,-172 420,-169 420,-166 420,-166 420,-160 420,-160 420,-157 423,-154 426,-154 426,-154 549,-154 549,-154 552,-154 555,-157 555,-160 555,-160 555,-166 555,-166 555,-169 552,-172 549,-172"/>
<text text-anchor="middle" x="487.5" y="-160.8" font-family="Helvetica,sans-Serif" font-size="9.00" fill="#000000">CheckOrderStatusRequest.js</text>
</a>
</g>
</g>
<!-- lib/Order.js&#45;&gt;lib/acme&#45;requests/CheckOrderStatusRequest.js -->
<g id="edge18" class="edge">
<title>lib/Order.js&#45;&gt;lib/acme&#45;requests/CheckOrderStatusRequest.js</title>
<path fill="none" stroke="#000000" stroke-width="2" stroke-opacity="0.200000" d="M250.3099,-156.7228C288.5013,-157.7335 359.2791,-159.6066 413.6145,-161.0446"/>
<polygon fill="#000000" fill-opacity="0.200000" stroke="#000000" stroke-width="2" stroke-opacity="0.200000" points="413.7671,-163.1493 419.8206,-161.2089 413.8783,-158.9508 413.7671,-163.1493"/>
</g>
<!-- lib/acme&#45;requests/FinaliseOrderRequest.js -->
<g id="node22" class="node">
<title>lib/acme&#45;requests/FinaliseOrderRequest.js</title>
<g id="a_node22"><a xlink:href="lib/acme-requests/FinaliseOrderRequest.js" xlink:title="FinaliseOrderRequest.js">
<path fill="#ffffcc" stroke="#000000" d="M539.5,-82C539.5,-82 435.5,-82 435.5,-82 432.5,-82 429.5,-79 429.5,-76 429.5,-76 429.5,-70 429.5,-70 429.5,-67 432.5,-64 435.5,-64 435.5,-64 539.5,-64 539.5,-64 542.5,-64 545.5,-67 545.5,-70 545.5,-70 545.5,-76 545.5,-76 545.5,-79 542.5,-82 539.5,-82"/>
<text text-anchor="middle" x="487.5" y="-70.8" font-family="Helvetica,sans-Serif" font-size="9.00" fill="#000000">FinaliseOrderRequest.js</text>
</a>
</g>
</g>
<!-- lib/Order.js&#45;&gt;lib/acme&#45;requests/FinaliseOrderRequest.js -->
<g id="edge19" class="edge">
<title>lib/Order.js&#45;&gt;lib/acme&#45;requests/FinaliseOrderRequest.js</title>
<path fill="none" stroke="#000000" stroke-width="2" stroke-opacity="0.200000" d="M250.2802,-148.2858C253.6033,-146.3655 256.6486,-143.9745 259,-141 272.6841,-123.6893 250.8163,-107 267,-92 289.0235,-71.5873 366.3536,-69.0182 423.2436,-70.1129"/>
<polygon fill="#000000" fill-opacity="0.200000" stroke="#000000" stroke-width="2" stroke-opacity="0.200000" points="423.3329,-72.2153 429.3773,-70.2465 423.4244,-68.0163 423.3329,-72.2153"/>
</g>
<!-- lib/acme&#45;requests/NewOrderRequest.js -->
<g id="node23" class="node">
<title>lib/acme&#45;requests/NewOrderRequest.js</title>
<g id="a_node23"><a xlink:href="lib/acme-requests/NewOrderRequest.js" xlink:title="NewOrderRequest.js">
<path fill="#ffffcc" stroke="#000000" d="M532.5,-112C532.5,-112 442.5,-112 442.5,-112 439.5,-112 436.5,-109 436.5,-106 436.5,-106 436.5,-100 436.5,-100 436.5,-97 439.5,-94 442.5,-94 442.5,-94 532.5,-94 532.5,-94 535.5,-94 538.5,-97 538.5,-100 538.5,-100 538.5,-106 538.5,-106 538.5,-109 535.5,-112 532.5,-112"/>
<text text-anchor="middle" x="487.5" y="-100.8" font-family="Helvetica,sans-Serif" font-size="9.00" fill="#000000">NewOrderRequest.js</text>
</a>
</g>
</g>
<!-- lib/Order.js&#45;&gt;lib/acme&#45;requests/NewOrderRequest.js -->
<g id="edge20" class="edge">
<title>lib/Order.js&#45;&gt;lib/acme&#45;requests/NewOrderRequest.js</title>
<path fill="none" stroke="#000000" stroke-width="2" stroke-opacity="0.200000" d="M250.3539,-147.8434C253.5823,-145.9955 256.582,-143.7425 259,-141 267.8422,-130.971 256.5301,-120.3155 267,-112 291.3517,-92.6592 373.4847,-94.2282 430.3262,-97.9655"/>
<polygon fill="#000000" fill-opacity="0.200000" stroke="#000000" stroke-width="2" stroke-opacity="0.200000" points="430.306,-100.0689 436.4349,-98.3817 430.5916,-95.8786 430.306,-100.0689"/>
</g>
<!-- lib/acmeCsr.js -->
<g id="node24" class="node">
<title>lib/acmeCsr.js</title>
<g id="a_node24"><a xlink:href="lib/acmeCsr.js" xlink:title="acmeCsr.js">
<path fill="#ffffcc" stroke="#000000" d="M348,-136C348,-136 298,-136 298,-136 295,-136 292,-133 292,-130 292,-130 292,-124 292,-124 292,-121 295,-118 298,-118 298,-118 348,-118 348,-118 351,-118 354,-121 354,-124 354,-124 354,-130 354,-130 354,-133 351,-136 348,-136"/>
<text text-anchor="middle" x="323" y="-124.8" font-family="Helvetica,sans-Serif" font-size="9.00" fill="#000000">acmeCsr.js</text>
</a>
</g>
</g>
<!-- lib/Order.js&#45;&gt;lib/acmeCsr.js -->
<g id="edge21" class="edge">
<title>lib/Order.js&#45;&gt;lib/acmeCsr.js</title>
<path fill="none" stroke="#000000" stroke-width="2" stroke-opacity="0.200000" d="M250.0614,-148.1522C260.9964,-144.981 273.8002,-141.2679 285.6019,-137.8454"/>
<polygon fill="#000000" fill-opacity="0.200000" stroke="#000000" stroke-width="2" stroke-opacity="0.200000" points="286.4893,-139.7747 291.6669,-136.0866 285.3194,-135.7409 286.4893,-139.7747"/>
</g>
<!-- lib/acme&#45;requests/CertificateRequest.js&#45;&gt;lib/AcmeRequest.js -->
<g id="edge26" class="edge">
<title>lib/acme&#45;requests/CertificateRequest.js&#45;&gt;lib/AcmeRequest.js</title>
<path fill="none" stroke="#000000" stroke-width="2" stroke-opacity="0.200000" d="M538.2832,-127.9217C554.7903,-126.271 573.0507,-124.4449 589.359,-122.8141"/>
<polygon fill="#000000" fill-opacity="0.200000" stroke="#000000" stroke-width="2" stroke-opacity="0.200000" points="589.9803,-124.8625 595.7416,-122.1758 589.5623,-120.6834 589.9803,-124.8625"/>
</g>
<!-- lib/acme&#45;requests/CheckOrderStatusRequest.js&#45;&gt;lib/AcmeRequest.js -->
<g id="edge27" class="edge">
<title>lib/acme&#45;requests/CheckOrderStatusRequest.js&#45;&gt;lib/AcmeRequest.js</title>
<path fill="none" stroke="#000000" stroke-width="2" stroke-opacity="0.200000" d="M555.1796,-156.6637C566.3326,-154.5548 577.6296,-151.7446 588,-148 599.5353,-143.8348 611.3225,-136.8225 620.4996,-130.6245"/>
<polygon fill="#000000" fill-opacity="0.200000" stroke="#000000" stroke-width="2" stroke-opacity="0.200000" points="621.8491,-132.2441 625.5796,-127.0969 619.4535,-128.7942 621.8491,-132.2441"/>
</g>
<!-- lib/acme&#45;requests/FinaliseOrderRequest.js&#45;&gt;lib/AcmeRequest.js -->
<g id="edge28" class="edge">
<title>lib/acme&#45;requests/FinaliseOrderRequest.js&#45;&gt;lib/AcmeRequest.js</title>
<path fill="none" stroke="#000000" stroke-width="2" stroke-opacity="0.200000" d="M545.6048,-77.6831C559.7487,-79.904 574.6429,-83.177 588,-88 599.5353,-92.1652 611.3225,-99.1775 620.4996,-105.3755"/>
<polygon fill="#000000" fill-opacity="0.200000" stroke="#000000" stroke-width="2" stroke-opacity="0.200000" points="619.4535,-107.2058 625.5796,-108.9031 621.8491,-103.7559 619.4535,-107.2058"/>
</g>
<!-- lib/acme&#45;requests/NewOrderRequest.js&#45;&gt;lib/AcmeRequest.js -->
<g id="edge30" class="edge">
<title>lib/acme&#45;requests/NewOrderRequest.js&#45;&gt;lib/AcmeRequest.js</title>
<path fill="none" stroke="#000000" stroke-width="2" stroke-opacity="0.200000" d="M538.702,-108.1202C555.1855,-109.7685 573.3799,-111.588 589.6154,-113.2115"/>
<polygon fill="#000000" fill-opacity="0.200000" stroke="#000000" stroke-width="2" stroke-opacity="0.200000" points="589.7895,-115.3393 595.9687,-113.8469 590.2075,-111.1602 589.7895,-115.3393"/>
</g>
</g>
</svg>
