<?xml version="1.0" encoding="UTF-8" standalone="no"?>
<!DOCTYPE svg PUBLIC "-//W3C//DTD SVG 1.1//EN"
 "http://www.w3.org/Graphics/SVG/1.1/DTD/svg11.dtd">
<!-- Generated by graphviz version 2.40.1 (20161225.0304)
 -->
<!-- Title: dependency&#45;cruiser output Pages: 1 -->
<svg width="752pt" height="386pt"
 viewBox="0.00 0.00 752.00 386.28" xmlns="http://www.w3.org/2000/svg" xmlns:xlink="http://www.w3.org/1999/xlink">
<g id="graph0" class="graph" transform="scale(1 1) rotate(0) translate(4 382.2755)">
<title>dependency&#45;cruiser output</title>
<polygon fill="#ffffff" stroke="transparent" points="-4,4 -4,-382.2755 748,-382.2755 748,4 -4,4"/>
<g id="clust1" class="cluster">
<title>cluster_lib</title>
<path fill="#ffffff" stroke="#000000" stroke-width="2" d="M74,-64.2755C74,-64.2755 724,-64.2755 724,-64.2755 730,-64.2755 736,-70.2755 736,-76.2755 736,-76.2755 736,-358.2755 736,-358.2755 736,-364.2755 730,-370.2755 724,-370.2755 724,-370.2755 74,-370.2755 74,-370.2755 68,-370.2755 62,-364.2755 62,-358.2755 62,-358.2755 62,-76.2755 62,-76.2755 62,-70.2755 68,-64.2755 74,-64.2755"/>
<text text-anchor="middle" x="399" y="-359.0755" font-family="Helvetica,sans-Serif" font-weight="bold" font-size="9.00" fill="#000000">lib</text>
</g>
<g id="clust2" class="cluster">
<title>cluster_lib/acme&#45;requests</title>
<path fill="#ffffff" stroke="#000000" stroke-width="2" d="M381,-142.2755C381,-142.2755 558,-142.2755 558,-142.2755 564,-142.2755 570,-148.2755 570,-154.2755 570,-154.2755 570,-332.2755 570,-332.2755 570,-338.2755 564,-344.2755 558,-344.2755 558,-344.2755 381,-344.2755 381,-344.2755 375,-344.2755 369,-338.2755 369,-332.2755 369,-332.2755 369,-154.2755 369,-154.2755 369,-148.2755 375,-142.2755 381,-142.2755"/>
<text text-anchor="middle" x="469.5" y="-333.0755" font-family="Helvetica,sans-Serif" font-weight="bold" font-size="9.00" fill="#000000">acme&#45;requests</text>
</g>
<g id="clust3" class="cluster">
<title>cluster_lib/x.509</title>
<path fill="#ffffff" stroke="#000000" stroke-width="2" d="M184,-214.2755C184,-214.2755 232,-214.2755 232,-214.2755 238,-214.2755 244,-220.2755 244,-226.2755 244,-226.2755 244,-254.2755 244,-254.2755 244,-260.2755 238,-266.2755 232,-266.2755 232,-266.2755 184,-266.2755 184,-266.2755 178,-266.2755 172,-260.2755 172,-254.2755 172,-254.2755 172,-226.2755 172,-226.2755 172,-220.2755 178,-214.2755 184,-214.2755"/>
<text text-anchor="middle" x="208" y="-255.0755" font-family="Helvetica,sans-Serif" font-weight="bold" font-size="9.00" fill="#000000">x.509</text>
</g>
<!-- index.js -->
<g id="node1" class="node">
<title>index.js</title>
<g id="a_node1"><a xlink:href="index.js" xlink:title="index.js">
<path fill="#ffffcc" stroke="#000000" d="M48,-145.2755C48,-145.2755 6,-145.2755 6,-145.2755 3,-145.2755 0,-142.2755 0,-139.2755 0,-139.2755 0,-133.2755 0,-133.2755 0,-130.2755 3,-127.2755 6,-127.2755 6,-127.2755 48,-127.2755 48,-127.2755 51,-127.2755 54,-130.2755 54,-133.2755 54,-133.2755 54,-139.2755 54,-139.2755 54,-142.2755 51,-145.2755 48,-145.2755"/>
<text text-anchor="middle" x="27" y="-134.0755" font-family="Helvetica,sans-Serif" font-size="9.00" fill="#000000">index.js</text>
</a>
</g>
</g>
<!-- lib/Certificate.js -->
<g id="node2" class="node">
<title>lib/Certificate.js</title>
<g id="a_node2"><a xlink:href="lib/Certificate.js" xlink:title="Certificate.js">
<path fill="#ffffcc" stroke="#000000" d="M138,-160.2755C138,-160.2755 83,-160.2755 83,-160.2755 80,-160.2755 77,-157.2755 77,-154.2755 77,-154.2755 77,-148.2755 77,-148.2755 77,-145.2755 80,-142.2755 83,-142.2755 83,-142.2755 138,-142.2755 138,-142.2755 141,-142.2755 144,-145.2755 144,-148.2755 144,-148.2755 144,-154.2755 144,-154.2755 144,-157.2755 141,-160.2755 138,-160.2755"/>
<text text-anchor="middle" x="110.5" y="-149.0755" font-family="Helvetica,sans-Serif" font-size="9.00" fill="#000000">Certificate.js</text>
</a>
</g>
</g>
<!-- index.js&#45;&gt;lib/Certificate.js -->
<g id="edge1" class="edge">
<title>index.js&#45;&gt;lib/Certificate.js</title>
<path fill="none" stroke="#000000" stroke-width="2" stroke-opacity="0.200000" d="M54.341,-141.187C59.6502,-142.1408 65.3137,-143.1582 70.9247,-144.1661"/>
<polygon fill="#000000" fill-opacity="0.200000" stroke="#000000" stroke-width="2" stroke-opacity="0.200000" points="70.6966,-146.2587 76.9734,-145.2527 71.4393,-142.1249 70.6966,-146.2587"/>
</g>
<!-- lib/Configuration.js -->
<g id="node3" class="node">
<title>lib/Configuration.js</title>
<g id="a_node3"><a xlink:href="lib/Configuration.js" xlink:title="Configuration.js">
<path fill="#ffffcc" stroke="#000000" d="M145,-130.2755C145,-130.2755 76,-130.2755 76,-130.2755 73,-130.2755 70,-127.2755 70,-124.2755 70,-124.2755 70,-118.2755 70,-118.2755 70,-115.2755 73,-112.2755 76,-112.2755 76,-112.2755 145,-112.2755 145,-112.2755 148,-112.2755 151,-115.2755 151,-118.2755 151,-118.2755 151,-124.2755 151,-124.2755 151,-127.2755 148,-130.2755 145,-130.2755"/>
<text text-anchor="middle" x="110.5" y="-119.0755" font-family="Helvetica,sans-Serif" font-size="9.00" fill="#000000">Configuration.js</text>
</a>
</g>
</g>
<!-- index.js&#45;&gt;lib/Configuration.js -->
<g id="edge2" class="edge">
<title>index.js&#45;&gt;lib/Configuration.js</title>
<path fill="none" stroke="#000000" stroke-width="2" stroke-opacity="0.200000" d="M54.341,-131.3639C57.278,-130.8363 60.3235,-130.2892 63.4084,-129.735"/>
<polygon fill="#000000" fill-opacity="0.200000" stroke="#000000" stroke-width="2" stroke-opacity="0.200000" points="64.2401,-131.7193 69.7743,-128.5914 63.4975,-127.5855 64.2401,-131.7193"/>
</g>
<!-- lib/Account.js -->
<g id="node4" class="node">
<title>lib/Account.js</title>
<g id="a_node4"><a xlink:href="lib/Account.js" xlink:title="Account.js">
<path fill="#ffffcc" stroke="#000000" d="M336.5,-308.2755C336.5,-308.2755 289.5,-308.2755 289.5,-308.2755 286.5,-308.2755 283.5,-305.2755 283.5,-302.2755 283.5,-302.2755 283.5,-296.2755 283.5,-296.2755 283.5,-293.2755 286.5,-290.2755 289.5,-290.2755 289.5,-290.2755 336.5,-290.2755 336.5,-290.2755 339.5,-290.2755 342.5,-293.2755 342.5,-296.2755 342.5,-296.2755 342.5,-302.2755 342.5,-302.2755 342.5,-305.2755 339.5,-308.2755 336.5,-308.2755"/>
<text text-anchor="middle" x="313" y="-297.0755" font-family="Helvetica,sans-Serif" font-size="9.00" fill="#000000">Account.js</text>
</a>
</g>
</g>
<!-- lib/Certificate.js&#45;&gt;lib/Account.js -->
<g id="edge9" class="edge">
<title>lib/Certificate.js&#45;&gt;lib/Account.js</title>
<path fill="none" stroke="#000000" stroke-width="2" stroke-opacity="0.200000" d="M118.0996,-160.6336C127.594,-171.6148 144.9286,-189.4424 164,-198.2755 199.8746,-214.8909 222.5799,-184.8648 252,-211.2755 269.0863,-226.6139 252.4598,-242.0413 265,-261.2755 271.6611,-271.4922 281.9948,-280.1848 291.3704,-286.6668"/>
<polygon fill="#000000" fill-opacity="0.200000" stroke="#000000" stroke-width="2" stroke-opacity="0.200000" points="290.29,-288.4702 296.451,-290.0362 292.6113,-284.9699 290.29,-288.4702"/>
</g>
<!-- lib/AccountIdentity.js -->
<g id="node6" class="node">
<title>lib/AccountIdentity.js</title>
<g id="a_node6"><a xlink:href="lib/AccountIdentity.js" xlink:title="AccountIdentity.js">
<path fill="#ffffcc" stroke="#000000" d="M246,-106.2755C246,-106.2755 170,-106.2755 170,-106.2755 167,-106.2755 164,-103.2755 164,-100.2755 164,-100.2755 164,-94.2755 164,-94.2755 164,-91.2755 167,-88.2755 170,-88.2755 170,-88.2755 246,-88.2755 246,-88.2755 249,-88.2755 252,-91.2755 252,-94.2755 252,-94.2755 252,-100.2755 252,-100.2755 252,-103.2755 249,-106.2755 246,-106.2755"/>
<text text-anchor="middle" x="208" y="-95.0755" font-family="Helvetica,sans-Serif" font-size="9.00" fill="#000000">AccountIdentity.js</text>
</a>
</g>
</g>
<!-- lib/Certificate.js&#45;&gt;lib/AccountIdentity.js -->
<g id="edge10" class="edge">
<title>lib/Certificate.js&#45;&gt;lib/AccountIdentity.js</title>
<path fill="none" stroke="#000000" stroke-width="2" stroke-opacity="0.200000" d="M140.0638,-142.1948C143.8834,-140.4902 147.6323,-138.5233 151,-136.2755 158.0624,-131.5615 157.3422,-127.5454 164,-122.2755 170.0278,-117.5042 177.0754,-113.074 183.7414,-109.309"/>
<polygon fill="#000000" fill-opacity="0.200000" stroke="#000000" stroke-width="2" stroke-opacity="0.200000" points="184.9655,-111.033 189.2203,-106.31 182.9488,-107.3488 184.9655,-111.033"/>
</g>
<!-- lib/AcmeRequest.js -->
<g id="node8" class="node">
<title>lib/AcmeRequest.js</title>
<g id="a_node8"><a xlink:href="lib/AcmeRequest.js" xlink:title="AcmeRequest.js">
<path fill="#ffffcc" stroke="#000000" d="M655,-228.2755C655,-228.2755 584,-228.2755 584,-228.2755 581,-228.2755 578,-225.2755 578,-222.2755 578,-222.2755 578,-216.2755 578,-216.2755 578,-213.2755 581,-210.2755 584,-210.2755 584,-210.2755 655,-210.2755 655,-210.2755 658,-210.2755 661,-213.2755 661,-216.2755 661,-216.2755 661,-222.2755 661,-222.2755 661,-225.2755 658,-228.2755 655,-228.2755"/>
<text text-anchor="middle" x="619.5" y="-217.0755" font-family="Helvetica,sans-Serif" font-size="9.00" fill="#000000">AcmeRequest.js</text>
</a>
</g>
</g>
<!-- lib/Certificate.js&#45;&gt;lib/AcmeRequest.js -->
<g id="edge11" class="edge">
<title>lib/Certificate.js&#45;&gt;lib/AcmeRequest.js</title>
<path fill="none" stroke="#000000" stroke-width="2" stroke-opacity="0.200000" d="M144.0894,-142.0492C146.6506,-140.426 149.0085,-138.518 151,-136.2755 167.3915,-117.8174 144.6839,-97.6465 164,-82.2755 305.1964,30.0837 422.5475,23.7378 570,-80.2755 590.8999,-95.0183 609.3128,-171.3354 616.4021,-204.1971"/>
<polygon fill="#000000" fill-opacity="0.200000" stroke="#000000" stroke-width="2" stroke-opacity="0.200000" points="614.3673,-204.7251 617.6664,-210.1589 618.4759,-203.8537 614.3673,-204.7251"/>
</g>
<!-- lib/CertificateIdentity.js -->
<g id="node14" class="node">
<title>lib/CertificateIdentity.js</title>
<g id="a_node14"><a xlink:href="lib/CertificateIdentity.js" xlink:title="CertificateIdentity.js">
<path fill="#ffffcc" stroke="#000000" d="M355,-132.2755C355,-132.2755 271,-132.2755 271,-132.2755 268,-132.2755 265,-129.2755 265,-126.2755 265,-126.2755 265,-120.2755 265,-120.2755 265,-117.2755 268,-114.2755 271,-114.2755 271,-114.2755 355,-114.2755 355,-114.2755 358,-114.2755 361,-117.2755 361,-120.2755 361,-120.2755 361,-126.2755 361,-126.2755 361,-129.2755 358,-132.2755 355,-132.2755"/>
<text text-anchor="middle" x="313" y="-121.0755" font-family="Helvetica,sans-Serif" font-size="9.00" fill="#000000">CertificateIdentity.js</text>
</a>
</g>
</g>
<!-- lib/Certificate.js&#45;&gt;lib/CertificateIdentity.js -->
<g id="edge12" class="edge">
<title>lib/Certificate.js&#45;&gt;lib/CertificateIdentity.js</title>
<path fill="none" stroke="#000000" stroke-width="2" stroke-opacity="0.200000" d="M138.8683,-142.2616C146.92,-139.9937 155.7435,-137.7795 164,-136.2755 194.9934,-130.6295 230.0756,-127.4152 258.4099,-125.5958"/>
<polygon fill="#000000" fill-opacity="0.200000" stroke="#000000" stroke-width="2" stroke-opacity="0.200000" points="258.859,-127.6722 264.7183,-125.2065 258.6003,-123.4801 258.859,-127.6722"/>
</g>
<!-- lib/Directory.js -->
<g id="node15" class="node">
<title>lib/Directory.js</title>
<g id="a_node15"><a xlink:href="lib/Directory.js" xlink:title="Directory.js">
<path fill="#ffffcc" stroke="#000000" d="M233,-160.2755C233,-160.2755 183,-160.2755 183,-160.2755 180,-160.2755 177,-157.2755 177,-154.2755 177,-154.2755 177,-148.2755 177,-148.2755 177,-145.2755 180,-142.2755 183,-142.2755 183,-142.2755 233,-142.2755 233,-142.2755 236,-142.2755 239,-145.2755 239,-148.2755 239,-148.2755 239,-154.2755 239,-154.2755 239,-157.2755 236,-160.2755 233,-160.2755"/>
<text text-anchor="middle" x="208" y="-149.0755" font-family="Helvetica,sans-Serif" font-size="9.00" fill="#000000">Directory.js</text>
</a>
</g>
</g>
<!-- lib/Certificate.js&#45;&gt;lib/Directory.js -->
<g id="edge13" class="edge">
<title>lib/Certificate.js&#45;&gt;lib/Directory.js</title>
<path fill="none" stroke="#000000" stroke-width="2" stroke-opacity="0.200000" d="M144.054,-151.2755C152.5645,-151.2755 161.7616,-151.2755 170.4559,-151.2755"/>
<polygon fill="#000000" fill-opacity="0.200000" stroke="#000000" stroke-width="2" stroke-opacity="0.200000" points="170.6809,-153.3755 176.6809,-151.2755 170.6809,-149.1755 170.6809,-153.3755"/>
</g>
<!-- lib/Order.js -->
<g id="node16" class="node">
<title>lib/Order.js</title>
<g id="a_node16"><a xlink:href="lib/Order.js" xlink:title="Order.js">
<path fill="#ffffcc" stroke="#000000" d="M229,-192.2755C229,-192.2755 187,-192.2755 187,-192.2755 184,-192.2755 181,-189.2755 181,-186.2755 181,-186.2755 181,-180.2755 181,-180.2755 181,-177.2755 184,-174.2755 187,-174.2755 187,-174.2755 229,-174.2755 229,-174.2755 232,-174.2755 235,-177.2755 235,-180.2755 235,-180.2755 235,-186.2755 235,-186.2755 235,-189.2755 232,-192.2755 229,-192.2755"/>
<text text-anchor="middle" x="208" y="-181.0755" font-family="Helvetica,sans-Serif" font-size="9.00" fill="#000000">Order.js</text>
</a>
</g>
</g>
<!-- lib/Certificate.js&#45;&gt;lib/Order.js -->
<g id="edge14" class="edge">
<title>lib/Certificate.js&#45;&gt;lib/Order.js</title>
<path fill="none" stroke="#000000" stroke-width="2" stroke-opacity="0.200000" d="M138.1788,-160.3598C149.6938,-164.139 163.1509,-168.5558 175.161,-172.4975"/>
<polygon fill="#000000" fill-opacity="0.200000" stroke="#000000" stroke-width="2" stroke-opacity="0.200000" points="174.5701,-174.5137 180.9258,-174.3896 175.8799,-170.5232 174.5701,-174.5137"/>
</g>
<!-- lib/x.509/rfc5280.js -->
<g id="node17" class="node">
<title>lib/x.509/rfc5280.js</title>
<g id="a_node17"><a xlink:href="lib/x.509/rfc5280.js" xlink:title="rfc5280.js">
<path fill="#ffffcc" stroke="#000000" d="M230,-240.2755C230,-240.2755 186,-240.2755 186,-240.2755 183,-240.2755 180,-237.2755 180,-234.2755 180,-234.2755 180,-228.2755 180,-228.2755 180,-225.2755 183,-222.2755 186,-222.2755 186,-222.2755 230,-222.2755 230,-222.2755 233,-222.2755 236,-225.2755 236,-228.2755 236,-228.2755 236,-234.2755 236,-234.2755 236,-237.2755 233,-240.2755 230,-240.2755"/>
<text text-anchor="middle" x="208" y="-229.0755" font-family="Helvetica,sans-Serif" font-size="9.00" fill="#000000">rfc5280.js</text>
</a>
</g>
</g>
<!-- lib/Certificate.js&#45;&gt;lib/x.509/rfc5280.js -->
<g id="edge15" class="edge">
<title>lib/Certificate.js&#45;&gt;lib/x.509/rfc5280.js</title>
<path fill="none" stroke="#000000" stroke-width="2" stroke-opacity="0.200000" d="M115.4223,-160.5662C123.5783,-175.0645 141.2738,-202.989 164,-218.2755 167.1229,-220.376 170.5919,-222.144 174.1729,-223.6307"/>
<polygon fill="#000000" fill-opacity="0.200000" stroke="#000000" stroke-width="2" stroke-opacity="0.200000" points="173.5029,-225.622 179.8587,-225.7427 174.9654,-221.6848 173.5029,-225.622"/>
</g>
<!-- lib/acme&#45;requests/NewAccountRequest.js -->
<g id="node5" class="node">
<title>lib/acme&#45;requests/NewAccountRequest.js</title>
<g id="a_node5"><a xlink:href="lib/acme-requests/NewAccountRequest.js" xlink:title="NewAccountRequest.js">
<path fill="#ffffcc" stroke="#000000" d="M519.5,-318.2755C519.5,-318.2755 419.5,-318.2755 419.5,-318.2755 416.5,-318.2755 413.5,-315.2755 413.5,-312.2755 413.5,-312.2755 413.5,-306.2755 413.5,-306.2755 413.5,-303.2755 416.5,-300.2755 419.5,-300.2755 419.5,-300.2755 519.5,-300.2755 519.5,-300.2755 522.5,-300.2755 525.5,-303.2755 525.5,-306.2755 525.5,-306.2755 525.5,-312.2755 525.5,-312.2755 525.5,-315.2755 522.5,-318.2755 519.5,-318.2755"/>
<text text-anchor="middle" x="469.5" y="-307.0755" font-family="Helvetica,sans-Serif" font-size="9.00" fill="#000000">NewAccountRequest.js</text>
</a>
</g>
</g>
<!-- lib/Account.js&#45;&gt;lib/acme&#45;requests/NewAccountRequest.js -->
<g id="edge3" class="edge">
<title>lib/Account.js&#45;&gt;lib/acme&#45;requests/NewAccountRequest.js</title>
<path fill="none" stroke="#000000" stroke-width="2" stroke-opacity="0.200000" d="M342.8048,-301.1799C360.9632,-302.3402 384.8598,-303.8671 407.0011,-305.2819"/>
<polygon fill="#000000" fill-opacity="0.200000" stroke="#000000" stroke-width="2" stroke-opacity="0.200000" points="407.0717,-307.3906 413.1934,-305.6776 407.3395,-303.1992 407.0717,-307.3906"/>
</g>
<!-- lib/acme&#45;requests/NewAccountRequest.js&#45;&gt;lib/AcmeRequest.js -->
<g id="edge27" class="edge">
<title>lib/acme&#45;requests/NewAccountRequest.js&#45;&gt;lib/AcmeRequest.js</title>
<path fill="none" stroke="#000000" stroke-width="2" stroke-opacity="0.200000" d="M525.6279,-309.1605C540.9461,-307.0053 556.9117,-302.6239 570,-294.2755 592.2576,-280.0783 606.7185,-251.8799 613.9649,-234.3935"/>
<polygon fill="#000000" fill-opacity="0.200000" stroke="#000000" stroke-width="2" stroke-opacity="0.200000" points="616.0496,-234.8332 616.3093,-228.4816 612.1454,-233.2849 616.0496,-234.8332"/>
</g>
<!-- lib/Identity.js -->
<g id="node7" class="node">
<title>lib/Identity.js</title>
<g id="a_node7"><a xlink:href="lib/Identity.js" xlink:title="Identity.js">
<path fill="#ffffcc" stroke="#000000" d="M491,-104.2755C491,-104.2755 448,-104.2755 448,-104.2755 445,-104.2755 442,-101.2755 442,-98.2755 442,-98.2755 442,-92.2755 442,-92.2755 442,-89.2755 445,-86.2755 448,-86.2755 448,-86.2755 491,-86.2755 491,-86.2755 494,-86.2755 497,-89.2755 497,-92.2755 497,-92.2755 497,-98.2755 497,-98.2755 497,-101.2755 494,-104.2755 491,-104.2755"/>
<text text-anchor="middle" x="469.5" y="-93.0755" font-family="Helvetica,sans-Serif" font-size="9.00" fill="#000000">Identity.js</text>
</a>
</g>
</g>
<!-- lib/AccountIdentity.js&#45;&gt;lib/Identity.js -->
<g id="edge4" class="edge">
<title>lib/AccountIdentity.js&#45;&gt;lib/Identity.js</title>
<path fill="none" stroke="#000000" stroke-width="2" stroke-opacity="0.200000" d="M252.0642,-96.9384C303.885,-96.5421 388.77,-95.8929 435.6818,-95.5341"/>
<polygon fill="#000000" fill-opacity="0.200000" stroke="#000000" stroke-width="2" stroke-opacity="0.200000" points="435.7807,-97.6335 441.7644,-95.4876 435.7485,-93.4336 435.7807,-97.6335"/>
</g>
<!-- lib/Nonce.js -->
<g id="node9" class="node">
<title>lib/Nonce.js</title>
<g id="a_node9"><a xlink:href="lib/Nonce.js" xlink:title="Nonce.js">
<path fill="#ffffcc" stroke="#000000" d="M722,-228.2755C722,-228.2755 680,-228.2755 680,-228.2755 677,-228.2755 674,-225.2755 674,-222.2755 674,-222.2755 674,-216.2755 674,-216.2755 674,-213.2755 677,-210.2755 680,-210.2755 680,-210.2755 722,-210.2755 722,-210.2755 725,-210.2755 728,-213.2755 728,-216.2755 728,-216.2755 728,-222.2755 728,-222.2755 728,-225.2755 725,-228.2755 722,-228.2755"/>
<text text-anchor="middle" x="701" y="-217.0755" font-family="Helvetica,sans-Serif" font-size="9.00" fill="#000000">Nonce.js</text>
</a>
</g>
</g>
<!-- lib/AcmeRequest.js&#45;&gt;lib/Nonce.js -->
<g id="edge5" class="edge">
<title>lib/AcmeRequest.js&#45;&gt;lib/Nonce.js</title>
<path fill="none" stroke="#000000" stroke-width="2" stroke-opacity="0.200000" d="M661.205,-219.2755C663.3198,-219.2755 665.4312,-219.2755 667.5164,-219.2755"/>
<polygon fill="#000000" fill-opacity="0.200000" stroke="#000000" stroke-width="2" stroke-opacity="0.200000" points="667.6704,-221.3756 673.6704,-219.2755 667.6704,-217.1756 667.6704,-221.3756"/>
</g>
<!-- lib/Authorisation.js -->
<g id="node10" class="node">
<title>lib/Authorisation.js</title>
<g id="a_node10"><a xlink:href="lib/Authorisation.js" xlink:title="Authorisation.js">
<path fill="#ffffcc" stroke="#000000" d="M347,-162.2755C347,-162.2755 279,-162.2755 279,-162.2755 276,-162.2755 273,-159.2755 273,-156.2755 273,-156.2755 273,-150.2755 273,-150.2755 273,-147.2755 276,-144.2755 279,-144.2755 279,-144.2755 347,-144.2755 347,-144.2755 350,-144.2755 353,-147.2755 353,-150.2755 353,-150.2755 353,-156.2755 353,-156.2755 353,-159.2755 350,-162.2755 347,-162.2755"/>
<text text-anchor="middle" x="313" y="-151.0755" font-family="Helvetica,sans-Serif" font-size="9.00" fill="#000000">Authorisation.js</text>
</a>
</g>
</g>
<!-- lib/acme&#45;requests/AuthorisationRequest.js -->
<g id="node11" class="node">
<title>lib/acme&#45;requests/AuthorisationRequest.js</title>
<g id="a_node11"><a xlink:href="lib/acme-requests/AuthorisationRequest.js" xlink:title="AuthorisationRequest.js">
<path fill="#ffffcc" stroke="#000000" d="M520.5,-168.2755C520.5,-168.2755 418.5,-168.2755 418.5,-168.2755 415.5,-168.2755 412.5,-165.2755 412.5,-162.2755 412.5,-162.2755 412.5,-156.2755 412.5,-156.2755 412.5,-153.2755 415.5,-150.2755 418.5,-150.2755 418.5,-150.2755 520.5,-150.2755 520.5,-150.2755 523.5,-150.2755 526.5,-153.2755 526.5,-156.2755 526.5,-156.2755 526.5,-162.2755 526.5,-162.2755 526.5,-165.2755 523.5,-168.2755 520.5,-168.2755"/>
<text text-anchor="middle" x="469.5" y="-157.0755" font-family="Helvetica,sans-Serif" font-size="9.00" fill="#000000">AuthorisationRequest.js</text>
</a>
</g>
</g>
<!-- lib/Authorisation.js&#45;&gt;lib/acme&#45;requests/AuthorisationRequest.js -->
<g id="edge6" class="edge">
<title>lib/Authorisation.js&#45;&gt;lib/acme&#45;requests/AuthorisationRequest.js</title>
<path fill="none" stroke="#000000" stroke-width="2" stroke-opacity="0.200000" d="M353.3026,-154.8206C369.4135,-155.4383 388.3561,-156.1645 406.2178,-156.8493"/>
<polygon fill="#000000" fill-opacity="0.200000" stroke="#000000" stroke-width="2" stroke-opacity="0.200000" points="406.1521,-158.9482 412.2282,-157.0797 406.3131,-154.7513 406.1521,-158.9482"/>
</g>
<!-- lib/acme&#45;requests/ReadyForChallengeValidationRequest.js -->
<g id="node12" class="node">
<title>lib/acme&#45;requests/ReadyForChallengeValidationRequest.js</title>
<g id="a_node12"><a xlink:href="lib/acme-requests/ReadyForChallengeValidationRequest.js" xlink:title="ReadyForChallengeValidationRequest.js">
<path fill="#ffffcc" stroke="#000000" d="M556,-198.2755C556,-198.2755 383,-198.2755 383,-198.2755 380,-198.2755 377,-195.2755 377,-192.2755 377,-192.2755 377,-186.2755 377,-186.2755 377,-183.2755 380,-180.2755 383,-180.2755 383,-180.2755 556,-180.2755 556,-180.2755 559,-180.2755 562,-183.2755 562,-186.2755 562,-186.2755 562,-192.2755 562,-192.2755 562,-195.2755 559,-198.2755 556,-198.2755"/>
<text text-anchor="middle" x="469.5" y="-187.0755" font-family="Helvetica,sans-Serif" font-size="9.00" fill="#000000">ReadyForChallengeValidationRequest.js</text>
</a>
</g>
</g>
<!-- lib/Authorisation.js&#45;&gt;lib/acme&#45;requests/ReadyForChallengeValidationRequest.js -->
<g id="edge7" class="edge">
<title>lib/Authorisation.js&#45;&gt;lib/acme&#45;requests/ReadyForChallengeValidationRequest.js</title>
<path fill="none" stroke="#000000" stroke-width="2" stroke-opacity="0.200000" d="M347.1455,-162.3563C351.9031,-164.0762 356.648,-166.0473 361,-168.2755 364.9561,-170.3009 364.8992,-172.5618 369,-174.2755 372.7183,-175.8293 376.5733,-177.2252 380.5109,-178.4791"/>
<polygon fill="#000000" fill-opacity="0.200000" stroke="#000000" stroke-width="2" stroke-opacity="0.200000" points="379.9828,-180.513 386.3328,-180.2164 381.1838,-176.4884 379.9828,-180.513"/>
</g>
<!-- lib/ChallengeServer.js -->
<g id="node13" class="node">
<title>lib/ChallengeServer.js</title>
<g id="a_node13"><a xlink:href="lib/ChallengeServer.js" xlink:title="ChallengeServer.js">
<path fill="#ffffcc" stroke="#000000" d="M511,-134.2755C511,-134.2755 428,-134.2755 428,-134.2755 425,-134.2755 422,-131.2755 422,-128.2755 422,-128.2755 422,-122.2755 422,-122.2755 422,-119.2755 425,-116.2755 428,-116.2755 428,-116.2755 511,-116.2755 511,-116.2755 514,-116.2755 517,-119.2755 517,-122.2755 517,-122.2755 517,-128.2755 517,-128.2755 517,-131.2755 514,-134.2755 511,-134.2755"/>
<text text-anchor="middle" x="469.5" y="-123.0755" font-family="Helvetica,sans-Serif" font-size="9.00" fill="#000000">ChallengeServer.js</text>
</a>
</g>
</g>
<!-- lib/Authorisation.js&#45;&gt;lib/ChallengeServer.js -->
<g id="edge8" class="edge">
<title>lib/Authorisation.js&#45;&gt;lib/ChallengeServer.js</title>
<path fill="none" stroke="#000000" stroke-width="2" stroke-opacity="0.200000" d="M346.6289,-144.2509C353.9695,-142.4542 361.72,-140.6884 369,-139.2755 384.1144,-136.3421 400.6224,-133.7798 415.8108,-131.6772"/>
<polygon fill="#000000" fill-opacity="0.200000" stroke="#000000" stroke-width="2" stroke-opacity="0.200000" points="416.1212,-133.7544 421.7831,-130.8644 415.5547,-129.5928 416.1212,-133.7544"/>
</g>
<!-- lib/acme&#45;requests/AuthorisationRequest.js&#45;&gt;lib/AcmeRequest.js -->
<g id="edge24" class="edge">
<title>lib/acme&#45;requests/AuthorisationRequest.js&#45;&gt;lib/AcmeRequest.js</title>
<path fill="none" stroke="#000000" stroke-width="2" stroke-opacity="0.200000" d="M526.5086,-161.8883C541.1891,-164.1252 556.6118,-167.9236 570,-174.2755 585.1494,-181.4628 598.9551,-194.8559 608.1144,-205.1691"/>
<polygon fill="#000000" fill-opacity="0.200000" stroke="#000000" stroke-width="2" stroke-opacity="0.200000" points="606.7176,-206.7655 612.223,-209.9438 609.9013,-204.026 606.7176,-206.7655"/>
</g>
<!-- lib/acme&#45;requests/ReadyForChallengeValidationRequest.js&#45;&gt;lib/AcmeRequest.js -->
<g id="edge29" class="edge">
<title>lib/acme&#45;requests/ReadyForChallengeValidationRequest.js&#45;&gt;lib/AcmeRequest.js</title>
<path fill="none" stroke="#000000" stroke-width="2" stroke-opacity="0.200000" d="M538.9465,-198.2858C549.3995,-200.033 560.0174,-202.0306 570,-204.2755 575.34,-205.4763 580.9433,-206.9557 586.3818,-208.5129"/>
<polygon fill="#000000" fill-opacity="0.200000" stroke="#000000" stroke-width="2" stroke-opacity="0.200000" points="585.8495,-210.5452 592.1982,-210.2236 587.0346,-206.5158 585.8495,-210.5452"/>
</g>
<!-- lib/CertificateIdentity.js&#45;&gt;lib/Identity.js -->
<g id="edge16" class="edge">
<title>lib/CertificateIdentity.js&#45;&gt;lib/Identity.js</title>
<path fill="none" stroke="#000000" stroke-width="2" stroke-opacity="0.200000" d="M349.9624,-114.2551C356.2949,-112.8359 362.8231,-111.4514 369,-110.2755 391.0489,-106.0777 416.0053,-102.3474 435.533,-99.6568"/>
<polygon fill="#000000" fill-opacity="0.200000" stroke="#000000" stroke-width="2" stroke-opacity="0.200000" points="436.0102,-101.7113 441.6718,-98.8205 435.4432,-97.5497 436.0102,-101.7113"/>
</g>
<!-- lib/Order.js&#45;&gt;lib/Authorisation.js -->
<g id="edge21" class="edge">
<title>lib/Order.js&#45;&gt;lib/Authorisation.js</title>
<path fill="none" stroke="#000000" stroke-width="2" stroke-opacity="0.200000" d="M235.0401,-175.5497C247.2649,-172.0569 261.9198,-167.8698 275.2074,-164.0733"/>
<polygon fill="#000000" fill-opacity="0.200000" stroke="#000000" stroke-width="2" stroke-opacity="0.200000" points="276.0105,-166.028 281.2027,-162.3604 274.8566,-161.9896 276.0105,-166.028"/>
</g>
<!-- lib/Order.js&#45;&gt;lib/ChallengeServer.js -->
<g id="edge23" class="edge">
<title>lib/Order.js&#45;&gt;lib/ChallengeServer.js</title>
<path fill="none" stroke="#000000" stroke-width="2" stroke-opacity="0.200000" d="M235.2592,-191.973C244.5888,-194.5399 255.1563,-197.0019 265,-198.2755 286.157,-201.0127 344.9336,-212.3104 361,-198.2755 380.9291,-180.8663 350.3225,-158.0211 369,-139.2755 381.126,-127.1052 398.5981,-122.1757 415.5834,-120.7365"/>
<polygon fill="#000000" fill-opacity="0.200000" stroke="#000000" stroke-width="2" stroke-opacity="0.200000" points="415.9471,-122.8183 421.8083,-120.3572 415.6916,-118.6261 415.9471,-122.8183"/>
</g>
<!-- lib/Order.js&#45;&gt;lib/CertificateIdentity.js -->
<g id="edge22" class="edge">
<title>lib/Order.js&#45;&gt;lib/CertificateIdentity.js</title>
<path fill="none" stroke="#000000" stroke-width="2" stroke-opacity="0.200000" d="M235.0131,-176.5669C241.1268,-174.0918 247.2172,-170.7527 252,-166.2755 262.0164,-156.899 254.6805,-147.3173 265,-138.2755 266.0671,-137.3405 267.1921,-136.4638 268.3634,-135.6417"/>
<polygon fill="#000000" fill-opacity="0.200000" stroke="#000000" stroke-width="2" stroke-opacity="0.200000" points="269.7136,-137.2792 273.7593,-132.3759 267.5389,-133.6861 269.7136,-137.2792"/>
</g>
<!-- lib/acme&#45;requests/CertificateRequest.js -->
<g id="node18" class="node">
<title>lib/acme&#45;requests/CertificateRequest.js</title>
<g id="a_node18"><a xlink:href="lib/acme-requests/CertificateRequest.js" xlink:title="CertificateRequest.js">
<path fill="#ffffcc" stroke="#000000" d="M514,-288.2755C514,-288.2755 425,-288.2755 425,-288.2755 422,-288.2755 419,-285.2755 419,-282.2755 419,-282.2755 419,-276.2755 419,-276.2755 419,-273.2755 422,-270.2755 425,-270.2755 425,-270.2755 514,-270.2755 514,-270.2755 517,-270.2755 520,-273.2755 520,-276.2755 520,-276.2755 520,-282.2755 520,-282.2755 520,-285.2755 517,-288.2755 514,-288.2755"/>
<text text-anchor="middle" x="469.5" y="-277.0755" font-family="Helvetica,sans-Serif" font-size="9.00" fill="#000000">CertificateRequest.js</text>
</a>
</g>
</g>
<!-- lib/Order.js&#45;&gt;lib/acme&#45;requests/CertificateRequest.js -->
<g id="edge17" class="edge">
<title>lib/Order.js&#45;&gt;lib/acme&#45;requests/CertificateRequest.js</title>
<path fill="none" stroke="#000000" stroke-width="2" stroke-opacity="0.200000" d="M235.3437,-190.3156C241.4474,-192.9382 247.4504,-196.4904 252,-201.2755 264.0101,-213.9072 252.1162,-226.5362 265,-238.2755 304.8321,-274.569 367.4614,-282.5214 412.9222,-282.8185"/>
<polygon fill="#000000" fill-opacity="0.200000" stroke="#000000" stroke-width="2" stroke-opacity="0.200000" points="412.9396,-284.9186 418.938,-282.8141 412.9365,-280.7186 412.9396,-284.9186"/>
</g>
<!-- lib/acme&#45;requests/FinaliseOrderRequest.js -->
<g id="node19" class="node">
<title>lib/acme&#45;requests/FinaliseOrderRequest.js</title>
<g id="a_node19"><a xlink:href="lib/acme-requests/FinaliseOrderRequest.js" xlink:title="FinaliseOrderRequest.js">
<path fill="#ffffcc" stroke="#000000" d="M521.5,-228.2755C521.5,-228.2755 417.5,-228.2755 417.5,-228.2755 414.5,-228.2755 411.5,-225.2755 411.5,-222.2755 411.5,-222.2755 411.5,-216.2755 411.5,-216.2755 411.5,-213.2755 414.5,-210.2755 417.5,-210.2755 417.5,-210.2755 521.5,-210.2755 521.5,-210.2755 524.5,-210.2755 527.5,-213.2755 527.5,-216.2755 527.5,-216.2755 527.5,-222.2755 527.5,-222.2755 527.5,-225.2755 524.5,-228.2755 521.5,-228.2755"/>
<text text-anchor="middle" x="469.5" y="-217.0755" font-family="Helvetica,sans-Serif" font-size="9.00" fill="#000000">FinaliseOrderRequest.js</text>
</a>
</g>
</g>
<!-- lib/Order.js&#45;&gt;lib/acme&#45;requests/FinaliseOrderRequest.js -->
<g id="edge18" class="edge">
<title>lib/Order.js&#45;&gt;lib/acme&#45;requests/FinaliseOrderRequest.js</title>
<path fill="none" stroke="#000000" stroke-width="2" stroke-opacity="0.200000" d="M232.0676,-192.2936C238.6296,-194.9749 245.6717,-198.061 252,-201.2755 258.0486,-204.3478 258.5194,-207.2689 265,-209.2755 310.3781,-223.3254 364.1081,-225.4315 405.1039,-224.235"/>
<polygon fill="#000000" fill-opacity="0.200000" stroke="#000000" stroke-width="2" stroke-opacity="0.200000" points="405.3881,-226.3267 411.3139,-224.0258 405.2466,-222.1291 405.3881,-226.3267"/>
</g>
<!-- lib/acme&#45;requests/NewOrderRequest.js -->
<g id="node20" class="node">
<title>lib/acme&#45;requests/NewOrderRequest.js</title>
<g id="a_node20"><a xlink:href="lib/acme-requests/NewOrderRequest.js" xlink:title="NewOrderRequest.js">
<path fill="#ffffcc" stroke="#000000" d="M514.5,-258.2755C514.5,-258.2755 424.5,-258.2755 424.5,-258.2755 421.5,-258.2755 418.5,-255.2755 418.5,-252.2755 418.5,-252.2755 418.5,-246.2755 418.5,-246.2755 418.5,-243.2755 421.5,-240.2755 424.5,-240.2755 424.5,-240.2755 514.5,-240.2755 514.5,-240.2755 517.5,-240.2755 520.5,-243.2755 520.5,-246.2755 520.5,-246.2755 520.5,-252.2755 520.5,-252.2755 520.5,-255.2755 517.5,-258.2755 514.5,-258.2755"/>
<text text-anchor="middle" x="469.5" y="-247.0755" font-family="Helvetica,sans-Serif" font-size="9.00" fill="#000000">NewOrderRequest.js</text>
</a>
</g>
</g>
<!-- lib/Order.js&#45;&gt;lib/acme&#45;requests/NewOrderRequest.js -->
<g id="edge19" class="edge">
<title>lib/Order.js&#45;&gt;lib/acme&#45;requests/NewOrderRequest.js</title>
<path fill="none" stroke="#000000" stroke-width="2" stroke-opacity="0.200000" d="M235.4321,-191.6117C241.2607,-194.1458 247.1208,-197.3336 252,-201.2755 259.959,-207.7055 256.3083,-214.8768 265,-220.2755 309.0754,-247.6518 368.6574,-253.3457 412.1365,-253.1218"/>
<polygon fill="#000000" fill-opacity="0.200000" stroke="#000000" stroke-width="2" stroke-opacity="0.200000" points="412.186,-255.2215 418.1614,-253.0526 412.1377,-251.0217 412.186,-255.2215"/>
</g>
<!-- lib/acmeCsr.js -->
<g id="node21" class="node">
<title>lib/acmeCsr.js</title>
<g id="a_node21"><a xlink:href="lib/acmeCsr.js" xlink:title="acmeCsr.js">
<path fill="#ffffcc" stroke="#000000" d="M338,-192.2755C338,-192.2755 288,-192.2755 288,-192.2755 285,-192.2755 282,-189.2755 282,-186.2755 282,-186.2755 282,-180.2755 282,-180.2755 282,-177.2755 285,-174.2755 288,-174.2755 288,-174.2755 338,-174.2755 338,-174.2755 341,-174.2755 344,-177.2755 344,-180.2755 344,-180.2755 344,-186.2755 344,-186.2755 344,-189.2755 341,-192.2755 338,-192.2755"/>
<text text-anchor="middle" x="313" y="-181.0755" font-family="Helvetica,sans-Serif" font-size="9.00" fill="#000000">acmeCsr.js</text>
</a>
</g>
</g>
<!-- lib/Order.js&#45;&gt;lib/acmeCsr.js -->
<g id="edge20" class="edge">
<title>lib/Order.js&#45;&gt;lib/acmeCsr.js</title>
<path fill="none" stroke="#000000" stroke-width="2" stroke-opacity="0.200000" d="M235.0401,-183.2755C247.4757,-183.2755 262.4259,-183.2755 275.8935,-183.2755"/>
<polygon fill="#000000" fill-opacity="0.200000" stroke="#000000" stroke-width="2" stroke-opacity="0.200000" points="275.9626,-185.3756 281.9626,-183.2755 275.9626,-181.1756 275.9626,-185.3756"/>
</g>
<!-- lib/acme&#45;requests/CertificateRequest.js&#45;&gt;lib/AcmeRequest.js -->
<g id="edge25" class="edge">
<title>lib/acme&#45;requests/CertificateRequest.js&#45;&gt;lib/AcmeRequest.js</title>
<path fill="none" stroke="#000000" stroke-width="2" stroke-opacity="0.200000" d="M520.0133,-277.5607C536.554,-275.4997 554.6195,-271.5725 570,-264.2755 585.1494,-257.0881 598.9551,-243.695 608.1144,-233.3818"/>
<polygon fill="#000000" fill-opacity="0.200000" stroke="#000000" stroke-width="2" stroke-opacity="0.200000" points="609.9013,-234.5249 612.223,-228.6071 606.7176,-231.7854 609.9013,-234.5249"/>
</g>
<!-- lib/acme&#45;requests/FinaliseOrderRequest.js&#45;&gt;lib/AcmeRequest.js -->
<g id="edge26" class="edge">
<title>lib/acme&#45;requests/FinaliseOrderRequest.js&#45;&gt;lib/AcmeRequest.js</title>
<path fill="none" stroke="#000000" stroke-width="2" stroke-opacity="0.200000" d="M527.9234,-219.2755C542.3332,-219.2755 557.6023,-219.2755 571.4561,-219.2755"/>
<polygon fill="#000000" fill-opacity="0.200000" stroke="#000000" stroke-width="2" stroke-opacity="0.200000" points="571.7136,-221.3755 577.7135,-219.2755 571.7135,-217.1755 571.7136,-221.3755"/>
</g>
<!-- lib/acme&#45;requests/NewOrderRequest.js&#45;&gt;lib/AcmeRequest.js -->
<g id="edge28" class="edge">
<title>lib/acme&#45;requests/NewOrderRequest.js&#45;&gt;lib/AcmeRequest.js</title>
<path fill="none" stroke="#000000" stroke-width="2" stroke-opacity="0.200000" d="M520.6368,-243.1164C536.5429,-240.8069 554.0795,-237.8556 570,-234.2755 575.34,-233.0746 580.9433,-231.5952 586.3818,-230.0381"/>
<polygon fill="#000000" fill-opacity="0.200000" stroke="#000000" stroke-width="2" stroke-opacity="0.200000" points="587.0346,-232.0351 592.1982,-228.3273 585.8495,-228.0057 587.0346,-232.0351"/>
</g>
</g>
</svg>
