<?xml version="1.0" encoding="UTF-8" standalone="no"?>
<!DOCTYPE svg PUBLIC "-//W3C//DTD SVG 1.1//EN"
 "http://www.w3.org/Graphics/SVG/1.1/DTD/svg11.dtd">
<!-- Generated by graphviz version 2.40.1 (20161225.0304)
 -->
<!-- Title: dependency&#45;cruiser output Pages: 1 -->
<svg width="760pt" height="392pt"
 viewBox="0.00 0.00 760.00 391.89" xmlns="http://www.w3.org/2000/svg" xmlns:xlink="http://www.w3.org/1999/xlink">
<g id="graph0" class="graph" transform="scale(1 1) rotate(0) translate(4 387.8875)">
<title>dependency&#45;cruiser output</title>
<polygon fill="#ffffff" stroke="transparent" points="-4,4 -4,-387.8875 756,-387.8875 756,4 -4,4"/>
<g id="clust1" class="cluster">
<title>cluster_lib</title>
<path fill="#ffffff" stroke="#000000" stroke-width="2" d="M74,-69.8875C74,-69.8875 732,-69.8875 732,-69.8875 738,-69.8875 744,-75.8875 744,-81.8875 744,-81.8875 744,-363.8875 744,-363.8875 744,-369.8875 738,-375.8875 732,-375.8875 732,-375.8875 74,-375.8875 74,-375.8875 68,-375.8875 62,-369.8875 62,-363.8875 62,-363.8875 62,-81.8875 62,-81.8875 62,-75.8875 68,-69.8875 74,-69.8875"/>
<text text-anchor="middle" x="403" y="-364.6875" font-family="Helvetica,sans-Serif" font-weight="bold" font-size="9.00" fill="#000000">lib</text>
</g>
<g id="clust2" class="cluster">
<title>cluster_lib/acme&#45;requests</title>
<path fill="#ffffff" stroke="#000000" stroke-width="2" d="M389,-147.8875C389,-147.8875 566,-147.8875 566,-147.8875 572,-147.8875 578,-153.8875 578,-159.8875 578,-159.8875 578,-337.8875 578,-337.8875 578,-343.8875 572,-349.8875 566,-349.8875 566,-349.8875 389,-349.8875 389,-349.8875 383,-349.8875 377,-343.8875 377,-337.8875 377,-337.8875 377,-159.8875 377,-159.8875 377,-153.8875 383,-147.8875 389,-147.8875"/>
<text text-anchor="middle" x="477.5" y="-338.6875" font-family="Helvetica,sans-Serif" font-weight="bold" font-size="9.00" fill="#000000">acme&#45;requests</text>
</g>
<g id="clust3" class="cluster">
<title>cluster_lib/x.509</title>
<path fill="#ffffff" stroke="#000000" stroke-width="2" d="M171,-285.8875C171,-285.8875 345,-285.8875 345,-285.8875 351,-285.8875 357,-291.8875 357,-297.8875 357,-297.8875 357,-325.8875 357,-325.8875 357,-331.8875 351,-337.8875 345,-337.8875 345,-337.8875 171,-337.8875 171,-337.8875 165,-337.8875 159,-331.8875 159,-325.8875 159,-325.8875 159,-297.8875 159,-297.8875 159,-291.8875 165,-285.8875 171,-285.8875"/>
<text text-anchor="middle" x="258" y="-326.6875" font-family="Helvetica,sans-Serif" font-weight="bold" font-size="9.00" fill="#000000">x.509</text>
</g>
<!-- index.js -->
<g id="node1" class="node">
<title>index.js</title>
<g id="a_node1"><a xlink:href="index.js" xlink:title="index.js">
<path fill="#ffffcc" stroke="#000000" d="M48,-149.8875C48,-149.8875 6,-149.8875 6,-149.8875 3,-149.8875 0,-146.8875 0,-143.8875 0,-143.8875 0,-137.8875 0,-137.8875 0,-134.8875 3,-131.8875 6,-131.8875 6,-131.8875 48,-131.8875 48,-131.8875 51,-131.8875 54,-134.8875 54,-137.8875 54,-137.8875 54,-143.8875 54,-143.8875 54,-146.8875 51,-149.8875 48,-149.8875"/>
<text text-anchor="middle" x="27" y="-138.6875" font-family="Helvetica,sans-Serif" font-size="9.00" fill="#000000">index.js</text>
</a>
</g>
</g>
<!-- lib/Certificate.js -->
<g id="node2" class="node">
<title>lib/Certificate.js</title>
<g id="a_node2"><a xlink:href="lib/Certificate.js" xlink:title="Certificate.js">
<path fill="#ffffcc" stroke="#000000" d="M138,-164.8875C138,-164.8875 83,-164.8875 83,-164.8875 80,-164.8875 77,-161.8875 77,-158.8875 77,-158.8875 77,-152.8875 77,-152.8875 77,-149.8875 80,-146.8875 83,-146.8875 83,-146.8875 138,-146.8875 138,-146.8875 141,-146.8875 144,-149.8875 144,-152.8875 144,-152.8875 144,-158.8875 144,-158.8875 144,-161.8875 141,-164.8875 138,-164.8875"/>
<text text-anchor="middle" x="110.5" y="-153.6875" font-family="Helvetica,sans-Serif" font-size="9.00" fill="#000000">Certificate.js</text>
</a>
</g>
</g>
<!-- index.js&#45;&gt;lib/Certificate.js -->
<g id="edge1" class="edge">
<title>index.js&#45;&gt;lib/Certificate.js</title>
<path fill="none" stroke="#000000" stroke-width="2" stroke-opacity="0.200000" d="M54.341,-145.7991C59.6502,-146.7529 65.3137,-147.7703 70.9247,-148.7782"/>
<polygon fill="#000000" fill-opacity="0.200000" stroke="#000000" stroke-width="2" stroke-opacity="0.200000" points="70.6966,-150.8708 76.9734,-149.8648 71.4393,-146.737 70.6966,-150.8708"/>
</g>
<!-- lib/Configuration.js -->
<g id="node3" class="node">
<title>lib/Configuration.js</title>
<g id="a_node3"><a xlink:href="lib/Configuration.js" xlink:title="Configuration.js">
<path fill="#ffffcc" stroke="#000000" d="M145,-134.8875C145,-134.8875 76,-134.8875 76,-134.8875 73,-134.8875 70,-131.8875 70,-128.8875 70,-128.8875 70,-122.8875 70,-122.8875 70,-119.8875 73,-116.8875 76,-116.8875 76,-116.8875 145,-116.8875 145,-116.8875 148,-116.8875 151,-119.8875 151,-122.8875 151,-122.8875 151,-128.8875 151,-128.8875 151,-131.8875 148,-134.8875 145,-134.8875"/>
<text text-anchor="middle" x="110.5" y="-123.6875" font-family="Helvetica,sans-Serif" font-size="9.00" fill="#000000">Configuration.js</text>
</a>
</g>
</g>
<!-- index.js&#45;&gt;lib/Configuration.js -->
<g id="edge2" class="edge">
<title>index.js&#45;&gt;lib/Configuration.js</title>
<path fill="none" stroke="#000000" stroke-width="2" stroke-opacity="0.200000" d="M54.341,-135.976C57.278,-135.4484 60.3235,-134.9013 63.4084,-134.3471"/>
<polygon fill="#000000" fill-opacity="0.200000" stroke="#000000" stroke-width="2" stroke-opacity="0.200000" points="64.2401,-136.3314 69.7743,-133.2035 63.4975,-132.1976 64.2401,-136.3314"/>
</g>
<!-- lib/Account.js -->
<g id="node4" class="node">
<title>lib/Account.js</title>
<g id="a_node4"><a xlink:href="lib/Account.js" xlink:title="Account.js">
<path fill="#ffffcc" stroke="#000000" d="M344.5,-277.8875C344.5,-277.8875 297.5,-277.8875 297.5,-277.8875 294.5,-277.8875 291.5,-274.8875 291.5,-271.8875 291.5,-271.8875 291.5,-265.8875 291.5,-265.8875 291.5,-262.8875 294.5,-259.8875 297.5,-259.8875 297.5,-259.8875 344.5,-259.8875 344.5,-259.8875 347.5,-259.8875 350.5,-262.8875 350.5,-265.8875 350.5,-265.8875 350.5,-271.8875 350.5,-271.8875 350.5,-274.8875 347.5,-277.8875 344.5,-277.8875"/>
<text text-anchor="middle" x="321" y="-266.6875" font-family="Helvetica,sans-Serif" font-size="9.00" fill="#000000">Account.js</text>
</a>
</g>
</g>
<!-- lib/Certificate.js&#45;&gt;lib/Account.js -->
<g id="edge9" class="edge">
<title>lib/Certificate.js&#45;&gt;lib/Account.js</title>
<path fill="none" stroke="#000000" stroke-width="2" stroke-opacity="0.200000" d="M118.2924,-165.1839C127.2749,-175.4526 142.883,-191.9751 159,-202.8875 198.8184,-229.8479 251.3551,-248.7065 285.6442,-259.1715"/>
<polygon fill="#000000" fill-opacity="0.200000" stroke="#000000" stroke-width="2" stroke-opacity="0.200000" points="285.0555,-261.1873 291.406,-260.9034 286.2645,-257.165 285.0555,-261.1873"/>
</g>
<!-- lib/AccountIdentity.js -->
<g id="node6" class="node">
<title>lib/AccountIdentity.js</title>
<g id="a_node6"><a xlink:href="lib/AccountIdentity.js" xlink:title="AccountIdentity.js">
<path fill="#ffffcc" stroke="#000000" d="M251.5,-110.8875C251.5,-110.8875 175.5,-110.8875 175.5,-110.8875 172.5,-110.8875 169.5,-107.8875 169.5,-104.8875 169.5,-104.8875 169.5,-98.8875 169.5,-98.8875 169.5,-95.8875 172.5,-92.8875 175.5,-92.8875 175.5,-92.8875 251.5,-92.8875 251.5,-92.8875 254.5,-92.8875 257.5,-95.8875 257.5,-98.8875 257.5,-98.8875 257.5,-104.8875 257.5,-104.8875 257.5,-107.8875 254.5,-110.8875 251.5,-110.8875"/>
<text text-anchor="middle" x="213.5" y="-99.6875" font-family="Helvetica,sans-Serif" font-size="9.00" fill="#000000">AccountIdentity.js</text>
</a>
</g>
</g>
<!-- lib/Certificate.js&#45;&gt;lib/AccountIdentity.js -->
<g id="edge10" class="edge">
<title>lib/Certificate.js&#45;&gt;lib/AccountIdentity.js</title>
<path fill="none" stroke="#000000" stroke-width="2" stroke-opacity="0.200000" d="M141.8254,-146.881C145.115,-145.1968 148.2547,-143.2149 151,-140.8875 156.4665,-136.2534 153.712,-131.7244 159,-126.8875 164.9374,-121.4568 172.2579,-117.0264 179.5851,-113.4873"/>
<polygon fill="#000000" fill-opacity="0.200000" stroke="#000000" stroke-width="2" stroke-opacity="0.200000" points="180.5718,-115.3457 185.1667,-110.9529 178.8353,-111.5215 180.5718,-115.3457"/>
</g>
<!-- lib/AcmeRequest.js -->
<g id="node8" class="node">
<title>lib/AcmeRequest.js</title>
<g id="a_node8"><a xlink:href="lib/AcmeRequest.js" xlink:title="AcmeRequest.js">
<path fill="#ffffcc" stroke="#000000" d="M663,-233.8875C663,-233.8875 592,-233.8875 592,-233.8875 589,-233.8875 586,-230.8875 586,-227.8875 586,-227.8875 586,-221.8875 586,-221.8875 586,-218.8875 589,-215.8875 592,-215.8875 592,-215.8875 663,-215.8875 663,-215.8875 666,-215.8875 669,-218.8875 669,-221.8875 669,-221.8875 669,-227.8875 669,-227.8875 669,-230.8875 666,-233.8875 663,-233.8875"/>
<text text-anchor="middle" x="627.5" y="-222.6875" font-family="Helvetica,sans-Serif" font-size="9.00" fill="#000000">AcmeRequest.js</text>
</a>
</g>
</g>
<!-- lib/Certificate.js&#45;&gt;lib/AcmeRequest.js -->
<g id="edge11" class="edge">
<title>lib/Certificate.js&#45;&gt;lib/AcmeRequest.js</title>
<path fill="none" stroke="#000000" stroke-width="2" stroke-opacity="0.200000" d="M144.307,-146.8461C146.8226,-145.1841 149.1104,-143.2167 151,-140.8875 166.2856,-122.0463 140.6665,-102.7786 159,-86.8875 299.719,35.0841 425.8275,21.4552 578,-85.8875 598.8999,-100.6303 617.3128,-176.9475 624.4021,-209.8092"/>
<polygon fill="#000000" fill-opacity="0.200000" stroke="#000000" stroke-width="2" stroke-opacity="0.200000" points="622.3673,-210.3372 625.6664,-215.771 626.4759,-209.4658 622.3673,-210.3372"/>
</g>
<!-- lib/CertificateIdentity.js -->
<g id="node14" class="node">
<title>lib/CertificateIdentity.js</title>
<g id="a_node14"><a xlink:href="lib/CertificateIdentity.js" xlink:title="CertificateIdentity.js">
<path fill="#ffffcc" stroke="#000000" d="M363,-131.8875C363,-131.8875 279,-131.8875 279,-131.8875 276,-131.8875 273,-128.8875 273,-125.8875 273,-125.8875 273,-119.8875 273,-119.8875 273,-116.8875 276,-113.8875 279,-113.8875 279,-113.8875 363,-113.8875 363,-113.8875 366,-113.8875 369,-116.8875 369,-119.8875 369,-119.8875 369,-125.8875 369,-125.8875 369,-128.8875 366,-131.8875 363,-131.8875"/>
<text text-anchor="middle" x="321" y="-120.6875" font-family="Helvetica,sans-Serif" font-size="9.00" fill="#000000">CertificateIdentity.js</text>
</a>
</g>
</g>
<!-- lib/Certificate.js&#45;&gt;lib/CertificateIdentity.js -->
<g id="edge12" class="edge">
<title>lib/Certificate.js&#45;&gt;lib/CertificateIdentity.js</title>
<path fill="none" stroke="#000000" stroke-width="2" stroke-opacity="0.200000" d="M136.4403,-146.8729C143.6711,-144.6326 151.5794,-142.4328 159,-140.8875 194.4522,-133.5051 234.9411,-129.0055 266.5725,-126.3513"/>
<polygon fill="#000000" fill-opacity="0.200000" stroke="#000000" stroke-width="2" stroke-opacity="0.200000" points="266.9674,-128.4262 272.7765,-125.8448 266.6255,-124.2401 266.9674,-128.4262"/>
</g>
<!-- lib/Directory.js -->
<g id="node15" class="node">
<title>lib/Directory.js</title>
<g id="a_node15"><a xlink:href="lib/Directory.js" xlink:title="Directory.js">
<path fill="#ffffcc" stroke="#000000" d="M238.5,-164.8875C238.5,-164.8875 188.5,-164.8875 188.5,-164.8875 185.5,-164.8875 182.5,-161.8875 182.5,-158.8875 182.5,-158.8875 182.5,-152.8875 182.5,-152.8875 182.5,-149.8875 185.5,-146.8875 188.5,-146.8875 188.5,-146.8875 238.5,-146.8875 238.5,-146.8875 241.5,-146.8875 244.5,-149.8875 244.5,-152.8875 244.5,-152.8875 244.5,-158.8875 244.5,-158.8875 244.5,-161.8875 241.5,-164.8875 238.5,-164.8875"/>
<text text-anchor="middle" x="213.5" y="-153.6875" font-family="Helvetica,sans-Serif" font-size="9.00" fill="#000000">Directory.js</text>
</a>
</g>
</g>
<!-- lib/Certificate.js&#45;&gt;lib/Directory.js -->
<g id="edge13" class="edge">
<title>lib/Certificate.js&#45;&gt;lib/Directory.js</title>
<path fill="none" stroke="#000000" stroke-width="2" stroke-opacity="0.200000" d="M144.2261,-155.8875C154.5254,-155.8875 165.9058,-155.8875 176.4152,-155.8875"/>
<polygon fill="#000000" fill-opacity="0.200000" stroke="#000000" stroke-width="2" stroke-opacity="0.200000" points="176.4875,-157.9876 182.4875,-155.8875 176.4875,-153.7876 176.4875,-157.9876"/>
</g>
<!-- lib/Order.js -->
<g id="node16" class="node">
<title>lib/Order.js</title>
<g id="a_node16"><a xlink:href="lib/Order.js" xlink:title="Order.js">
<path fill="#ffffcc" stroke="#000000" d="M234.5,-196.8875C234.5,-196.8875 192.5,-196.8875 192.5,-196.8875 189.5,-196.8875 186.5,-193.8875 186.5,-190.8875 186.5,-190.8875 186.5,-184.8875 186.5,-184.8875 186.5,-181.8875 189.5,-178.8875 192.5,-178.8875 192.5,-178.8875 234.5,-178.8875 234.5,-178.8875 237.5,-178.8875 240.5,-181.8875 240.5,-184.8875 240.5,-184.8875 240.5,-190.8875 240.5,-190.8875 240.5,-193.8875 237.5,-196.8875 234.5,-196.8875"/>
<text text-anchor="middle" x="213.5" y="-185.6875" font-family="Helvetica,sans-Serif" font-size="9.00" fill="#000000">Order.js</text>
</a>
</g>
</g>
<!-- lib/Certificate.js&#45;&gt;lib/Order.js -->
<g id="edge14" class="edge">
<title>lib/Certificate.js&#45;&gt;lib/Order.js</title>
<path fill="none" stroke="#000000" stroke-width="2" stroke-opacity="0.200000" d="M139.7402,-164.9719C152.4279,-168.9137 167.3477,-173.549 180.4369,-177.6155"/>
<polygon fill="#000000" fill-opacity="0.200000" stroke="#000000" stroke-width="2" stroke-opacity="0.200000" points="179.9545,-179.6646 186.3074,-179.4394 181.2007,-175.6537 179.9545,-179.6646"/>
</g>
<!-- lib/x.509/certificateDetails.js -->
<g id="node17" class="node">
<title>lib/x.509/certificateDetails.js</title>
<g id="a_node17"><a xlink:href="lib/x.509/certificateDetails.js" xlink:title="certificateDetails.js">
<path fill="#ffffcc" stroke="#000000" d="M254,-311.8875C254,-311.8875 173,-311.8875 173,-311.8875 170,-311.8875 167,-308.8875 167,-305.8875 167,-305.8875 167,-299.8875 167,-299.8875 167,-296.8875 170,-293.8875 173,-293.8875 173,-293.8875 254,-293.8875 254,-293.8875 257,-293.8875 260,-296.8875 260,-299.8875 260,-299.8875 260,-305.8875 260,-305.8875 260,-308.8875 257,-311.8875 254,-311.8875"/>
<text text-anchor="middle" x="213.5" y="-300.6875" font-family="Helvetica,sans-Serif" font-size="9.00" fill="#000000">certificateDetails.js</text>
</a>
</g>
</g>
<!-- lib/Certificate.js&#45;&gt;lib/x.509/certificateDetails.js -->
<g id="edge15" class="edge">
<title>lib/Certificate.js&#45;&gt;lib/x.509/certificateDetails.js</title>
<path fill="none" stroke="#000000" stroke-width="2" stroke-opacity="0.200000" d="M110.9516,-164.9872C112.6651,-189.218 120.7975,-255.7791 159,-289.8875 159.8979,-290.6893 160.8364,-291.4438 161.8094,-292.1539"/>
<polygon fill="#000000" fill-opacity="0.200000" stroke="#000000" stroke-width="2" stroke-opacity="0.200000" points="160.7312,-293.9564 166.9342,-295.3466 162.952,-290.3915 160.7312,-293.9564"/>
</g>
<!-- lib/acme&#45;requests/NewAccountRequest.js -->
<g id="node5" class="node">
<title>lib/acme&#45;requests/NewAccountRequest.js</title>
<g id="a_node5"><a xlink:href="lib/acme-requests/NewAccountRequest.js" xlink:title="NewAccountRequest.js">
<path fill="#ffffcc" stroke="#000000" d="M527.5,-323.8875C527.5,-323.8875 427.5,-323.8875 427.5,-323.8875 424.5,-323.8875 421.5,-320.8875 421.5,-317.8875 421.5,-317.8875 421.5,-311.8875 421.5,-311.8875 421.5,-308.8875 424.5,-305.8875 427.5,-305.8875 427.5,-305.8875 527.5,-305.8875 527.5,-305.8875 530.5,-305.8875 533.5,-308.8875 533.5,-311.8875 533.5,-311.8875 533.5,-317.8875 533.5,-317.8875 533.5,-320.8875 530.5,-323.8875 527.5,-323.8875"/>
<text text-anchor="middle" x="477.5" y="-312.6875" font-family="Helvetica,sans-Serif" font-size="9.00" fill="#000000">NewAccountRequest.js</text>
</a>
</g>
</g>
<!-- lib/Account.js&#45;&gt;lib/acme&#45;requests/NewAccountRequest.js -->
<g id="edge3" class="edge">
<title>lib/Account.js&#45;&gt;lib/acme&#45;requests/NewAccountRequest.js</title>
<path fill="none" stroke="#000000" stroke-width="2" stroke-opacity="0.200000" d="M350.633,-273.3197C357.2213,-275.392 363.7877,-278.4312 369,-282.8875 375.3469,-288.3139 370.3,-294.9037 377,-299.8875 387.9858,-308.0594 401.548,-312.655 415.1144,-315.0916"/>
<polygon fill="#000000" fill-opacity="0.200000" stroke="#000000" stroke-width="2" stroke-opacity="0.200000" points="415.0864,-317.2127 421.3387,-316.0644 415.735,-313.063 415.0864,-317.2127"/>
</g>
<!-- lib/acme&#45;requests/NewAccountRequest.js&#45;&gt;lib/AcmeRequest.js -->
<g id="edge27" class="edge">
<title>lib/acme&#45;requests/NewAccountRequest.js&#45;&gt;lib/AcmeRequest.js</title>
<path fill="none" stroke="#000000" stroke-width="2" stroke-opacity="0.200000" d="M533.6279,-314.7726C548.9461,-312.6174 564.9117,-308.236 578,-299.8875 600.2576,-285.6904 614.7185,-257.492 621.9649,-240.0056"/>
<polygon fill="#000000" fill-opacity="0.200000" stroke="#000000" stroke-width="2" stroke-opacity="0.200000" points="624.0496,-240.4453 624.3093,-234.0937 620.1454,-238.897 624.0496,-240.4453"/>
</g>
<!-- lib/Identity.js -->
<g id="node7" class="node">
<title>lib/Identity.js</title>
<g id="a_node7"><a xlink:href="lib/Identity.js" xlink:title="Identity.js">
<path fill="#ffffcc" stroke="#000000" d="M499,-109.8875C499,-109.8875 456,-109.8875 456,-109.8875 453,-109.8875 450,-106.8875 450,-103.8875 450,-103.8875 450,-97.8875 450,-97.8875 450,-94.8875 453,-91.8875 456,-91.8875 456,-91.8875 499,-91.8875 499,-91.8875 502,-91.8875 505,-94.8875 505,-97.8875 505,-97.8875 505,-103.8875 505,-103.8875 505,-106.8875 502,-109.8875 499,-109.8875"/>
<text text-anchor="middle" x="477.5" y="-98.6875" font-family="Helvetica,sans-Serif" font-size="9.00" fill="#000000">Identity.js</text>
</a>
</g>
</g>
<!-- lib/AccountIdentity.js&#45;&gt;lib/Identity.js -->
<g id="edge4" class="edge">
<title>lib/AccountIdentity.js&#45;&gt;lib/Identity.js</title>
<path fill="none" stroke="#000000" stroke-width="2" stroke-opacity="0.200000" d="M257.6877,-101.7202C310.0862,-101.5217 396.2708,-101.1952 443.6581,-101.0157"/>
<polygon fill="#000000" fill-opacity="0.200000" stroke="#000000" stroke-width="2" stroke-opacity="0.200000" points="443.8078,-103.1153 449.7997,-100.9925 443.7918,-98.9153 443.8078,-103.1153"/>
</g>
<!-- lib/Nonce.js -->
<g id="node9" class="node">
<title>lib/Nonce.js</title>
<g id="a_node9"><a xlink:href="lib/Nonce.js" xlink:title="Nonce.js">
<path fill="#ffffcc" stroke="#000000" d="M730,-233.8875C730,-233.8875 688,-233.8875 688,-233.8875 685,-233.8875 682,-230.8875 682,-227.8875 682,-227.8875 682,-221.8875 682,-221.8875 682,-218.8875 685,-215.8875 688,-215.8875 688,-215.8875 730,-215.8875 730,-215.8875 733,-215.8875 736,-218.8875 736,-221.8875 736,-221.8875 736,-227.8875 736,-227.8875 736,-230.8875 733,-233.8875 730,-233.8875"/>
<text text-anchor="middle" x="709" y="-222.6875" font-family="Helvetica,sans-Serif" font-size="9.00" fill="#000000">Nonce.js</text>
</a>
</g>
</g>
<!-- lib/AcmeRequest.js&#45;&gt;lib/Nonce.js -->
<g id="edge5" class="edge">
<title>lib/AcmeRequest.js&#45;&gt;lib/Nonce.js</title>
<path fill="none" stroke="#000000" stroke-width="2" stroke-opacity="0.200000" d="M669.205,-224.8875C671.3198,-224.8875 673.4312,-224.8875 675.5164,-224.8875"/>
<polygon fill="#000000" fill-opacity="0.200000" stroke="#000000" stroke-width="2" stroke-opacity="0.200000" points="675.6704,-226.9876 681.6704,-224.8875 675.6704,-222.7876 675.6704,-226.9876"/>
</g>
<!-- lib/Authorisation.js -->
<g id="node10" class="node">
<title>lib/Authorisation.js</title>
<g id="a_node10"><a xlink:href="lib/Authorisation.js" xlink:title="Authorisation.js">
<path fill="#ffffcc" stroke="#000000" d="M355,-175.8875C355,-175.8875 287,-175.8875 287,-175.8875 284,-175.8875 281,-172.8875 281,-169.8875 281,-169.8875 281,-163.8875 281,-163.8875 281,-160.8875 284,-157.8875 287,-157.8875 287,-157.8875 355,-157.8875 355,-157.8875 358,-157.8875 361,-160.8875 361,-163.8875 361,-163.8875 361,-169.8875 361,-169.8875 361,-172.8875 358,-175.8875 355,-175.8875"/>
<text text-anchor="middle" x="321" y="-164.6875" font-family="Helvetica,sans-Serif" font-size="9.00" fill="#000000">Authorisation.js</text>
</a>
</g>
</g>
<!-- lib/acme&#45;requests/AuthorisationRequest.js -->
<g id="node11" class="node">
<title>lib/acme&#45;requests/AuthorisationRequest.js</title>
<g id="a_node11"><a xlink:href="lib/acme-requests/AuthorisationRequest.js" xlink:title="AuthorisationRequest.js">
<path fill="#ffffcc" stroke="#000000" d="M528.5,-173.8875C528.5,-173.8875 426.5,-173.8875 426.5,-173.8875 423.5,-173.8875 420.5,-170.8875 420.5,-167.8875 420.5,-167.8875 420.5,-161.8875 420.5,-161.8875 420.5,-158.8875 423.5,-155.8875 426.5,-155.8875 426.5,-155.8875 528.5,-155.8875 528.5,-155.8875 531.5,-155.8875 534.5,-158.8875 534.5,-161.8875 534.5,-161.8875 534.5,-167.8875 534.5,-167.8875 534.5,-170.8875 531.5,-173.8875 528.5,-173.8875"/>
<text text-anchor="middle" x="477.5" y="-162.6875" font-family="Helvetica,sans-Serif" font-size="9.00" fill="#000000">AuthorisationRequest.js</text>
</a>
</g>
</g>
<!-- lib/Authorisation.js&#45;&gt;lib/acme&#45;requests/AuthorisationRequest.js -->
<g id="edge6" class="edge">
<title>lib/Authorisation.js&#45;&gt;lib/acme&#45;requests/AuthorisationRequest.js</title>
<path fill="none" stroke="#000000" stroke-width="2" stroke-opacity="0.200000" d="M361.3026,-166.3725C377.4135,-166.1666 396.3561,-165.9245 414.2178,-165.6963"/>
<polygon fill="#000000" fill-opacity="0.200000" stroke="#000000" stroke-width="2" stroke-opacity="0.200000" points="414.2556,-167.7961 420.2282,-165.6195 414.2018,-163.5964 414.2556,-167.7961"/>
</g>
<!-- lib/acme&#45;requests/ReadyForChallengeValidationRequest.js -->
<g id="node12" class="node">
<title>lib/acme&#45;requests/ReadyForChallengeValidationRequest.js</title>
<g id="a_node12"><a xlink:href="lib/acme-requests/ReadyForChallengeValidationRequest.js" xlink:title="ReadyForChallengeValidationRequest.js">
<path fill="#ffffcc" stroke="#000000" d="M564,-203.8875C564,-203.8875 391,-203.8875 391,-203.8875 388,-203.8875 385,-200.8875 385,-197.8875 385,-197.8875 385,-191.8875 385,-191.8875 385,-188.8875 388,-185.8875 391,-185.8875 391,-185.8875 564,-185.8875 564,-185.8875 567,-185.8875 570,-188.8875 570,-191.8875 570,-191.8875 570,-197.8875 570,-197.8875 570,-200.8875 567,-203.8875 564,-203.8875"/>
<text text-anchor="middle" x="477.5" y="-192.6875" font-family="Helvetica,sans-Serif" font-size="9.00" fill="#000000">ReadyForChallengeValidationRequest.js</text>
</a>
</g>
</g>
<!-- lib/Authorisation.js&#45;&gt;lib/acme&#45;requests/ReadyForChallengeValidationRequest.js -->
<g id="edge7" class="edge">
<title>lib/Authorisation.js&#45;&gt;lib/acme&#45;requests/ReadyForChallengeValidationRequest.js</title>
<path fill="none" stroke="#000000" stroke-width="2" stroke-opacity="0.200000" d="M357.9624,-175.9079C364.2949,-177.3271 370.8231,-178.7116 377,-179.8875 386.3284,-181.6635 396.1771,-183.3558 405.9151,-184.9211"/>
<polygon fill="#000000" fill-opacity="0.200000" stroke="#000000" stroke-width="2" stroke-opacity="0.200000" points="405.7035,-187.0137 411.9583,-185.8789 406.3611,-182.8655 405.7035,-187.0137"/>
</g>
<!-- lib/ChallengeServer.js -->
<g id="node13" class="node">
<title>lib/ChallengeServer.js</title>
<g id="a_node13"><a xlink:href="lib/ChallengeServer.js" xlink:title="ChallengeServer.js">
<path fill="#ffffcc" stroke="#000000" d="M519,-139.8875C519,-139.8875 436,-139.8875 436,-139.8875 433,-139.8875 430,-136.8875 430,-133.8875 430,-133.8875 430,-127.8875 430,-127.8875 430,-124.8875 433,-121.8875 436,-121.8875 436,-121.8875 519,-121.8875 519,-121.8875 522,-121.8875 525,-124.8875 525,-127.8875 525,-127.8875 525,-133.8875 525,-133.8875 525,-136.8875 522,-139.8875 519,-139.8875"/>
<text text-anchor="middle" x="477.5" y="-128.6875" font-family="Helvetica,sans-Serif" font-size="9.00" fill="#000000">ChallengeServer.js</text>
</a>
</g>
</g>
<!-- lib/Authorisation.js&#45;&gt;lib/ChallengeServer.js -->
<g id="edge8" class="edge">
<title>lib/Authorisation.js&#45;&gt;lib/ChallengeServer.js</title>
<path fill="none" stroke="#000000" stroke-width="2" stroke-opacity="0.200000" d="M346.6084,-157.8508C353.9055,-155.1234 361.8209,-152.0181 369,-148.8875 372.6438,-147.2986 373.2035,-146.0662 377,-144.8875 391.8526,-140.2763 408.413,-137.1806 423.7369,-135.1034"/>
<polygon fill="#000000" fill-opacity="0.200000" stroke="#000000" stroke-width="2" stroke-opacity="0.200000" points="424.0836,-137.1762 429.7671,-134.3289 423.5485,-133.0105 424.0836,-137.1762"/>
</g>
<!-- lib/acme&#45;requests/AuthorisationRequest.js&#45;&gt;lib/AcmeRequest.js -->
<g id="edge24" class="edge">
<title>lib/acme&#45;requests/AuthorisationRequest.js&#45;&gt;lib/AcmeRequest.js</title>
<path fill="none" stroke="#000000" stroke-width="2" stroke-opacity="0.200000" d="M534.5086,-167.5004C549.1891,-169.7373 564.6118,-173.5357 578,-179.8875 593.1494,-187.0749 606.9551,-200.468 616.1144,-210.7812"/>
<polygon fill="#000000" fill-opacity="0.200000" stroke="#000000" stroke-width="2" stroke-opacity="0.200000" points="614.7176,-212.3776 620.223,-215.5559 617.9013,-209.6381 614.7176,-212.3776"/>
</g>
<!-- lib/acme&#45;requests/ReadyForChallengeValidationRequest.js&#45;&gt;lib/AcmeRequest.js -->
<g id="edge29" class="edge">
<title>lib/acme&#45;requests/ReadyForChallengeValidationRequest.js&#45;&gt;lib/AcmeRequest.js</title>
<path fill="none" stroke="#000000" stroke-width="2" stroke-opacity="0.200000" d="M546.9465,-203.8979C557.3995,-205.6451 568.0174,-207.6427 578,-209.8875 583.34,-211.0884 588.9433,-212.5678 594.3818,-214.1249"/>
<polygon fill="#000000" fill-opacity="0.200000" stroke="#000000" stroke-width="2" stroke-opacity="0.200000" points="593.8495,-216.1573 600.1982,-215.8357 595.0346,-212.1279 593.8495,-216.1573"/>
</g>
<!-- lib/CertificateIdentity.js&#45;&gt;lib/Identity.js -->
<g id="edge16" class="edge">
<title>lib/CertificateIdentity.js&#45;&gt;lib/Identity.js</title>
<path fill="none" stroke="#000000" stroke-width="2" stroke-opacity="0.200000" d="M369.2322,-116.1073C393.3676,-112.7145 421.9937,-108.6903 443.7474,-105.6323"/>
<polygon fill="#000000" fill-opacity="0.200000" stroke="#000000" stroke-width="2" stroke-opacity="0.200000" points="444.0422,-107.7116 449.6914,-104.7967 443.4575,-103.5525 444.0422,-107.7116"/>
</g>
<!-- lib/Order.js&#45;&gt;lib/Authorisation.js -->
<g id="edge21" class="edge">
<title>lib/Order.js&#45;&gt;lib/Authorisation.js</title>
<path fill="none" stroke="#000000" stroke-width="2" stroke-opacity="0.200000" d="M240.6268,-182.5884C251.0082,-180.5604 263.1624,-178.1861 274.8302,-175.9068"/>
<polygon fill="#000000" fill-opacity="0.200000" stroke="#000000" stroke-width="2" stroke-opacity="0.200000" points="275.3894,-177.9373 280.8754,-174.7258 274.5841,-173.8152 275.3894,-177.9373"/>
</g>
<!-- lib/Order.js&#45;&gt;lib/ChallengeServer.js -->
<g id="edge23" class="edge">
<title>lib/Order.js&#45;&gt;lib/ChallengeServer.js</title>
<path fill="none" stroke="#000000" stroke-width="2" stroke-opacity="0.200000" d="M240.5453,-181.1772C247.3326,-178.6712 254.2988,-175.3179 260,-170.8875 268.0792,-164.6092 264.2059,-157.1177 273,-151.8875 285.6896,-144.3406 367.4137,-137.7762 423.6271,-134.0773"/>
<polygon fill="#000000" fill-opacity="0.200000" stroke="#000000" stroke-width="2" stroke-opacity="0.200000" points="423.8147,-136.1696 429.6657,-133.6844 423.542,-131.9785 423.8147,-136.1696"/>
</g>
<!-- lib/Order.js&#45;&gt;lib/CertificateIdentity.js -->
<g id="edge22" class="edge">
<title>lib/Order.js&#45;&gt;lib/CertificateIdentity.js</title>
<path fill="none" stroke="#000000" stroke-width="2" stroke-opacity="0.200000" d="M240.6687,-182.0642C247.6104,-179.5425 254.6226,-175.9597 260,-170.8875 270.5709,-160.9168 262.4704,-150.902 273,-140.8875 275.4184,-138.5875 278.1582,-136.575 281.0735,-134.8153"/>
<polygon fill="#000000" fill-opacity="0.200000" stroke="#000000" stroke-width="2" stroke-opacity="0.200000" points="282.1859,-136.6016 286.4787,-131.9131 280.1991,-132.9012 282.1859,-136.6016"/>
</g>
<!-- lib/acme&#45;requests/CertificateRequest.js -->
<g id="node18" class="node">
<title>lib/acme&#45;requests/CertificateRequest.js</title>
<g id="a_node18"><a xlink:href="lib/acme-requests/CertificateRequest.js" xlink:title="CertificateRequest.js">
<path fill="#ffffcc" stroke="#000000" d="M522,-293.8875C522,-293.8875 433,-293.8875 433,-293.8875 430,-293.8875 427,-290.8875 427,-287.8875 427,-287.8875 427,-281.8875 427,-281.8875 427,-278.8875 430,-275.8875 433,-275.8875 433,-275.8875 522,-275.8875 522,-275.8875 525,-275.8875 528,-278.8875 528,-281.8875 528,-281.8875 528,-287.8875 528,-287.8875 528,-290.8875 525,-293.8875 522,-293.8875"/>
<text text-anchor="middle" x="477.5" y="-282.6875" font-family="Helvetica,sans-Serif" font-size="9.00" fill="#000000">CertificateRequest.js</text>
</a>
</g>
</g>
<!-- lib/Order.js&#45;&gt;lib/acme&#45;requests/CertificateRequest.js -->
<g id="edge17" class="edge">
<title>lib/Order.js&#45;&gt;lib/acme&#45;requests/CertificateRequest.js</title>
<path fill="none" stroke="#000000" stroke-width="2" stroke-opacity="0.200000" d="M236.0844,-196.9646C247.0767,-201.0963 260.5728,-205.7521 273,-208.8875 293.9361,-214.1698 353.6013,-208.7514 369,-223.8875 383.799,-238.4343 362.1514,-255.3915 377,-269.8875 388.5339,-281.1476 404.6373,-286.2807 420.5789,-288.226"/>
<polygon fill="#000000" fill-opacity="0.200000" stroke="#000000" stroke-width="2" stroke-opacity="0.200000" points="420.7332,-290.3507 426.9078,-288.8391 421.1382,-286.1703 420.7332,-290.3507"/>
</g>
<!-- lib/acme&#45;requests/FinaliseOrderRequest.js -->
<g id="node19" class="node">
<title>lib/acme&#45;requests/FinaliseOrderRequest.js</title>
<g id="a_node19"><a xlink:href="lib/acme-requests/FinaliseOrderRequest.js" xlink:title="FinaliseOrderRequest.js">
<path fill="#ffffcc" stroke="#000000" d="M529.5,-233.8875C529.5,-233.8875 425.5,-233.8875 425.5,-233.8875 422.5,-233.8875 419.5,-230.8875 419.5,-227.8875 419.5,-227.8875 419.5,-221.8875 419.5,-221.8875 419.5,-218.8875 422.5,-215.8875 425.5,-215.8875 425.5,-215.8875 529.5,-215.8875 529.5,-215.8875 532.5,-215.8875 535.5,-218.8875 535.5,-221.8875 535.5,-221.8875 535.5,-227.8875 535.5,-227.8875 535.5,-230.8875 532.5,-233.8875 529.5,-233.8875"/>
<text text-anchor="middle" x="477.5" y="-222.6875" font-family="Helvetica,sans-Serif" font-size="9.00" fill="#000000">FinaliseOrderRequest.js</text>
</a>
</g>
</g>
<!-- lib/Order.js&#45;&gt;lib/acme&#45;requests/FinaliseOrderRequest.js -->
<g id="edge18" class="edge">
<title>lib/Order.js&#45;&gt;lib/acme&#45;requests/FinaliseOrderRequest.js</title>
<path fill="none" stroke="#000000" stroke-width="2" stroke-opacity="0.200000" d="M240.5241,-187.1027C279.0959,-186.4323 347.6392,-187.0424 369,-198.8875 374.2867,-201.8191 371.8309,-206.7532 377,-209.8875 387.8245,-216.451 400.477,-220.5135 413.0822,-222.9614"/>
<polygon fill="#000000" fill-opacity="0.200000" stroke="#000000" stroke-width="2" stroke-opacity="0.200000" points="412.9868,-225.0764 419.2582,-224.0373 413.7077,-220.9387 412.9868,-225.0764"/>
</g>
<!-- lib/acme&#45;requests/NewOrderRequest.js -->
<g id="node20" class="node">
<title>lib/acme&#45;requests/NewOrderRequest.js</title>
<g id="a_node20"><a xlink:href="lib/acme-requests/NewOrderRequest.js" xlink:title="NewOrderRequest.js">
<path fill="#ffffcc" stroke="#000000" d="M522.5,-263.8875C522.5,-263.8875 432.5,-263.8875 432.5,-263.8875 429.5,-263.8875 426.5,-260.8875 426.5,-257.8875 426.5,-257.8875 426.5,-251.8875 426.5,-251.8875 426.5,-248.8875 429.5,-245.8875 432.5,-245.8875 432.5,-245.8875 522.5,-245.8875 522.5,-245.8875 525.5,-245.8875 528.5,-248.8875 528.5,-251.8875 528.5,-251.8875 528.5,-257.8875 528.5,-257.8875 528.5,-260.8875 525.5,-263.8875 522.5,-263.8875"/>
<text text-anchor="middle" x="477.5" y="-252.6875" font-family="Helvetica,sans-Serif" font-size="9.00" fill="#000000">NewOrderRequest.js</text>
</a>
</g>
</g>
<!-- lib/Order.js&#45;&gt;lib/acme&#45;requests/NewOrderRequest.js -->
<g id="edge19" class="edge">
<title>lib/Order.js&#45;&gt;lib/acme&#45;requests/NewOrderRequest.js</title>
<path fill="none" stroke="#000000" stroke-width="2" stroke-opacity="0.200000" d="M240.6839,-192.0723C284.9393,-198.9105 367.7966,-211.8298 369,-212.8875 378.4005,-221.1503 367.5532,-231.6778 377,-239.8875 388.8727,-250.2055 404.6666,-255.1557 420.2101,-257.2256"/>
<polygon fill="#000000" fill-opacity="0.200000" stroke="#000000" stroke-width="2" stroke-opacity="0.200000" points="420.1834,-259.3352 426.377,-257.9034 420.6424,-255.1604 420.1834,-259.3352"/>
</g>
<!-- lib/acmeCsr.js -->
<g id="node21" class="node">
<title>lib/acmeCsr.js</title>
<g id="a_node21"><a xlink:href="lib/acmeCsr.js" xlink:title="acmeCsr.js">
<path fill="#ffffcc" stroke="#000000" d="M346,-247.8875C346,-247.8875 296,-247.8875 296,-247.8875 293,-247.8875 290,-244.8875 290,-241.8875 290,-241.8875 290,-235.8875 290,-235.8875 290,-232.8875 293,-229.8875 296,-229.8875 296,-229.8875 346,-229.8875 346,-229.8875 349,-229.8875 352,-232.8875 352,-235.8875 352,-235.8875 352,-241.8875 352,-241.8875 352,-244.8875 349,-247.8875 346,-247.8875"/>
<text text-anchor="middle" x="321" y="-236.6875" font-family="Helvetica,sans-Serif" font-size="9.00" fill="#000000">acmeCsr.js</text>
</a>
</g>
</g>
<!-- lib/Order.js&#45;&gt;lib/acmeCsr.js -->
<g id="edge20" class="edge">
<title>lib/Order.js&#45;&gt;lib/acmeCsr.js</title>
<path fill="none" stroke="#000000" stroke-width="2" stroke-opacity="0.200000" d="M228.3435,-196.9255C240.1917,-203.9411 257.3427,-213.6579 273,-220.8875 278.1032,-223.2439 283.6098,-225.5331 289.0102,-227.645"/>
<polygon fill="#000000" fill-opacity="0.200000" stroke="#000000" stroke-width="2" stroke-opacity="0.200000" points="288.4502,-229.6791 294.8045,-229.8617 289.951,-225.7564 288.4502,-229.6791"/>
</g>
<!-- lib/x.509/rfc5280.js -->
<g id="node22" class="node">
<title>lib/x.509/rfc5280.js</title>
<g id="a_node22"><a xlink:href="lib/x.509/rfc5280.js" xlink:title="rfc5280.js">
<path fill="#ffffcc" stroke="#000000" d="M343,-311.8875C343,-311.8875 299,-311.8875 299,-311.8875 296,-311.8875 293,-308.8875 293,-305.8875 293,-305.8875 293,-299.8875 293,-299.8875 293,-296.8875 296,-293.8875 299,-293.8875 299,-293.8875 343,-293.8875 343,-293.8875 346,-293.8875 349,-296.8875 349,-299.8875 349,-299.8875 349,-305.8875 349,-305.8875 349,-308.8875 346,-311.8875 343,-311.8875"/>
<text text-anchor="middle" x="321" y="-300.6875" font-family="Helvetica,sans-Serif" font-size="9.00" fill="#000000">rfc5280.js</text>
</a>
</g>
</g>
<!-- lib/x.509/certificateDetails.js&#45;&gt;lib/x.509/rfc5280.js -->
<g id="edge30" class="edge">
<title>lib/x.509/certificateDetails.js&#45;&gt;lib/x.509/rfc5280.js</title>
<path fill="none" stroke="#000000" stroke-width="2" stroke-opacity="0.200000" d="M260.0258,-302.8875C268.8886,-302.8875 278.0182,-302.8875 286.4272,-302.8875"/>
<polygon fill="#000000" fill-opacity="0.200000" stroke="#000000" stroke-width="2" stroke-opacity="0.200000" points="286.7008,-304.9876 292.7007,-302.8875 286.7007,-300.7876 286.7008,-304.9876"/>
</g>
<!-- lib/acme&#45;requests/CertificateRequest.js&#45;&gt;lib/AcmeRequest.js -->
<g id="edge25" class="edge">
<title>lib/acme&#45;requests/CertificateRequest.js&#45;&gt;lib/AcmeRequest.js</title>
<path fill="none" stroke="#000000" stroke-width="2" stroke-opacity="0.200000" d="M528.0133,-283.1728C544.554,-281.1118 562.6195,-277.1846 578,-269.8875 593.1494,-262.7002 606.9551,-249.3071 616.1144,-238.9939"/>
<polygon fill="#000000" fill-opacity="0.200000" stroke="#000000" stroke-width="2" stroke-opacity="0.200000" points="617.9013,-240.137 620.223,-234.2192 614.7176,-237.3975 617.9013,-240.137"/>
</g>
<!-- lib/acme&#45;requests/FinaliseOrderRequest.js&#45;&gt;lib/AcmeRequest.js -->
<g id="edge26" class="edge">
<title>lib/acme&#45;requests/FinaliseOrderRequest.js&#45;&gt;lib/AcmeRequest.js</title>
<path fill="none" stroke="#000000" stroke-width="2" stroke-opacity="0.200000" d="M535.9234,-224.8875C550.3332,-224.8875 565.6023,-224.8875 579.4561,-224.8875"/>
<polygon fill="#000000" fill-opacity="0.200000" stroke="#000000" stroke-width="2" stroke-opacity="0.200000" points="579.7136,-226.9876 585.7135,-224.8875 579.7135,-222.7876 579.7136,-226.9876"/>
</g>
<!-- lib/acme&#45;requests/NewOrderRequest.js&#45;&gt;lib/AcmeRequest.js -->
<g id="edge28" class="edge">
<title>lib/acme&#45;requests/NewOrderRequest.js&#45;&gt;lib/AcmeRequest.js</title>
<path fill="none" stroke="#000000" stroke-width="2" stroke-opacity="0.200000" d="M528.6368,-248.7285C544.5429,-246.419 562.0795,-243.4677 578,-239.8875 583.34,-238.6867 588.9433,-237.2073 594.3818,-235.6501"/>
<polygon fill="#000000" fill-opacity="0.200000" stroke="#000000" stroke-width="2" stroke-opacity="0.200000" points="595.0346,-237.6472 600.1982,-233.9394 593.8495,-233.6178 595.0346,-237.6472"/>
</g>
</g>
</svg>
