<?xml version="1.0" encoding="UTF-8" standalone="no"?>
<!DOCTYPE svg PUBLIC "-//W3C//DTD SVG 1.1//EN"
 "http://www.w3.org/Graphics/SVG/1.1/DTD/svg11.dtd">
<!-- Generated by graphviz version 2.40.1 (20161225.0304)
 -->
<!-- Title: dependency&#45;cruiser output Pages: 1 -->
<svg width="752pt" height="344pt"
 viewBox="0.00 0.00 752.00 344.00" xmlns="http://www.w3.org/2000/svg" xmlns:xlink="http://www.w3.org/1999/xlink">
<g id="graph0" class="graph" transform="scale(1 1) rotate(0) translate(4 340)">
<title>dependency&#45;cruiser output</title>
<polygon fill="#ffffff" stroke="transparent" points="-4,4 -4,-340 748,-340 748,4 -4,4"/>
<g id="clust1" class="cluster">
<title>cluster_lib</title>
<path fill="#ffffff" stroke="#000000" stroke-width="2" d="M74,-8C74,-8 724,-8 724,-8 730,-8 736,-14 736,-20 736,-20 736,-316 736,-316 736,-322 730,-328 724,-328 724,-328 74,-328 74,-328 68,-328 62,-322 62,-316 62,-316 62,-20 62,-20 62,-14 68,-8 74,-8"/>
<text text-anchor="middle" x="399" y="-316.8" font-family="Helvetica,sans-Serif" font-weight="bold" font-size="9.00" fill="#000000">lib</text>
</g>
<g id="clust2" class="cluster">
<title>cluster_lib/acme&#45;requests</title>
<path fill="#ffffff" stroke="#000000" stroke-width="2" d="M381,-16C381,-16 558,-16 558,-16 564,-16 570,-22 570,-28 570,-28 570,-206 570,-206 570,-212 564,-218 558,-218 558,-218 381,-218 381,-218 375,-218 369,-212 369,-206 369,-206 369,-28 369,-28 369,-22 375,-16 381,-16"/>
<text text-anchor="middle" x="469.5" y="-206.8" font-family="Helvetica,sans-Serif" font-weight="bold" font-size="9.00" fill="#000000">acme&#45;requests</text>
</g>
<g id="clust3" class="cluster">
<title>cluster_lib/x.509</title>
<path fill="#ffffff" stroke="#000000" stroke-width="2" d="M182.5,-250C182.5,-250 346.5,-250 346.5,-250 352.5,-250 358.5,-256 358.5,-262 358.5,-262 358.5,-290 358.5,-290 358.5,-296 352.5,-302 346.5,-302 346.5,-302 182.5,-302 182.5,-302 176.5,-302 170.5,-296 170.5,-290 170.5,-290 170.5,-262 170.5,-262 170.5,-256 176.5,-250 182.5,-250"/>
<text text-anchor="middle" x="264.5" y="-290.8" font-family="Helvetica,sans-Serif" font-weight="bold" font-size="9.00" fill="#000000">x.509</text>
</g>
<!-- index.js -->
<g id="node1" class="node">
<title>index.js</title>
<g id="a_node1"><a xlink:href="index.js" xlink:title="index.js">
<path fill="#ffffcc" stroke="#000000" d="M48,-183C48,-183 6,-183 6,-183 3,-183 0,-180 0,-177 0,-177 0,-171 0,-171 0,-168 3,-165 6,-165 6,-165 48,-165 48,-165 51,-165 54,-168 54,-171 54,-171 54,-177 54,-177 54,-180 51,-183 48,-183"/>
<text text-anchor="middle" x="27" y="-171.8" font-family="Helvetica,sans-Serif" font-size="9.00" fill="#000000">index.js</text>
</a>
</g>
</g>
<!-- lib/Certificate.js -->
<g id="node2" class="node">
<title>lib/Certificate.js</title>
<g id="a_node2"><a xlink:href="lib/Certificate.js" xlink:title="Certificate.js">
<path fill="#ffffcc" stroke="#000000" d="M138,-198C138,-198 83,-198 83,-198 80,-198 77,-195 77,-192 77,-192 77,-186 77,-186 77,-183 80,-180 83,-180 83,-180 138,-180 138,-180 141,-180 144,-183 144,-186 144,-186 144,-192 144,-192 144,-195 141,-198 138,-198"/>
<text text-anchor="middle" x="110.5" y="-186.8" font-family="Helvetica,sans-Serif" font-size="9.00" fill="#000000">Certificate.js</text>
</a>
</g>
</g>
<!-- index.js&#45;&gt;lib/Certificate.js -->
<g id="edge1" class="edge">
<title>index.js&#45;&gt;lib/Certificate.js</title>
<path fill="none" stroke="#000000" stroke-width="2" stroke-opacity="0.200000" d="M54.341,-178.9116C59.6502,-179.8653 65.3137,-180.8827 70.9247,-181.8907"/>
<polygon fill="#000000" fill-opacity="0.200000" stroke="#000000" stroke-width="2" stroke-opacity="0.200000" points="70.6966,-183.9832 76.9734,-182.9773 71.4393,-179.8494 70.6966,-183.9832"/>
</g>
<!-- lib/Configuration.js -->
<g id="node3" class="node">
<title>lib/Configuration.js</title>
<g id="a_node3"><a xlink:href="lib/Configuration.js" xlink:title="Configuration.js">
<path fill="#ffffcc" stroke="#000000" d="M145,-168C145,-168 76,-168 76,-168 73,-168 70,-165 70,-162 70,-162 70,-156 70,-156 70,-153 73,-150 76,-150 76,-150 145,-150 145,-150 148,-150 151,-153 151,-156 151,-156 151,-162 151,-162 151,-165 148,-168 145,-168"/>
<text text-anchor="middle" x="110.5" y="-156.8" font-family="Helvetica,sans-Serif" font-size="9.00" fill="#000000">Configuration.js</text>
</a>
</g>
</g>
<!-- index.js&#45;&gt;lib/Configuration.js -->
<g id="edge2" class="edge">
<title>index.js&#45;&gt;lib/Configuration.js</title>
<path fill="none" stroke="#000000" stroke-width="2" stroke-opacity="0.200000" d="M54.341,-169.0884C57.278,-168.5608 60.3235,-168.0138 63.4084,-167.4596"/>
<polygon fill="#000000" fill-opacity="0.200000" stroke="#000000" stroke-width="2" stroke-opacity="0.200000" points="64.2401,-169.4438 69.7743,-166.316 63.4975,-165.31 64.2401,-169.4438"/>
</g>
<!-- lib/Account.js -->
<g id="node4" class="node">
<title>lib/Account.js</title>
<g id="a_node4"><a xlink:href="lib/Account.js" xlink:title="Account.js">
<path fill="#ffffcc" stroke="#000000" d="M336.5,-184C336.5,-184 289.5,-184 289.5,-184 286.5,-184 283.5,-181 283.5,-178 283.5,-178 283.5,-172 283.5,-172 283.5,-169 286.5,-166 289.5,-166 289.5,-166 336.5,-166 336.5,-166 339.5,-166 342.5,-169 342.5,-172 342.5,-172 342.5,-178 342.5,-178 342.5,-181 339.5,-184 336.5,-184"/>
<text text-anchor="middle" x="313" y="-172.8" font-family="Helvetica,sans-Serif" font-size="9.00" fill="#000000">Account.js</text>
</a>
</g>
</g>
<!-- lib/Certificate.js&#45;&gt;lib/Account.js -->
<g id="edge10" class="edge">
<title>lib/Certificate.js&#45;&gt;lib/Account.js</title>
<path fill="none" stroke="#000000" stroke-width="2" stroke-opacity="0.200000" d="M138.9656,-179.8962C143.1117,-178.1619 147.2445,-176.1928 151,-174 157.5361,-170.1837 156.8932,-165.6033 164,-163 201.6948,-149.1921 248.2378,-156.4524 279.1731,-164.3615"/>
<polygon fill="#000000" fill-opacity="0.200000" stroke="#000000" stroke-width="2" stroke-opacity="0.200000" points="278.8068,-166.4369 285.1448,-165.9459 279.884,-162.3774 278.8068,-166.4369"/>
</g>
<!-- lib/AcmeRequest.js -->
<g id="node6" class="node">
<title>lib/AcmeRequest.js</title>
<g id="a_node6"><a xlink:href="lib/AcmeRequest.js" xlink:title="AcmeRequest.js">
<path fill="#ffffcc" stroke="#000000" d="M655,-147C655,-147 584,-147 584,-147 581,-147 578,-144 578,-141 578,-141 578,-135 578,-135 578,-132 581,-129 584,-129 584,-129 655,-129 655,-129 658,-129 661,-132 661,-135 661,-135 661,-141 661,-141 661,-144 658,-147 655,-147"/>
<text text-anchor="middle" x="619.5" y="-135.8" font-family="Helvetica,sans-Serif" font-size="9.00" fill="#000000">AcmeRequest.js</text>
</a>
</g>
</g>
<!-- lib/Certificate.js&#45;&gt;lib/AcmeRequest.js -->
<g id="edge12" class="edge">
<title>lib/Certificate.js&#45;&gt;lib/AcmeRequest.js</title>
<path fill="none" stroke="#000000" stroke-width="2" stroke-opacity="0.200000" d="M118.0761,-198.2153C127.5473,-208.9805 144.859,-226.297 164,-234 204.7008,-250.3795 328.4256,-217.6104 361,-247 376.7324,-261.1943 352.8085,-280.3316 369,-294 437.2626,-351.6252 497.9094,-346.7579 570,-294 593.2051,-277.0179 610.6593,-189.3731 616.9507,-153.4178"/>
<polygon fill="#000000" fill-opacity="0.200000" stroke="#000000" stroke-width="2" stroke-opacity="0.200000" points="619.0495,-153.6031 617.9944,-147.3344 614.91,-152.8929 619.0495,-153.6031"/>
</g>
<!-- lib/AccountIdentity.js -->
<g id="node7" class="node">
<title>lib/AccountIdentity.js</title>
<g id="a_node7"><a xlink:href="lib/AccountIdentity.js" xlink:title="AccountIdentity.js">
<path fill="#ffffcc" stroke="#000000" d="M246,-198C246,-198 170,-198 170,-198 167,-198 164,-195 164,-192 164,-192 164,-186 164,-186 164,-183 167,-180 170,-180 170,-180 246,-180 246,-180 249,-180 252,-183 252,-186 252,-186 252,-192 252,-192 252,-195 249,-198 246,-198"/>
<text text-anchor="middle" x="208" y="-186.8" font-family="Helvetica,sans-Serif" font-size="9.00" fill="#000000">AccountIdentity.js</text>
</a>
</g>
</g>
<!-- lib/Certificate.js&#45;&gt;lib/AccountIdentity.js -->
<g id="edge11" class="edge">
<title>lib/Certificate.js&#45;&gt;lib/AccountIdentity.js</title>
<path fill="none" stroke="#000000" stroke-width="2" stroke-opacity="0.200000" d="M144.054,-189C148.447,-189 153.0229,-189 157.6181,-189"/>
<polygon fill="#000000" fill-opacity="0.200000" stroke="#000000" stroke-width="2" stroke-opacity="0.200000" points="157.8811,-191.1001 163.881,-189 157.881,-186.9001 157.8811,-191.1001"/>
</g>
<!-- lib/CertificateIdentity.js -->
<g id="node14" class="node">
<title>lib/CertificateIdentity.js</title>
<g id="a_node14"><a xlink:href="lib/CertificateIdentity.js" xlink:title="CertificateIdentity.js">
<path fill="#ffffcc" stroke="#000000" d="M355,-214C355,-214 271,-214 271,-214 268,-214 265,-211 265,-208 265,-208 265,-202 265,-202 265,-199 268,-196 271,-196 271,-196 355,-196 355,-196 358,-196 361,-199 361,-202 361,-202 361,-208 361,-208 361,-211 358,-214 355,-214"/>
<text text-anchor="middle" x="313" y="-202.8" font-family="Helvetica,sans-Serif" font-size="9.00" fill="#000000">CertificateIdentity.js</text>
</a>
</g>
</g>
<!-- lib/Certificate.js&#45;&gt;lib/CertificateIdentity.js -->
<g id="edge13" class="edge">
<title>lib/Certificate.js&#45;&gt;lib/CertificateIdentity.js</title>
<path fill="none" stroke="#000000" stroke-width="2" stroke-opacity="0.200000" d="M137.139,-179.9871C145.6218,-177.5362 155.1125,-175.2223 164,-174 202.7464,-168.671 216.6851,-157.1912 252,-174 260.2731,-177.9378 257.4156,-184.8592 265,-190 266.6622,-191.1267 268.4132,-192.172 270.2236,-193.1414"/>
<polygon fill="#000000" fill-opacity="0.200000" stroke="#000000" stroke-width="2" stroke-opacity="0.200000" points="269.4865,-195.1173 275.8036,-195.8278 271.3084,-191.333 269.4865,-195.1173"/>
</g>
<!-- lib/Directory.js -->
<g id="node15" class="node">
<title>lib/Directory.js</title>
<g id="a_node15"><a xlink:href="lib/Directory.js" xlink:title="Directory.js">
<path fill="#ffffcc" stroke="#000000" d="M233,-228C233,-228 183,-228 183,-228 180,-228 177,-225 177,-222 177,-222 177,-216 177,-216 177,-213 180,-210 183,-210 183,-210 233,-210 233,-210 236,-210 239,-213 239,-216 239,-216 239,-222 239,-222 239,-225 236,-228 233,-228"/>
<text text-anchor="middle" x="208" y="-216.8" font-family="Helvetica,sans-Serif" font-size="9.00" fill="#000000">Directory.js</text>
</a>
</g>
</g>
<!-- lib/Certificate.js&#45;&gt;lib/Directory.js -->
<g id="edge14" class="edge">
<title>lib/Certificate.js&#45;&gt;lib/Directory.js</title>
<path fill="none" stroke="#000000" stroke-width="2" stroke-opacity="0.200000" d="M139.7532,-198.001C150.0707,-201.1756 161.7831,-204.7794 172.5566,-208.0943"/>
<polygon fill="#000000" fill-opacity="0.200000" stroke="#000000" stroke-width="2" stroke-opacity="0.200000" points="172.0782,-210.1442 178.4304,-209.9017 173.3134,-206.13 172.0782,-210.1442"/>
</g>
<!-- lib/Order.js -->
<g id="node16" class="node">
<title>lib/Order.js</title>
<g id="a_node16"><a xlink:href="lib/Order.js" xlink:title="Order.js">
<path fill="#ffffcc" stroke="#000000" d="M229,-125C229,-125 187,-125 187,-125 184,-125 181,-122 181,-119 181,-119 181,-113 181,-113 181,-110 184,-107 187,-107 187,-107 229,-107 229,-107 232,-107 235,-110 235,-113 235,-113 235,-119 235,-119 235,-122 232,-125 229,-125"/>
<text text-anchor="middle" x="208" y="-113.8" font-family="Helvetica,sans-Serif" font-size="9.00" fill="#000000">Order.js</text>
</a>
</g>
</g>
<!-- lib/Certificate.js&#45;&gt;lib/Order.js -->
<g id="edge15" class="edge">
<title>lib/Certificate.js&#45;&gt;lib/Order.js</title>
<path fill="none" stroke="#000000" stroke-width="2" stroke-opacity="0.200000" d="M142.3261,-179.8857C145.4493,-178.2283 148.4138,-176.282 151,-174 160.3905,-165.714 155.8995,-158.551 164,-149 170.5236,-141.3082 179.1544,-134.3458 187.043,-128.8204"/>
<polygon fill="#000000" fill-opacity="0.200000" stroke="#000000" stroke-width="2" stroke-opacity="0.200000" points="188.5554,-130.3329 192.3507,-125.2333 186.2036,-126.8531 188.5554,-130.3329"/>
</g>
<!-- lib/x.509/cert&#45;info.js -->
<g id="node17" class="node">
<title>lib/x.509/cert&#45;info.js</title>
<g id="a_node17"><a xlink:href="lib/x.509/cert-info.js" xlink:title="cert&#45;info.js">
<path fill="#ffffcc" stroke="#000000" d="M231.5,-276C231.5,-276 184.5,-276 184.5,-276 181.5,-276 178.5,-273 178.5,-270 178.5,-270 178.5,-264 178.5,-264 178.5,-261 181.5,-258 184.5,-258 184.5,-258 231.5,-258 231.5,-258 234.5,-258 237.5,-261 237.5,-264 237.5,-264 237.5,-270 237.5,-270 237.5,-273 234.5,-276 231.5,-276"/>
<text text-anchor="middle" x="208" y="-264.8" font-family="Helvetica,sans-Serif" font-size="9.00" fill="#000000">cert&#45;info.js</text>
</a>
</g>
</g>
<!-- lib/Certificate.js&#45;&gt;lib/x.509/cert&#45;info.js -->
<g id="edge16" class="edge">
<title>lib/Certificate.js&#45;&gt;lib/x.509/cert&#45;info.js</title>
<path fill="none" stroke="#000000" stroke-width="2" stroke-opacity="0.200000" d="M115.4938,-198.0102C123.7477,-212.0713 141.575,-239.1563 164,-254 166.524,-255.6707 169.2681,-257.1318 172.1115,-258.4088"/>
<polygon fill="#000000" fill-opacity="0.200000" stroke="#000000" stroke-width="2" stroke-opacity="0.200000" points="171.6975,-260.5047 178.0484,-260.7795 173.255,-256.6041 171.6975,-260.5047"/>
</g>
<!-- lib/acme&#45;requests/NewAccountRequest.js -->
<g id="node5" class="node">
<title>lib/acme&#45;requests/NewAccountRequest.js</title>
<g id="a_node5"><a xlink:href="lib/acme-requests/NewAccountRequest.js" xlink:title="NewAccountRequest.js">
<path fill="#ffffcc" stroke="#000000" d="M519.5,-192C519.5,-192 419.5,-192 419.5,-192 416.5,-192 413.5,-189 413.5,-186 413.5,-186 413.5,-180 413.5,-180 413.5,-177 416.5,-174 419.5,-174 419.5,-174 519.5,-174 519.5,-174 522.5,-174 525.5,-177 525.5,-180 525.5,-180 525.5,-186 525.5,-186 525.5,-189 522.5,-192 519.5,-192"/>
<text text-anchor="middle" x="469.5" y="-180.8" font-family="Helvetica,sans-Serif" font-size="9.00" fill="#000000">NewAccountRequest.js</text>
</a>
</g>
</g>
<!-- lib/Account.js&#45;&gt;lib/acme&#45;requests/NewAccountRequest.js -->
<g id="edge3" class="edge">
<title>lib/Account.js&#45;&gt;lib/acme&#45;requests/NewAccountRequest.js</title>
<path fill="none" stroke="#000000" stroke-width="2" stroke-opacity="0.200000" d="M342.8048,-176.5236C360.9632,-177.4518 384.8598,-178.6733 407.0011,-179.8052"/>
<polygon fill="#000000" fill-opacity="0.200000" stroke="#000000" stroke-width="2" stroke-opacity="0.200000" points="407.094,-181.9126 413.1934,-180.1217 407.3084,-177.718 407.094,-181.9126"/>
</g>
<!-- lib/Account.js&#45;&gt;lib/AcmeRequest.js -->
<g id="edge4" class="edge">
<title>lib/Account.js&#45;&gt;lib/AcmeRequest.js</title>
<path fill="none" stroke="#000000" stroke-width="2" stroke-opacity="0.200000" d="M342.9868,-178.7815C349.8039,-181.019 356.3866,-184.5254 361,-190 378.3359,-210.5723 348.7589,-232.2786 369,-250 385.8032,-264.7115 551.2863,-262.1891 570,-250 603.3583,-228.2721 614.4005,-178.401 617.9253,-153.1872"/>
<polygon fill="#000000" fill-opacity="0.200000" stroke="#000000" stroke-width="2" stroke-opacity="0.200000" points="620.0312,-153.2723 618.7007,-147.0562 615.8644,-152.7452 620.0312,-153.2723"/>
</g>
<!-- lib/acme&#45;requests/NewAccountRequest.js&#45;&gt;lib/AcmeRequest.js -->
<g id="edge28" class="edge">
<title>lib/acme&#45;requests/NewAccountRequest.js&#45;&gt;lib/AcmeRequest.js</title>
<path fill="none" stroke="#000000" stroke-width="2" stroke-opacity="0.200000" d="M525.5022,-178.6402C540.2647,-176.4174 555.9792,-173.0626 570,-168 581.5353,-163.8348 593.3225,-156.8225 602.4996,-150.6245"/>
<polygon fill="#000000" fill-opacity="0.200000" stroke="#000000" stroke-width="2" stroke-opacity="0.200000" points="603.8491,-152.2441 607.5796,-147.0969 601.4535,-148.7942 603.8491,-152.2441"/>
</g>
<!-- lib/Nonce.js -->
<g id="node9" class="node">
<title>lib/Nonce.js</title>
<g id="a_node9"><a xlink:href="lib/Nonce.js" xlink:title="Nonce.js">
<path fill="#ffffcc" stroke="#000000" d="M722,-147C722,-147 680,-147 680,-147 677,-147 674,-144 674,-141 674,-141 674,-135 674,-135 674,-132 677,-129 680,-129 680,-129 722,-129 722,-129 725,-129 728,-132 728,-135 728,-135 728,-141 728,-141 728,-144 725,-147 722,-147"/>
<text text-anchor="middle" x="701" y="-135.8" font-family="Helvetica,sans-Serif" font-size="9.00" fill="#000000">Nonce.js</text>
</a>
</g>
</g>
<!-- lib/AcmeRequest.js&#45;&gt;lib/Nonce.js -->
<g id="edge6" class="edge">
<title>lib/AcmeRequest.js&#45;&gt;lib/Nonce.js</title>
<path fill="none" stroke="#000000" stroke-width="2" stroke-opacity="0.200000" d="M661.205,-138C663.3198,-138 665.4312,-138 667.5164,-138"/>
<polygon fill="#000000" fill-opacity="0.200000" stroke="#000000" stroke-width="2" stroke-opacity="0.200000" points="667.6704,-140.1001 673.6704,-138 667.6704,-135.9001 667.6704,-140.1001"/>
</g>
<!-- lib/Identity.js -->
<g id="node8" class="node">
<title>lib/Identity.js</title>
<g id="a_node8"><a xlink:href="lib/Identity.js" xlink:title="Identity.js">
<path fill="#ffffcc" stroke="#000000" d="M491,-288C491,-288 448,-288 448,-288 445,-288 442,-285 442,-282 442,-282 442,-276 442,-276 442,-273 445,-270 448,-270 448,-270 491,-270 491,-270 494,-270 497,-273 497,-276 497,-276 497,-282 497,-282 497,-285 494,-288 491,-288"/>
<text text-anchor="middle" x="469.5" y="-276.8" font-family="Helvetica,sans-Serif" font-size="9.00" fill="#000000">Identity.js</text>
</a>
</g>
</g>
<!-- lib/AccountIdentity.js&#45;&gt;lib/Identity.js -->
<g id="edge5" class="edge">
<title>lib/AccountIdentity.js&#45;&gt;lib/Identity.js</title>
<path fill="none" stroke="#000000" stroke-width="2" stroke-opacity="0.200000" d="M241.1885,-198.0258C244.993,-199.7153 248.6891,-201.6932 252,-204 259.5178,-209.2377 257.1033,-215.3533 265,-220 302.3448,-241.975 327.8212,-209.1306 361,-237 368.9666,-243.6918 361.1047,-252.2243 369,-259 387.1852,-274.6064 414.0583,-279.3265 435.4415,-280.2958"/>
<polygon fill="#000000" fill-opacity="0.200000" stroke="#000000" stroke-width="2" stroke-opacity="0.200000" points="435.5395,-282.3996 441.5997,-280.4801 435.6652,-278.2015 435.5395,-282.3996"/>
</g>
<!-- lib/Authorisation.js -->
<g id="node10" class="node">
<title>lib/Authorisation.js</title>
<g id="a_node10"><a xlink:href="lib/Authorisation.js" xlink:title="Authorisation.js">
<path fill="#ffffcc" stroke="#000000" d="M347,-140C347,-140 279,-140 279,-140 276,-140 273,-137 273,-134 273,-134 273,-128 273,-128 273,-125 276,-122 279,-122 279,-122 347,-122 347,-122 350,-122 353,-125 353,-128 353,-128 353,-134 353,-134 353,-137 350,-140 347,-140"/>
<text text-anchor="middle" x="313" y="-128.8" font-family="Helvetica,sans-Serif" font-size="9.00" fill="#000000">Authorisation.js</text>
</a>
</g>
</g>
<!-- lib/acme&#45;requests/AuthorisationRequest.js -->
<g id="node11" class="node">
<title>lib/acme&#45;requests/AuthorisationRequest.js</title>
<g id="a_node11"><a xlink:href="lib/acme-requests/AuthorisationRequest.js" xlink:title="AuthorisationRequest.js">
<path fill="#ffffcc" stroke="#000000" d="M520.5,-162C520.5,-162 418.5,-162 418.5,-162 415.5,-162 412.5,-159 412.5,-156 412.5,-156 412.5,-150 412.5,-150 412.5,-147 415.5,-144 418.5,-144 418.5,-144 520.5,-144 520.5,-144 523.5,-144 526.5,-147 526.5,-150 526.5,-150 526.5,-156 526.5,-156 526.5,-159 523.5,-162 520.5,-162"/>
<text text-anchor="middle" x="469.5" y="-150.8" font-family="Helvetica,sans-Serif" font-size="9.00" fill="#000000">AuthorisationRequest.js</text>
</a>
</g>
</g>
<!-- lib/Authorisation.js&#45;&gt;lib/acme&#45;requests/AuthorisationRequest.js -->
<g id="edge7" class="edge">
<title>lib/Authorisation.js&#45;&gt;lib/acme&#45;requests/AuthorisationRequest.js</title>
<path fill="none" stroke="#000000" stroke-width="2" stroke-opacity="0.200000" d="M353.3026,-136.6655C369.4135,-138.9303 388.3561,-141.5932 406.2178,-144.1041"/>
<polygon fill="#000000" fill-opacity="0.200000" stroke="#000000" stroke-width="2" stroke-opacity="0.200000" points="405.9943,-146.1932 412.2282,-144.949 406.579,-142.0341 405.9943,-146.1932"/>
</g>
<!-- lib/acme&#45;requests/ReadyForChallengeValidationRequest.js -->
<g id="node12" class="node">
<title>lib/acme&#45;requests/ReadyForChallengeValidationRequest.js</title>
<g id="a_node12"><a xlink:href="lib/acme-requests/ReadyForChallengeValidationRequest.js" xlink:title="ReadyForChallengeValidationRequest.js">
<path fill="#ffffcc" stroke="#000000" d="M556,-132C556,-132 383,-132 383,-132 380,-132 377,-129 377,-126 377,-126 377,-120 377,-120 377,-117 380,-114 383,-114 383,-114 556,-114 556,-114 559,-114 562,-117 562,-120 562,-120 562,-126 562,-126 562,-129 559,-132 556,-132"/>
<text text-anchor="middle" x="469.5" y="-120.8" font-family="Helvetica,sans-Serif" font-size="9.00" fill="#000000">ReadyForChallengeValidationRequest.js</text>
</a>
</g>
</g>
<!-- lib/Authorisation.js&#45;&gt;lib/acme&#45;requests/ReadyForChallengeValidationRequest.js -->
<g id="edge8" class="edge">
<title>lib/Authorisation.js&#45;&gt;lib/acme&#45;requests/ReadyForChallengeValidationRequest.js</title>
<path fill="none" stroke="#000000" stroke-width="2" stroke-opacity="0.200000" d="M353.3026,-128.9398C358.8045,-128.6586 364.6367,-128.3604 370.6432,-128.0534"/>
<polygon fill="#000000" fill-opacity="0.200000" stroke="#000000" stroke-width="2" stroke-opacity="0.200000" points="370.8172,-130.1473 376.7021,-127.7437 370.6027,-125.9528 370.8172,-130.1473"/>
</g>
<!-- lib/ChallengeServer.js -->
<g id="node13" class="node">
<title>lib/ChallengeServer.js</title>
<g id="a_node13"><a xlink:href="lib/ChallengeServer.js" xlink:title="ChallengeServer.js">
<path fill="#ffffcc" stroke="#000000" d="M511,-244C511,-244 428,-244 428,-244 425,-244 422,-241 422,-238 422,-238 422,-232 422,-232 422,-229 425,-226 428,-226 428,-226 511,-226 511,-226 514,-226 517,-229 517,-232 517,-232 517,-238 517,-238 517,-241 514,-244 511,-244"/>
<text text-anchor="middle" x="469.5" y="-232.8" font-family="Helvetica,sans-Serif" font-size="9.00" fill="#000000">ChallengeServer.js</text>
</a>
</g>
</g>
<!-- lib/Authorisation.js&#45;&gt;lib/ChallengeServer.js -->
<g id="edge9" class="edge">
<title>lib/Authorisation.js&#45;&gt;lib/ChallengeServer.js</title>
<path fill="none" stroke="#000000" stroke-width="2" stroke-opacity="0.200000" d="M350.4483,-140.116C354.4894,-142.4365 358.1576,-145.3477 361,-149 380.7746,-174.4088 346.5515,-197.9196 369,-221 381.0331,-233.3718 398.5747,-238.3248 415.6465,-239.7253"/>
<polygon fill="#000000" fill-opacity="0.200000" stroke="#000000" stroke-width="2" stroke-opacity="0.200000" points="415.7923,-241.8372 421.9037,-240.0877 416.0352,-237.6442 415.7923,-241.8372"/>
</g>
<!-- lib/acme&#45;requests/AuthorisationRequest.js&#45;&gt;lib/AcmeRequest.js -->
<g id="edge25" class="edge">
<title>lib/acme&#45;requests/AuthorisationRequest.js&#45;&gt;lib/AcmeRequest.js</title>
<path fill="none" stroke="#000000" stroke-width="2" stroke-opacity="0.200000" d="M526.6365,-147.2864C541.5599,-145.794 557.4852,-144.2015 571.8573,-142.7643"/>
<polygon fill="#000000" fill-opacity="0.200000" stroke="#000000" stroke-width="2" stroke-opacity="0.200000" points="572.153,-144.8453 577.9143,-142.1586 571.7351,-140.6661 572.153,-144.8453"/>
</g>
<!-- lib/acme&#45;requests/ReadyForChallengeValidationRequest.js&#45;&gt;lib/AcmeRequest.js -->
<g id="edge30" class="edge">
<title>lib/acme&#45;requests/ReadyForChallengeValidationRequest.js&#45;&gt;lib/AcmeRequest.js</title>
<path fill="none" stroke="#000000" stroke-width="2" stroke-opacity="0.200000" d="M559.785,-132.0285C563.8568,-132.4357 567.8659,-132.8366 571.7614,-133.2261"/>
<polygon fill="#000000" fill-opacity="0.200000" stroke="#000000" stroke-width="2" stroke-opacity="0.200000" points="571.6028,-135.3207 577.782,-133.8282 572.0208,-131.1415 571.6028,-135.3207"/>
</g>
<!-- lib/CertificateIdentity.js&#45;&gt;lib/Identity.js -->
<g id="edge17" class="edge">
<title>lib/CertificateIdentity.js&#45;&gt;lib/Identity.js</title>
<path fill="none" stroke="#000000" stroke-width="2" stroke-opacity="0.200000" d="M349.6439,-214.126C353.9218,-216.4461 357.8682,-219.3546 361,-223 372.2469,-236.0913 356.6127,-248.9821 369,-261 386.4432,-277.923 414.0302,-281.882 435.8918,-281.9092"/>
<polygon fill="#000000" fill-opacity="0.200000" stroke="#000000" stroke-width="2" stroke-opacity="0.200000" points="435.9247,-284.009 441.8928,-281.8201 435.8623,-279.8095 435.9247,-284.009"/>
</g>
<!-- lib/Order.js&#45;&gt;lib/Authorisation.js -->
<g id="edge22" class="edge">
<title>lib/Order.js&#45;&gt;lib/Authorisation.js</title>
<path fill="none" stroke="#000000" stroke-width="2" stroke-opacity="0.200000" d="M235.0401,-119.8629C244.7812,-121.2545 256.0653,-122.8665 266.9711,-124.4244"/>
<polygon fill="#000000" fill-opacity="0.200000" stroke="#000000" stroke-width="2" stroke-opacity="0.200000" points="266.742,-126.513 272.9787,-125.2827 267.336,-122.3552 266.742,-126.513"/>
</g>
<!-- lib/Order.js&#45;&gt;lib/ChallengeServer.js -->
<g id="edge24" class="edge">
<title>lib/Order.js&#45;&gt;lib/ChallengeServer.js</title>
<path fill="none" stroke="#000000" stroke-width="2" stroke-opacity="0.200000" d="M221.9285,-125.0581C233.1183,-131.9 249.4747,-140.9472 265,-146 285.5006,-152.6721 345.8657,-144.6461 361,-160 380.1948,-179.4734 349.743,-201.5881 369,-221 381.0994,-233.1967 398.5652,-238.1325 415.5528,-239.5694"/>
<polygon fill="#000000" fill-opacity="0.200000" stroke="#000000" stroke-width="2" stroke-opacity="0.200000" points="415.6626,-241.6798 421.7789,-239.9474 415.9172,-237.4875 415.6626,-241.6798"/>
</g>
<!-- lib/Order.js&#45;&gt;lib/CertificateIdentity.js -->
<g id="edge23" class="edge">
<title>lib/Order.js&#45;&gt;lib/CertificateIdentity.js</title>
<path fill="none" stroke="#000000" stroke-width="2" stroke-opacity="0.200000" d="M218.3856,-125.3269C227.9628,-134.3085 242.1461,-148.6146 252,-163 259.5266,-173.9879 254.9213,-181.2935 265,-190 266.0736,-190.9275 267.2044,-191.7976 268.3806,-192.614"/>
<polygon fill="#000000" fill-opacity="0.200000" stroke="#000000" stroke-width="2" stroke-opacity="0.200000" points="267.568,-194.5753 273.7937,-195.86 269.728,-190.9733 267.568,-194.5753"/>
</g>
<!-- lib/acme&#45;requests/CertificateRequest.js -->
<g id="node18" class="node">
<title>lib/acme&#45;requests/CertificateRequest.js</title>
<g id="a_node18"><a xlink:href="lib/acme-requests/CertificateRequest.js" xlink:title="CertificateRequest.js">
<path fill="#ffffcc" stroke="#000000" d="M514,-102C514,-102 425,-102 425,-102 422,-102 419,-99 419,-96 419,-96 419,-90 419,-90 419,-87 422,-84 425,-84 425,-84 514,-84 514,-84 517,-84 520,-87 520,-90 520,-90 520,-96 520,-96 520,-99 517,-102 514,-102"/>
<text text-anchor="middle" x="469.5" y="-90.8" font-family="Helvetica,sans-Serif" font-size="9.00" fill="#000000">CertificateRequest.js</text>
</a>
</g>
</g>
<!-- lib/Order.js&#45;&gt;lib/acme&#45;requests/CertificateRequest.js -->
<g id="edge18" class="edge">
<title>lib/Order.js&#45;&gt;lib/acme&#45;requests/CertificateRequest.js</title>
<path fill="none" stroke="#000000" stroke-width="2" stroke-opacity="0.200000" d="M220.8489,-106.8987C231.9451,-99.6318 248.7156,-90.0237 265,-86 314.7988,-73.6952 373.4826,-77.4987 415.1841,-83.1534"/>
<polygon fill="#000000" fill-opacity="0.200000" stroke="#000000" stroke-width="2" stroke-opacity="0.200000" points="414.9768,-85.2448 421.2105,-83.9995 415.5607,-81.0856 414.9768,-85.2448"/>
</g>
<!-- lib/acme&#45;requests/FinaliseOrderRequest.js -->
<g id="node19" class="node">
<title>lib/acme&#45;requests/FinaliseOrderRequest.js</title>
<g id="a_node19"><a xlink:href="lib/acme-requests/FinaliseOrderRequest.js" xlink:title="FinaliseOrderRequest.js">
<path fill="#ffffcc" stroke="#000000" d="M521.5,-42C521.5,-42 417.5,-42 417.5,-42 414.5,-42 411.5,-39 411.5,-36 411.5,-36 411.5,-30 411.5,-30 411.5,-27 414.5,-24 417.5,-24 417.5,-24 521.5,-24 521.5,-24 524.5,-24 527.5,-27 527.5,-30 527.5,-30 527.5,-36 527.5,-36 527.5,-39 524.5,-42 521.5,-42"/>
<text text-anchor="middle" x="469.5" y="-30.8" font-family="Helvetica,sans-Serif" font-size="9.00" fill="#000000">FinaliseOrderRequest.js</text>
</a>
</g>
</g>
<!-- lib/Order.js&#45;&gt;lib/acme&#45;requests/FinaliseOrderRequest.js -->
<g id="edge19" class="edge">
<title>lib/Order.js&#45;&gt;lib/acme&#45;requests/FinaliseOrderRequest.js</title>
<path fill="none" stroke="#000000" stroke-width="2" stroke-opacity="0.200000" d="M213.2833,-106.9079C222.0263,-92.8135 240.9513,-66.0608 265,-54 308.3306,-32.269 363.2462,-27.6855 405.2572,-28.1713"/>
<polygon fill="#000000" fill-opacity="0.200000" stroke="#000000" stroke-width="2" stroke-opacity="0.200000" points="405.3231,-30.2727 411.359,-28.2784 405.3968,-26.0734 405.3231,-30.2727"/>
</g>
<!-- lib/acme&#45;requests/NewOrderRequest.js -->
<g id="node20" class="node">
<title>lib/acme&#45;requests/NewOrderRequest.js</title>
<g id="a_node20"><a xlink:href="lib/acme-requests/NewOrderRequest.js" xlink:title="NewOrderRequest.js">
<path fill="#ffffcc" stroke="#000000" d="M514.5,-72C514.5,-72 424.5,-72 424.5,-72 421.5,-72 418.5,-69 418.5,-66 418.5,-66 418.5,-60 418.5,-60 418.5,-57 421.5,-54 424.5,-54 424.5,-54 514.5,-54 514.5,-54 517.5,-54 520.5,-57 520.5,-60 520.5,-60 520.5,-66 520.5,-66 520.5,-69 517.5,-72 514.5,-72"/>
<text text-anchor="middle" x="469.5" y="-60.8" font-family="Helvetica,sans-Serif" font-size="9.00" fill="#000000">NewOrderRequest.js</text>
</a>
</g>
</g>
<!-- lib/Order.js&#45;&gt;lib/acme&#45;requests/NewOrderRequest.js -->
<g id="edge20" class="edge">
<title>lib/Order.js&#45;&gt;lib/acme&#45;requests/NewOrderRequest.js</title>
<path fill="none" stroke="#000000" stroke-width="2" stroke-opacity="0.200000" d="M216.6848,-106.9948C227.0884,-96.8811 245.5618,-80.972 265,-74 312.5286,-56.9527 370.2584,-55.4341 412.2445,-57.4614"/>
<polygon fill="#000000" fill-opacity="0.200000" stroke="#000000" stroke-width="2" stroke-opacity="0.200000" points="412.2187,-59.5629 418.3218,-57.7848 412.4419,-55.3689 412.2187,-59.5629"/>
</g>
<!-- lib/acmeCsr.js -->
<g id="node21" class="node">
<title>lib/acmeCsr.js</title>
<g id="a_node21"><a xlink:href="lib/acmeCsr.js" xlink:title="acmeCsr.js">
<path fill="#ffffcc" stroke="#000000" d="M338,-110C338,-110 288,-110 288,-110 285,-110 282,-107 282,-104 282,-104 282,-98 282,-98 282,-95 285,-92 288,-92 288,-92 338,-92 338,-92 341,-92 344,-95 344,-98 344,-98 344,-104 344,-104 344,-107 341,-110 338,-110"/>
<text text-anchor="middle" x="313" y="-98.8" font-family="Helvetica,sans-Serif" font-size="9.00" fill="#000000">acmeCsr.js</text>
</a>
</g>
</g>
<!-- lib/Order.js&#45;&gt;lib/acmeCsr.js -->
<g id="edge21" class="edge">
<title>lib/Order.js&#45;&gt;lib/acmeCsr.js</title>
<path fill="none" stroke="#000000" stroke-width="2" stroke-opacity="0.200000" d="M235.0401,-112.1371C247.4757,-110.3606 262.4259,-108.2249 275.8935,-106.3009"/>
<polygon fill="#000000" fill-opacity="0.200000" stroke="#000000" stroke-width="2" stroke-opacity="0.200000" points="276.3199,-108.3614 281.9626,-105.4339 275.7259,-104.2036 276.3199,-108.3614"/>
</g>
<!-- lib/x.509/asn1&#45;parser.js -->
<g id="node22" class="node">
<title>lib/x.509/asn1&#45;parser.js</title>
<g id="a_node22"><a xlink:href="lib/x.509/asn1-parser.js" xlink:title="asn1&#45;parser.js">
<path fill="#ffffcc" stroke="#000000" d="M344.5,-276C344.5,-276 281.5,-276 281.5,-276 278.5,-276 275.5,-273 275.5,-270 275.5,-270 275.5,-264 275.5,-264 275.5,-261 278.5,-258 281.5,-258 281.5,-258 344.5,-258 344.5,-258 347.5,-258 350.5,-261 350.5,-264 350.5,-264 350.5,-270 350.5,-270 350.5,-273 347.5,-276 344.5,-276"/>
<text text-anchor="middle" x="313" y="-264.8" font-family="Helvetica,sans-Serif" font-size="9.00" fill="#000000">asn1&#45;parser.js</text>
</a>
</g>
</g>
<!-- lib/x.509/cert&#45;info.js&#45;&gt;lib/x.509/asn1&#45;parser.js -->
<g id="edge31" class="edge">
<title>lib/x.509/cert&#45;info.js&#45;&gt;lib/x.509/asn1&#45;parser.js</title>
<path fill="none" stroke="#000000" stroke-width="2" stroke-opacity="0.200000" d="M237.5278,-267C247.3646,-267 258.5418,-267 269.2233,-267"/>
<polygon fill="#000000" fill-opacity="0.200000" stroke="#000000" stroke-width="2" stroke-opacity="0.200000" points="269.4413,-269.1001 275.4413,-267 269.4412,-264.9001 269.4413,-269.1001"/>
</g>
<!-- lib/acme&#45;requests/CertificateRequest.js&#45;&gt;lib/AcmeRequest.js -->
<g id="edge26" class="edge">
<title>lib/acme&#45;requests/CertificateRequest.js&#45;&gt;lib/AcmeRequest.js</title>
<path fill="none" stroke="#000000" stroke-width="2" stroke-opacity="0.200000" d="M520.0482,-96.5825C536.3332,-98.7752 554.237,-102.3083 570,-108 581.5353,-112.1652 593.3225,-119.1775 602.4996,-125.3755"/>
<polygon fill="#000000" fill-opacity="0.200000" stroke="#000000" stroke-width="2" stroke-opacity="0.200000" points="601.4535,-127.2058 607.5796,-128.9031 603.8491,-123.7559 601.4535,-127.2058"/>
</g>
<!-- lib/acme&#45;requests/FinaliseOrderRequest.js&#45;&gt;lib/AcmeRequest.js -->
<g id="edge27" class="edge">
<title>lib/acme&#45;requests/FinaliseOrderRequest.js&#45;&gt;lib/AcmeRequest.js</title>
<path fill="none" stroke="#000000" stroke-width="2" stroke-opacity="0.200000" d="M527.6449,-32.6708C542.4786,-34.9024 557.6927,-39.4337 570,-48 595.9973,-66.0949 609.7488,-102.4078 615.7322,-122.9464"/>
<polygon fill="#000000" fill-opacity="0.200000" stroke="#000000" stroke-width="2" stroke-opacity="0.200000" points="613.7211,-123.5533 617.3447,-128.7763 617.7691,-122.4336 613.7211,-123.5533"/>
</g>
<!-- lib/acme&#45;requests/NewOrderRequest.js&#45;&gt;lib/AcmeRequest.js -->
<g id="edge29" class="edge">
<title>lib/acme&#45;requests/NewOrderRequest.js&#45;&gt;lib/AcmeRequest.js</title>
<path fill="none" stroke="#000000" stroke-width="2" stroke-opacity="0.200000" d="M520.667,-63.4553C537.2535,-65.4282 555.1808,-69.6215 570,-78 588.7203,-88.5842 603.305,-109.2184 611.6551,-123.3033"/>
<polygon fill="#000000" fill-opacity="0.200000" stroke="#000000" stroke-width="2" stroke-opacity="0.200000" points="610.0467,-124.7216 614.846,-128.8903 613.6939,-122.6386 610.0467,-124.7216"/>
</g>
</g>
</svg>
