<?xml version="1.0" encoding="UTF-8" standalone="no"?>
<!DOCTYPE svg PUBLIC "-//W3C//DTD SVG 1.1//EN"
 "http://www.w3.org/Graphics/SVG/1.1/DTD/svg11.dtd">
<!-- Generated by graphviz version 2.43.0 (0)
 -->
<!-- Title: dependency&#45;cruiser output Pages: 1 -->
<svg width="808pt" height="462pt"
 viewBox="0.00 0.00 808.00 461.74" xmlns="http://www.w3.org/2000/svg" xmlns:xlink="http://www.w3.org/1999/xlink">
<g id="graph0" class="graph" transform="scale(1 1) rotate(0) translate(4 457.74)">
<title>dependency&#45;cruiser output</title>
<polygon fill="white" stroke="transparent" points="-4,4 -4,-457.74 804,-457.74 804,4 -4,4"/>
<g id="clust1" class="cluster">
<title>cluster_fs</title>
<path fill="#ffffff" stroke="black" stroke-width="2" d="M317,-53.74C317,-53.74 366,-53.74 366,-53.74 372,-53.74 378,-59.74 378,-65.74 378,-65.74 378,-93.74 378,-93.74 378,-99.74 372,-105.74 366,-105.74 366,-105.74 317,-105.74 317,-105.74 311,-105.74 305,-99.74 305,-93.74 305,-93.74 305,-65.74 305,-65.74 305,-59.74 311,-53.74 317,-53.74"/>
<text text-anchor="middle" x="341.5" y="-94.54" font-family="Helvetica,sans-Serif" font-weight="bold" font-size="9.00">fs</text>
</g>
<g id="clust2" class="cluster">
<title>cluster_lib</title>
<path fill="#ffffff" stroke="black" stroke-width="2" d="M74,-113.74C74,-113.74 780,-113.74 780,-113.74 786,-113.74 792,-119.74 792,-125.74 792,-125.74 792,-433.74 792,-433.74 792,-439.74 786,-445.74 780,-445.74 780,-445.74 74,-445.74 74,-445.74 68,-445.74 62,-439.74 62,-433.74 62,-433.74 62,-125.74 62,-125.74 62,-119.74 68,-113.74 74,-113.74"/>
<text text-anchor="middle" x="427" y="-434.54" font-family="Helvetica,sans-Serif" font-weight="bold" font-size="9.00">lib</text>
</g>
<g id="clust3" class="cluster">
<title>cluster_lib/acme&#45;requests</title>
<path fill="#ffffff" stroke="black" stroke-width="2" d="M423,-131.74C423,-131.74 607,-131.74 607,-131.74 613,-131.74 619,-137.74 619,-143.74 619,-143.74 619,-351.74 619,-351.74 619,-357.74 613,-363.74 607,-363.74 607,-363.74 423,-363.74 423,-363.74 417,-363.74 411,-357.74 411,-351.74 411,-351.74 411,-143.74 411,-143.74 411,-137.74 417,-131.74 423,-131.74"/>
<text text-anchor="middle" x="515" y="-352.54" font-family="Helvetica,sans-Serif" font-weight="bold" font-size="9.00">acme&#45;requests</text>
</g>
<g id="clust4" class="cluster">
<title>cluster_lib/identities</title>
<path fill="#ffffff" stroke="black" stroke-width="2" d="M292,-329.74C292,-329.74 391,-329.74 391,-329.74 397,-329.74 403,-335.74 403,-341.74 403,-341.74 403,-399.74 403,-399.74 403,-405.74 397,-411.74 391,-411.74 391,-411.74 292,-411.74 292,-411.74 286,-411.74 280,-405.74 280,-399.74 280,-399.74 280,-341.74 280,-341.74 280,-335.74 286,-329.74 292,-329.74"/>
<text text-anchor="middle" x="341.5" y="-400.54" font-family="Helvetica,sans-Serif" font-weight="bold" font-size="9.00">identities</text>
</g>
<g id="clust5" class="cluster">
<title>cluster_lib/staging</title>
<path fill="#ffffff" stroke="black" stroke-width="2" d="M82,-177.74C82,-177.74 174,-177.74 174,-177.74 180,-177.74 186,-183.74 186,-189.74 186,-189.74 186,-217.74 186,-217.74 186,-223.74 180,-229.74 174,-229.74 174,-229.74 82,-229.74 82,-229.74 76,-229.74 70,-223.74 70,-217.74 70,-217.74 70,-189.74 70,-189.74 70,-183.74 76,-177.74 82,-177.74"/>
<text text-anchor="middle" x="128" y="-218.54" font-family="Helvetica,sans-Serif" font-weight="bold" font-size="9.00">staging</text>
</g>
<g id="clust6" class="cluster">
<title>cluster_lib/x.509</title>
<path fill="#ffffff" stroke="black" stroke-width="2" d="M206,-295.74C206,-295.74 260,-295.74 260,-295.74 266,-295.74 272,-301.74 272,-307.74 272,-307.74 272,-335.74 272,-335.74 272,-341.74 266,-347.74 260,-347.74 260,-347.74 206,-347.74 206,-347.74 200,-347.74 194,-341.74 194,-335.74 194,-335.74 194,-307.74 194,-307.74 194,-301.74 200,-295.74 206,-295.74"/>
<text text-anchor="middle" x="233" y="-336.54" font-family="Helvetica,sans-Serif" font-weight="bold" font-size="9.00">x.509</text>
</g>
<!-- fs/promises -->
<g id="node1" class="node">
<title>fs/promises</title>
<path fill="#ffffcc" stroke="grey" d="M364,-79.74C364,-79.74 319,-79.74 319,-79.74 316,-79.74 313,-76.74 313,-73.74 313,-73.74 313,-67.74 313,-67.74 313,-64.74 316,-61.74 319,-61.74 319,-61.74 364,-61.74 364,-61.74 367,-61.74 370,-64.74 370,-67.74 370,-67.74 370,-73.74 370,-73.74 370,-76.74 367,-79.74 364,-79.74"/>
<text text-anchor="middle" x="341.5" y="-68.54" font-family="Helvetica,sans-Serif" font-size="9.00" fill="grey">promises</text>
</g>
<!-- index.js -->
<g id="node2" class="node">
<title>index.js</title>
<g id="a_node2"><a xlink:href="index.js" xlink:title="index.js">
<path fill="#ffffcc" stroke="black" d="M48,-169.74C48,-169.74 6,-169.74 6,-169.74 3,-169.74 0,-166.74 0,-163.74 0,-163.74 0,-157.74 0,-157.74 0,-154.74 3,-151.74 6,-151.74 6,-151.74 48,-151.74 48,-151.74 51,-151.74 54,-154.74 54,-157.74 54,-157.74 54,-163.74 54,-163.74 54,-166.74 51,-169.74 48,-169.74"/>
<text text-anchor="middle" x="27" y="-158.54" font-family="Helvetica,sans-Serif" font-size="9.00">index.js</text>
</a>
</g>
</g>
<!-- lib/Certificate.js -->
<g id="node3" class="node">
<title>lib/Certificate.js</title>
<g id="a_node3"><a xlink:href="lib/Certificate.js" xlink:title="Certificate.js">
<path fill="#ffffcc" stroke="black" d="M158.5,-258.74C158.5,-258.74 97.5,-258.74 97.5,-258.74 94.5,-258.74 91.5,-255.74 91.5,-252.74 91.5,-252.74 91.5,-246.74 91.5,-246.74 91.5,-243.74 94.5,-240.74 97.5,-240.74 97.5,-240.74 158.5,-240.74 158.5,-240.74 161.5,-240.74 164.5,-243.74 164.5,-246.74 164.5,-246.74 164.5,-252.74 164.5,-252.74 164.5,-255.74 161.5,-258.74 158.5,-258.74"/>
<text text-anchor="middle" x="128" y="-247.54" font-family="Helvetica,sans-Serif" font-size="9.00">Certificate.js</text>
</a>
</g>
</g>
<!-- index.js&#45;&gt;lib/Certificate.js -->
<g id="edge1" class="edge">
<title>index.js&#45;&gt;lib/Certificate.js</title>
<path fill="none" stroke="#000000" stroke-width="2" stroke-opacity="0.200000" d="M29.69,-169.77C33.04,-185.09 42,-216.14 62,-232.74 68.71,-238.31 77.04,-242.07 85.48,-244.61"/>
<polygon fill="#000000" fill-opacity="0.200000" stroke="#000000" stroke-width="2" stroke-opacity="0.200000" points="84.98,-246.65 91.32,-246.19 86.07,-242.6 84.98,-246.65"/>
</g>
<!-- lib/Configuration.js -->
<g id="node4" class="node">
<title>lib/Configuration.js</title>
<g id="a_node4"><a xlink:href="lib/Configuration.js" xlink:title="Configuration.js">
<path fill="#ffffcc" stroke="black" d="M166,-169.74C166,-169.74 90,-169.74 90,-169.74 87,-169.74 84,-166.74 84,-163.74 84,-163.74 84,-157.74 84,-157.74 84,-154.74 87,-151.74 90,-151.74 90,-151.74 166,-151.74 166,-151.74 169,-151.74 172,-154.74 172,-157.74 172,-157.74 172,-163.74 172,-163.74 172,-166.74 169,-169.74 166,-169.74"/>
<text text-anchor="middle" x="128" y="-158.54" font-family="Helvetica,sans-Serif" font-size="9.00">Configuration.js</text>
</a>
</g>
</g>
<!-- index.js&#45;&gt;lib/Configuration.js -->
<g id="edge2" class="edge">
<title>index.js&#45;&gt;lib/Configuration.js</title>
<path fill="none" stroke="#000000" stroke-width="2" stroke-opacity="0.200000" d="M54.01,-160.74C61.32,-160.74 69.51,-160.74 77.69,-160.74"/>
<polygon fill="#000000" fill-opacity="0.200000" stroke="#000000" stroke-width="2" stroke-opacity="0.200000" points="77.94,-162.84 83.94,-160.74 77.94,-158.64 77.94,-162.84"/>
</g>
<!-- lib/HttpServer.js -->
<g id="node5" class="node">
<title>lib/HttpServer.js</title>
<g id="a_node5"><a xlink:href="lib/HttpServer.js" xlink:title="HttpServer.js">
<path fill="#ffffcc" stroke="black" d="M546.5,-389.74C546.5,-389.74 483.5,-389.74 483.5,-389.74 480.5,-389.74 477.5,-386.74 477.5,-383.74 477.5,-383.74 477.5,-377.74 477.5,-377.74 477.5,-374.74 480.5,-371.74 483.5,-371.74 483.5,-371.74 546.5,-371.74 546.5,-371.74 549.5,-371.74 552.5,-374.74 552.5,-377.74 552.5,-377.74 552.5,-383.74 552.5,-383.74 552.5,-386.74 549.5,-389.74 546.5,-389.74"/>
<text text-anchor="middle" x="515" y="-378.54" font-family="Helvetica,sans-Serif" font-size="9.00">HttpServer.js</text>
</a>
</g>
</g>
<!-- index.js&#45;&gt;lib/HttpServer.js -->
<g id="edge3" class="edge">
<title>index.js&#45;&gt;lib/HttpServer.js</title>
<path fill="none" stroke="#000000" stroke-width="2" stroke-opacity="0.200000" d="M32.7,-151.4C38.32,-141.18 48.65,-125.01 62,-115.74 188.74,-27.76 292.53,56.97 403,-50.74 415.57,-63 399.28,-353.66 411,-366.74 425.74,-383.19 449.94,-387.11 471.17,-386.72"/>
<polygon fill="#000000" fill-opacity="0.200000" stroke="#000000" stroke-width="2" stroke-opacity="0.200000" points="471.45,-388.81 477.36,-386.49 471.29,-384.62 471.45,-388.81"/>
</g>
<!-- lib/LetsEncryptServer.js -->
<g id="node6" class="node">
<title>lib/LetsEncryptServer.js</title>
<g id="a_node6"><a xlink:href="lib/LetsEncryptServer.js" xlink:title="LetsEncryptServer.js">
<path fill="#ffffcc" stroke="black" d="M176.5,-139.74C176.5,-139.74 79.5,-139.74 79.5,-139.74 76.5,-139.74 73.5,-136.74 73.5,-133.74 73.5,-133.74 73.5,-127.74 73.5,-127.74 73.5,-124.74 76.5,-121.74 79.5,-121.74 79.5,-121.74 176.5,-121.74 176.5,-121.74 179.5,-121.74 182.5,-124.74 182.5,-127.74 182.5,-127.74 182.5,-133.74 182.5,-133.74 182.5,-136.74 179.5,-139.74 176.5,-139.74"/>
<text text-anchor="middle" x="128" y="-128.54" font-family="Helvetica,sans-Serif" font-size="9.00">LetsEncryptServer.js</text>
</a>
</g>
</g>
<!-- index.js&#45;&gt;lib/LetsEncryptServer.js -->
<g id="edge4" class="edge">
<title>index.js&#45;&gt;lib/LetsEncryptServer.js</title>
<path fill="none" stroke="#000000" stroke-width="2" stroke-opacity="0.200000" d="M46.81,-151.68C51.69,-149.55 56.98,-147.41 62,-145.74 66.74,-144.16 71.73,-142.69 76.74,-141.34"/>
<polygon fill="#000000" fill-opacity="0.200000" stroke="#000000" stroke-width="2" stroke-opacity="0.200000" points="77.36,-143.35 82.63,-139.8 76.3,-139.28 77.36,-143.35"/>
</g>
<!-- lib/staging/monkeyPatchTls.js -->
<g id="node7" class="node">
<title>lib/staging/monkeyPatchTls.js</title>
<g id="a_node7"><a xlink:href="lib/staging/monkeyPatchTls.js" xlink:title="monkeyPatchTls.js">
<path fill="#ffffcc" stroke="black" d="M172,-203.74C172,-203.74 84,-203.74 84,-203.74 81,-203.74 78,-200.74 78,-197.74 78,-197.74 78,-191.74 78,-191.74 78,-188.74 81,-185.74 84,-185.74 84,-185.74 172,-185.74 172,-185.74 175,-185.74 178,-188.74 178,-191.74 178,-191.74 178,-197.74 178,-197.74 178,-200.74 175,-203.74 172,-203.74"/>
<text text-anchor="middle" x="128" y="-192.54" font-family="Helvetica,sans-Serif" font-size="9.00">monkeyPatchTls.js</text>
</a>
</g>
</g>
<!-- index.js&#45;&gt;lib/staging/monkeyPatchTls.js -->
<g id="edge5" class="edge">
<title>index.js&#45;&gt;lib/staging/monkeyPatchTls.js</title>
<path fill="none" stroke="#000000" stroke-width="2" stroke-opacity="0.200000" d="M40.35,-169.85C46.56,-174.04 54.38,-178.74 62,-181.74 65.22,-183.01 68.59,-184.16 72.02,-185.2"/>
<polygon fill="#000000" fill-opacity="0.200000" stroke="#000000" stroke-width="2" stroke-opacity="0.200000" points="71.49,-187.24 77.83,-186.86 72.63,-183.2 71.49,-187.24"/>
</g>
<!-- lib/Account.js -->
<g id="node8" class="node">
<title>lib/Account.js</title>
<g id="a_node8"><a xlink:href="lib/Account.js" xlink:title="Account.js">
<path fill="#ffffcc" stroke="black" d="M367.5,-169.74C367.5,-169.74 315.5,-169.74 315.5,-169.74 312.5,-169.74 309.5,-166.74 309.5,-163.74 309.5,-163.74 309.5,-157.74 309.5,-157.74 309.5,-154.74 312.5,-151.74 315.5,-151.74 315.5,-151.74 367.5,-151.74 367.5,-151.74 370.5,-151.74 373.5,-154.74 373.5,-157.74 373.5,-157.74 373.5,-163.74 373.5,-163.74 373.5,-166.74 370.5,-169.74 367.5,-169.74"/>
<text text-anchor="middle" x="341.5" y="-158.54" font-family="Helvetica,sans-Serif" font-size="9.00">Account.js</text>
</a>
</g>
</g>
<!-- lib/Certificate.js&#45;&gt;lib/Account.js -->
<g id="edge11" class="edge">
<title>lib/Certificate.js&#45;&gt;lib/Account.js</title>
<path fill="none" stroke="#000000" stroke-width="2" stroke-opacity="0.200000" d="M164.5,-244.97C172.41,-242.44 180.16,-238.59 186,-232.74 194.84,-223.88 185.27,-214.71 194,-205.74 222.04,-176.94 241.53,-189.4 280,-177.74 287.57,-175.44 295.71,-173.09 303.48,-170.88"/>
<polygon fill="#000000" fill-opacity="0.200000" stroke="#000000" stroke-width="2" stroke-opacity="0.200000" points="304.13,-172.88 309.34,-169.23 303,-168.84 304.13,-172.88"/>
</g>
<!-- lib/AcmeRequest.js -->
<g id="node10" class="node">
<title>lib/AcmeRequest.js</title>
<g id="a_node10"><a xlink:href="lib/AcmeRequest.js" xlink:title="AcmeRequest.js">
<path fill="#ffffcc" stroke="black" d="M710,-232.74C710,-232.74 633,-232.74 633,-232.74 630,-232.74 627,-229.74 627,-226.74 627,-226.74 627,-220.74 627,-220.74 627,-217.74 630,-214.74 633,-214.74 633,-214.74 710,-214.74 710,-214.74 713,-214.74 716,-217.74 716,-220.74 716,-220.74 716,-226.74 716,-226.74 716,-229.74 713,-232.74 710,-232.74"/>
<text text-anchor="middle" x="671.5" y="-221.54" font-family="Helvetica,sans-Serif" font-size="9.00">AcmeRequest.js</text>
</a>
</g>
</g>
<!-- lib/Certificate.js&#45;&gt;lib/AcmeRequest.js -->
<g id="edge12" class="edge">
<title>lib/Certificate.js&#45;&gt;lib/AcmeRequest.js</title>
<path fill="none" stroke="#000000" stroke-width="2" stroke-opacity="0.200000" d="M164.54,-245.74C172.64,-243.2 180.47,-239.15 186,-232.74 202.42,-213.7 178.13,-196.24 194,-176.74 256.37,-100.14 312.43,-135.11 411,-128.74 503.25,-122.78 539.57,-81.45 619,-128.74 648.2,-146.12 661.86,-186.46 667.35,-208.57"/>
<polygon fill="#000000" fill-opacity="0.200000" stroke="#000000" stroke-width="2" stroke-opacity="0.200000" points="665.34,-209.18 668.75,-214.55 669.43,-208.23 665.34,-209.18"/>
</g>
<!-- lib/Directory.js -->
<g id="node15" class="node">
<title>lib/Directory.js</title>
<g id="a_node15"><a xlink:href="lib/Directory.js" xlink:title="Directory.js">
<path fill="#ffffcc" stroke="black" d="M260,-229.74C260,-229.74 206,-229.74 206,-229.74 203,-229.74 200,-226.74 200,-223.74 200,-223.74 200,-217.74 200,-217.74 200,-214.74 203,-211.74 206,-211.74 206,-211.74 260,-211.74 260,-211.74 263,-211.74 266,-214.74 266,-217.74 266,-217.74 266,-223.74 266,-223.74 266,-226.74 263,-229.74 260,-229.74"/>
<text text-anchor="middle" x="233" y="-218.54" font-family="Helvetica,sans-Serif" font-size="9.00">Directory.js</text>
</a>
</g>
</g>
<!-- lib/Certificate.js&#45;&gt;lib/Directory.js -->
<g id="edge13" class="edge">
<title>lib/Certificate.js&#45;&gt;lib/Directory.js</title>
<path fill="none" stroke="#000000" stroke-width="2" stroke-opacity="0.200000" d="M161.03,-240.72C171.49,-237.78 183.21,-234.48 194.07,-231.42"/>
<polygon fill="#000000" fill-opacity="0.200000" stroke="#000000" stroke-width="2" stroke-opacity="0.200000" points="194.79,-233.4 199.99,-229.75 193.65,-229.36 194.79,-233.4"/>
</g>
<!-- lib/identities/AccountIdentity.js -->
<g id="node16" class="node">
<title>lib/identities/AccountIdentity.js</title>
<g id="a_node16"><a xlink:href="lib/identities/AccountIdentity.js" xlink:title="AccountIdentity.js">
<path fill="#ffffcc" stroke="black" d="M384.5,-385.74C384.5,-385.74 298.5,-385.74 298.5,-385.74 295.5,-385.74 292.5,-382.74 292.5,-379.74 292.5,-379.74 292.5,-373.74 292.5,-373.74 292.5,-370.74 295.5,-367.74 298.5,-367.74 298.5,-367.74 384.5,-367.74 384.5,-367.74 387.5,-367.74 390.5,-370.74 390.5,-373.74 390.5,-373.74 390.5,-379.74 390.5,-379.74 390.5,-382.74 387.5,-385.74 384.5,-385.74"/>
<text text-anchor="middle" x="341.5" y="-374.54" font-family="Helvetica,sans-Serif" font-size="9.00">AccountIdentity.js</text>
</a>
</g>
</g>
<!-- lib/Certificate.js&#45;&gt;lib/identities/AccountIdentity.js -->
<g id="edge14" class="edge">
<title>lib/Certificate.js&#45;&gt;lib/identities/AccountIdentity.js</title>
<path fill="none" stroke="#000000" stroke-width="2" stroke-opacity="0.200000" d="M147.09,-258.79C159.92,-264.9 177.68,-272.72 194,-277.74 227.74,-288.12 247.99,-266.86 272,-292.74 293,-315.37 259.61,-338.56 280,-361.74 282.04,-364.05 284.37,-366.04 286.91,-367.74"/>
<polygon fill="#000000" fill-opacity="0.200000" stroke="#000000" stroke-width="2" stroke-opacity="0.200000" points="286.12,-369.71 292.38,-370.85 288.2,-366.06 286.12,-369.71"/>
</g>
<!-- lib/identities/CertificateIdentity.js -->
<g id="node17" class="node">
<title>lib/identities/CertificateIdentity.js</title>
<g id="a_node17"><a xlink:href="lib/identities/CertificateIdentity.js" xlink:title="CertificateIdentity.js">
<path fill="#ffffcc" stroke="black" d="M389,-355.74C389,-355.74 294,-355.74 294,-355.74 291,-355.74 288,-352.74 288,-349.74 288,-349.74 288,-343.74 288,-343.74 288,-340.74 291,-337.74 294,-337.74 294,-337.74 389,-337.74 389,-337.74 392,-337.74 395,-340.74 395,-343.74 395,-343.74 395,-349.74 395,-349.74 395,-352.74 392,-355.74 389,-355.74"/>
<text text-anchor="middle" x="341.5" y="-344.54" font-family="Helvetica,sans-Serif" font-size="9.00">CertificateIdentity.js</text>
</a>
</g>
</g>
<!-- lib/Certificate.js&#45;&gt;lib/identities/CertificateIdentity.js -->
<g id="edge15" class="edge">
<title>lib/Certificate.js&#45;&gt;lib/identities/CertificateIdentity.js</title>
<path fill="none" stroke="#000000" stroke-width="2" stroke-opacity="0.200000" d="M164.72,-258.71C174.22,-261.05 184.49,-263.53 194,-265.74 228.56,-273.76 247.66,-256.92 272,-282.74 287.74,-299.43 264.24,-317.07 280,-333.74 280.86,-334.65 281.76,-335.5 282.71,-336.3"/>
<polygon fill="#000000" fill-opacity="0.200000" stroke="#000000" stroke-width="2" stroke-opacity="0.200000" points="281.64,-338.11 287.75,-339.87 284.07,-334.69 281.64,-338.11"/>
</g>
<!-- lib/Order.js -->
<g id="node18" class="node">
<title>lib/Order.js</title>
<g id="a_node18"><a xlink:href="lib/Order.js" xlink:title="Order.js">
<path fill="#ffffcc" stroke="black" d="M254,-259.74C254,-259.74 212,-259.74 212,-259.74 209,-259.74 206,-256.74 206,-253.74 206,-253.74 206,-247.74 206,-247.74 206,-244.74 209,-241.74 212,-241.74 212,-241.74 254,-241.74 254,-241.74 257,-241.74 260,-244.74 260,-247.74 260,-247.74 260,-253.74 260,-253.74 260,-256.74 257,-259.74 254,-259.74"/>
<text text-anchor="middle" x="233" y="-248.54" font-family="Helvetica,sans-Serif" font-size="9.00">Order.js</text>
</a>
</g>
</g>
<!-- lib/Certificate.js&#45;&gt;lib/Order.js -->
<g id="edge16" class="edge">
<title>lib/Certificate.js&#45;&gt;lib/Order.js</title>
<path fill="none" stroke="#000000" stroke-width="2" stroke-opacity="0.200000" d="M164.74,-250.09C176.11,-250.2 188.62,-250.32 199.73,-250.43"/>
<polygon fill="#000000" fill-opacity="0.200000" stroke="#000000" stroke-width="2" stroke-opacity="0.200000" points="199.73,-252.53 205.75,-250.48 199.77,-248.33 199.73,-252.53"/>
</g>
<!-- lib/x.509/rfc5280.js -->
<g id="node19" class="node">
<title>lib/x.509/rfc5280.js</title>
<g id="a_node19"><a xlink:href="lib/x.509/rfc5280.js" xlink:title="rfc5280.js">
<path fill="#ffffcc" stroke="black" d="M258,-321.74C258,-321.74 208,-321.74 208,-321.74 205,-321.74 202,-318.74 202,-315.74 202,-315.74 202,-309.74 202,-309.74 202,-306.74 205,-303.74 208,-303.74 208,-303.74 258,-303.74 258,-303.74 261,-303.74 264,-306.74 264,-309.74 264,-309.74 264,-315.74 264,-315.74 264,-318.74 261,-321.74 258,-321.74"/>
<text text-anchor="middle" x="233" y="-310.54" font-family="Helvetica,sans-Serif" font-size="9.00">rfc5280.js</text>
</a>
</g>
</g>
<!-- lib/Certificate.js&#45;&gt;lib/x.509/rfc5280.js -->
<g id="edge17" class="edge">
<title>lib/Certificate.js&#45;&gt;lib/x.509/rfc5280.js</title>
<path fill="none" stroke="#000000" stroke-width="2" stroke-opacity="0.200000" d="M138.86,-259C151.01,-270 172.68,-288.29 194,-299.74 194.81,-300.17 195.63,-300.59 196.47,-301.01"/>
<polygon fill="#000000" fill-opacity="0.200000" stroke="#000000" stroke-width="2" stroke-opacity="0.200000" points="195.81,-303.01 202.14,-303.58 197.54,-299.19 195.81,-303.01"/>
</g>
<!-- url -->
<g id="node26" class="node">
<title>url</title>
<path fill="#ffffcc" stroke="grey" d="M254,-105.74C254,-105.74 212,-105.74 212,-105.74 209,-105.74 206,-102.74 206,-99.74 206,-99.74 206,-93.74 206,-93.74 206,-90.74 209,-87.74 212,-87.74 212,-87.74 254,-87.74 254,-87.74 257,-87.74 260,-90.74 260,-93.74 260,-93.74 260,-99.74 260,-99.74 260,-102.74 257,-105.74 254,-105.74"/>
<text text-anchor="middle" x="233" y="-94.54" font-family="Helvetica,sans-Serif" font-size="9.00" fill="grey">url</text>
</g>
<!-- lib/staging/monkeyPatchTls.js&#45;&gt;url -->
<g id="edge36" class="edge">
<title>lib/staging/monkeyPatchTls.js&#45;&gt;url</title>
<path fill="none" stroke="#000000" stroke-dasharray="5,2" stroke-opacity="0.200000" d="M178.06,-188.17C181.01,-186.43 183.7,-184.31 186,-181.74 207.16,-158.06 174.41,-135.73 194,-110.74 195.8,-108.44 198.02,-106.52 200.48,-104.91"/>
<polygon fill="#000000" fill-opacity="0.200000" stroke="#000000" stroke-opacity="0.200000" points="201.5,-106.74 205.78,-102.04 199.5,-103.05 201.5,-106.74"/>
</g>
<!-- lib/acme&#45;requests/NewAccountRequest.js -->
<g id="node9" class="node">
<title>lib/acme&#45;requests/NewAccountRequest.js</title>
<g id="a_node9"><a xlink:href="lib/acme-requests/NewAccountRequest.js" xlink:title="NewAccountRequest.js">
<path fill="#ffffcc" stroke="black" d="M569,-157.74C569,-157.74 461,-157.74 461,-157.74 458,-157.74 455,-154.74 455,-151.74 455,-151.74 455,-145.74 455,-145.74 455,-142.74 458,-139.74 461,-139.74 461,-139.74 569,-139.74 569,-139.74 572,-139.74 575,-142.74 575,-145.74 575,-145.74 575,-151.74 575,-151.74 575,-154.74 572,-157.74 569,-157.74"/>
<text text-anchor="middle" x="515" y="-146.54" font-family="Helvetica,sans-Serif" font-size="9.00">NewAccountRequest.js</text>
</a>
</g>
</g>
<!-- lib/Account.js&#45;&gt;lib/acme&#45;requests/NewAccountRequest.js -->
<g id="edge6" class="edge">
<title>lib/Account.js&#45;&gt;lib/acme&#45;requests/NewAccountRequest.js</title>
<path fill="none" stroke="#000000" stroke-width="2" stroke-opacity="0.200000" d="M373.56,-158.57C394.47,-157.1 422.83,-155.12 448.59,-153.32"/>
<polygon fill="#000000" fill-opacity="0.200000" stroke="#000000" stroke-width="2" stroke-opacity="0.200000" points="448.89,-155.4 454.73,-152.89 448.59,-151.21 448.89,-155.4"/>
</g>
<!-- lib/acme&#45;requests/NewAccountRequest.js&#45;&gt;lib/AcmeRequest.js -->
<g id="edge31" class="edge">
<title>lib/acme&#45;requests/NewAccountRequest.js&#45;&gt;lib/AcmeRequest.js</title>
<path fill="none" stroke="#000000" stroke-width="2" stroke-opacity="0.200000" d="M575.27,-150.08C590.23,-152.34 605.78,-156.46 619,-163.74 638.32,-174.37 653.68,-195.29 662.43,-209.4"/>
<polygon fill="#000000" fill-opacity="0.200000" stroke="#000000" stroke-width="2" stroke-opacity="0.200000" points="660.68,-210.55 665.57,-214.62 664.28,-208.39 660.68,-210.55"/>
</g>
<!-- lib/Nonce.js -->
<g id="node11" class="node">
<title>lib/Nonce.js</title>
<g id="a_node11"><a xlink:href="lib/Nonce.js" xlink:title="Nonce.js">
<path fill="#ffffcc" stroke="black" d="M778,-232.74C778,-232.74 735,-232.74 735,-232.74 732,-232.74 729,-229.74 729,-226.74 729,-226.74 729,-220.74 729,-220.74 729,-217.74 732,-214.74 735,-214.74 735,-214.74 778,-214.74 778,-214.74 781,-214.74 784,-217.74 784,-220.74 784,-220.74 784,-226.74 784,-226.74 784,-229.74 781,-232.74 778,-232.74"/>
<text text-anchor="middle" x="756.5" y="-221.54" font-family="Helvetica,sans-Serif" font-size="9.00">Nonce.js</text>
</a>
</g>
</g>
<!-- lib/AcmeRequest.js&#45;&gt;lib/Nonce.js -->
<g id="edge7" class="edge">
<title>lib/AcmeRequest.js&#45;&gt;lib/Nonce.js</title>
<path fill="none" stroke="#000000" stroke-width="2" stroke-opacity="0.200000" d="M716.43,-223.74C718.53,-223.74 720.62,-223.74 722.68,-223.74"/>
<polygon fill="#000000" fill-opacity="0.200000" stroke="#000000" stroke-width="2" stroke-opacity="0.200000" points="722.76,-225.84 728.76,-223.74 722.76,-221.64 722.76,-225.84"/>
</g>
<!-- lib/Authorisation.js -->
<g id="node12" class="node">
<title>lib/Authorisation.js</title>
<g id="a_node12"><a xlink:href="lib/Authorisation.js" xlink:title="Authorisation.js">
<path fill="#ffffcc" stroke="black" d="M378.5,-307.74C378.5,-307.74 304.5,-307.74 304.5,-307.74 301.5,-307.74 298.5,-304.74 298.5,-301.74 298.5,-301.74 298.5,-295.74 298.5,-295.74 298.5,-292.74 301.5,-289.74 304.5,-289.74 304.5,-289.74 378.5,-289.74 378.5,-289.74 381.5,-289.74 384.5,-292.74 384.5,-295.74 384.5,-295.74 384.5,-301.74 384.5,-301.74 384.5,-304.74 381.5,-307.74 378.5,-307.74"/>
<text text-anchor="middle" x="341.5" y="-296.54" font-family="Helvetica,sans-Serif" font-size="9.00">Authorisation.js</text>
</a>
</g>
</g>
<!-- lib/Authorisation.js&#45;&gt;lib/HttpServer.js -->
<g id="edge10" class="edge">
<title>lib/Authorisation.js&#45;&gt;lib/HttpServer.js</title>
<path fill="none" stroke="#000000" stroke-width="2" stroke-opacity="0.200000" d="M384.51,-304.54C391.51,-307.24 398.09,-311.14 403,-316.74 417.84,-333.66 394.9,-351.01 411,-366.74 426.63,-382 450.51,-385.96 471.34,-385.89"/>
<polygon fill="#000000" fill-opacity="0.200000" stroke="#000000" stroke-width="2" stroke-opacity="0.200000" points="471.45,-387.99 477.41,-385.76 471.36,-383.79 471.45,-387.99"/>
</g>
<!-- lib/acme&#45;requests/AuthorisationRequest.js -->
<g id="node13" class="node">
<title>lib/acme&#45;requests/AuthorisationRequest.js</title>
<g id="a_node13"><a xlink:href="lib/acme-requests/AuthorisationRequest.js" xlink:title="AuthorisationRequest.js">
<path fill="#ffffcc" stroke="black" d="M570.5,-307.74C570.5,-307.74 459.5,-307.74 459.5,-307.74 456.5,-307.74 453.5,-304.74 453.5,-301.74 453.5,-301.74 453.5,-295.74 453.5,-295.74 453.5,-292.74 456.5,-289.74 459.5,-289.74 459.5,-289.74 570.5,-289.74 570.5,-289.74 573.5,-289.74 576.5,-292.74 576.5,-295.74 576.5,-295.74 576.5,-301.74 576.5,-301.74 576.5,-304.74 573.5,-307.74 570.5,-307.74"/>
<text text-anchor="middle" x="515" y="-296.54" font-family="Helvetica,sans-Serif" font-size="9.00">AuthorisationRequest.js</text>
</a>
</g>
</g>
<!-- lib/Authorisation.js&#45;&gt;lib/acme&#45;requests/AuthorisationRequest.js -->
<g id="edge8" class="edge">
<title>lib/Authorisation.js&#45;&gt;lib/acme&#45;requests/AuthorisationRequest.js</title>
<path fill="none" stroke="#000000" stroke-width="2" stroke-opacity="0.200000" d="M384.89,-298.74C403.67,-298.74 426.21,-298.74 447.17,-298.74"/>
<polygon fill="#000000" fill-opacity="0.200000" stroke="#000000" stroke-width="2" stroke-opacity="0.200000" points="447.32,-300.84 453.32,-298.74 447.32,-296.64 447.32,-300.84"/>
</g>
<!-- lib/acme&#45;requests/ReadyForChallengeValidationRequest.js -->
<g id="node14" class="node">
<title>lib/acme&#45;requests/ReadyForChallengeValidationRequest.js</title>
<g id="a_node14"><a xlink:href="lib/acme-requests/ReadyForChallengeValidationRequest.js" xlink:title="ReadyForChallengeValidationRequest.js">
<path fill="#ffffcc" stroke="black" d="M605,-337.74C605,-337.74 425,-337.74 425,-337.74 422,-337.74 419,-334.74 419,-331.74 419,-331.74 419,-325.74 419,-325.74 419,-322.74 422,-319.74 425,-319.74 425,-319.74 605,-319.74 605,-319.74 608,-319.74 611,-322.74 611,-325.74 611,-325.74 611,-331.74 611,-331.74 611,-334.74 608,-337.74 605,-337.74"/>
<text text-anchor="middle" x="515" y="-326.54" font-family="Helvetica,sans-Serif" font-size="9.00">ReadyForChallengeValidationRequest.js</text>
</a>
</g>
</g>
<!-- lib/Authorisation.js&#45;&gt;lib/acme&#45;requests/ReadyForChallengeValidationRequest.js -->
<g id="edge9" class="edge">
<title>lib/Authorisation.js&#45;&gt;lib/acme&#45;requests/ReadyForChallengeValidationRequest.js</title>
<path fill="none" stroke="#000000" stroke-width="2" stroke-opacity="0.200000" d="M381.53,-307.79C391.14,-309.88 401.42,-311.99 411,-313.74 420.73,-315.51 431.02,-317.21 441.17,-318.79"/>
<polygon fill="#000000" fill-opacity="0.200000" stroke="#000000" stroke-width="2" stroke-opacity="0.200000" points="440.87,-320.87 447.12,-319.7 441.51,-316.72 440.87,-320.87"/>
</g>
<!-- lib/acme&#45;requests/AuthorisationRequest.js&#45;&gt;lib/AcmeRequest.js -->
<g id="edge27" class="edge">
<title>lib/acme&#45;requests/AuthorisationRequest.js&#45;&gt;lib/AcmeRequest.js</title>
<path fill="none" stroke="#000000" stroke-width="2" stroke-opacity="0.200000" d="M576.61,-297.19C591.16,-294.89 606.18,-290.8 619,-283.74 638.32,-273.11 653.68,-252.19 662.43,-238.08"/>
<polygon fill="#000000" fill-opacity="0.200000" stroke="#000000" stroke-width="2" stroke-opacity="0.200000" points="664.28,-239.09 665.57,-232.86 660.68,-236.93 664.28,-239.09"/>
</g>
<!-- lib/acme&#45;requests/ReadyForChallengeValidationRequest.js&#45;&gt;lib/AcmeRequest.js -->
<g id="edge33" class="edge">
<title>lib/acme&#45;requests/ReadyForChallengeValidationRequest.js&#45;&gt;lib/AcmeRequest.js</title>
<path fill="none" stroke="#000000" stroke-width="2" stroke-opacity="0.200000" d="M608.61,-319.66C612.23,-317.94 615.71,-315.98 619,-313.74 645.43,-295.74 659.98,-259.39 666.41,-238.82"/>
<polygon fill="#000000" fill-opacity="0.200000" stroke="#000000" stroke-width="2" stroke-opacity="0.200000" points="668.45,-239.33 668.15,-232.98 664.42,-238.13 668.45,-239.33"/>
</g>
<!-- lib/Identity.js -->
<g id="node20" class="node">
<title>lib/Identity.js</title>
<g id="a_node20"><a xlink:href="lib/Identity.js" xlink:title="Identity.js">
<path fill="#ffffcc" stroke="black" d="M539,-419.74C539,-419.74 491,-419.74 491,-419.74 488,-419.74 485,-416.74 485,-413.74 485,-413.74 485,-407.74 485,-407.74 485,-404.74 488,-401.74 491,-401.74 491,-401.74 539,-401.74 539,-401.74 542,-401.74 545,-404.74 545,-407.74 545,-407.74 545,-413.74 545,-413.74 545,-416.74 542,-419.74 539,-419.74"/>
<text text-anchor="middle" x="515" y="-408.54" font-family="Helvetica,sans-Serif" font-size="9.00">Identity.js</text>
</a>
</g>
</g>
<!-- lib/identities/AccountIdentity.js&#45;&gt;lib/Identity.js -->
<g id="edge34" class="edge">
<title>lib/identities/AccountIdentity.js&#45;&gt;lib/Identity.js</title>
<path fill="none" stroke="#000000" stroke-width="2" stroke-opacity="0.200000" d="M371.97,-385.79C383.99,-389.25 398.08,-393.02 411,-395.74 433.43,-400.46 458.93,-404.19 478.94,-406.75"/>
<polygon fill="#000000" fill-opacity="0.200000" stroke="#000000" stroke-width="2" stroke-opacity="0.200000" points="478.75,-408.84 484.97,-407.5 479.28,-404.67 478.75,-408.84"/>
</g>
<!-- lib/identities/CertificateIdentity.js&#45;&gt;lib/Identity.js -->
<g id="edge35" class="edge">
<title>lib/identities/CertificateIdentity.js&#45;&gt;lib/Identity.js</title>
<path fill="none" stroke="#000000" stroke-width="2" stroke-opacity="0.200000" d="M395.09,-355.6C397.97,-357.32 400.64,-359.35 403,-361.74 413.91,-372.78 399.56,-385.25 411,-395.74 429.02,-412.26 456.76,-415.51 478.91,-414.9"/>
<polygon fill="#000000" fill-opacity="0.200000" stroke="#000000" stroke-width="2" stroke-opacity="0.200000" points="479.09,-416.99 485,-414.63 478.91,-412.8 479.09,-416.99"/>
</g>
<!-- lib/Order.js&#45;&gt;fs/promises -->
<g id="edge26" class="edge">
<title>lib/Order.js&#45;&gt;fs/promises</title>
<path fill="none" stroke="#000000" stroke-dasharray="5,2" stroke-opacity="0.200000" d="M260.01,-245.03C264.67,-242.86 268.99,-239.87 272,-235.74 288.38,-213.24 266.04,-134.82 280,-110.74 287.17,-98.36 299.89,-89.09 311.83,-82.61"/>
<polygon fill="#000000" fill-opacity="0.200000" stroke="#000000" stroke-opacity="0.200000" points="312.86,-84.44 317.23,-79.83 310.93,-80.71 312.86,-84.44"/>
</g>
<!-- lib/Order.js&#45;&gt;lib/HttpServer.js -->
<g id="edge24" class="edge">
<title>lib/Order.js&#45;&gt;lib/HttpServer.js</title>
<path fill="none" stroke="#000000" stroke-width="2" stroke-opacity="0.200000" d="M260.05,-255.44C264.59,-257.34 268.86,-260.01 272,-263.74 286.5,-280.95 263.67,-298.26 280,-313.74 319.89,-351.56 362.38,-289.7 403,-326.74 416.4,-338.96 397.79,-354.33 411,-366.74 426.8,-381.59 450.46,-385.58 471.11,-385.64"/>
<polygon fill="#000000" fill-opacity="0.200000" stroke="#000000" stroke-width="2" stroke-opacity="0.200000" points="471.17,-387.74 477.13,-385.55 471.1,-383.54 471.17,-387.74"/>
</g>
<!-- lib/Order.js&#45;&gt;lib/Authorisation.js -->
<g id="edge23" class="edge">
<title>lib/Order.js&#45;&gt;lib/Authorisation.js</title>
<path fill="none" stroke="#000000" stroke-width="2" stroke-opacity="0.200000" d="M253.68,-259.77C261.82,-263.49 271.36,-267.84 280,-271.74 291.23,-276.81 303.66,-282.37 314.32,-287.11"/>
<polygon fill="#000000" fill-opacity="0.200000" stroke="#000000" stroke-width="2" stroke-opacity="0.200000" points="313.7,-289.14 320.04,-289.66 315.41,-285.3 313.7,-289.14"/>
</g>
<!-- lib/Order.js&#45;&gt;lib/identities/CertificateIdentity.js -->
<g id="edge25" class="edge">
<title>lib/Order.js&#45;&gt;lib/identities/CertificateIdentity.js</title>
<path fill="none" stroke="#000000" stroke-width="2" stroke-opacity="0.200000" d="M260.29,-258.88C264.81,-261.37 269.01,-264.6 272,-268.74 289.04,-292.34 260.36,-312.26 280,-333.74 280.87,-334.69 281.79,-335.58 282.76,-336.41"/>
<polygon fill="#000000" fill-opacity="0.200000" stroke="#000000" stroke-width="2" stroke-opacity="0.200000" points="281.83,-338.33 287.93,-340.12 284.28,-334.92 281.83,-338.33"/>
</g>
<!-- lib/acme&#45;requests/CertificateRequest.js -->
<g id="node21" class="node">
<title>lib/acme&#45;requests/CertificateRequest.js</title>
<g id="a_node21"><a xlink:href="lib/acme-requests/CertificateRequest.js" xlink:title="CertificateRequest.js">
<path fill="#ffffcc" stroke="black" d="M564,-247.74C564,-247.74 466,-247.74 466,-247.74 463,-247.74 460,-244.74 460,-241.74 460,-241.74 460,-235.74 460,-235.74 460,-232.74 463,-229.74 466,-229.74 466,-229.74 564,-229.74 564,-229.74 567,-229.74 570,-232.74 570,-235.74 570,-235.74 570,-241.74 570,-241.74 570,-244.74 567,-247.74 564,-247.74"/>
<text text-anchor="middle" x="515" y="-236.54" font-family="Helvetica,sans-Serif" font-size="9.00">CertificateRequest.js</text>
</a>
</g>
</g>
<!-- lib/Order.js&#45;&gt;lib/acme&#45;requests/CertificateRequest.js -->
<g id="edge18" class="edge">
<title>lib/Order.js&#45;&gt;lib/acme&#45;requests/CertificateRequest.js</title>
<path fill="none" stroke="#000000" stroke-width="2" stroke-opacity="0.200000" d="M260.07,-250.24C293.27,-249.54 352.42,-248.08 403,-245.74 419.49,-244.98 437.35,-243.94 453.82,-242.9"/>
<polygon fill="#000000" fill-opacity="0.200000" stroke="#000000" stroke-width="2" stroke-opacity="0.200000" points="453.97,-245 459.82,-242.52 453.7,-240.81 453.97,-245"/>
</g>
<!-- lib/acme&#45;requests/CheckOrderStatusRequest.js -->
<g id="node22" class="node">
<title>lib/acme&#45;requests/CheckOrderStatusRequest.js</title>
<g id="a_node22"><a xlink:href="lib/acme-requests/CheckOrderStatusRequest.js" xlink:title="CheckOrderStatusRequest.js">
<path fill="#ffffcc" stroke="black" d="M582,-277.74C582,-277.74 448,-277.74 448,-277.74 445,-277.74 442,-274.74 442,-271.74 442,-271.74 442,-265.74 442,-265.74 442,-262.74 445,-259.74 448,-259.74 448,-259.74 582,-259.74 582,-259.74 585,-259.74 588,-262.74 588,-265.74 588,-265.74 588,-271.74 588,-271.74 588,-274.74 585,-277.74 582,-277.74"/>
<text text-anchor="middle" x="515" y="-266.54" font-family="Helvetica,sans-Serif" font-size="9.00">CheckOrderStatusRequest.js</text>
</a>
</g>
</g>
<!-- lib/Order.js&#45;&gt;lib/acme&#45;requests/CheckOrderStatusRequest.js -->
<g id="edge19" class="edge">
<title>lib/Order.js&#45;&gt;lib/acme&#45;requests/CheckOrderStatusRequest.js</title>
<path fill="none" stroke="#000000" stroke-width="2" stroke-opacity="0.200000" d="M260.09,-252.42C299.79,-254.97 376.98,-259.93 435.88,-263.72"/>
<polygon fill="#000000" fill-opacity="0.200000" stroke="#000000" stroke-width="2" stroke-opacity="0.200000" points="435.76,-265.81 441.88,-264.1 436.03,-261.62 435.76,-265.81"/>
</g>
<!-- lib/acme&#45;requests/FinaliseOrderRequest.js -->
<g id="node23" class="node">
<title>lib/acme&#45;requests/FinaliseOrderRequest.js</title>
<g id="a_node23"><a xlink:href="lib/acme-requests/FinaliseOrderRequest.js" xlink:title="FinaliseOrderRequest.js">
<path fill="#ffffcc" stroke="black" d="M569.5,-187.74C569.5,-187.74 460.5,-187.74 460.5,-187.74 457.5,-187.74 454.5,-184.74 454.5,-181.74 454.5,-181.74 454.5,-175.74 454.5,-175.74 454.5,-172.74 457.5,-169.74 460.5,-169.74 460.5,-169.74 569.5,-169.74 569.5,-169.74 572.5,-169.74 575.5,-172.74 575.5,-175.74 575.5,-175.74 575.5,-181.74 575.5,-181.74 575.5,-184.74 572.5,-187.74 569.5,-187.74"/>
<text text-anchor="middle" x="515" y="-176.54" font-family="Helvetica,sans-Serif" font-size="9.00">FinaliseOrderRequest.js</text>
</a>
</g>
</g>
<!-- lib/Order.js&#45;&gt;lib/acme&#45;requests/FinaliseOrderRequest.js -->
<g id="edge20" class="edge">
<title>lib/Order.js&#45;&gt;lib/acme&#45;requests/FinaliseOrderRequest.js</title>
<path fill="none" stroke="#000000" stroke-width="2" stroke-opacity="0.200000" d="M260.36,-244.33C264.76,-242.22 268.9,-239.43 272,-235.74 283.38,-222.19 266.73,-208.44 280,-196.74 292.42,-185.79 383.36,-181.49 448.14,-179.81"/>
<polygon fill="#000000" fill-opacity="0.200000" stroke="#000000" stroke-width="2" stroke-opacity="0.200000" points="448.37,-181.9 454.32,-179.65 448.27,-177.7 448.37,-181.9"/>
</g>
<!-- lib/acme&#45;requests/NewOrderRequest.js -->
<g id="node24" class="node">
<title>lib/acme&#45;requests/NewOrderRequest.js</title>
<g id="a_node24"><a xlink:href="lib/acme-requests/NewOrderRequest.js" xlink:title="NewOrderRequest.js">
<path fill="#ffffcc" stroke="black" d="M563,-217.74C563,-217.74 467,-217.74 467,-217.74 464,-217.74 461,-214.74 461,-211.74 461,-211.74 461,-205.74 461,-205.74 461,-202.74 464,-199.74 467,-199.74 467,-199.74 563,-199.74 563,-199.74 566,-199.74 569,-202.74 569,-205.74 569,-205.74 569,-211.74 569,-211.74 569,-214.74 566,-217.74 563,-217.74"/>
<text text-anchor="middle" x="515" y="-206.54" font-family="Helvetica,sans-Serif" font-size="9.00">NewOrderRequest.js</text>
</a>
</g>
</g>
<!-- lib/Order.js&#45;&gt;lib/acme&#45;requests/NewOrderRequest.js -->
<g id="edge21" class="edge">
<title>lib/Order.js&#45;&gt;lib/acme&#45;requests/NewOrderRequest.js</title>
<path fill="none" stroke="#000000" stroke-width="2" stroke-opacity="0.200000" d="M260.24,-243.67C264.55,-241.64 268.68,-239.04 272,-235.74 278.78,-228.99 272.15,-221.22 280,-215.74 307.17,-196.74 394.75,-199.12 454.7,-203.34"/>
<polygon fill="#000000" fill-opacity="0.200000" stroke="#000000" stroke-width="2" stroke-opacity="0.200000" points="454.64,-205.44 460.78,-203.78 454.95,-201.25 454.64,-205.44"/>
</g>
<!-- lib/acmeCsr.js -->
<g id="node25" class="node">
<title>lib/acmeCsr.js</title>
<g id="a_node25"><a xlink:href="lib/acmeCsr.js" xlink:title="acmeCsr.js">
<path fill="#ffffcc" stroke="black" d="M368,-239.74C368,-239.74 315,-239.74 315,-239.74 312,-239.74 309,-236.74 309,-233.74 309,-233.74 309,-227.74 309,-227.74 309,-224.74 312,-221.74 315,-221.74 315,-221.74 368,-221.74 368,-221.74 371,-221.74 374,-224.74 374,-227.74 374,-227.74 374,-233.74 374,-233.74 374,-236.74 371,-239.74 368,-239.74"/>
<text text-anchor="middle" x="341.5" y="-228.54" font-family="Helvetica,sans-Serif" font-size="9.00">acmeCsr.js</text>
</a>
</g>
</g>
<!-- lib/Order.js&#45;&gt;lib/acmeCsr.js -->
<g id="edge22" class="edge">
<title>lib/Order.js&#45;&gt;lib/acmeCsr.js</title>
<path fill="none" stroke="#000000" stroke-width="2" stroke-opacity="0.200000" d="M260.05,-245.85C272.88,-243.44 288.58,-240.49 302.69,-237.84"/>
<polygon fill="#000000" fill-opacity="0.200000" stroke="#000000" stroke-width="2" stroke-opacity="0.200000" points="303.12,-239.9 308.63,-236.72 302.35,-235.77 303.12,-239.9"/>
</g>
<!-- lib/acme&#45;requests/CertificateRequest.js&#45;&gt;lib/AcmeRequest.js -->
<g id="edge28" class="edge">
<title>lib/acme&#45;requests/CertificateRequest.js&#45;&gt;lib/AcmeRequest.js</title>
<path fill="none" stroke="#000000" stroke-width="2" stroke-opacity="0.200000" d="M570.04,-233.49C586.48,-231.9 604.46,-230.15 620.61,-228.58"/>
<polygon fill="#000000" fill-opacity="0.200000" stroke="#000000" stroke-width="2" stroke-opacity="0.200000" points="621.17,-230.64 626.94,-227.97 620.77,-226.46 621.17,-230.64"/>
</g>
<!-- lib/acme&#45;requests/CheckOrderStatusRequest.js&#45;&gt;lib/AcmeRequest.js -->
<g id="edge29" class="edge">
<title>lib/acme&#45;requests/CheckOrderStatusRequest.js&#45;&gt;lib/AcmeRequest.js</title>
<path fill="none" stroke="#000000" stroke-width="2" stroke-opacity="0.200000" d="M588.05,-261.85C598.59,-259.81 609.19,-257.17 619,-253.74 631.03,-249.54 643.41,-242.43 653.02,-236.19"/>
<polygon fill="#000000" fill-opacity="0.200000" stroke="#000000" stroke-width="2" stroke-opacity="0.200000" points="654.22,-237.91 658.05,-232.84 651.89,-234.42 654.22,-237.91"/>
</g>
<!-- lib/acme&#45;requests/FinaliseOrderRequest.js&#45;&gt;lib/AcmeRequest.js -->
<g id="edge30" class="edge">
<title>lib/acme&#45;requests/FinaliseOrderRequest.js&#45;&gt;lib/AcmeRequest.js</title>
<path fill="none" stroke="#000000" stroke-width="2" stroke-opacity="0.200000" d="M575.76,-183.5C590.18,-185.72 605.35,-188.97 619,-193.74 631.03,-197.94 643.41,-205.05 653.02,-211.29"/>
<polygon fill="#000000" fill-opacity="0.200000" stroke="#000000" stroke-width="2" stroke-opacity="0.200000" points="651.89,-213.06 658.05,-214.64 654.22,-209.57 651.89,-213.06"/>
</g>
<!-- lib/acme&#45;requests/NewOrderRequest.js&#45;&gt;lib/AcmeRequest.js -->
<g id="edge32" class="edge">
<title>lib/acme&#45;requests/NewOrderRequest.js&#45;&gt;lib/AcmeRequest.js</title>
<path fill="none" stroke="#000000" stroke-width="2" stroke-opacity="0.200000" d="M569.17,-213.9C585.96,-215.53 604.44,-217.33 620.97,-218.93"/>
<polygon fill="#000000" fill-opacity="0.200000" stroke="#000000" stroke-width="2" stroke-opacity="0.200000" points="620.79,-221.02 626.96,-219.51 621.19,-216.84 620.79,-221.02"/>
</g>
</g>
</svg>
